<svg width="724" height="782" viewBox="0 0 724 782" fill="none" xmlns="http://www.w3.org/2000/svg">
<path fill-rule="evenodd" clip-rule="evenodd" d="M572.358 22.4624C624.605 39.8873 670.256 71.5046 713.534 105.568C756.065 139.042 795.713 176.136 825.24 221.497C854.847 266.981 874.645 317.932 886.275 370.943C897.983 424.304 900.02 479.014 893.643 533.27C887.118 588.792 877.801 645.736 848.39 693.279C819.062 740.688 771.232 772.67 725.673 804.797C681.228 836.137 635.108 865.831 582.765 880.588C530.724 895.259 476.139 894.561 422.235 890.343C368.359 886.128 313.622 879.862 265.261 855.747C217.096 831.73 183.032 788.31 143.776 751.493C102.785 713.048 51.7509 682.442 26.7902 632.09C1.61343 581.304 -1.02568 521.937 1.91482 465.329C4.78681 410.039 24.2914 357.887 43.7263 306.046C63.1122 254.336 81.9731 201.795 116.784 158.924C152.054 115.489 197.902 82.0163 247.17 55.4989C296.767 28.8049 350.263 8.79343 406.299 3.10067C462.218 -2.58022 519.039 4.67971 572.358 22.4624Z" fill="#D6E0EE"/>
<path d="M63.0506 353.342L50.2196 374.025L56.5896 377.925C57.4824 378.506 58.1976 379.322 58.6563 380.283C59.1151 381.244 59.2996 382.313 59.1896 383.372C59.0853 384.552 59.0463 385.737 59.0726 386.921C59.1091 387.999 58.8466 389.067 58.3144 390.005C57.7821 390.943 57.0007 391.716 56.0566 392.238L49.5566 395.761L61.1006 417.263L67.6006 413.74C68.5254 413.244 69.5689 413.012 70.6167 413.069C71.6646 413.127 72.6765 413.471 73.5416 414.065C74.6034 414.807 75.7058 415.488 76.8436 416.106C77.7679 416.615 78.5322 417.371 79.0511 418.289C79.57 419.207 79.823 420.252 79.7816 421.306L79.5476 428.755L103.884 429.509L104.105 422.034C104.139 420.978 104.466 419.952 105.049 419.071C105.632 418.189 106.448 417.487 107.407 417.042C107.979 416.769 108.538 416.483 109.097 416.184C109.656 415.885 110.202 415.573 110.735 415.248C111.632 414.696 112.665 414.404 113.718 414.404C114.772 414.404 115.804 414.696 116.702 415.248L123.085 419.148L135.903 398.465L129.52 394.5C128.626 393.921 127.91 393.105 127.451 392.144C126.992 391.182 126.808 390.113 126.92 389.053C127.024 387.878 127.063 386.697 127.037 385.517C127.001 384.438 127.266 383.37 127.801 382.431C128.335 381.493 129.119 380.72 130.066 380.2L136.566 376.677L125.061 355.227L118.483 358.75C117.528 359.25 116.454 359.474 115.38 359.398C114.306 359.322 113.273 358.949 112.399 358.321C111.424 357.645 110.41 357.021 109.383 356.462C108.436 355.968 107.646 355.22 107.101 354.301C106.557 353.382 106.28 352.33 106.302 351.262L106.601 343.8L82.2776 343.033L82.0436 350.508C81.9997 351.575 81.6605 352.61 81.0638 353.496C80.4671 354.381 79.6362 355.084 78.6636 355.526C78.1176 355.773 77.5846 356.046 77.0516 356.332C76.5186 356.618 75.9986 356.917 75.4916 357.229C74.5786 357.79 73.5278 358.087 72.4561 358.087C71.3844 358.087 70.3337 357.79 69.4206 357.229L63.0506 353.342ZM81.4326 370.086C84.818 367.657 88.8791 366.35 93.0456 366.348C97.2121 366.345 101.275 367.648 104.663 370.072C108.051 372.497 110.595 375.922 111.937 379.867C113.279 383.811 113.351 388.077 112.145 392.065C110.938 396.053 108.513 399.563 105.209 402.102C101.906 404.64 97.8897 406.081 93.7256 406.22C89.5614 406.36 85.4581 405.192 81.9919 402.88C78.5257 400.568 75.8706 397.228 74.3996 393.33C72.8494 389.222 72.6984 384.717 73.97 380.514C75.2417 376.311 77.8649 372.646 81.4326 370.086Z" fill="#D6E0EE" style="mix-blend-mode:multiply"/>
<path d="M596.7 151.4C596.155 151.081 595.71 150.617 595.413 150.059C595.117 149.501 594.982 148.872 595.023 148.241C595.023 147.89 595.023 147.539 595.023 147.188C595.023 146.837 595.023 146.473 595.023 146.122C594.982 145.492 595.117 144.863 595.413 144.305C595.71 143.747 596.155 143.283 596.7 142.963L600.509 140.766L593.359 128.351L589.498 130.6C588.949 130.915 588.324 131.07 587.692 131.047C587.06 131.024 586.447 130.824 585.923 130.47C585.325 130.093 584.714 129.729 584.077 129.404C583.514 129.122 583.041 128.69 582.708 128.155C582.375 127.621 582.197 127.005 582.192 126.375V121.942H567.892V126.323C567.877 126.947 567.69 127.554 567.353 128.079C567.016 128.604 566.541 129.027 565.981 129.3C565.344 129.625 564.681 129.989 564.135 130.366C563.611 130.72 562.998 130.92 562.366 130.943C561.734 130.966 561.108 130.811 560.56 130.496L556.751 128.299L549.588 140.714L553.41 142.924C553.966 143.243 554.419 143.712 554.719 144.278C555.018 144.844 555.15 145.484 555.1 146.122C555.1 146.473 555.1 146.824 555.1 147.175C555.1 147.526 555.1 147.877 555.1 148.228C555.142 148.862 555.006 149.495 554.707 150.055C554.409 150.616 553.959 151.082 553.41 151.4L549.588 153.597L556.751 166.012L560.547 163.815C561.095 163.501 561.72 163.346 562.351 163.367C562.982 163.387 563.595 163.583 564.122 163.932C564.72 164.327 565.341 164.688 565.981 165.011C566.542 165.294 567.014 165.727 567.344 166.262C567.675 166.796 567.851 167.412 567.853 168.04V172.421H582.153V168.027C582.158 167.398 582.336 166.782 582.669 166.248C583.002 165.713 583.475 165.281 584.038 164.998C584.676 164.672 585.297 164.312 585.897 163.919C586.421 163.57 587.032 163.374 587.661 163.353C588.291 163.333 588.913 163.488 589.459 163.802L593.268 165.999L600.418 153.584L596.7 151.4ZM575.068 158.927C572.754 158.927 570.492 158.241 568.568 156.956C566.644 155.67 565.144 153.843 564.258 151.705C563.373 149.567 563.141 147.214 563.593 144.945C564.044 142.675 565.158 140.591 566.795 138.954C568.431 137.318 570.516 136.204 572.785 135.752C575.055 135.301 577.407 135.532 579.545 136.418C581.683 137.304 583.51 138.803 584.796 140.727C586.082 142.651 586.768 144.913 586.768 147.227C586.766 148.766 586.461 150.289 585.87 151.71C585.279 153.13 584.413 154.42 583.323 155.506C582.232 156.592 580.938 157.451 579.515 158.036C578.092 158.621 576.568 158.92 575.029 158.914L575.068 158.927Z" fill="#D6E0EE" style="mix-blend-mode:multiply"/>
<path d="M39.9873 632.086L111.24 631.774L182.493 631.657L324.999 631.449L467.505 631.657L538.758 631.774L610.011 632.086L538.758 632.411L467.505 632.528L324.999 632.736L182.493 632.528L111.24 632.411L39.9873 632.086Z" fill="#263238"/>
<path d="M598.365 180.01H382.825V397.864H598.365V180.01Z" fill="#D6E0EE" style="mix-blend-mode:multiply"/>
<path d="M481.922 166.867C489.111 158.43 501.422 156.402 513.33 158.807C525.238 161.212 539.499 167.218 540.799 187.134C541.865 203.306 536.899 219.075 536.899 237.119C536.899 255.163 557.322 299.116 524.64 320.566C495.273 339.832 435.772 322.139 433.939 282.476C432.496 251.042 469.78 221.974 473.706 209.533C477.632 197.092 474.044 176.097 481.922 166.867Z" fill="#263238"/>
<path d="M476.555 184.616C476.334 193.612 475.034 202.712 471.355 211.201C470.4 213.351 469.153 215.359 467.65 217.168C466.207 218.988 464.673 220.704 463.139 222.368C460.045 225.735 456.99 229.076 454.039 232.547C448.177 239.348 443.334 246.963 439.661 255.154C436.138 263.384 434.202 272.205 433.954 281.154C433.587 276.638 433.723 272.095 434.357 267.608C435.059 263.099 436.222 258.673 437.828 254.4C441.214 245.84 446.013 237.908 452.024 230.935C454.975 227.412 458.108 224.045 461.228 220.717C464.348 217.389 467.507 214.217 469.444 210.317C471.43 206.33 472.944 202.124 473.955 197.785C475.095 193.454 475.964 189.056 476.555 184.616Z" fill="#263238"/>
<path d="M539.981 200.721C539.76 209.899 539.175 219.064 539.422 228.177C539.529 232.715 539.911 237.243 540.566 241.736C541.242 246.156 542.568 250.576 543.673 255.048C544.778 259.52 545.766 264.057 546.494 268.633C547.198 273.23 547.494 277.88 547.378 282.53C547.166 287.202 546.291 291.82 544.778 296.245C543.033 300.594 540.429 304.547 537.121 307.867C540.019 304.304 542.224 300.23 543.621 295.855C544.833 291.504 545.437 287.007 545.415 282.491C545.047 273.4 543.624 264.383 541.177 255.62C540.137 251.161 538.811 246.741 538.174 242.048C537.577 237.45 537.343 232.812 537.472 228.177C537.747 218.982 538.585 209.813 539.981 200.721Z" fill="#263238"/>
<path d="M492.7 277.902C462.8 310.818 438.399 326.626 414.349 326.626C391.482 326.626 342.628 271.103 339.04 263.784C335.946 257.466 376.051 222.899 382.213 227.202C392.613 234.404 425.971 276.095 429.507 276.29C433.043 276.485 446.069 267.879 477.438 253.189C496.496 244.284 513.5 255.087 492.7 277.902Z" fill="#EB9481"/>
<path d="M343.694 269.255C339.3 264.497 320.853 240.746 317.2 232.998C313.547 225.25 304.694 202.188 310.349 198.795C316.004 195.402 319.124 201.941 319.124 201.941C319.124 201.941 316.927 191.619 322.933 188.72C328.939 185.821 333.463 196.156 333.463 196.156C333.463 196.156 331.981 185.392 338.169 182.922C344.357 180.452 347.191 191.632 347.191 191.632C347.191 191.632 345.371 181.843 351.325 181.96C358.488 182.103 359.801 200.524 364.468 208.779C365.521 210.651 388.635 245.179 388.635 245.179L343.694 269.255Z" fill="#EB9481"/>
<path d="M346.946 190.683C347.947 204.216 350.729 209.975 358.646 220.726C358.802 220.934 358.529 221.207 358.347 221.012C349.598 211.184 345.074 204.476 346.257 190.696C346.348 190.02 346.894 190.033 346.946 190.683Z" fill="#263238"/>
<path d="M333.423 195.091C335.685 209.066 338.623 215.332 346.15 227.201C346.254 227.37 345.981 227.565 345.864 227.409C337.531 216.372 333.163 209.573 332.734 195.312C332.708 194.662 333.319 194.441 333.423 195.091Z" fill="#263238"/>
<path d="M319.54 202.541C322.712 215.918 325.663 222.925 334.425 233.507C334.633 233.767 334.282 234.092 334.061 233.858C324.077 223.926 320.333 215.203 319.15 202.658C319.072 201.826 319.345 201.696 319.54 202.541Z" fill="#263238"/>
<path d="M398.944 248.483C398.944 248.483 398.645 231.466 396.864 224.017C395.083 216.568 378.3 191.27 372.567 194.598C365.248 198.888 372.086 215.398 376.467 223.068C376.467 223.068 359.567 233 361.868 245.922C364.169 258.844 398.944 248.483 398.944 248.483Z" fill="#EB9481"/>
<path d="M370.942 196.431C367.042 205.167 373.542 214.852 377.247 222.587C377.306 222.698 377.338 222.822 377.34 222.948C377.342 223.074 377.314 223.199 377.258 223.312C377.202 223.425 377.12 223.524 377.019 223.599C376.917 223.674 376.799 223.723 376.675 223.744C369.837 228.385 361.556 236.9 361.452 245.61C361.452 245.661 361.431 245.711 361.395 245.747C361.358 245.784 361.308 245.805 361.257 245.805C361.205 245.805 361.155 245.784 361.119 245.747C361.082 245.711 361.062 245.661 361.062 245.61C359.905 236.25 367.354 227.202 375.154 222.613C371.254 214.722 365.183 204.738 370.864 196.353L370.942 196.431Z" fill="#263238"/>
<path d="M441.142 266.719L465.166 311.543C465.166 311.543 497.744 279.914 502.944 266.719C508.144 253.524 502.541 243.943 479.362 251.002C466.12 254.927 453.313 260.193 441.142 266.719Z" fill="#DC7B2C"/>
<path d="M470.717 302.197C469.534 299.766 468.494 297.257 467.259 294.839C466.024 292.421 464.789 290.029 463.502 287.663C460.902 282.879 458.302 278.082 455.598 273.363C454.064 270.763 452.452 268.085 450.775 265.563C450.71 265.446 450.489 265.563 450.554 265.654C454.961 275.521 460.304 284.972 465.634 294.358C467.181 297.075 468.936 299.662 470.548 302.34C470.6 302.405 470.782 302.288 470.717 302.197Z" fill="#263238"/>
<path d="M502.943 266.721C497.743 279.916 465.165 311.545 465.165 311.545L448.98 281.398L502.371 251.875C505.439 255.073 505.4 260.494 502.943 266.721Z" fill="#263238"/>
<path d="M446.615 342.185C446.615 342.185 433.407 373.801 438.074 397.851H583.7C578.968 332.474 546.377 276.288 527.124 258.101C511.602 243.437 495.261 244.75 483.886 252.251C481.208 254.032 451.659 294.865 448.461 301.326C435.773 326.819 446.615 342.185 446.615 342.185Z" fill="#DC7B2C"/>
<path d="M484.901 250.331C484.901 250.331 475.801 276.5 481.079 277.865C494.209 281.245 511.824 259.808 512.877 257.624C513.137 257.065 514.307 242.414 515.178 231.013C515.737 223.681 516.166 217.688 516.166 217.688L483.77 228.803L484.81 248.888L484.901 250.331Z" fill="#EB9481"/>
<path d="M483.717 228.803L484.757 248.888C491.348 247.965 505.843 244.39 515.125 231.013C515.684 223.681 516.113 217.688 516.113 217.688L512.057 218.988L483.717 228.803Z" fill="#263238"/>
<path d="M459.588 200.682C459.198 210.887 460.212 219.142 462.695 224.628C464.822 229.314 468.207 233.318 472.473 236.196C476.74 239.074 481.72 240.712 486.862 240.93C490.762 241.073 501.994 240.046 510.119 233.858C516.437 229.048 520.246 220.377 522.404 205.128C527.344 170.262 511.393 158.536 495.676 157.132C479.959 155.728 460.888 165.504 459.588 200.682Z" fill="#EB9481"/>
<path d="M468.599 192.907C469.418 192.79 470.172 192.556 470.965 192.374C471.827 192.296 472.642 191.946 473.292 191.373C473.454 191.15 473.542 190.882 473.542 190.606C473.542 190.33 473.454 190.062 473.292 189.839C472.887 189.463 472.39 189.201 471.851 189.08C471.312 188.959 470.75 188.983 470.224 189.15C469.103 189.328 468.088 189.917 467.377 190.801C467.209 191.006 467.108 191.257 467.086 191.521C467.065 191.785 467.125 192.049 467.258 192.278C467.39 192.507 467.59 192.69 467.83 192.802C468.069 192.914 468.338 192.951 468.599 192.907Z" fill="#263238"/>
<path d="M491.569 193.777C490.771 193.636 489.982 193.454 489.203 193.231C488.341 193.159 487.527 192.802 486.889 192.217C486.726 191.994 486.639 191.726 486.639 191.45C486.639 191.174 486.726 190.906 486.889 190.683C487.297 190.308 487.798 190.048 488.339 189.932C488.881 189.815 489.444 189.846 489.97 190.02C491.1 190.201 492.121 190.799 492.83 191.697C492.993 191.905 493.089 192.157 493.105 192.421C493.12 192.685 493.055 192.947 492.919 193.173C492.782 193.399 492.579 193.578 492.338 193.685C492.097 193.793 491.829 193.825 491.569 193.777Z" fill="#263238"/>
<path d="M485.824 202.565C485.824 202.474 486.006 202.682 486.006 202.786C485.811 205.165 486.006 207.986 488.125 208.844C488.125 208.844 488.125 208.987 488.125 208.974C485.473 208.48 485.265 204.788 485.824 202.565Z" fill="#263238"/>
<path d="M488.085 200.161C491.985 200.057 491.881 207.792 488.293 207.896C484.705 208 484.9 200.252 488.085 200.161Z" fill="#263238"/>
<path d="M489.607 200.591C490.27 201.033 490.907 201.813 491.739 201.891C492.571 201.969 493.403 201.189 494.027 200.409C494.092 200.331 494.157 200.409 494.157 200.5C494.157 201.982 493.585 203.503 491.986 203.711C490.387 203.919 489.516 202.567 489.152 201.111C489.087 200.799 489.334 200.409 489.607 200.591Z" fill="#263238"/>
<path d="M473.018 201.552C473.018 201.461 472.836 201.669 472.836 201.76C472.836 204.165 472.589 206.96 470.418 207.714C470.353 207.714 470.353 207.857 470.418 207.844C473.083 207.48 473.473 203.814 473.018 201.552Z" fill="#263238"/>
<path d="M470.886 199.042C466.986 198.743 466.713 206.478 470.288 206.751C473.863 207.024 474.11 199.302 470.886 199.042Z" fill="#263238"/>
<path d="M469.301 199.499C468.677 199.889 468.001 200.604 467.312 200.63C466.623 200.656 465.869 199.785 465.362 198.966C465.362 198.875 465.245 198.966 465.232 199.044C465.141 200.526 465.557 202.073 466.974 202.424C468.391 202.775 469.262 201.501 469.665 200.045C469.691 199.759 469.496 199.343 469.301 199.499Z" fill="#263238"/>
<path d="M485.59 221.18C485.031 221.765 484.485 222.558 483.627 222.662C482.735 222.669 481.851 222.497 481.027 222.155C481.011 222.142 480.991 222.135 480.97 222.136C480.949 222.137 480.93 222.146 480.916 222.162C480.902 222.177 480.895 222.198 480.897 222.219C480.898 222.239 480.907 222.259 480.923 222.272C481.284 222.731 481.761 223.084 482.306 223.295C482.85 223.505 483.441 223.565 484.017 223.468C484.497 223.318 484.923 223.032 485.244 222.644C485.565 222.257 485.766 221.784 485.824 221.284C485.831 221.255 485.828 221.223 485.814 221.196C485.801 221.169 485.778 221.147 485.75 221.134C485.722 221.122 485.691 221.12 485.662 221.128C485.632 221.137 485.607 221.155 485.59 221.18Z" fill="#263238"/>
<path d="M475.799 212.303C475.799 212.303 475.227 215.878 475.201 217.568C475.201 217.724 475.604 217.802 476.176 217.854C476.176 217.854 476.176 217.854 476.241 217.854C477.676 218.138 479.162 218.024 480.536 217.524C481.911 217.025 483.123 216.159 484.041 215.02C484.158 214.864 483.95 214.682 483.794 214.786C481.61 216.209 479.026 216.893 476.423 216.736C476.319 216.255 477.606 210.652 477.333 210.626C476.003 210.709 474.69 210.976 473.433 211.419C474.408 203.944 476.566 196.69 477.411 189.241C477.411 188.981 477.06 188.89 476.982 189.124C474.174 196.56 472.874 205.14 471.665 212.823C471.561 213.798 475.071 212.589 475.799 212.303Z" fill="#263238"/>
<path d="M477.256 216.971C478.088 218.245 479.234 219.284 480.584 219.987C481.328 220.341 482.163 220.459 482.976 220.325C484.757 220 484.926 218.401 484.718 217.01C484.591 216.269 484.382 215.545 484.094 214.852C482.099 216.27 479.703 217.012 477.256 216.971Z" fill="#263238"/>
<path d="M480.584 219.987C481.328 220.342 482.163 220.46 482.976 220.325C484.757 220 484.926 218.401 484.718 217.01C483.794 216.969 482.884 217.24 482.134 217.78C481.384 218.32 480.838 219.098 480.584 219.987Z" fill="#FF98B9"/>
<path d="M521.769 201.994C517.934 202.111 507.053 192.543 505.077 174.161C505.077 174.161 508.002 190.541 509.458 192.842C510.914 195.143 503.374 187.447 501.567 172.653C501.567 172.653 493.897 179.335 487.059 181.935C480.221 184.535 475.944 184.873 475.359 184.405C474.774 183.937 484.823 179.751 487.319 176.293C487.319 176.293 469.47 186.693 460.942 188.097C459.954 188.253 461.618 172.9 474.111 163.02C486.604 153.14 503.777 155.61 509.939 160.55C509.939 160.55 516.673 160.901 524.785 170.066C532.897 179.231 525.89 201.864 521.769 201.994Z" fill="#263238"/>
<path d="M516.711 207.61C516.711 207.61 523.848 196.261 528.957 198.757C534.066 201.253 529.087 217.438 523.354 219.895C522.64 220.264 521.859 220.484 521.058 220.543C520.257 220.601 519.453 220.496 518.693 220.235C517.934 219.974 517.235 219.561 516.64 219.023C516.044 218.484 515.564 217.83 515.229 217.1L516.711 207.61Z" fill="#EB9481"/>
<path d="M527.41 203.398C527.514 203.398 527.527 203.515 527.41 203.554C523.393 205.413 521.43 209.326 520.104 213.343C521.261 211.757 522.873 210.847 524.979 212.199C525.083 212.264 524.979 212.446 524.875 212.42C524.152 212.244 523.391 212.291 522.695 212.555C521.999 212.82 521.399 213.29 520.975 213.902C520.274 214.953 519.682 216.073 519.207 217.243C519.038 217.62 518.362 217.464 518.492 217.035C518.487 217.001 518.487 216.966 518.492 216.931C518.128 211.679 521.833 204.165 527.41 203.398Z" fill="#263238"/>
<path d="M538.396 265.242C552.8 281.869 593.178 342.059 583.818 358.322C574.835 373.922 554.464 378.316 542.738 357.36C534.301 342.371 520.118 297.651 516.595 276.201C513.735 258.833 525.084 249.863 538.396 265.242Z" fill="#EB9481"/>
<path d="M524.941 318.528L572.677 300.991C572.677 300.991 545.884 264.318 533.547 257.337C521.21 250.356 510.94 254.568 514.71 278.501C516.739 292.159 520.168 305.572 524.941 318.528Z" fill="#DC7B2C"/>
<path d="M564.201 294.177C561.601 295.022 559.001 295.698 556.401 296.582C553.801 297.466 551.305 298.363 548.783 299.312C543.674 301.21 538.578 303.108 533.521 305.149C530.687 306.293 527.853 307.528 525.084 308.828C524.954 308.828 525.006 309.101 525.084 309.062C535.484 306.072 545.572 302.094 555.608 298.129C558.52 296.972 561.315 295.529 564.188 294.372C564.383 294.32 564.292 294.138 564.201 294.177Z" fill="#263238"/>
<path d="M527.632 317.409C526.687 317.618 525.76 317.905 524.863 318.267C523.563 315.446 520.482 303.044 519.767 299.859C518.337 293.515 517.167 287.106 515.672 280.762C515.672 280.58 515.321 280.632 515.347 280.762C515.789 284.285 516.335 287.795 516.946 291.279C516.296 289.615 515.646 287.938 515.139 286.235C515.144 286.223 515.146 286.21 515.145 286.198C515.144 286.185 515.14 286.172 515.133 286.161C515.125 286.151 515.116 286.142 515.104 286.136C515.093 286.129 515.08 286.126 515.067 286.126C515.054 286.126 515.042 286.129 515.03 286.136C515.019 286.142 515.009 286.151 515.002 286.161C514.995 286.172 514.991 286.185 514.99 286.198C514.988 286.21 514.991 286.223 514.996 286.235C515.587 288.351 516.312 290.426 517.167 292.449C517.674 298.949 523.589 319.606 523.758 319.528C525.095 318.922 526.397 318.24 527.658 317.487C527.801 317.526 527.801 317.396 527.632 317.409Z" fill="#263238"/>
<path d="M504.024 195.04L490.439 253.033C489.854 254.736 490.725 256.101 492.389 256.075L518.324 261.353C519.233 261.269 520.099 260.929 520.822 260.372C521.545 259.815 522.094 259.064 522.406 258.207L535.991 200.214C536.576 198.511 535.705 197.146 534.041 197.185L508.106 191.894C507.197 191.977 506.331 192.317 505.608 192.874C504.885 193.431 504.336 194.182 504.024 195.04Z" fill="#A6A6A6"/>
<path d="M506.246 195.364L492.7 253.357C492.115 255.06 492.986 256.425 494.65 256.399L520.585 261.677C521.492 261.595 522.357 261.257 523.08 260.702C523.802 260.147 524.353 259.399 524.667 258.544L538.2 200.551C538.785 198.835 537.914 197.483 536.25 197.509L510.328 192.218C509.42 192.305 508.556 192.647 507.834 193.204C507.112 193.76 506.562 194.509 506.246 195.364Z" fill="#DBDBDB"/>
<path d="M514.463 197.859C514.476 198.379 514.332 198.891 514.051 199.329C513.77 199.767 513.363 200.11 512.885 200.314C512.407 200.519 511.878 200.575 511.367 200.475C510.857 200.376 510.387 200.126 510.02 199.757C509.654 199.388 509.406 198.918 509.309 198.407C509.212 197.895 509.271 197.367 509.478 196.89C509.685 196.412 510.03 196.008 510.469 195.729C510.908 195.45 511.421 195.309 511.941 195.324C512.611 195.328 513.252 195.596 513.725 196.071C514.198 196.546 514.463 197.189 514.463 197.859Z" fill="#263238"/>
<path d="M549.667 362.608C558.104 378.208 580.438 369.316 583.818 358.318C591.748 332.513 586.834 289.613 582.102 265.654C580.581 257.945 528.217 265.654 528.529 273.987C528.893 284.062 533.131 331.928 549.667 362.608Z" fill="#EB9481"/>
<path d="M581.517 277.108C584.155 265.74 584.315 253.938 581.985 242.502C579.229 230.035 570.22 203.593 534.002 191.802C525.409 188.994 511.174 191.087 523.602 200.759C532.39 207.636 540.034 209.339 544.402 214.279C544.402 214.279 526.618 219.089 524.148 227.799C521.986 235.423 520.365 243.191 519.299 251.043C520.692 251.565 522.116 252 523.563 252.343C522.799 259.927 524.564 267.55 528.581 274.027L581.517 277.108Z" fill="#EB9481"/>
<path d="M577.447 231.024C572.065 227.124 560.547 218.83 548.73 215.424C535.626 211.524 509.379 207.754 506.649 217.439C504.647 224.55 514.54 226.903 514.54 226.903C514.54 226.903 503.36 227.605 502.957 234.417C502.593 240.631 510.354 241.996 510.354 241.996C510.354 241.996 503.646 243.582 504.439 249.64C505.401 256.907 519.324 252.383 526.669 258.909C528.32 260.339 577.447 231.024 577.447 231.024Z" fill="#EB9481"/>
<path d="M546.989 229.893C541.321 226.981 526.735 223.692 514.749 226.669C514.476 226.669 514.385 226.968 514.645 226.968C525.501 226.675 536.352 227.696 546.963 230.01C547.028 230.036 547.054 229.919 546.989 229.893Z" fill="#263238"/>
<path d="M542.75 242.997C537.55 240.995 522.405 238.265 510.367 241.697C510.094 241.775 510.016 242.022 510.276 242.009C521.116 241.143 532.02 241.518 542.776 243.127C542.793 243.124 542.808 243.114 542.818 243.099C542.827 243.084 542.831 243.066 542.828 243.049C542.824 243.032 542.814 243.017 542.799 243.007C542.785 242.997 542.767 242.994 542.75 242.997Z" fill="#263238"/>
<path d="M544.882 351.742C544.492 350.442 544.115 349.142 543.699 347.959C542.841 345.359 542.1 342.759 541.346 340.159C539.812 334.959 538.343 329.681 537.056 324.377C534.488 313.805 532.539 303.092 531.219 292.293C530.855 289.303 530.543 286.313 530.218 283.323C529.893 280.333 529.789 277.226 529.217 274.223C529.217 274.067 527.696 271.779 527.098 270.648C526.478 269.472 525.935 268.256 525.473 267.008C524.501 264.463 523.842 261.808 523.51 259.104C523.503 259.087 523.492 259.073 523.477 259.063C523.462 259.052 523.444 259.047 523.426 259.047C523.408 259.047 523.39 259.052 523.375 259.063C523.36 259.073 523.348 259.087 523.341 259.104C523.172 262.182 523.56 265.264 524.485 268.204C525.286 270.663 526.669 272.893 528.515 274.704C528.515 275.094 528.606 279.904 528.762 282.595C528.918 285.286 529.165 287.977 529.464 290.655C530.075 296.037 530.829 301.406 531.778 306.749C533.633 317.557 536.213 328.228 539.5 338.69C539.5 338.859 539.617 339.028 539.669 339.197C539.669 339.587 539.669 339.977 539.669 340.367C539.688 341.329 539.767 342.288 539.903 343.24C540.17 345.134 540.636 346.995 541.294 348.791C541.288 348.807 541.286 348.824 541.289 348.84C541.291 348.857 541.297 348.873 541.306 348.887C541.316 348.9 541.329 348.912 541.344 348.919C541.358 348.927 541.375 348.931 541.392 348.931C541.408 348.931 541.425 348.927 541.44 348.919C541.455 348.912 541.468 348.9 541.477 348.887C541.487 348.873 541.493 348.857 541.495 348.84C541.497 348.824 541.495 348.807 541.489 348.791C541.028 346.912 540.715 344.999 540.553 343.071L540.319 341.095C541.034 343.201 541.788 345.307 542.529 347.4C543.049 348.856 543.582 350.273 544.18 351.69C544.778 353.107 545.246 354.485 545.948 355.798C545.948 355.902 546.156 355.798 546.13 355.72C545.805 354.329 545.285 353.055 544.882 351.742Z" fill="#263238"/>
<path d="M382.825 397.85V362.906L343.11 397.85H382.825Z" fill="#D6E0EE" style="mix-blend-mode:multiply"/>
<path d="M178.71 471.94C190.15 521.717 213.81 581.387 223.911 591.072C236.69 603.318 321.229 625.782 325.441 626.237C335.841 627.29 356.81 552.137 345.682 550.512C328.782 548.068 267.214 544.727 263.535 540.944C259.856 537.161 233.726 504.219 207.024 467.208C188.59 441.637 171.599 441.052 178.71 471.94Z" fill="#AD6359"/>
<path d="M317.07 622.18C318.305 622.804 335.972 631.696 346.892 634.855C355.043 637.221 378.677 643.396 382.174 634.673C384.566 628.745 371.085 623.48 361.647 619.541C356.668 617.461 350.532 612.261 352.001 609.063C354.601 603.473 367.38 609.063 375.804 613.977C392.093 623.441 413.79 640.484 423.735 632.177C427.492 629.057 423.124 623.363 416.741 617.786C427.141 624.286 438.165 629.616 442.468 626.314C444.951 624.429 445.068 621.842 443.69 618.904C446.888 619.944 449.709 619.736 451.685 617.604C455.052 614.068 453.414 608.868 449.722 603.525C450.355 603.46 450.964 603.244 451.498 602.896C452.032 602.547 452.474 602.077 452.79 601.523C459.927 590.642 424.19 559.403 411.853 556.478C375.518 547.833 337.22 549.445 337.22 549.445C322.946 560.898 317.031 622.154 317.07 622.18Z" fill="#AD6359"/>
<path d="M370.499 588.733C379.151 590.085 387.416 593.262 394.744 598.054C403.961 604.138 410.071 611.262 417.793 618.425C417.824 618.466 417.84 618.516 417.838 618.567C417.836 618.618 417.816 618.666 417.783 618.704C417.749 618.743 417.703 618.768 417.653 618.776C417.603 618.785 417.551 618.776 417.507 618.75C413.828 615.344 398.566 602.526 394.627 599.614C387.502 594.253 379.252 590.581 370.499 588.876C370.382 588.863 370.408 588.707 370.499 588.733Z" fill="#263238"/>
<path d="M377.271 573.3C386.826 575.9 396.615 578.5 405.481 583.076C415.179 588.016 422.771 596.076 430.181 603.876C434.671 608.53 439.052 613.296 443.324 618.176C443.493 618.384 443.22 618.709 443.038 618.501C435.464 610.493 427.664 602.693 419.638 595.101C412.21 588.05 403.463 582.537 393.898 578.877C388.438 576.784 382.822 575.133 377.206 573.469C377.128 573.443 377.167 573.274 377.271 573.3Z" fill="#263238"/>
<path d="M387.477 559.818C396.759 561.729 404.858 563.354 413.074 568.32C423.955 574.911 434.459 586 438.138 589.939C442.207 594.281 446.133 598.753 449.981 603.29C450.137 603.472 449.825 603.758 449.656 603.576C440.837 593.628 431.384 584.262 421.355 575.535C416.637 571.31 411.296 567.837 405.521 565.239C399.666 562.941 393.625 561.149 387.464 559.883C387.464 559.883 387.399 559.805 387.477 559.818Z" fill="#263238"/>
<path d="M331.369 546.456L305.369 628.824C305.369 628.824 234.974 608.726 222.169 594.855C209.364 580.984 185.561 509.354 178.58 474.631C171.599 439.908 189.149 440.831 205.282 462.658C221.415 484.485 261.585 537.603 263.782 538.76C265.979 539.917 331.369 546.456 331.369 546.456Z" fill="#DC7B2C"/>
<path opacity="0.1" d="M331.369 546.456L305.369 628.824C305.369 628.824 234.974 608.726 222.169 594.855C209.364 580.984 185.561 509.354 178.58 474.631C171.599 439.908 189.149 440.831 205.282 462.658C221.415 484.485 261.585 537.603 263.782 538.76C265.979 539.917 331.369 546.456 331.369 546.456Z" fill="black"/>
<path d="M298.609 592.229C301.768 582.518 304.992 572.833 307.774 563.005C309.36 557.428 310.972 551.838 312.506 546.248C312.571 546.027 312.22 545.91 312.142 546.118C308.593 555.738 305.057 565.397 301.95 575.173C298.843 584.949 295.684 594.673 292.72 604.384C291.043 609.948 289.522 615.538 288.183 621.193C288.183 621.297 288.339 621.362 288.378 621.258C292.252 611.755 295.437 602.005 298.609 592.229Z" fill="#263238"/>
<path d="M269.867 617.502L266.747 616.41C260.884 614.317 254.904 612.068 249.275 609.767C248.547 609.481 247.832 609.182 247.13 608.883C245.999 608.415 244.868 607.934 243.776 607.453L242.138 606.738L241.553 606.478L239.863 605.698C237.627 604.671 235.508 603.644 233.532 602.604L232.232 601.876C229.143 600.287 226.232 598.374 223.548 596.169C223.301 595.948 223.054 595.727 222.833 595.506C222.612 595.285 222.378 595.064 222.183 594.856C209.313 580.985 185.575 509.355 178.594 474.632L178.36 473.436V473.176C177.892 470.576 177.476 467.274 177.138 463.738C176.163 446.461 184.34 443.64 194.441 451.232C219.622 505.273 258.193 594.57 269.867 617.502Z" fill="#263238"/>
<path d="M233.35 631.333L79.9502 632.139C80.0802 628.837 101.92 532.247 119.288 496.601C141.557 450.893 153.088 447.201 159.887 444.757C168.662 441.611 184.288 443.171 187.993 444.926C192.205 446.889 205.595 470.263 210.392 487.41C219.986 521.899 235.508 629.227 233.35 631.333Z" fill="#EBEBEB"/>
<path d="M152.022 448.369C152.022 448.369 171.522 520.584 172.497 525.381C173.966 532.349 183.69 631.773 183.69 631.773L76.7646 632.137C76.7646 632.137 100.1 540.097 117.468 499.797C136.422 455.597 152.022 448.369 152.022 448.369Z" fill="#DC7B2C"/>
<g opacity="0.1">
<path d="M152.022 448.369C152.022 448.369 171.522 520.584 172.497 525.381C173.966 532.349 183.69 631.773 183.69 631.773L76.7646 632.137C76.7646 632.137 100.1 540.097 117.468 499.797C136.422 455.597 152.022 448.369 152.022 448.369Z" fill="black"/>
</g>
<path d="M189.396 446.043C189.968 448.344 207.947 507.013 209.195 521.638C210.586 537.862 222.884 632.138 222.884 632.138H238.484C238.484 632.138 215.903 496.691 209.702 482.378C197.014 453.167 189.396 446.043 189.396 446.043Z" fill="#DC7B2C"/>
<path opacity="0.1" d="M189.396 446.043C189.968 448.344 207.947 507.013 209.195 521.638C210.586 537.862 222.884 632.138 222.884 632.138H238.484C238.484 632.138 215.903 496.691 209.702 482.378C197.014 453.167 189.396 446.043 189.396 446.043Z" fill="black"/>
<path d="M131.833 465.255C106.145 492.776 43.6931 597.192 63.5051 616.237C83.3171 635.282 193.31 609.646 224.198 594.917C233.389 590.549 198.471 533.245 187.668 531.906C178.672 530.801 132.704 551.822 131.365 549.183C129.87 546.193 137.176 524.132 148.265 484.183C160.992 438.137 143.195 453.087 131.833 465.255Z" fill="#AD6359"/>
<path d="M233.323 513.421C255.657 510.301 261.923 512.94 279.33 500.304C290.783 492.01 301.001 495.767 294.462 508.936C283.776 530.49 255.8 540.552 245.062 541.254L233.323 513.421Z" fill="#AD6359"/>
<path d="M173.992 534.898C173.992 534.898 199.095 520.962 222.573 515.294C238.797 511.394 275.067 506.779 309.777 542.594C318.006 551.083 323.713 569.023 305.24 560.04C292.11 553.657 285.74 545.649 277.407 543.322C277.407 543.322 281.957 566.995 273.13 574.912C265.415 581.831 257.218 588.191 248.599 593.944C247.182 592.611 245.853 591.187 244.621 589.68C244.621 589.68 235.677 596.297 218.855 594.685L173.992 534.898Z" fill="#AD6359"/>
<path d="M238.666 514.098C246.466 518.141 262.729 526.994 273.545 538.876C285.57 552.084 305.161 580.736 295.32 589.576C288.118 596.011 279.72 585.676 279.72 585.676C279.72 585.676 285.323 599.235 277.536 603.616C270.451 607.62 264.393 599.274 264.393 599.274C264.393 599.274 266.382 608.075 258.803 610.61C249.703 613.652 247.025 594.698 235.13 589.81C232.413 588.64 238.666 514.098 238.666 514.098Z" fill="#AD6359"/>
<path d="M257.491 549.199C264.16 554.204 276.406 569.453 279.786 585.248C279.864 585.612 279.643 585.859 279.5 585.547C273.627 572.62 266.206 560.454 257.4 549.316C257.296 549.199 257.4 549.199 257.491 549.199Z" fill="#263238"/>
<path d="M244.518 561.717C249.835 566.631 261.756 582.907 264.629 599.04C264.694 599.404 264.447 599.638 264.33 599.313C259.124 586.103 252.438 573.526 244.401 561.821C244.323 561.743 244.401 561.652 244.518 561.717Z" fill="#263238"/>
<path d="M277.407 543.166C284.687 545.311 289.419 548.886 295.607 553.15C298.619 555.303 301.748 557.286 304.98 559.091C307.944 560.69 312.325 563.108 315.471 560.599C317.239 559.208 317.213 556.699 316.771 554.658C315.882 551.704 314.53 548.909 312.767 546.377C312.767 546.273 312.858 546.156 312.936 546.247C314.638 548.554 316.102 551.028 317.304 553.631C318.091 555.415 318.322 557.395 317.967 559.312C316.888 563.316 312.156 563.849 308.867 562.744C306.873 562.012 304.957 561.084 303.147 559.975C301.379 558.961 299.663 557.869 297.947 556.725C294.489 554.385 291.174 551.85 287.742 549.471C284.407 547.233 280.934 545.209 277.342 543.413C277.314 543.4 277.292 543.378 277.28 543.351C277.267 543.323 277.264 543.292 277.272 543.263C277.28 543.234 277.297 543.208 277.322 543.19C277.346 543.173 277.376 543.164 277.407 543.166Z" fill="#263238"/>
<path d="M292.654 568.775C290.769 564.628 280.564 547.338 277.262 543.334C277.25 543.314 277.245 543.291 277.248 543.268C277.251 543.244 277.261 543.223 277.278 543.206C277.294 543.19 277.316 543.179 277.339 543.177C277.362 543.174 277.385 543.179 277.405 543.191C283.086 548.573 292.199 562.86 294.305 567.436C296.411 572.012 298.829 577.745 298.829 582.776C298.829 590.381 293.785 591.876 291.926 592.201C289.702 592.604 287.406 592.228 285.426 591.135C283.11 589.72 281.11 587.844 279.55 585.623C279.472 585.519 279.615 585.376 279.706 585.48C282.306 588.483 286.726 591.434 290.847 590.888C291.761 590.802 292.649 590.533 293.457 590.098C294.266 589.662 294.978 589.069 295.553 588.353C296.68 586.524 297.113 584.352 296.775 582.23C296.167 577.545 294.774 572.997 292.654 568.775Z" fill="#263238"/>
<path d="M173.991 534.898L209.195 608.998C209.195 608.998 71.4992 639.912 59.6172 615.94C47.7352 591.968 101.217 498.16 125.306 470.834C153.243 439.166 156.805 449.943 150.656 478.01C144.156 507.39 131.767 549.874 131.767 549.874L173.991 534.898Z" fill="#DC7B2C"/>
<path opacity="0.1" d="M173.991 534.898L209.195 608.998C209.195 608.998 71.4992 639.912 59.6172 615.94C47.7352 591.968 101.217 498.16 125.306 470.834C153.243 439.166 156.805 449.943 150.656 478.01C144.156 507.39 131.767 549.874 131.767 549.874L173.991 534.898Z" fill="black"/>
<path d="M89.9206 569.594C102.621 560.773 116.568 553.899 131.3 549.197C135.473 547.897 139.685 546.662 143.897 545.453C144.027 545.453 144.079 545.622 143.897 545.661C136.55 548.038 129.349 550.843 122.33 554.059C115.318 557.179 108.385 560.425 101.53 563.796C97.6296 565.707 93.8336 567.8 90.0116 569.841C89.9859 569.836 89.9621 569.824 89.9423 569.806C89.9225 569.789 89.9074 569.767 89.8983 569.743C89.8892 569.718 89.8865 569.691 89.8904 569.666C89.8943 569.64 89.9047 569.615 89.9206 569.594Z" fill="#263238"/>
<path d="M173.628 534.703C172.939 534.885 135.278 547.326 134.043 547.898C134.199 547.326 140.959 527.306 141.973 524.368C142.064 524.082 142.155 523.783 142.259 523.497C142.935 522.197 143.637 520.897 144.274 519.597C145.08 517.894 145.886 516.165 146.679 514.397H146.601L144.001 519.428C143.598 520.195 143.221 520.988 142.844 521.781C143.507 519.714 144.144 517.634 144.781 515.541C145.795 512.226 146.705 508.872 147.602 505.518C147.602 505.401 147.472 505.375 147.433 505.518C145.431 511.355 143.247 517.127 141.232 522.964C139.217 528.801 131.469 550.264 131.534 550.264C131.599 550.264 173.004 535.626 173.81 535.301C173.849 535.289 173.885 535.269 173.917 535.243C173.949 535.217 173.975 535.185 173.994 535.149C174.014 535.113 174.026 535.073 174.03 535.032C174.034 534.991 174.03 534.95 174.018 534.911C174.006 534.871 173.986 534.835 173.96 534.803C173.934 534.771 173.902 534.745 173.866 534.726C173.829 534.707 173.79 534.695 173.749 534.691C173.708 534.687 173.667 534.691 173.628 534.703Z" fill="#263238"/>
<path d="M176.162 582.997C172.262 574.742 168.479 566.435 164.306 558.297C161.927 553.682 159.574 549.054 157.156 544.465C157.065 544.296 156.753 544.465 156.831 544.608C160.393 553.058 163.981 561.508 167.933 569.815C171.885 578.122 175.733 586.325 179.75 594.515C182.038 599.169 184.469 603.75 187.043 608.256C187.043 608.347 187.251 608.256 187.212 608.256C183.936 599.65 180.075 591.343 176.162 582.997Z" fill="#263238"/>
<path d="M210.977 610.143C209.599 607.855 207.857 604.579 206.388 602.343C205.998 601.758 205.543 601.875 205.855 602.486C206.908 604.566 207.779 606.893 208.806 608.986C206.882 609.376 204.906 609.714 203.008 610.117C200.772 610.585 198.549 611.066 196.313 611.521C191.927 612.388 187.542 613.255 183.157 614.121C174.265 615.777 165.338 617.233 156.377 618.489C138.424 621.118 120.347 622.815 102.219 623.572C97.1485 623.754 92.0655 623.845 86.9955 623.78C81.9944 623.793 76.9959 623.55 72.0195 623.052C71.8765 623.052 71.8505 623.273 72.0195 623.299C76.3016 624.204 80.6485 624.769 85.0195 624.989C89.6085 625.21 94.2105 625.314 98.8125 625.262C107.913 625.158 117.104 624.56 126.217 623.728C144.287 622.064 162.305 619.62 180.167 616.461C185.176 615.595 190.172 614.654 195.156 613.64C197.678 613.133 200.187 612.626 202.696 612.067C205.205 611.508 211.211 610.533 210.977 610.143Z" fill="#263238"/>
<path d="M189.422 472.992C180.322 475.501 164.033 462.046 157.377 450.892C156.922 450.125 157.819 441.857 158.43 431.756C158.781 425.633 159.015 418.756 158.781 412.542C158.781 411.242 198.34 420.628 198.34 420.628C198.34 420.628 194.96 433.862 195.428 444.756C195.469 445.632 195.591 446.502 195.792 447.356C195.828 447.492 195.854 447.631 195.87 447.772C196.845 452.595 198.223 470.561 189.422 472.992Z" fill="#AD6359"/>
<path d="M161.2 412.699C163.41 423.203 170.924 448.488 191.854 448.189C193.196 448.176 194.536 448.054 195.858 447.825C195.875 447.683 195.875 447.539 195.858 447.396C195.665 446.541 195.539 445.671 195.481 444.796C195.026 433.889 198.393 420.642 198.393 420.642C198.393 420.642 169.767 413.882 161.2 412.699Z" fill="#263238"/>
<path d="M203.06 393.784C202.618 403.378 209.092 411.464 217.516 411.854C225.94 412.244 233.116 404.756 233.545 395.162C233.974 385.568 227.5 377.482 219.089 377.105C210.678 376.728 203.489 384.19 203.06 393.784Z" fill="#455A64"/>
<path d="M232 395.691C232.482 385.018 225.28 376.023 215.913 375.599C206.546 375.175 198.561 383.484 198.078 394.156C197.595 404.829 204.798 413.824 214.165 414.248C223.532 414.671 231.517 406.363 232 395.691Z" fill="#C7C7C7"/>
<path d="M163.942 362.766C157.13 375.61 156.701 416.443 164.709 427.129C176.318 442.599 199.133 448.28 213.199 433.499C226.888 419.121 226.498 365.899 217.203 355.798C203.54 340.887 174.004 343.799 163.942 362.766Z" fill="#AD6359"/>
<path d="M197.898 394.33C197.898 394.226 197.677 394.473 197.69 394.59C197.833 397.333 197.547 400.505 195.09 401.467C195.012 401.467 195.025 401.636 195.09 401.623C198.132 401.129 198.47 396.917 197.898 394.33Z" fill="#263238"/>
<path d="M195.376 391.524C190.943 391.29 190.8 400.169 194.895 400.377C198.99 400.585 199.094 391.719 195.376 391.524Z" fill="#263238"/>
<path d="M213.29 394.67C213.29 394.566 213.498 394.813 213.498 394.917C213.368 397.673 213.68 400.845 216.098 401.794C216.176 401.794 216.098 401.963 216.098 401.95C213.095 401.469 212.718 397.257 213.29 394.67Z" fill="#263238"/>
<path d="M215.799 391.897C220.219 391.624 220.427 400.503 216.319 400.75C212.211 400.997 212.081 392.053 215.799 391.897Z" fill="#263238"/>
<path d="M191.398 384.423C192.698 384.358 193.777 384.085 195.012 383.903C196.315 383.878 197.573 383.421 198.587 382.603C198.859 382.29 199.02 381.895 199.043 381.481C199.067 381.067 198.952 380.657 198.717 380.315C198.149 379.717 197.431 379.281 196.638 379.053C195.845 378.824 195.006 378.811 194.206 379.015C192.512 379.15 190.93 379.915 189.773 381.16C189.531 381.458 189.38 381.82 189.337 382.202C189.295 382.584 189.364 382.971 189.535 383.315C189.706 383.659 189.973 383.946 190.304 384.143C190.634 384.339 191.014 384.437 191.398 384.423Z" fill="#263238"/>
<path d="M219.973 385.397C218.787 385.136 217.615 384.81 216.463 384.422C215.185 384.268 213.992 383.697 213.07 382.797C212.837 382.454 212.725 382.043 212.751 381.628C212.777 381.214 212.939 380.82 213.213 380.509C213.849 379.976 214.615 379.622 215.433 379.483C216.251 379.343 217.091 379.424 217.867 379.716C219.53 380.065 221.003 381.02 222.001 382.394C222.196 382.72 222.294 383.095 222.283 383.475C222.272 383.855 222.153 384.224 221.941 384.539C221.728 384.854 221.43 385.102 221.082 385.254C220.733 385.406 220.349 385.455 219.973 385.397Z" fill="#263238"/>
<path d="M192.88 419.824C193.53 420.474 194.18 421.371 195.168 421.475C196.191 421.466 197.2 421.245 198.132 420.825C198.151 420.821 198.17 420.822 198.188 420.829C198.206 420.835 198.222 420.846 198.234 420.861C198.246 420.876 198.254 420.893 198.257 420.912C198.26 420.931 198.257 420.95 198.249 420.968C197.851 421.505 197.313 421.923 196.695 422.177C196.076 422.431 195.4 422.512 194.739 422.411C194.18 422.255 193.68 421.937 193.301 421.497C192.922 421.058 192.68 420.517 192.607 419.941C192.568 419.785 192.776 419.72 192.88 419.824Z" fill="#263238"/>
<path d="M195.91 411.632C196.589 412.73 197.488 413.677 198.551 414.411C199.614 415.144 200.817 415.65 202.085 415.896C203.191 416.132 204.325 416.206 205.452 416.117C205.67 416.109 205.887 416.087 206.102 416.052L206.7 415.961C206.847 415.936 206.983 415.865 207.086 415.757C207.189 415.649 207.254 415.511 207.272 415.363C207.278 415.267 207.278 415.172 207.272 415.077V414.83C207.363 412.711 207.272 409.487 207.272 409.487C208.039 409.89 211.965 411.736 211.913 410.631C211.523 401.453 211.081 391.261 208.754 382.226C208.741 382.168 208.709 382.117 208.663 382.08C208.617 382.043 208.559 382.023 208.5 382.023C208.442 382.023 208.384 382.043 208.338 382.08C208.292 382.117 208.26 382.168 208.247 382.226C208.247 391.053 209.859 399.815 210.028 408.681C208.636 408.007 207.157 407.531 205.634 407.264C205.335 407.355 206.037 413.491 205.92 414.44C205.923 414.474 205.923 414.509 205.92 414.544C202.345 414.934 199.68 413.816 196.274 411.372C195.962 411.229 195.741 411.398 195.91 411.632Z" fill="#263238"/>
<path d="M204.217 415.014C203.035 416.51 201.485 417.675 199.719 418.394C198.744 418.755 197.681 418.805 196.677 418.537C194.493 417.913 194.467 415.937 194.896 414.182C195.136 413.278 195.48 412.406 195.923 411.582C198.252 413.58 201.157 414.783 204.217 415.014Z" fill="#263238"/>
<path d="M199.719 418.396C198.744 418.756 197.681 418.806 196.677 418.539C194.493 417.915 194.467 415.939 194.896 414.184C197.249 414.47 199.55 416.108 199.719 418.396Z" fill="#FF98B9"/>
<path opacity="0.2" d="M158.834 391.598C161.512 391.169 167.934 382.108 170.651 378.507C173.368 374.906 174.941 355.601 175.188 351.207C170.421 353.903 166.516 357.897 163.93 362.725C160.888 368.497 159.133 379.846 158.834 391.598Z" fill="#263238"/>
<path d="M208.403 367.197C206.815 368.938 204.809 370.245 202.575 370.994C200.341 371.742 197.953 371.907 195.637 371.474C193.273 371.039 191.06 370.007 189.208 368.475C187.356 366.944 185.926 364.965 185.055 362.725C185.055 362.582 184.795 362.66 184.847 362.79C185.55 365.23 186.906 367.431 188.768 369.156C190.631 370.881 192.929 372.065 195.416 372.579C197.886 372.952 200.411 372.668 202.736 371.755C205.062 370.842 207.106 369.333 208.663 367.379C208.672 367.346 208.67 367.31 208.658 367.278C208.646 367.245 208.625 367.217 208.596 367.197C208.568 367.177 208.534 367.167 208.5 367.167C208.465 367.167 208.431 367.177 208.403 367.197Z" fill="#263238"/>
<path d="M195.195 332.593C187.174 332.515 179.686 336.714 176.579 342.07C174.853 345.122 174.211 348.669 174.759 352.132C174.759 352.275 175.058 352.249 175.045 352.132C174.977 349.08 175.732 346.066 177.23 343.406C178.728 340.745 180.915 338.537 183.56 337.013C186.456 335.238 189.724 334.159 193.108 333.862C196.491 333.564 199.898 334.055 203.06 335.297C206.141 336.437 208.714 338.641 210.314 341.511C210.47 341.81 211.068 341.641 210.951 341.342C208.923 336.246 202.436 332.658 195.195 332.593Z" fill="#263238"/>
<path d="M241.149 351.429C239.959 347.434 237.4 343.986 233.921 341.692C229.098 338.494 223.521 338.767 218.009 339.157C217.978 339.157 217.948 339.169 217.926 339.191C217.904 339.213 217.892 339.243 217.892 339.274C217.892 339.305 217.904 339.335 217.926 339.357C217.948 339.378 217.978 339.391 218.009 339.391C222.715 339.079 227.512 339.027 231.75 341.38C235.277 343.289 238.034 346.363 239.55 350.077C240.992 353.886 241.011 358.088 239.602 361.91C238.192 365.732 235.45 368.916 231.88 370.877C229.797 371.953 227.517 372.592 225.179 372.755C222.84 372.918 220.493 372.602 218.282 371.826C218.1 371.761 217.97 372.008 218.139 372.086C221.126 373.263 224.383 373.586 227.543 373.018C230.704 372.45 233.644 371.014 236.035 368.87C238.426 366.726 240.173 363.959 241.08 360.879C241.988 357.799 242.021 354.527 241.175 351.429H241.149Z" fill="#263238"/>
<path d="M161.045 370.63C161.045 370.63 153.947 356.031 160.603 347.971C164.373 343.408 176.307 344.448 176.307 344.448C176.307 344.448 180.402 337.727 190.386 335.816C200.37 333.905 212.148 340.158 212.148 340.158C212.148 340.158 221.846 335.075 230.556 340.483C242.711 348.023 240.475 366.86 227.761 372.476C218.843 376.376 207.221 368.238 207.221 368.238C206.064 368.355 194.078 374.985 185.602 364.208C185.602 364.208 178.166 370.344 171.861 365.625C170.788 367.467 169.175 368.936 167.241 369.831C165.306 370.726 163.143 371.005 161.045 370.63Z" fill="#263238"/>
<path d="M166.152 396.541C166.152 396.541 159.405 382.241 153.048 384.373C146.691 386.505 150.214 406.291 156.584 410.009C157.37 410.542 158.256 410.911 159.188 411.093C160.12 411.276 161.079 411.268 162.008 411.07C162.937 410.872 163.817 410.488 164.594 409.942C165.37 409.395 166.029 408.697 166.529 407.89L166.152 396.541Z" fill="#AD6359"/>
<path d="M154.192 390C154.088 390 154.036 390.13 154.192 390.182C158.638 392.938 160.393 397.813 161.355 402.714C160.25 400.699 158.469 399.399 155.817 400.673C155.79 400.691 155.769 400.717 155.757 400.748C155.746 400.779 155.744 400.813 155.753 400.844C155.761 400.876 155.78 400.904 155.805 400.925C155.831 400.945 155.862 400.957 155.895 400.959C156.783 400.839 157.686 400.995 158.482 401.407C159.278 401.819 159.927 402.466 160.341 403.26C161.015 404.596 161.547 405.999 161.927 407.446C162.083 407.914 162.889 407.81 162.811 407.29C162.817 407.251 162.817 407.212 162.811 407.173C163.903 401.102 160.64 391.755 154.192 390Z" fill="#263238"/>
<path d="M180.856 425.333L168.051 419.808L157.755 406.99L159.731 405.391L169.637 417.728L181.87 423.006L180.856 425.333Z" fill="#C7C7C7"/>
<path d="M179.489 423.296C180.789 419.565 191.189 420.943 189.304 426.585C187.419 432.227 178.228 427.001 179.489 423.296Z" fill="#37474F"/>
<path d="M152.852 383.983C152.852 383.983 151.461 363.014 157.597 351.483C164.435 338.6 192.775 326.341 212.197 340.186C212.197 340.186 180.646 334.544 165.943 352.406C159.755 359.92 159.911 384.568 159.911 384.568L152.852 383.983Z" fill="#C7C7C7"/>
<path d="M155.715 414.095C165.091 414.002 172.606 405.266 172.499 394.583C172.393 383.9 164.706 375.316 155.33 375.409C145.953 375.503 138.439 384.238 138.545 394.921C138.651 405.604 146.338 414.189 155.715 414.095Z" fill="#C7C7C7"/>
<path d="M167.543 394.032C167.634 403.639 160.887 411.491 152.463 411.569C144.039 411.647 137.123 403.938 137.032 394.331C136.941 384.724 143.688 376.872 152.112 376.794C160.536 376.716 167.452 384.425 167.543 394.032Z" fill="#455A64"/>
<path d="M195.715 447.126L186.55 470.266L157.716 441.172L149.63 450.584C149.63 450.584 177.905 496.877 178.074 494.784L187.499 474.829L201.305 488.622L200.005 453.86L195.715 447.126Z" fill="#EBEBEB"/>
<path d="M201.642 471.394C201.239 465.661 201.005 459.876 200.342 454.169C200.342 453.974 200.004 453.883 199.952 454.169C198.834 459.72 200.485 481.625 200.485 486.89H200.42C199.848 486.292 187.628 474.761 187.511 474.943C185.47 478.115 178.541 492.636 178.073 493.962C173.601 486.604 154.673 457.627 149.343 450.672C149.317 450.627 149.274 450.594 149.224 450.581C149.174 450.567 149.121 450.574 149.076 450.6C149.031 450.626 148.999 450.669 148.985 450.719C148.972 450.769 148.979 450.822 149.005 450.867C152.905 458.667 177.475 496.9 177.813 496.796C181.46 489.941 184.753 482.903 187.68 475.71C189.747 478.219 202.071 491.245 202.11 490.387C202.289 484.052 202.133 477.712 201.642 471.394Z" fill="#263238"/>
<path d="M510.693 386.287H470.484C466.586 386.283 462.848 384.733 460.091 381.977C457.335 379.22 455.785 375.482 455.781 371.584C455.781 367.684 457.33 363.945 460.088 361.187C462.845 358.43 466.585 356.881 470.484 356.881H510.693C514.593 356.881 518.332 358.43 521.09 361.187C523.847 363.945 525.396 367.684 525.396 371.584C525.396 373.515 525.016 375.427 524.277 377.21C523.538 378.994 522.455 380.615 521.09 381.98C519.725 383.346 518.104 384.429 516.32 385.168C514.536 385.907 512.624 386.287 510.693 386.287Z" fill="#455A64"/>
<path d="M479.272 371.322C479.301 370.857 479.453 370.408 479.714 370.022L480.078 369.489L480.845 368.722L481.742 368.072C482.978 367.286 484.356 366.752 485.798 366.499C489.124 365.836 492.548 365.836 495.873 366.499C497.298 366.743 498.659 367.269 499.877 368.046C500.189 368.254 500.501 368.488 500.8 368.709L501.554 369.463C501.752 369.748 501.934 370.043 502.1 370.347C502.228 370.66 502.332 370.981 502.412 371.309H495.821C495.77 371.316 495.718 371.306 495.674 371.28C495.629 371.254 495.594 371.214 495.574 371.166C495.394 370.817 495.125 370.521 494.794 370.309C494.463 370.096 494.082 369.975 493.689 369.957C491.772 369.834 489.848 369.834 487.93 369.957C487.541 369.974 487.162 370.093 486.833 370.303C486.504 370.513 486.237 370.806 486.058 371.153C486.058 371.244 485.967 371.309 485.837 371.309H479.272V371.322Z" fill="white"/>
<path d="M479.272 375.001V372.596H485.772C485.772 372.739 485.772 372.895 485.772 373.064V375.001C485.79 375.114 485.781 375.23 485.745 375.339C485.709 375.448 485.649 375.547 485.568 375.628C485.486 375.709 485.387 375.77 485.278 375.806C485.169 375.841 485.053 375.85 484.94 375.833H480.091C479.978 375.851 479.862 375.842 479.754 375.807C479.645 375.771 479.546 375.71 479.466 375.629C479.386 375.547 479.326 375.448 479.293 375.338C479.259 375.229 479.252 375.113 479.272 375.001Z" fill="white"/>
<path d="M495.874 375.077C495.874 374.258 495.874 373.439 495.874 372.633H502.309V372.776C502.309 373.53 502.309 374.297 502.309 375.051C502.321 375.16 502.309 375.27 502.273 375.373C502.237 375.477 502.178 375.571 502.1 375.648C502.023 375.726 501.929 375.785 501.825 375.821C501.722 375.857 501.611 375.869 501.503 375.857H496.602C496.5 375.861 496.399 375.844 496.305 375.805C496.212 375.767 496.127 375.709 496.058 375.634C495.989 375.56 495.936 375.472 495.905 375.376C495.873 375.28 495.862 375.178 495.874 375.077Z" fill="white"/>
<path d="M345.723 633.701H336.805V639.525H345.723V633.701Z" fill="#455A64"/>
<path d="M357.279 633.309H348.361V639.133H357.279V633.309Z" fill="#455A64"/>
<path d="M368.85 632.922H359.932V638.746H368.85V632.922Z" fill="#455A64"/>
<path d="M380.42 632.543H371.502V638.367H380.42V632.543Z" fill="#455A64"/>
<path d="M391.989 632.152H383.071V637.976H391.989V632.152Z" fill="#455A64"/>
<path d="M403.561 631.773H394.643V637.597H403.561V631.773Z" fill="#455A64"/>
<path d="M415.13 631.387H406.212V637.211H415.13V631.387Z" fill="#455A64"/>
<path d="M426.701 630.996H417.783V636.82H426.701V630.996Z" fill="#455A64"/>
<path d="M438.258 630.621H429.34V636.445H438.258V630.621Z" fill="#455A64"/>
<path d="M440.453 642.864H334.607V635.779L440.453 632.828V642.864Z" fill="#37474F"/>
<path d="M543.753 614.928H369.033L396.814 484.85H571.534L543.753 614.928Z" fill="#455A64"/>
<path d="M550.212 614.928H375.492L403.273 484.85H577.993L550.212 614.928Z" fill="#37474F"/>
<path d="M487.82 549.658C492.56 545.277 493.369 538.443 489.627 534.393C485.885 530.344 479.008 530.612 474.268 534.992C469.527 539.373 468.718 546.207 472.46 550.257C476.203 554.306 483.079 554.038 487.82 549.658Z" fill="#263238"/>
<path d="M500.799 648.896H414.869V642.214L500.799 639.445V648.896Z" fill="#455A64"/>
<path d="M524.161 648.881H478.023L450.229 575.99H496.367L524.161 648.881Z" fill="#455A64"/>
<path d="M531.753 648.881H485.616L457.835 575.99H503.972L531.753 648.881Z" fill="#263238"/>
<path d="M331.345 650.665H242.75C235.197 650.665 246.13 629.137 273.729 620.882C301.328 612.627 340.055 642.592 331.345 650.665Z" fill="#37474F"/>
<path d="M296.582 650.664C296.653 648.211 297.06 645.779 297.791 643.436C298.505 641.074 299.505 638.808 300.768 636.689C302.039 634.56 303.626 632.636 305.474 630.982C307.302 629.323 309.41 628.002 311.701 627.082C310.752 627.862 309.673 628.382 308.802 629.253L307.502 630.41L306.202 631.71C304.559 633.424 303.12 635.321 301.912 637.365C300.685 639.409 299.633 641.553 298.766 643.774C297.884 646.019 297.154 648.321 296.582 650.664Z" fill="#263238"/>
<path d="M307.074 630.176C312.336 631.917 317.316 634.418 321.855 637.599C324.149 639.184 326.225 641.063 328.03 643.189C328.916 644.275 329.679 645.457 330.305 646.712C330.923 647.966 331.277 649.333 331.345 650.729C331.035 649.405 330.494 648.146 329.746 647.011C329.039 645.872 328.211 644.813 327.276 643.852C325.382 641.932 323.315 640.192 321.101 638.652C318.904 637.066 316.577 635.649 314.25 634.245C313.08 633.543 311.884 632.867 310.688 632.217C309.492 631.567 308.283 630.839 307.074 630.176Z" fill="#263238"/>
<path d="M339.484 355.355C338.72 362.606 335.956 369.501 331.501 375.273C327.047 381.045 321.076 385.465 314.256 388.041C307.435 390.618 300.033 391.249 292.875 389.864C285.717 388.479 279.084 385.132 273.717 380.198L253.996 383.136L263.85 366.119C261.388 360.124 260.459 353.61 261.146 347.165C261.651 341.998 263.173 336.981 265.625 332.405C268.077 327.828 271.409 323.782 275.432 320.498C279.454 317.215 284.085 314.76 289.06 313.275C294.035 311.789 299.255 311.302 304.419 311.842C309.582 312.383 314.588 313.939 319.148 316.422C323.708 318.905 327.731 322.265 330.987 326.31C334.243 330.354 336.666 335.002 338.118 339.987C339.569 344.972 340.02 350.195 339.445 355.355H339.484Z" fill="white"/>
<path d="M343.075 355.358C342.318 362.615 339.569 369.521 335.132 375.313C334.029 376.754 332.84 378.126 331.57 379.421C330.253 380.672 328.864 381.844 327.41 382.931C324.514 385.136 321.318 386.917 317.92 388.222C314.523 389.553 310.957 390.401 307.325 390.744C305.506 390.915 303.676 390.95 301.852 390.848C300.025 390.806 298.203 390.619 296.405 390.289C289.138 388.956 282.386 385.625 276.905 380.669L277.373 380.812L257.704 383.841L256.287 384.101L257.002 382.801L266.804 365.732V366.408C264.504 360.816 263.51 354.774 263.897 348.74C264.284 342.706 266.042 336.84 269.038 331.588C272.034 326.336 276.188 321.837 281.184 318.433C286.181 315.028 291.888 312.808 297.872 311.942C303.856 311.075 309.959 311.585 315.716 313.432C321.473 315.28 326.733 318.416 331.095 322.602C335.457 326.789 338.807 331.915 340.89 337.591C342.973 343.267 343.734 349.344 343.114 355.358H343.075ZM343.075 355.358C343.692 349.434 342.944 343.446 340.888 337.856C338.832 332.265 335.522 327.22 331.214 323.107C326.905 318.994 321.711 315.923 316.031 314.129C310.351 312.334 304.336 311.865 298.446 312.757C292.606 313.628 287.043 315.825 282.183 319.179C277.377 322.561 273.359 326.943 270.405 332.023C267.498 337.13 265.783 342.827 265.387 348.689C265.024 354.563 265.979 360.444 268.182 365.901L268.325 366.252L268.13 366.564L258.224 383.555L257.522 382.515L277.23 379.759H277.503L277.698 379.941C282.958 384.865 289.485 388.228 296.548 389.652C298.31 390.006 300.096 390.223 301.891 390.302C303.683 390.426 305.481 390.426 307.273 390.302C310.87 390.028 314.41 389.249 317.79 387.988C321.187 386.76 324.385 385.039 327.28 382.879C328.731 381.801 330.12 380.642 331.44 379.408C332.714 378.126 333.908 376.767 335.015 375.339C339.501 369.554 342.292 362.637 343.075 355.358Z" fill="#263238"/>
<path d="M320.49 352.461C320.493 353.405 320.215 354.329 319.693 355.115C319.17 355.902 318.426 356.515 317.554 356.878C316.682 357.241 315.723 357.338 314.796 357.155C313.87 356.972 313.019 356.519 312.35 355.852C311.682 355.186 311.226 354.336 311.041 353.41C310.856 352.484 310.949 351.524 311.31 350.651C311.671 349.779 312.282 349.033 313.067 348.508C313.852 347.983 314.775 347.703 315.719 347.703C316.345 347.701 316.965 347.823 317.544 348.062C318.123 348.3 318.649 348.65 319.092 349.092C319.535 349.534 319.887 350.059 320.127 350.637C320.367 351.215 320.49 351.835 320.49 352.461Z" fill="#263238"/>
<path d="M303.407 352.459C303.41 353.404 303.132 354.328 302.609 355.115C302.085 355.901 301.34 356.515 300.468 356.878C299.596 357.24 298.635 357.336 297.709 357.152C296.782 356.968 295.931 356.514 295.263 355.846C294.595 355.178 294.14 354.326 293.956 353.4C293.773 352.473 293.868 351.513 294.231 350.64C294.594 349.768 295.207 349.023 295.994 348.5C296.78 347.977 297.705 347.699 298.649 347.701C299.911 347.701 301.121 348.202 302.014 349.095C302.906 349.987 303.407 351.197 303.407 352.459Z" fill="#263238"/>
<path d="M286.338 352.461C286.34 353.405 286.063 354.329 285.54 355.115C285.017 355.902 284.273 356.515 283.402 356.878C282.53 357.241 281.57 357.338 280.644 357.155C279.718 356.972 278.866 356.519 278.198 355.852C277.529 355.186 277.074 354.336 276.889 353.41C276.703 352.484 276.797 351.524 277.158 350.651C277.519 349.779 278.13 349.033 278.915 348.508C279.7 347.983 280.623 347.703 281.567 347.703C282.83 347.703 284.042 348.204 284.936 349.096C285.83 349.988 286.334 351.198 286.338 352.461Z" fill="#263238"/>
<path d="M354.367 151.231C355.131 158.481 357.895 165.376 362.348 171.148C366.802 176.921 372.771 181.342 379.591 183.921C386.41 186.5 393.811 187.134 400.97 185.753C408.129 184.372 414.763 181.03 420.134 176.1L439.816 178.986L429.975 161.969C432.232 156.427 433.195 150.444 432.793 144.475C432.391 138.505 430.633 132.705 427.653 127.517C424.674 122.328 420.55 117.887 415.597 114.532C410.643 111.176 404.99 108.993 399.066 108.15C393.143 107.306 387.105 107.825 381.412 109.665C375.719 111.505 370.52 114.619 366.21 118.77C361.901 122.92 358.595 127.999 356.542 133.619C354.49 139.239 353.746 145.254 354.367 151.205V151.231Z" fill="white"/>
<path d="M366.146 118.719C370.433 114.491 375.634 111.305 381.348 109.407C387.062 107.509 393.136 106.95 399.101 107.773C405.107 108.565 410.853 110.722 415.897 114.078C423.538 119.179 429.181 126.764 431.87 135.549C434.559 144.334 434.129 153.778 430.652 162.282V161.606L440.428 178.701L441.143 180.001L439.726 179.78L420.044 176.764L420.512 176.621C415.031 181.576 408.279 184.907 401.012 186.241C399.214 186.57 397.392 186.757 395.565 186.8C393.745 186.895 391.92 186.86 390.105 186.696C382.814 186.001 375.858 183.301 370.007 178.896C368.553 177.808 367.164 176.636 365.847 175.386C364.58 174.087 363.391 172.716 362.285 171.278C356.392 163.579 353.528 153.985 354.234 144.315C354.941 134.645 359.17 125.571 366.12 118.81L366.146 118.719ZM362.428 171.096C363.535 172.52 364.729 173.874 366.003 175.152C367.317 176.393 368.706 177.553 370.163 178.623C373.058 180.794 376.261 182.521 379.666 183.745C383.043 184.999 386.578 185.778 390.17 186.059C391.966 186.182 393.769 186.182 395.565 186.059C397.356 185.979 399.138 185.762 400.895 185.409C407.958 183.985 414.485 180.622 419.745 175.698L419.94 175.516H420.213L439.921 178.272L439.219 179.312L429.313 162.321L429.118 161.996L429.261 161.645C431.468 156.209 432.414 150.344 432.029 144.49C431.644 138.636 429.938 132.945 427.038 127.845C424.087 122.762 420.069 118.38 415.26 115.001C410.404 111.649 404.845 109.452 399.01 108.579C391.296 107.388 383.403 108.543 376.355 111.895C369.306 115.247 363.429 120.641 359.484 127.376C355.54 134.11 353.712 141.876 354.237 149.663C354.762 157.45 357.616 164.899 362.428 171.044V171.096Z" fill="#263238"/>
<path d="M397.02 151.947V156.861C397.031 157.35 396.942 157.837 396.76 158.291C396.578 158.745 396.305 159.158 395.959 159.504C395.613 159.85 395.2 160.123 394.746 160.305C394.291 160.488 393.805 160.576 393.315 160.566C392.334 160.562 391.393 160.171 390.699 159.477C390.005 158.783 389.614 157.842 389.61 156.861V149.061C389.61 148.983 389.688 148.983 389.688 148.905C389.688 148.827 389.61 148.827 389.61 148.762C389.637 147.787 390.035 146.86 390.725 146.171C391.414 145.482 392.341 145.083 393.315 145.057C394.481 145.148 395.652 144.998 396.757 144.614C397.861 144.231 398.875 143.624 399.733 142.83C400.591 142.037 401.276 141.074 401.745 140.003C402.213 138.932 402.455 137.776 402.455 136.607C402.455 135.438 402.213 134.281 401.745 133.21C401.276 132.139 400.591 131.177 399.733 130.383C398.875 129.59 397.861 128.982 396.757 128.599C395.652 128.216 394.481 128.065 393.315 128.157C391.847 128.151 390.403 128.532 389.13 129.263C387.856 129.993 386.798 131.046 386.061 132.317C385.808 132.747 385.472 133.122 385.073 133.421C384.673 133.72 384.218 133.936 383.734 134.057C383.25 134.178 382.747 134.202 382.253 134.126C381.76 134.05 381.287 133.877 380.861 133.617C380.442 133.37 380.076 133.043 379.784 132.654C379.491 132.266 379.278 131.823 379.158 131.352C379.037 130.881 379.01 130.39 379.08 129.909C379.149 129.428 379.313 128.965 379.561 128.547C380.877 126.264 382.739 124.344 384.981 122.96C387.223 121.576 389.774 120.771 392.404 120.619C395.034 120.466 397.661 120.969 400.048 122.084C402.435 123.199 404.508 124.89 406.079 127.005C407.65 129.12 408.67 131.593 409.048 134.2C409.425 136.808 409.149 139.468 408.243 141.942C407.336 144.416 405.829 146.626 403.856 148.372C401.884 150.118 399.508 151.347 396.942 151.947H397.02ZM397.02 168.496V169.796C397.033 170.286 396.946 170.773 396.764 171.228C396.582 171.683 396.31 172.097 395.963 172.443C395.616 172.79 395.203 173.062 394.748 173.244C394.293 173.426 393.805 173.513 393.315 173.501C392.333 173.501 391.39 173.11 390.696 172.416C390.001 171.721 389.61 170.778 389.61 169.796V168.496C389.624 167.517 390.018 166.583 390.71 165.891C391.402 165.199 392.337 164.804 393.315 164.791C393.803 164.785 394.287 164.878 394.739 165.062C395.191 165.246 395.602 165.519 395.947 165.864C396.292 166.209 396.565 166.62 396.749 167.072C396.933 167.524 397.026 168.008 397.02 168.496Z" fill="#DC7B2C"/>
</svg>
