<svg width="2110" height="1158" viewBox="0 0 2110 1158" fill="none" xmlns="http://www.w3.org/2000/svg">
<path d="M1132.29 79.8683C1073.04 4.9962 905.718 79.0191 796.678 115.822C742.93 133.962 688.522 153.146 631.883 160.445C589.607 165.893 546.898 167.339 504.463 171.463C460.345 175.751 416.246 181.163 372.946 190.683C300.002 206.723 172.956 236.276 180.751 332.339C183.871 370.807 210.717 405.772 208.007 444.271C204.532 493.611 157.473 531.829 126.644 566.691C84.0882 614.814 45.8165 668.217 52.8361 735.115C58.496 789.076 94.3251 836.492 138.499 869.284C182.673 902.076 234.95 922.428 286.458 942.522C364.912 973.129 431.255 1008.97 492.972 1065.88C528.724 1098.85 566.79 1131.52 613.127 1147.49C675.391 1168.97 754.769 1150.28 780.125 1085.78C793.946 1050.62 797.832 1009.69 819.271 977.746C841.353 944.841 887.914 917.154 928.989 922.48C995.887 931.154 1021.98 979.703 1053.86 1030.77C1069.44 1055.7 1087.92 1078.67 1114.08 1093.64C1158.94 1119.32 1203.77 1109.31 1251.07 1098.89C1302.17 1087.63 1353.8 1078.54 1405.82 1072.45C1494.08 1062.13 1582.88 1066.75 1670.82 1077.6C1754.33 1087.91 1875.59 1141.62 1944.46 1068.73C1974.64 1036.8 1980.64 993.077 1969.65 952.283C1953.91 893.831 1920.02 828.938 1921.85 768.227C1924.55 678.599 1965.85 618.941 2016.33 548.907C2040.5 515.373 2059.12 478.11 2058.25 436.153C2056.25 339.622 1994.38 265.507 1929.88 198.953C1865.52 132.544 1844.02 101.236 1778.9 42.3513" stroke="#6C91C2" stroke-width="2.256" stroke-miterlimit="10"/>
<path d="M1777.34 40.3171C1732.98 -0.929117 1671.5 69.1117 1639.59 46.5429C1558.35 -12.987 1509.72 17.2305 1472.33 42.4626C1443.62 61.8296 1430.02 107.433 1409.24 69.8899C1392.12 42.4626 1368.42 113.071 1330.39 130.971C1311.85 139.696 1291.47 142.317 1271.64 146.532C1251.82 150.747 1231.55 157.062 1216.36 171.53C1201.17 185.996 1192.52 210.557 1200.72 230.608C1207.17 246.357 1223.04 256.264 1238.9 256.752C1254.76 257.243 1270.23 249.245 1281.65 237.279C1361.77 153.322 1160.98 111.136 1130.63 77.6722" stroke="#6C91C2" stroke-width="2.256" stroke-miterlimit="10"/>
<path d="M2 502.703C5.55395 521.009 14.5396 540.495 26.6858 555.527C42.4976 575.097 74.7455 587.763 88.6114 559.308C95.061 546.074 98.2773 524.66 82.9076 515.189C81.8169 514.517 80.5926 513.913 79.2711 513.897C76.3002 513.862 74.3301 516.667 73.4531 519.228C69.3453 531.232 75.9576 544.204 84.8826 553.846C89.0244 558.321 93.8489 562.492 99.8223 564.718C105.793 566.945 113.108 566.921 118.318 563.471C126.422 558.102 128.555 546.278 127.962 537.812" stroke="#8F96DB" stroke-width="2.256" stroke-miterlimit="10"/>
<path d="M607.691 53.5808C621.992 33.9976 641.249 16.3086 662.888 7.24387C674.597 2.33951 689.894 0.579857 702.205 3.23386C708.351 4.55822 715.491 6.66348 719.246 12.6653C723.208 18.9969 718.583 30.7315 726.417 34.3194C728.429 35.2402 730.717 35.0186 732.876 34.6651C739.666 33.557 746.274 31.3357 753.066 30.2514C759.86 29.1697 767.092 29.3148 773.209 32.7049C779.326 36.0949 783.975 43.3578 783.062 50.75C782.705 53.6441 781.546 56.5091 782.039 59.3795C782.865 64.1809 787.874 66.6925 792.354 67.1515C801.628 68.0986 810.446 67.7715 818.332 74.2192C824.118 78.9494 827.441 87.4101 824.48 94.2007" stroke="#FFDD99" stroke-width="2.256" stroke-miterlimit="10"/>
<path d="M1145.54 253.984C1149.15 245.273 1153.19 236.538 1159.48 229.866C1165.77 223.194 1174.75 218.841 1183.38 220.664C1187.84 221.609 1192.06 224.131 1196.61 224.028C1202.86 223.885 1208.21 218.662 1211.02 212.594C1213.84 206.526 1214.66 199.643 1215.8 192.966C1217.62 182.303 1220.57 171.404 1227.29 163.379C1234.01 155.354 1245.36 151.051 1254.33 155.81" stroke="#FFDD99" stroke-width="2.256" stroke-miterlimit="10"/>
<path d="M946.848 1105.51C949.093 1090.97 939.174 1077.04 924.693 1074.4C910.213 1071.77 896.654 1081.42 894.409 1095.97C892.164 1110.51 902.083 1124.44 916.563 1127.08C931.044 1129.71 944.603 1120.06 946.848 1105.51Z" stroke="#909DF4" stroke-width="2.256" stroke-miterlimit="10"/>
<path d="M989.928 60.5309C1002.18 60.5309 1012.11 49.7458 1012.11 36.4417C1012.11 23.1376 1002.18 12.3525 989.928 12.3525C977.678 12.3525 967.747 23.1376 967.747 36.4417C967.747 49.7458 977.678 60.5309 989.928 60.5309Z" stroke="#8F96DB" stroke-width="2.256" stroke-miterlimit="10"/>
<path d="M1779.21 960.571L1793.92 1065.75L1851.7 1019.52L1779.21 960.571Z" fill="#FFDD99"/>
<path d="M215.434 752.737L254.527 704.601L187.743 707.202L215.434 752.737Z" stroke="#8F96DB" stroke-width="2.256" stroke-miterlimit="10"/>
<path d="M670.355 1146C679.095 1146 686.181 1138.3 686.181 1128.81C686.181 1119.32 679.095 1111.62 670.355 1111.62C661.614 1111.62 654.528 1119.32 654.528 1128.81C654.528 1138.3 661.614 1146 670.355 1146Z" fill="#FFDD99"/>
<path d="M366.313 386.41L328.264 476.573L444.527 458.261L366.313 386.41Z" fill="#ED725A"/>
<path d="M302.253 542.209C302.253 547.97 297.953 552.64 292.648 552.64C287.342 552.64 283.042 547.97 283.042 542.209C283.042 536.447 287.342 531.777 292.648 531.777C297.953 531.777 302.253 536.447 302.253 542.209Z" fill="#909DF4"/>
<path d="M1649.75 43.1982C1649.75 48.9599 1645.45 53.6295 1640.15 53.6295C1634.84 53.6295 1630.54 48.9599 1630.54 43.1982C1630.54 37.4364 1634.84 32.7668 1640.15 32.7668C1645.45 32.7668 1649.75 37.4364 1649.75 43.1982Z" fill="#ED725A"/>
<path d="M1826.39 954.029C1833.56 950.837 1842.82 951.454 1849.3 956.182C1855.02 960.353 1858.02 968.199 1864.92 970.644C1875.04 974.232 1883.96 964.001 1893.72 963.3C1902.17 962.693 1908.97 968.906 1912.27 976.907C1915.1 983.756 1915.64 991.417 1916.14 998.902" stroke="#8F96DB" stroke-width="2.256" stroke-miterlimit="10"/>
<path d="M1949.9 484C1953.41 474.521 1962.66 467.92 1972.06 468.182C1976.85 468.313 1981.7 470.039 1986.34 468.736C2000.76 464.681 1999.56 437.41 2013.8 432.688C2023.68 429.416 2034.41 439.803 2044.08 435.864C2052.39 432.474 2054.43 421.103 2057.07 411.893C2064.18 386.994 2085.25 367.49 2109.02 363.8" stroke="#8F96DB" stroke-width="2.256" stroke-miterlimit="10"/>
<path d="M1814.38 474.515C1814.38 485.709 1805.31 494.782 1794.11 494.782C1782.92 494.782 1773.85 485.709 1773.85 474.515C1773.85 463.321 1782.92 454.248 1794.11 454.248C1805.31 454.248 1814.38 463.321 1814.38 474.515Z" stroke="#ED725A" stroke-width="2.256" stroke-miterlimit="10"/>
<path d="M1204.26 1008.03C1204.26 1019.22 1195.18 1028.29 1183.99 1028.29C1172.79 1028.29 1163.72 1019.22 1163.72 1008.03C1163.72 996.833 1172.8 987.76 1183.99 987.76C1195.18 987.76 1204.26 996.833 1204.26 1008.03Z" stroke="#ED725A" stroke-width="2.256" stroke-miterlimit="10"/>
</svg>
