<svg width="402" height="363" viewBox="0 0 402 363" fill="none" xmlns="http://www.w3.org/2000/svg">
<g filter="url(#filter0_i_1005_672)">
<rect x="65.9492" y="146.396" width="335.313" height="41.5789" rx="13.4125" fill="#F8F9FA"/>
<path d="M387.741 147.709C393.703 147.709 398.534 152.542 398.534 158.503V349.629C398.534 355.591 393.701 360.422 387.741 360.422H78.1635C72.2013 360.422 67.3699 355.589 67.3699 349.629V158.505C67.3699 152.542 72.203 147.711 78.1635 147.711H387.741M387.741 145.127H78.1635C70.7882 145.127 64.7881 151.128 64.7881 158.503V349.629C64.7881 357.004 70.7882 363.004 78.1635 363.004H387.741C395.116 363.004 401.116 357.004 401.116 349.629V158.505C401.118 151.129 395.118 145.127 387.741 145.127Z" fill="white"/>
<path d="M387.741 360.424H78.1638C72.2015 360.424 67.3701 355.591 67.3701 349.63V176.493H398.536V349.63C398.536 355.591 393.703 360.424 387.741 360.424Z" fill="#C5B3DD"/>
<path d="M92.7171 162.945C92.7171 166.357 89.9511 169.123 86.5397 169.123C83.1283 169.123 80.3623 166.357 80.3623 162.945C80.3623 159.534 83.1283 156.768 86.5397 156.768C89.9511 156.768 92.7171 159.534 92.7171 162.945Z" stroke="white" stroke-width="2.58234" stroke-miterlimit="10"/>
<path d="M116.662 162.945C116.662 166.357 113.896 169.123 110.485 169.123C107.074 169.123 104.308 166.357 104.308 162.945C104.308 159.534 107.074 156.768 110.485 156.768C113.896 156.768 116.662 159.534 116.662 162.945Z" stroke="white" stroke-width="2.58234" stroke-miterlimit="10"/>
<path d="M67.3701 176.493H398.536" stroke="white" stroke-width="2.58234" stroke-miterlimit="10"/>
<path d="M352.076 319.082C335.6 300.837 316.459 291.813 306.726 294.013C292.407 297.25 295.011 333.793 295.41 348.467C288.496 340.47 279.926 333.91 270.4 329.327C263.224 325.874 255.055 323.516 247.32 325.401C239.583 327.285 232.769 334.559 233.676 342.47C215.655 315.666 190.78 293.509 162.076 278.699C143.933 269.338 94.6065 249.874 86.1623 270.073C76.9005 292.226 129.444 360.422 129.444 360.422H384.109C384.109 360.422 366.956 335.559 352.076 319.082Z" fill="#A29DCE"/>
</g>
<path d="M33.8562 124.213C24.5066 114.418 15.5254 95.4897 13.0021 85.3949C10.7835 76.5152 8.80239 67.4255 4.60782 59.2171C3.47699 57.0036 -1.38023 51.8951 0.380562 49.2376C3.93312 43.8846 12.5495 50.9364 14.7956 54.1241C15.5994 55.2652 18.5668 60.0725 20.0521 60.3531C21.5375 60.6336 22.1641 54.878 22.3448 52.4098C23.0402 42.9225 23.0849 32.5798 22.2811 22.9807C21.4532 13.0941 22.8612 4.4192 25.9628 3.96136C29.1074 3.49836 28.9439 5.35897 29.5153 5.9786C30.0179 2.84774 32.8683 -0.864871 34.7099 0.179898C35.8287 0.815021 36.2349 2.21779 36.3915 3.49492C36.5482 4.77205 37.3089 7.20238 37.3089 7.20238C37.3089 7.20238 39.0921 0.537899 42.3486 4.30733C43.9941 6.2127 46.5001 16.3385 48.106 19.5537C47.946 17.428 47.4072 16.2438 48.0923 13.7601C48.464 12.4124 49.2248 11.304 50.6844 12.0132C51.545 12.4314 51.7946 13.2834 52.0958 14.1199C53.7292 18.657 57.7482 25.9566 59.2095 30.5522C60.731 35.344 62.2526 40.1376 63.7759 44.9294C66.6365 53.9382 69.4334 63.4185 71.4851 72.8163C73.3836 81.5101 80.3527 102.934 80.3527 102.934" fill="#FBC3C3"/>
<path d="M29.4297 6.51562C30.2593 11.6706 32.1458 18.2439 33.1802 24.0873C34.6622 32.4662 35.3317 40.2236 36.5985 47.6024" stroke="black" stroke-width="1.72156" stroke-miterlimit="10"/>
<path d="M37.7568 7.36243C38.7482 11.7773 40.4677 17.8927 41.6209 22.9169C43.5452 31.313 44.9583 38.8381 46.6141 46.2134" stroke="black" stroke-width="1.72156" stroke-miterlimit="10"/>
<path d="M48.085 19.4108C50.5308 27.4333 54.0696 36.6365 56.8734 46.7899" stroke="black" stroke-width="1.72156" stroke-miterlimit="10"/>
<path d="M20.9894 59.8453C20.3611 64.0829 20.0462 68.5856 17.2217 72.2879" stroke="black" stroke-width="1.72156" stroke-miterlimit="10"/>
<path d="M350.284 360.424C346.972 351.575 343.43 342.277 338.45 334.165C333.471 326.053 326.963 318.629 318.658 313.545C314.934 311.264 310.901 309.481 306.882 307.707C296.074 302.934 285.269 298.161 274.461 293.386L221.417 272.694C218.135 269.648 214.854 266.601 211.577 263.551C205.243 257.652 198.926 251.737 192.658 245.764C192.417 245.535 192.177 245.306 191.937 245.077C143.922 199.249 108.214 148.045 77.0205 88.288L20.9902 112.863C20.9902 112.863 45.2248 195.441 68.2493 230.497C98.6646 276.804 133.844 318.925 149.741 332.263C152.578 341.79 155.827 351.193 159.509 360.425L350.284 360.424Z" fill="#FCDDD2"/>
<path d="M30.0146 141.267L90.1139 112.37" stroke="black" stroke-width="1.72156" stroke-miterlimit="10"/>
<path d="M33.0117 107.59L44.2509 134.768" stroke="black" stroke-width="1.72156" stroke-miterlimit="10"/>
<path d="M52.0544 116.831C52.0544 119.022 50.2781 120.8 48.0853 120.8C45.8942 120.8 44.1162 119.024 44.1162 116.831C44.1162 114.64 45.8925 112.862 48.0853 112.862C50.2764 112.864 52.0544 114.64 52.0544 116.831Z" stroke="#D8A798" stroke-width="1.72156" stroke-miterlimit="10"/>
<path d="M268.636 359.248C271.398 355.649 274.161 352.05 276.925 348.451C279.906 344.568 282.896 340.677 286.261 337.121C296.082 326.743 309.337 319.359 323.542 317.819" stroke="#D8A798" stroke-width="1.72156" stroke-miterlimit="10"/>
<path d="M148.079 327.1C148.079 312.741 152.876 298.488 161.134 286.784C171.539 272.042 186.849 261.457 205.354 260.928" stroke="#D8A798" stroke-width="1.72156" stroke-miterlimit="10"/>
<path d="M149.497 331.7C146.848 323.81 145.325 314.962 141.132 307.705" stroke="black" stroke-width="1.72156" stroke-miterlimit="10"/>
<path d="M204.536 266.815L201.04 310.889C201.04 310.889 215.854 325.979 236.225 316.153C256.595 306.327 271.454 287.634 271.454 287.634L264.793 260.314" fill="#FBC3C3"/>
<path d="M285.503 211.898C283.444 205.457 279.584 199.572 274.393 195.323C261.9 185.095 248.158 185.374 234.741 193.257C223.08 200.108 207.075 210.92 198.181 221.265C189.002 231.943 182.859 245.222 192.233 257.708C207.317 277.799 249.619 270.988 269.8 254.511C278.019 247.802 285.775 236.909 286.988 226.18C287.527 221.397 286.976 216.505 285.503 211.898Z" fill="#FBC3C3"/>
<path d="M232.145 198.867C225.422 202.288 218.063 203.197 210.697 204.07C207.159 204.488 202.474 205.676 203.114 210.323C203.527 213.32 206.135 215.901 208.307 217.733" fill="#FBC3C3"/>
<path d="M202.821 244.623C202.821 244.623 204.045 241.871 204.654 240.492C205.828 237.838 202.01 236.048 200.191 235.132C198.871 234.468 198.172 233.878 196.855 234.743C196.518 234.965 194.599 236.821 194.186 236.484C194.163 236.466 190.633 232.356 190.633 232.356C187.889 236.642 186.125 244.778 186.516 249.604C186.908 254.43 188.776 259.231 192.227 262.629C193.612 263.992 195.783 265.959 197.449 266.961C211.337 275.314 228.654 274.679 243.76 268.806C248.424 266.994 252.968 264.572 256.366 260.897C210.122 260.226 202.821 244.623 202.821 244.623Z" fill="#FBC3C3"/>
<path d="M257.973 241.533C257.766 241.489 257.56 241.449 257.357 241.415C254.271 240.905 251.216 241.358 248.172 240.358C245.721 239.552 243.441 238.029 242.095 235.829C240.505 233.229 242.689 231.714 244.806 230.545C247.938 228.815 250.99 226.874 253.539 224.363C257.729 220.235 259.937 214.316 258.119 208.552C256.149 202.3 249.992 198.629 245.215 194.667C240.613 190.849 234.732 184.904 236.671 178.283C238.618 171.641 245.038 169.219 251.376 170.157C254.778 170.661 258.207 171.613 261.605 171.085C263.331 170.816 264.977 170.172 266.682 169.789C271.918 168.615 277.954 170.291 281.073 174.658C283.319 177.804 284.19 182.264 287.655 183.98C289.321 184.806 291.266 184.789 293.077 185.216C296.759 186.081 299.867 188.88 301.366 192.352C302.864 195.823 302.803 199.882 301.457 203.419C299.041 209.774 295.421 212.955 298.392 219.965C305.289 236.241 308.187 256.226 291.712 267.928C287.378 271.007 281.949 272.598 278.343 276.503C276.094 278.937 274.257 282.408 270.961 282.76C268.746 282.995 266.658 281.627 265.14 279.997C263.779 278.534 262.71 276.83 261.655 275.135C260.193 272.785 258.706 270.327 258.407 267.579C257.976 263.654 260.014 259.936 261.865 256.449C263.608 253.162 267.118 246.346 262.966 243.628C261.536 242.69 259.701 241.912 257.973 241.533Z" fill="#1E1611"/>
<path d="M247.798 205.975C246.762 202.824 244.865 199.693 241.946 201.116C241.216 201.471 240.79 202.275 240.676 203.078C240.561 203.88 240.709 204.696 240.855 205.493C241.544 209.228 242.272 213.065 244.294 216.28C244.702 216.929 245.186 217.569 245.872 217.913C250.451 220.211 248.39 207.776 247.798 205.975Z" fill="#1E1611"/>
<path d="M218.873 227.287L205.92 224.351C205.92 224.351 204.649 235.459 210.155 236.561C215.66 237.662 218.873 227.287 218.873 227.287Z" fill="white"/>
<path d="M205.138 214.251C206.214 215.647 207.675 216.742 209.316 217.384" stroke="black" stroke-width="1.72156" stroke-miterlimit="10"/>
<path d="M219.446 202.853C224.309 202.144 229.037 200.519 233.305 198.087" stroke="black" stroke-width="1.72156" stroke-miterlimit="10"/>
<path d="M254.956 241.984C259.733 238.387 268.406 241.835 270.185 247.186C274.466 260.054 253.836 270.792 244.786 262.821C242.225 260.566 240.29 255.964 242.543 252.682" fill="#FBC3C3"/>
<path d="M262.742 254.212L248.151 251.725" stroke="black" stroke-width="1.72156" stroke-miterlimit="10"/>
<path d="M264.233 241.859C261.319 240.75 258.038 240.575 254.952 241.36" stroke="black" stroke-width="1.72156" stroke-miterlimit="10"/>
<path d="M242.871 252.82C241.243 255.604 241.726 259.03 243.499 261.62C246.726 266.333 254.53 266.353 259.24 264.338" stroke="black" stroke-width="1.72156" stroke-miterlimit="10"/>
<path d="M234.232 216.643C232.385 217.979 230.113 217.991 229.157 216.671C228.2 215.349 228.922 213.194 230.769 211.858C232.615 210.523 234.887 210.511 235.843 211.831C236.798 213.153 236.077 215.308 234.232 216.643Z" fill="black"/>
<path d="M278.644 286.195C232.146 291.708 203.679 312.999 203.679 312.999L211.765 349.943C253.354 310.4 293.815 301.479 294.221 301.054L278.644 286.195Z" fill="#FCDDD2"/>
<path d="M202.332 289.397L184.821 300.638C184.821 300.638 181.809 332.058 187.558 348.768L203.68 312.998L202.332 289.397Z" fill="#FCDDD2"/>
<path d="M203.679 312.999L211.765 349.943C253.354 310.4 293.815 301.479 294.221 301.054" stroke="black" stroke-width="1.72156" stroke-miterlimit="10"/>
<path d="M202.332 289.397L184.821 300.638C184.821 300.638 181.809 332.058 187.558 348.768L203.68 312.998" stroke="black" stroke-width="1.72156" stroke-miterlimit="10"/>
<path d="M29.7656 189.5C34.4645 206.206 41.4268 222.271 50.4045 237.122" stroke="black" stroke-width="1.72156" stroke-miterlimit="10"/>
<path d="M31.3008 218.194C34.2526 228.936 37.7914 239.515 41.8965 249.869" stroke="black" stroke-width="1.72156" stroke-miterlimit="10"/>
<path d="M318.39 240.713C318.641 248.367 315.665 255.895 311.109 262.052C306.553 268.207 300.491 273.104 294.09 277.309" stroke="black" stroke-width="1.72156" stroke-miterlimit="10"/>
<path d="M313.18 277.038C319.589 273.402 325.058 268.123 328.92 261.847" stroke="black" stroke-width="1.72156" stroke-miterlimit="10"/>
<defs>
<filter id="filter0_i_1005_672" x="64.7881" y="145.127" width="336.475" height="223.242" filterUnits="userSpaceOnUse" color-interpolation-filters="sRGB">
<feFlood flood-opacity="0" result="BackgroundImageFix"/>
<feBlend mode="normal" in="SourceGraphic" in2="BackgroundImageFix" result="shape"/>
<feColorMatrix in="SourceAlpha" type="matrix" values="0 0 0 0 0 0 0 0 0 0 0 0 0 0 0 0 0 0 127 0" result="hardAlpha"/>
<feOffset dy="5.36502"/>
<feGaussianBlur stdDeviation="2.68251"/>
<feComposite in2="hardAlpha" operator="arithmetic" k2="-1" k3="1"/>
<feColorMatrix type="matrix" values="0 0 0 0 0 0 0 0 0 0 0 0 0 0 0 0 0 0 0.25 0"/>
<feBlend mode="normal" in2="shape" result="effect1_innerShadow_1005_672"/>
</filter>
</defs>
</svg>
