<svg width="472" height="362" viewBox="0 0 472 362" fill="none" xmlns="http://www.w3.org/2000/svg">
<g filter="url(#filter0_i_1005_849)">
<rect x="21.1299" y="1.39087" width="439.931" height="41.5789" rx="13.4125" fill="#F8F9FA"/>
<path d="M448.024 2.5818C453.986 2.5818 458.817 7.41494 458.817 13.3755V226.775C458.817 232.737 453.984 237.569 448.024 237.569H33.8422C27.88 237.569 23.0486 232.736 23.0486 226.775V13.3755C23.0486 7.41494 27.8817 2.5818 33.8422 2.5818H448.024ZM448.024 0H33.8422C26.4669 0 20.4668 6.00011 20.4668 13.3755V226.775C20.4668 234.151 26.4669 240.151 33.8422 240.151H448.024C455.399 240.151 461.399 234.151 461.399 226.775V13.3755C461.401 6.00011 455.399 0 448.024 0Z" fill="white"/>
<path d="M448.024 237.569H33.8425C27.8802 237.569 23.0488 232.735 23.0488 226.775V31.3652H458.819V226.775C458.819 232.737 453.986 237.569 448.024 237.569Z" fill="#AFB9E8"/>
<g filter="url(#filter1_i_1005_849)">
<path d="M48.3968 17.8161C48.3968 21.2275 45.6308 23.9935 42.2194 23.9935C38.808 23.9935 36.042 21.2275 36.042 17.8161C36.042 14.4046 38.808 11.6387 42.2194 11.6387C45.6308 11.6387 48.3968 14.4046 48.3968 17.8161Z" stroke="white" stroke-width="2.58234" stroke-miterlimit="10"/>
</g>
<g filter="url(#filter2_i_1005_849)">
<path d="M72.3421 17.8161C72.3421 21.2275 69.5761 23.9935 66.1647 23.9935C62.7533 23.9935 59.9873 21.2275 59.9873 17.8161C59.9873 14.4046 62.7533 11.6387 66.1647 11.6387C69.5761 11.6387 72.3421 14.4046 72.3421 17.8161Z" stroke="white" stroke-width="2.58234" stroke-miterlimit="10"/>
</g>
<path d="M23.0488 31.3652H458.819" stroke="white" stroke-width="2.58234" stroke-miterlimit="10"/>
<path d="M423.783 207.639C419.401 201.829 411.923 196.483 406.084 200.484C401.186 203.84 401.003 211.418 401.384 217.718C387.494 198.055 370.967 180.614 352.493 166.121C342.482 158.269 330.978 151.011 318.682 151.958C306.385 152.904 300.007 170.159 303.239 183.142C269.665 138.686 232.222 107.151 193.228 79.8651C179.92 70.5534 165.152 61.5739 149.364 56.2658C132.57 50.6185 109.371 44.0005 94.1973 57.1126C87.6963 62.7306 84.309 71.3022 83.3865 79.8445C82.2453 90.4178 84.0336 101.583 86.9149 111.771C93.8066 136.142 104.86 159.12 117.681 180.765C130.508 202.418 158.72 237.976 158.72 237.976H437.137C435.004 226.89 430.381 216.384 423.783 207.639Z" fill="#909DF4"/>
</g>
<path d="M277.374 194.419C277.374 194.419 223.922 148.062 200.995 140.202C178.069 132.341 130.96 144.968 130.369 144.968C129.777 144.968 88.1982 237.575 88.1982 237.575H258.728L277.374 194.419Z" fill="#DC7B2C"/>
<path d="M378.918 320.279C382.816 324.346 386.868 328.265 391.061 332.03C395.106 335.661 399.536 338.901 403.481 342.617C404.454 343.534 405.342 344.538 406.227 345.539C409.452 349.188 412.705 352.877 415.055 357.144C415.368 357.712 415.673 358.3 416.142 358.746C416.614 359.192 417.297 359.474 417.919 359.288C418.564 359.096 418.974 358.467 419.247 357.851C420.383 355.293 420.101 352.326 419.406 349.615C418.96 347.87 418.351 346.173 417.864 344.44C417.459 343.004 416.869 341.458 417.086 339.97C428.537 344.753 437.852 353.422 448.293 360.128C450.43 361.502 455.141 362.013 455.935 360.123C456.985 357.622 441.75 346.335 434.773 338.873C440.033 341.562 445.613 344.376 450.362 347.913C453.653 350.364 457.245 352.455 461.171 353.703C463.374 354.404 468.432 355.441 467.401 351.417C467.097 350.23 466.202 349.297 465.324 348.443C458.503 341.822 450.27 337.143 443.103 330.899C451.172 334.081 458.577 339.784 467.245 340.083C468.09 340.112 469.002 340.066 469.668 339.546C470.682 338.756 471.021 337.656 470.362 336.553C469.701 335.45 468.563 334.737 467.467 334.066C459.424 329.145 451.043 323.708 443 318.787C447.325 319.961 451.325 322.079 455.468 323.787C459.613 325.494 464.083 326.814 468.531 326.26C469.963 326.081 471.741 325.16 471.415 323.756C471.259 323.076 470.639 322.62 470.062 322.227C460.286 315.544 450.51 308.861 440.735 302.179C437.993 300.304 435.249 298.428 432.437 296.659C429.051 294.528 425.143 292.946 421.998 290.549C419.542 288.678 416.576 287.289 413.943 285.671C407.437 281.674 401.135 277.364 395.025 272.784" fill="#FFCAA3"/>
<path d="M417.301 339.933C414.224 338.579 411.098 337.333 407.933 336.197" stroke="black" stroke-width="1.72156" stroke-miterlimit="10"/>
<path d="M435.231 338.852C431.055 335.995 426.73 333.357 422.277 330.954" stroke="black" stroke-width="1.72156" stroke-miterlimit="10"/>
<path d="M443.125 330.734C439.695 328.56 436.266 326.386 432.836 324.212" stroke="black" stroke-width="1.72156" stroke-miterlimit="10"/>
<path d="M446.904 320.916C444.349 319.51 441.892 317.93 439.551 316.191" stroke="black" stroke-width="1.72156" stroke-miterlimit="10"/>
<path d="M213.305 141.644C234.419 148.281 245.014 148.887 263.903 160.607C283.976 173.059 333.63 225.38 333.63 225.38C333.63 225.38 400.635 272.621 425.747 290.483L380.636 333.481C330.741 303.652 279.524 268.042 241.701 223.897" fill="#DC7B2C"/>
<path d="M136.692 228.594C136.692 228.594 157.632 217.363 166.848 215.045C179.612 211.835 194.752 210.928 198.811 212.163C200.711 212.742 207.862 215.68 211.604 220.057C215.578 221.795 217.193 222.666 219.553 223.659C221.912 224.652 223.021 227.43 225.493 229.547C227.963 231.665 230.675 237.561 230.675 237.561C230.675 237.561 211.831 237.625 206.539 237.801C201.244 237.976 195.528 248.083 183.685 251.663" fill="#FFCAA3"/>
<path d="M179.835 133.314C165.308 133.197 151.162 129.412 136.664 129.403C110.331 129.388 95.2174 143.202 82.4082 162.35C72.7092 176.85 63.5765 194.693 56.7038 210.613C48.683 229.195 39.6983 249.887 37.3575 270.18C36.2869 279.463 37.6208 289.05 41.9118 297.299C49.8517 312.561 67.494 315.227 77.7851 316.37C88.0761 317.515 106.109 314.038 114.941 308.561C161.425 279.738 192.161 250.851 192.161 250.851L142.153 225.217L118.163 234.605L148.459 178.597" fill="#DC7B2C"/>
<path d="M145.997 183.144L118.162 234.608" stroke="black" stroke-width="1.72156" stroke-miterlimit="10"/>
<path d="M142.154 225.221C127.815 230.785 113.474 236.348 99.1346 241.913C89.3444 245.712 79.747 253.228 71.9482 260.216" stroke="black" stroke-width="1.72156" stroke-miterlimit="10"/>
<path d="M124.974 232.21L176.782 264.091" stroke="black" stroke-width="1.72156" stroke-miterlimit="10"/>
<path d="M264.228 207.267C257.369 218.606 247.871 237.563 247.871 237.563" stroke="black" stroke-width="1.72156" stroke-miterlimit="10"/>
<path d="M407.455 277.514L357.194 319.377" stroke="black" stroke-width="1.72156" stroke-miterlimit="10"/>
<path d="M209.67 225.425C213.314 226.393 217.021 227.124 220.76 227.615C221.915 227.766 223.118 227.911 224.095 228.542" stroke="black" stroke-width="1.72156" stroke-miterlimit="10"/>
<path d="M212.886 221.038C212.239 220.713 211.557 220.463 210.876 220.214C207.268 218.888 203.554 217.544 199.712 217.644" stroke="black" stroke-width="1.72156" stroke-miterlimit="10"/>
<path d="M201.178 239.901C203.128 238.496 205.538 237.859 207.927 237.611C212.887 237.097 218.197 238.166 222.958 236.3" stroke="black" stroke-width="1.72156" stroke-miterlimit="10"/>
<path d="M14.8838 273.777C15.6876 293.392 28.2042 312.078 46.0375 320.286" stroke="black" stroke-width="1.72156" stroke-miterlimit="10"/>
<path d="M1 272.925C1.4062 285.724 6.6903 298.127 14.8832 305.509" stroke="black" stroke-width="1.72156" stroke-miterlimit="10"/>
<path d="M283.067 148.768C298.362 161.713 312.569 175.946 325.486 191.265" stroke="black" stroke-width="1.72156" stroke-miterlimit="10"/>
<path d="M283.407 133.42C294.074 141.341 303.85 150.46 312.49 160.551" stroke="black" stroke-width="1.72156" stroke-miterlimit="10"/>
<path d="M159.911 159.419C151.829 156.515 144.34 152.195 136.949 147.822C133.815 145.966 130.648 144.066 128.117 141.445C125.587 138.823 123.727 135.355 123.799 131.713C123.866 128.357 125.546 125.226 127.634 122.596C134.147 114.392 144.674 110.134 155.104 109.188C165.535 108.241 175.999 110.255 186.194 112.661C201.518 116.277 217.162 121.084 228.985 131.482C232.312 134.41 235.324 137.803 237.183 141.827C239.749 147.384 239.939 153.803 238.842 159.825C237.746 165.848 235.436 171.571 233.142 177.246" fill="#DC7B2C"/>
<path d="M201.366 98.8774L180.76 104.881L181.222 115.241L170.791 133.036C170.791 133.036 195.447 142.586 204.718 162.058C214.816 163.558 218.859 155.372 218.859 155.372L228.787 131.584" fill="#FFCAA3"/>
<path d="M249.855 119.556C251.631 109.341 253.77 98.2888 253.603 90.1544C253.462 83.2679 252.409 72.8684 247.961 67.4741C242.237 60.5274 231.811 60.4155 223.061 59.4396C208.692 57.8388 198.762 70.8546 194.509 83.0131C191.243 92.3541 191.511 101.471 194.537 111.1C198.492 123.683 212.517 140.586 230.765 138.512C240.448 137.412 247.973 130.374 249.855 119.556Z" fill="#FFCAA3"/>
<path d="M232.22 97.2336C232.045 98.7534 230.96 99.8773 229.797 99.7431C228.633 99.6088 227.833 98.268 228.009 96.7465C228.184 95.2266 229.27 94.1027 230.432 94.237C231.595 94.3712 232.396 95.712 232.22 97.2336Z" fill="black"/>
<path d="M252.105 99.1203C251.929 100.64 250.843 101.764 249.682 101.63C248.518 101.496 247.718 100.155 247.893 98.6332C248.069 97.1134 249.155 95.9894 250.317 96.1237C251.48 96.2596 252.281 97.6005 252.105 99.1203Z" fill="black"/>
<path d="M243.289 95.7534C242.847 99.2733 243.21 102.85 243.217 106.382C243.222 108.568 243.299 112.418 240.459 112.914C238.597 113.239 234.54 112.129 234.54 112.129" stroke="black" stroke-width="1.72156" stroke-miterlimit="10"/>
<path d="M236.129 118.372L228.68 112.1C228.68 112.1 223.21 119.25 226.035 121.84C230.599 126.028 236.129 118.372 236.129 118.372Z" fill="white"/>
<path d="M248.224 69.6499C251.51 74.7912 253.324 78.9272 253.463 94.3509C255.037 93.9585 256.63 93.5574 258.043 92.764C259.457 91.9705 260.692 90.7226 261.107 89.1563C261.877 86.2544 259.715 83.3834 259.596 80.3834C259.51 78.2164 260.501 76.1492 261.679 74.3264C262.584 72.9237 263.644 71.5261 263.861 69.8703C264.168 67.538 262.706 65.3211 260.964 63.7393C257.074 60.2092 251.861 58.8029 247.393 56.2125C245.227 54.9578 244.076 52.9973 242.066 51.524C239.795 49.8596 237.368 48.4103 234.828 47.1986C228.967 44.3999 222.537 42.8887 216.055 42.6133C203.493 42.0763 191.084 46.7666 182.326 55.5413C170.749 67.1439 166.102 89.2716 173.366 102.086C177.46 109.308 181.219 115.243 181.219 115.243C181.684 115.981 191.702 106.988 192.316 105.766C192.937 104.527 193.171 103.138 193.552 101.804C194.848 97.258 199.368 96.4955 203.242 95.0755C208.893 93.0066 211.719 87.9756 212.814 82.2973C213.444 79.0339 213.537 75.6914 213.628 72.3694C213.609 73.113 218.175 74.7172 218.859 74.9289C225.595 77.0064 233.208 77.373 240.047 75.533C242.066 74.9908 244.217 74.2955 245.813 72.9168C246.25 72.5398 248.95 70.3901 248.224 69.6499Z" fill="#1E1611"/>
<path d="M206.129 129.388C206.489 129.649 213.642 137.462 227.326 138.684" stroke="black" stroke-width="1.72156" stroke-miterlimit="10"/>
<path d="M220.166 86.4196C221.383 84.0357 223.818 82.3145 226.474 81.9669C229.128 81.6192 231.925 82.6536 233.717 84.6433" stroke="black" stroke-width="1.72156" stroke-miterlimit="10"/>
<path d="M245.46 86.7446C246.364 84.7256 248.278 83.4364 249.949 83.7221C251.62 84.0079 252.882 85.8633 252.985 88.0269" stroke="black" stroke-width="1.72156" stroke-miterlimit="10"/>
<path d="M239.382 101.149C237.642 106.323 232.138 109.072 227.09 107.289C222.041 105.506 219.36 99.8638 221.1 94.6898C222.84 89.5159 228.344 86.7671 233.393 88.5503C238.441 90.3335 241.123 95.9756 239.382 101.149Z" stroke="#572A2F" stroke-width="1.72156" stroke-miterlimit="10"/>
<path d="M257.936 103.568C256.999 108.957 253.526 112.83 250.176 112.219C246.827 111.608 244.87 106.743 245.805 101.356C246.741 95.9669 250.214 92.0942 253.564 92.7053C256.915 93.3163 258.872 98.1787 257.936 103.568Z" stroke="#572A2F" stroke-width="1.72156" stroke-miterlimit="10"/>
<path d="M246.691 98.4986L239.889 97.2249" stroke="#572A2F" stroke-width="1.72156" stroke-miterlimit="10"/>
<path d="M221.486 93.717L200.995 95.2816" stroke="#572A2F" stroke-width="1.72156" stroke-miterlimit="10"/>
<path d="M206.851 98.974C206.75 94.0066 200.046 90.1115 195.636 91.695C185.033 95.5023 188.605 114.491 198.457 116.312C201.244 116.826 205.246 115.73 206.232 112.573" fill="#FFCAA3"/>
<path d="M194.866 100.163L203.978 108.418" stroke="black" stroke-width="1.72156" stroke-miterlimit="10"/>
<path d="M202.17 92.8501C204.389 94.1858 206.189 96.2374 207.26 98.6574" stroke="black" stroke-width="1.72156" stroke-miterlimit="10"/>
<path d="M189.571 107.356C190.938 111.417 193.728 115.714 198.145 116.446C201.21 116.954 204.721 115.611 205.976 112.43" stroke="black" stroke-width="1.72156" stroke-miterlimit="10"/>
<path d="M166.172 79.4038C166.378 72.7221 167.112 65.9905 169.286 59.6685C171.459 53.3465 175.163 47.4204 180.508 43.4048C183.467 41.1828 186.849 39.5924 190.27 38.1862C193.152 37.002 196.095 35.9348 199.143 35.2859C210.563 32.8556 222.391 36.4684 233.089 41.1466" fill="#FFC36C"/>
<path d="M238.204 42.0622C235.385 39.3444 231.738 37.5888 227.944 36.6163C225.683 36.0362 223.344 35.7213 221.013 35.8366C219.801 35.8968 218.597 36.0741 217.405 36.3082C209.128 37.9365 201.667 42.279 194.493 46.718C184.913 52.6458 175.35 59.0263 168.324 67.832C165.787 71.0111 163.542 74.6789 163.315 78.7393C163.189 80.9889 163.697 83.2316 164.434 85.3624C165.676 88.9546 168.597 94.0786 171.043 96.9891C192.112 77.2797 215.777 61.6873 243.1 52.4238C242.957 48.5115 241.024 44.78 238.204 42.0622Z" fill="#FFC36C"/>
<path d="M167.536 68.8527C167.536 68.8527 185.323 44.0553 218.337 35.8142" stroke="black" stroke-width="1.72156" stroke-miterlimit="10"/>
<path d="M176.78 71.6548C179.384 76.1574 182.054 80.741 185.932 84.2092" stroke="black" stroke-width="1.72156" stroke-miterlimit="10"/>
<path d="M197.563 53.011C200.261 58.6944 203.608 64.0904 207.526 69.0629" stroke="black" stroke-width="1.72156" stroke-miterlimit="10"/>
<path d="M219.61 41.1638C224.158 45.8507 228.046 51.1761 231.123 56.9369" stroke="black" stroke-width="1.72156" stroke-miterlimit="10"/>
<path d="M227.217 38.4822C231.124 43.2947 234.549 49.009 237.1 54.5823" stroke="black" stroke-width="1.72156" stroke-miterlimit="10"/>
<path d="M166.439 74.4309C167.717 81.5756 171.897 87.6308 177.233 91.9321" stroke="black" stroke-width="1.72156" stroke-miterlimit="10"/>
<path d="M154.274 126.427C164.345 130.19 174.517 134 183.478 139.94C192.44 145.878 201.515 154.223 204.716 164.486" stroke="black" stroke-width="1.72156" stroke-miterlimit="10"/>
<path d="M211.691 161.361C216.277 159.161 220.001 155.219 221.938 150.517" stroke="black" stroke-width="1.72156" stroke-miterlimit="10"/>
<path d="M123.795 130.628C128.452 157.376 163.737 152.259 180.173 160.552" stroke="black" stroke-width="1.72156" stroke-miterlimit="10"/>
<path d="M239.445 150.061C238.801 153.734 237.531 157.397 235.093 160.219C231.431 164.459 225.737 166.214 220.356 167.774" stroke="black" stroke-width="1.72156" stroke-miterlimit="10"/>
<path d="M225.226 161.36C227.673 178.182 230.15 197.032 229.367 214.012" stroke="black" stroke-width="1.72156" stroke-miterlimit="10"/>
<path d="M187.836 157.496C190.388 164.486 189.189 183.438 188.912 200.535" stroke="black" stroke-width="1.72156" stroke-miterlimit="10"/>
<defs>
<filter id="filter0_i_1005_849" x="20.4668" y="0" width="440.933" height="245.516" filterUnits="userSpaceOnUse" color-interpolation-filters="sRGB">
<feFlood flood-opacity="0" result="BackgroundImageFix"/>
<feBlend mode="normal" in="SourceGraphic" in2="BackgroundImageFix" result="shape"/>
<feColorMatrix in="SourceAlpha" type="matrix" values="0 0 0 0 0 0 0 0 0 0 0 0 0 0 0 0 0 0 127 0" result="hardAlpha"/>
<feOffset dy="5.36502"/>
<feGaussianBlur stdDeviation="2.68251"/>
<feComposite in2="hardAlpha" operator="arithmetic" k2="-1" k3="1"/>
<feColorMatrix type="matrix" values="0 0 0 0 0 0 0 0 0 0 0 0 0 0 0 0 0 0 0.25 0"/>
<feBlend mode="normal" in2="shape" result="effect1_innerShadow_1005_849"/>
</filter>
<filter id="filter1_i_1005_849" x="34.751" y="10.3474" width="14.9365" height="20.3023" filterUnits="userSpaceOnUse" color-interpolation-filters="sRGB">
<feFlood flood-opacity="0" result="BackgroundImageFix"/>
<feBlend mode="normal" in="SourceGraphic" in2="BackgroundImageFix" result="shape"/>
<feColorMatrix in="SourceAlpha" type="matrix" values="0 0 0 0 0 0 0 0 0 0 0 0 0 0 0 0 0 0 127 0" result="hardAlpha"/>
<feOffset dy="5.36502"/>
<feGaussianBlur stdDeviation="2.68251"/>
<feComposite in2="hardAlpha" operator="arithmetic" k2="-1" k3="1"/>
<feColorMatrix type="matrix" values="0 0 0 0 0 0 0 0 0 0 0 0 0 0 0 0 0 0 0.25 0"/>
<feBlend mode="normal" in2="shape" result="effect1_innerShadow_1005_849"/>
</filter>
<filter id="filter2_i_1005_849" x="58.6963" y="10.3474" width="14.9365" height="20.3023" filterUnits="userSpaceOnUse" color-interpolation-filters="sRGB">
<feFlood flood-opacity="0" result="BackgroundImageFix"/>
<feBlend mode="normal" in="SourceGraphic" in2="BackgroundImageFix" result="shape"/>
<feColorMatrix in="SourceAlpha" type="matrix" values="0 0 0 0 0 0 0 0 0 0 0 0 0 0 0 0 0 0 127 0" result="hardAlpha"/>
<feOffset dy="5.36502"/>
<feGaussianBlur stdDeviation="2.68251"/>
<feComposite in2="hardAlpha" operator="arithmetic" k2="-1" k3="1"/>
<feColorMatrix type="matrix" values="0 0 0 0 0 0 0 0 0 0 0 0 0 0 0 0 0 0 0.25 0"/>
<feBlend mode="normal" in2="shape" result="effect1_innerShadow_1005_849"/>
</filter>
</defs>
</svg>
