<svg width="400" height="400" viewBox="0 0 400 400" fill="none" xmlns="http://www.w3.org/2000/svg">
<g clip-path="url(#clip0_431_6204)">
<path d="M86.5 187C75 187 64.3333 186.25 54.5 184.75C44.6667 183.417 36.0833 181.083 28.75 177.75C21.5833 174.417 15.9167 169.75 11.75 163.75C7.75 157.75 5.75 150.25 5.75 141.25C5.75 138.917 5.83333 136.417 6 133.75C6.33333 130.917 6.83333 128.25 7.5 125.75H59.75C59.0833 127.083 58.6667 128.417 58.5 129.75C58.3333 130.917 58.25 132.083 58.25 133.25C58.25 137.083 59.3333 140.083 61.5 142.25C63.6667 144.25 66.6667 145.667 70.5 146.5C74.3333 147.167 78.6667 147.5 83.5 147.5C86 147.5 88.75 147.417 91.75 147.25C94.75 146.917 97.5833 146.333 100.25 145.5C103.083 144.667 105.333 143.417 107 141.75C108.833 139.917 109.75 137.5 109.75 134.5C109.75 131.833 108.583 129.667 106.25 128C103.917 126.167 100.75 124.667 96.75 123.5C92.75 122.167 88.25 121 83.25 120C78.25 118.833 73.0833 117.583 67.75 116.25C61.9167 114.75 56.0833 113 50.25 111C44.5833 108.833 39.4167 106.083 34.75 102.75C30.25 99.4167 26.5833 95.25 23.75 90.25C21.0833 85.0833 19.75 78.8333 19.75 71.5C19.75 60 22.1667 50.3333 27 42.5C31.8333 34.5 38.25 28.0833 46.25 23.25C54.25 18.25 63.1667 14.6667 73 12.5C82.8333 10.1667 92.75 8.99999 102.75 8.99999C113.083 8.99999 122.667 9.91666 131.5 11.75C140.333 13.4167 148 16.0833 154.5 19.75C161 23.4167 166.083 28.0833 169.75 33.75C173.417 39.25 175.25 45.8333 175.25 53.5C175.25 54.8333 175.167 56.3333 175 58C174.833 59.6667 174.5 62 174 65H122.25C122.417 63.8333 122.5 63 122.5 62.5C122.5 61.8333 122.5 61.1667 122.5 60.5C122.5 56.6667 121 53.4167 118 50.75C115.167 47.9167 110.25 46.5 103.25 46.5C97.75 46.5 93.0833 47.1667 89.25 48.5C85.5833 49.6667 82.8333 51.25 81 53.25C79.1667 55.0833 78.25 57.0833 78.25 59.25C78.25 61.4167 78.9167 63.25 80.25 64.75C81.5833 66.25 83.5 67.6667 86 69C88.5 70.1667 91.4167 71.25 94.75 72.25C98.25 73.0833 102.083 73.9167 106.25 74.75C112.75 76.0833 119.583 77.75 126.75 79.75C134.083 81.5833 140.917 84.1667 147.25 87.5C153.583 90.8333 158.667 95.25 162.5 100.75C166.5 106.083 168.5 112.917 168.5 121.25C168.5 132.083 166.25 141.667 161.75 150C157.417 158.167 151.417 165 143.75 170.5C136.083 176 127.333 180.167 117.5 183C107.667 185.667 97.3333 187 86.5 187Z" fill="#DC7B2C"/>
<path d="M110 284L140.25 112H212.25C238.083 112 257.833 117.417 271.5 128.25C285.167 138.917 292 155.417 292 177.75C292 181.25 291.833 184.917 291.5 188.75C291.333 192.417 290.833 196.333 290 200.5C286.667 219.5 280.583 235.167 271.75 247.5C263.083 259.833 251.833 269 238 275C224.333 281 208.167 284 189.5 284H110ZM172.5 242.75H190.75C196.917 242.75 202.333 241.917 207 240.25C211.667 238.583 215.667 236.167 219 233C222.333 229.833 225.083 225.917 227.25 221.25C229.417 216.583 231 211.333 232 205.5C233.167 199.167 234 194.417 234.5 191.25C235 187.917 235.333 185.5 235.5 184C235.667 182.333 235.75 181 235.75 180C235.75 174.333 234.667 169.5 232.5 165.5C230.5 161.5 227.333 158.5 223 156.5C218.833 154.333 213.333 153.25 206.5 153.25H188.25L172.5 242.75Z" fill="#002366"/>
<path d="M212 384L242.25 212H314.25C340.083 212 359.833 217.417 373.5 228.25C387.167 238.917 394 255.417 394 277.75C394 281.25 393.833 284.917 393.5 288.75C393.333 292.417 392.833 296.333 392 300.5C388.667 319.5 382.583 335.167 373.75 347.5C365.083 359.833 353.833 369 340 375C326.333 381 310.167 384 291.5 384H212ZM274.5 342.75H292.75C298.917 342.75 304.333 341.917 309 340.25C313.667 338.583 317.667 336.167 321 333C324.333 329.833 327.083 325.917 329.25 321.25C331.417 316.583 333 311.333 334 305.5C335.167 299.167 336 294.417 336.5 291.25C337 287.917 337.333 285.5 337.5 284C337.667 282.333 337.75 281 337.75 280C337.75 274.333 336.667 269.5 334.5 265.5C332.5 261.5 329.333 258.5 325 256.5C320.833 254.333 315.333 253.25 308.5 253.25H290.25L274.5 342.75Z" fill="#6C91C2"/>
</g>
<defs>
<clipPath id="clip0_431_6204">
<rect width="400" height="400" fill="white"/>
</clipPath>
</defs>
</svg>
