<svg width="1585" height="1000" viewBox="0 0 1585 1000" fill="none" xmlns="http://www.w3.org/2000/svg">
<rect x="885.229" y="120.33" width="563.796" height="59.1636" rx="18.9511" fill="#F8F9FA"/>
<path d="M1430.76 437.528H902.736C894.53 437.528 887.881 430.882 887.881 422.687V161.927H1445.62V422.685C1445.62 430.882 1438.97 437.528 1430.76 437.528Z" fill="#D5D8BC"/>
<path d="M1430.76 122.353C1438.97 122.353 1445.62 128.998 1445.62 137.193V422.686C1445.62 430.884 1438.96 437.527 1430.76 437.527H902.735C894.529 437.527 887.88 430.882 887.88 422.686V137.196C887.88 128.998 894.531 122.355 902.735 122.355L1430.76 122.353ZM1430.76 118.803H902.735C892.584 118.803 884.326 127.053 884.326 137.193V422.686C884.326 432.827 892.584 441.077 902.735 441.077H1430.76C1440.91 441.077 1449.17 432.827 1449.17 422.686V137.196C1449.17 127.055 1440.91 118.803 1430.76 118.803Z" fill="white"/>
<g filter="url(#filter0_i_438_2788)">
<path d="M914.264 134.803C918.959 134.803 922.766 138.606 922.766 143.296C922.766 147.987 918.959 151.79 914.264 151.79C909.569 151.79 905.762 147.987 905.762 143.296C905.762 138.606 909.569 134.803 914.264 134.803ZM914.264 131.253C907.617 131.253 902.209 136.656 902.209 143.296C902.209 149.937 907.617 155.34 914.264 155.34C920.911 155.34 926.32 149.937 926.32 143.296C926.32 136.656 920.911 131.253 914.264 131.253Z" fill="white"/>
</g>
<g filter="url(#filter1_i_438_2788)">
<path d="M947.222 134.803C951.917 134.803 955.724 138.606 955.724 143.296C955.724 147.987 951.917 151.79 947.222 151.79C942.527 151.79 938.72 147.987 938.72 143.296C938.72 138.606 942.527 134.803 947.222 134.803ZM947.222 131.253C940.575 131.253 935.167 136.656 935.167 143.296C935.167 149.937 940.575 155.34 947.222 155.34C953.869 155.34 959.278 149.937 959.278 143.296C959.278 136.656 953.869 131.253 947.222 131.253Z" fill="white"/>
</g>
<path d="M887.881 161.927H1445.62" stroke="white" stroke-width="3.55334" stroke-miterlimit="10"/>
<path d="M1369.46 388.248C1359.02 370.821 1347.94 352.738 1330.79 342.108C1313.64 331.477 1288.53 331.075 1275.73 346.796C1264.38 360.73 1266.49 381.047 1269.21 398.912C1256.58 382.805 1241.79 368.448 1225.37 356.362C1212.7 347.035 1198.72 338.927 1183.34 336.005C1167.36 332.968 1149.13 336.315 1136.03 346.185C1118.14 359.656 1118.41 380.865 1120.17 401.324C1098.45 360.207 1074.32 319.417 1040.89 286.553C1032.24 278.048 1022.08 270.683 1010.38 267.425C1003.68 265.557 996.108 265.193 990.095 268.7C980.956 274.027 978.538 286.052 978.277 296.621C977.962 309.372 979.433 322.165 982.636 334.514C976.801 328.252 969.105 323.616 960.695 322.009C941.346 318.308 922.25 332.928 921.146 352.772C920 373.415 932.574 393.121 942.177 410.461C945.837 417.068 949.599 423.652 953.742 429.973C954.55 431.206 957.632 437.335 959.504 437.335C959.513 437.335 1397.13 437.335 1397.13 437.335C1387.91 421.934 1378.69 403.643 1369.46 388.248Z" fill="#B5AE6B"/>
<mask id="mask0_438_2788" style="mask-type:luminance" maskUnits="userSpaceOnUse" x="887" y="122" width="559" height="316">
<path d="M1430.76 437.518H902.737C894.531 437.518 887.882 430.873 887.882 422.678V137.185C887.882 128.987 894.534 122.344 902.737 122.344H1430.76C1438.97 122.344 1445.62 128.99 1445.62 137.185V422.678C1445.62 430.873 1438.97 437.518 1430.76 437.518Z" fill="white"/>
</mask>
<g mask="url(#mask0_438_2788)">
<path d="M1407.76 417.974L1261.39 137.728L1219.8 135.283L1187.13 161.916L1103.1 222.952L1197.57 499.513L1407.76 417.974Z" fill="white"/>
<path d="M1132.76 218.917C1140.93 225.717 1152.3 228.485 1162.68 226.202" stroke="black" stroke-width="2.36889" stroke-miterlimit="10"/>
<path d="M1172.92 222.951C1183.15 219.515 1192.22 212.74 1198.42 203.912C1204.62 195.085 1207.9 184.253 1207.65 173.474" stroke="black" stroke-width="2.36889" stroke-miterlimit="10"/>
<path d="M1367.82 313.78C1342.5 265.531 1266.5 113.476 1246.45 120.964C1223.44 129.554 1197.56 151.705 1197.56 151.705C1197.56 151.705 1209.96 191.342 1210.91 195.1C1214.35 208.805 1217.9 222.481 1221.55 236.134C1230.63 270.12 1238.72 304.607 1249.94 337.971C1261.33 371.857 1273.95 405.349 1287.56 438.407C1293.02 451.66 1297.4 467.191 1307.78 477.564C1313.67 483.554 1321.9 487.731 1330.27 486.995C1336.05 486.486 1341.37 483.743 1346.51 481.054C1369.12 469.222 1432.16 441.006 1432.16 441.006C1432.16 441.006 1399.76 374.636 1367.82 313.78Z" fill="#13431D"/>
<path d="M1238.69 499.223C1232.54 476.827 1222 456.216 1214.2 434.446C1203.99 405.965 1194.92 377.089 1184.39 348.721C1168.32 305.449 1145.54 245.61 1128.1 202.873C1128.1 202.873 1096.13 221.197 1089.68 225.639C1083.23 230.084 1084.63 240.655 1084.63 240.655C1110.08 335.47 1187.16 550.809 1187.16 550.809C1196.28 545.991 1218.92 533.29 1228.04 528.472C1240.07 522.125 1242.15 511.806 1238.69 499.223Z" fill="#13431D"/>
<path d="M1096.03 221.655C1125.58 267.019 1148.6 303.959 1179.41 348.488" stroke="black" stroke-width="2.36889" stroke-miterlimit="10"/>
<path d="M1237.69 132.414C1243.82 192.593 1247.56 253.013 1248.9 313.488" stroke="black" stroke-width="2.36889" stroke-miterlimit="10"/>
</g>
<path d="M930.859 453.657C924.693 458.355 918.351 462.82 911.853 467.045C905.583 471.12 898.872 474.58 892.715 478.792C891.197 479.831 889.778 481.007 888.361 482.179C883.199 486.453 877.995 490.772 873.894 496.07C873.35 496.775 872.809 497.511 872.075 498.016C871.341 498.522 870.35 498.759 869.545 498.375C868.709 497.975 868.285 497.036 868.043 496.141C867.041 492.426 868.055 488.455 869.576 484.919C870.554 482.642 871.741 480.468 872.771 478.215C873.627 476.35 874.757 474.376 874.778 472.308C858.191 476.378 843.684 486.178 828.061 493.074C824.863 494.487 818.349 494.184 817.669 491.446C816.771 487.828 839.884 475.723 850.956 467.066C843.234 469.603 835.047 472.242 827.841 476.04C822.845 478.671 817.517 480.749 811.912 481.613C808.769 482.096 801.669 482.437 803.924 477.188C804.59 475.64 806.004 474.561 807.383 473.588C818.064 466.039 830.252 461.431 841.324 454.469C829.677 457.081 818.398 463.258 806.547 461.826C805.393 461.687 804.161 461.431 803.365 460.584C802.155 459.294 801.925 457.73 803.057 456.369C804.19 455.011 805.888 454.284 807.523 453.605C819.505 448.626 832.055 443.017 844.037 438.038C837.906 438.715 832.017 440.745 826.019 442.186C820.021 443.628 813.661 444.473 807.731 442.776C805.822 442.229 803.6 440.601 804.341 438.762C804.699 437.872 805.639 437.385 806.504 436.971C821.217 429.966 835.93 422.961 850.641 415.953C854.768 413.989 858.897 412.022 863.097 410.214C872.215 406.291 881.029 401.804 890.173 397.889C899.775 393.781 909.425 389.798 919.128 385.936" fill="#7A492B"/>
<path d="M874.488 472.218C878.961 471.03 883.476 470 888.022 469.129" stroke="black" stroke-width="2.36889" stroke-miterlimit="10"/>
<path d="M850.336 466.944C856.621 463.948 863.064 461.281 869.628 458.959" stroke="black" stroke-width="2.36889" stroke-miterlimit="10"/>
<path d="M841.327 454.241C846.451 452.016 851.577 449.789 856.701 447.565" stroke="black" stroke-width="2.36889" stroke-miterlimit="10"/>
<path d="M838.271 440.102C842.043 438.732 845.722 437.108 849.273 435.244" stroke="black" stroke-width="2.36889" stroke-miterlimit="10"/>
<path d="M1089.68 225.642C1078.73 232.931 1067.9 241.072 1060.95 248.623C1049.8 260.735 984.264 340.086 984.264 340.086C984.264 340.086 917.134 380.53 878.661 402.865L920.728 471.332C920.728 471.332 998.721 443.319 1038.5 415.405C1074.65 390.031 1143.87 306.892 1143.87 306.892" fill="#13431D"/>
<path d="M1117.11 340.101L1096.02 274.599" stroke="black" stroke-width="2.36889" stroke-miterlimit="10"/>
<path d="M914.062 382.052L960.737 454.49" stroke="black" stroke-width="2.36889" stroke-miterlimit="10"/>
<path d="M908.332 451.161L947.052 433.251" stroke="black" stroke-width="2.36889" stroke-miterlimit="10"/>
<path d="M934.263 432.355C934.457 434.13 933.175 435.725 931.401 435.921C929.624 436.115 928.028 434.835 927.831 433.06C927.637 431.285 928.918 429.69 930.695 429.494C932.469 429.3 934.066 430.58 934.263 432.355Z" stroke="black" stroke-width="2.36889" stroke-miterlimit="10"/>
<path d="M915.346 440.909C917.133 440.909 918.582 439.462 918.582 437.677C918.582 435.891 917.133 434.444 915.346 434.444C913.559 434.444 912.11 435.891 912.11 437.677C912.11 439.462 913.559 440.909 915.346 440.909Z" stroke="black" stroke-width="2.36889" stroke-miterlimit="10"/>
<path d="M983.81 341.074C983.755 340.638 983.701 340.203 983.646 339.77C992.584 337.093 1001.12 333.066 1008.87 327.869" stroke="black" stroke-width="2.36889" stroke-miterlimit="10"/>
<path d="M1015.39 263.882C1028.07 248.636 1043.6 235.76 1060.94 226.114" stroke="black" stroke-width="2.36889" stroke-miterlimit="10"/>
<path d="M1025.61 229.053C1037.61 220.126 1050.74 212.704 1064.58 207.02" stroke="black" stroke-width="2.36889" stroke-miterlimit="10"/>
<path d="M1154 104.443L1163.37 132.176L1196.82 164.498C1196.82 164.498 1197.69 183.729 1178.77 203.89C1159.99 223.896 1139.65 210.469 1139.65 210.469L1115.37 174.802" fill="#7A492B"/>
<path d="M1075.71 176.73C1071.86 164.417 1067.01 137.855 1067.38 127.74C1067.69 119.176 1070.26 110.796 1075.9 104.174C1083.17 95.6477 1100.27 98.7029 1111.18 97.6664C1129.11 95.9648 1140.3 117.181 1145.36 132.391C1149.24 144.074 1151.08 156.103 1147.12 168.021C1140.68 187.399 1119.99 206.984 1098.1 201.685C1086.21 198.805 1079.43 188.665 1075.71 176.73Z" fill="#7A492B"/>
<path d="M1170.93 100.973C1168.05 97.9058 1164.1 95.499 1162.82 91.4948C1162.11 89.275 1161.01 82.6321 1160.29 80.417C1156.29 68.0589 1145.91 63.9222 1134.13 65.9527C1132.87 54.1342 1120.32 52.9935 1110.02 52.8752C1105.72 52.8255 1101.36 52.4066 1097.51 50.3548C1093.45 48.1847 1089.76 45.1129 1085.02 44.6609C1080.78 44.2586 1076.42 45.6525 1072.9 47.9646C1060.68 55.9896 1057.19 71.5165 1042.23 76.2046C1037.5 77.686 1032.56 78.1238 1028.47 81.224C1025.43 83.5361 1023.16 86.996 1022.73 90.7967C1022.12 96.2184 1025.71 99.5174 1029.41 102.816C1033.73 106.664 1036.25 111.568 1035.9 117.423C1035.69 120.968 1034.74 124.421 1034.17 127.925C1032.55 137.905 1035.74 147.338 1044.11 153.38C1045.88 154.653 1048.26 155.846 1054.72 157.247C1059.28 158.234 1071.09 156.53 1071.09 156.53C1071.09 156.53 1068.17 139.555 1068.23 132.947C1068.28 126.662 1070.2 120.804 1073.88 115.783C1077.02 111.497 1083.89 109.989 1089 110.219C1096.67 110.562 1103.99 114.782 1111.61 113.889C1114.77 113.518 1117.78 112.186 1120.26 110.2C1130.51 116.829 1141.12 126.574 1143.47 138.457C1143.59 139.06 1145.09 146.096 1144.56 146.207C1153.35 144.361 1164.42 143.651 1168.37 134.067C1169.73 130.761 1169.04 127.284 1170.07 123.933C1170.93 121.157 1173.41 119.131 1174.57 116.467C1176.81 111.31 1174.77 105.072 1170.93 100.973Z" fill="#2C221D"/>
<path d="M1134.4 137.001C1134.86 129.364 1145.41 123.775 1152.11 126.475C1168.21 132.969 1161.57 161.968 1146.29 164.179C1141.96 164.803 1135.87 162.875 1134.54 157.959" fill="#7A492B"/>
<path d="M1152.79 139.55L1138.26 151.705" stroke="black" stroke-width="2.36889" stroke-miterlimit="10"/>
<path d="M1141.97 127.862C1138.48 129.783 1135.58 132.834 1133.79 136.49" stroke="black" stroke-width="2.36889" stroke-miterlimit="10"/>
<path d="M1160.51 150.934C1158.17 157.099 1153.61 163.545 1146.76 164.404C1142.01 165.001 1136.69 162.724 1134.95 157.757" stroke="black" stroke-width="2.36889" stroke-miterlimit="10"/>
<path d="M1129.01 194.836C1129.01 194.836 1136.83 189.874 1141.97 178.945" stroke="black" stroke-width="2.36889" stroke-miterlimit="10"/>
<path d="M1088.75 147.348C1089.47 154.159 1090.22 160.968 1091 167.774C1091.11 168.714 1091.25 169.722 1091.9 170.41C1094.47 173.125 1100.36 171.821 1103.1 170.195" stroke="black" stroke-width="2.36889" stroke-miterlimit="10"/>
<path d="M1109.52 172.984L1097.74 179.861C1097.74 179.861 1102.3 188.594 1106.86 186.888C1115.37 183.714 1109.52 172.984 1109.52 172.984Z" fill="white"/>
<path d="M1094.75 132.624C1095.96 130.146 1098.44 128.483 1101.07 127.635C1105.5 126.204 1110.58 126.906 1114.46 129.491" stroke="black" stroke-width="2.36889" stroke-miterlimit="10"/>
<path d="M1067.22 142.509C1067.64 139.913 1069.13 137.949 1070.88 136.768C1073.82 134.773 1077.61 134.794 1080.88 136.82" stroke="black" stroke-width="2.36889" stroke-miterlimit="10"/>
<path d="M1110.35 142.779C1110.95 145.321 1109.84 147.761 1107.87 148.227C1105.89 148.693 1103.8 147.013 1103.2 144.471C1102.6 141.93 1103.71 139.49 1105.68 139.023C1107.66 138.557 1109.74 140.238 1110.35 142.779Z" fill="black"/>
<path d="M1083.17 150.858C1083.78 153.399 1082.67 155.839 1080.69 156.306C1078.72 156.774 1076.63 155.092 1076.03 152.55C1075.42 150.008 1076.53 147.568 1078.51 147.102C1080.48 146.636 1082.57 148.316 1083.17 150.858Z" fill="black"/>
<path d="M1076.01 113.512C1070.94 116.233 1068.74 122.183 1065.31 126.802C1059.77 134.269 1050.17 138.521 1040.91 137.606" stroke="#635149" stroke-width="2.36889" stroke-miterlimit="10"/>
<path d="M1121.13 109.517C1125.72 105.284 1129.02 99.6679 1130.47 93.6001" stroke="#635149" stroke-width="2.36889" stroke-miterlimit="10"/>
<path d="M836.9 152.073C737.082 128.626 664.407 151.413 581.392 180.029C540.471 194.134 499.049 209.05 455.928 214.725C423.742 218.961 391.226 220.085 358.92 223.292C325.331 226.626 291.757 230.834 258.791 238.237C203.257 250.708 106.533 273.688 112.467 348.38C114.843 378.291 135.282 405.478 133.219 435.412C130.572 473.777 94.7454 503.493 71.2744 530.6C38.875 568.017 9.73766 609.54 15.0819 661.557C19.3909 703.514 46.6687 740.382 80.2999 765.879C113.931 791.376 153.731 807.201 192.945 822.825C252.675 846.623 303.184 874.494 350.171 918.744C377.39 944.378 406.371 969.776 441.648 982.2C489.052 998.896 549.485 984.368 568.789 934.218C579.312 906.878 582.271 875.05 598.592 850.213C615.404 824.628 650.852 803.1 682.124 807.241C733.055 813.986 752.919 851.735 777.195 891.438C789.051 910.827 803.125 928.685 823.038 940.326C857.195 960.293 891.323 952.507 927.333 944.406C966.24 935.655 1005.54 928.581 1045.15 923.851C1112.34 915.828 1179.95 919.42 1246.91 927.857C1310.48 935.87 1402.8 977.63 1455.23 920.956C1478.21 896.126 1482.78 862.133 1474.41 830.415C1462.43 784.965 1436.63 734.508 1438.02 687.303C1440.08 617.613 1471.52 571.226 1509.95 516.772C1528.35 490.697 1542.53 461.724 1541.87 429.101C1540.34 354.044 1493.24 296.416 1444.14 244.667C1395.13 193.031 1346.18 134.196 1296.6 88.4109" stroke="#ED725A" stroke-width="3.55334" stroke-miterlimit="10"/>
<path d="M1550.65 228.711C1550.65 239.616 1541.8 248.455 1530.89 248.455C1519.97 248.455 1511.12 239.616 1511.12 228.711C1511.12 217.806 1519.97 208.967 1530.89 208.967C1541.8 208.967 1550.65 217.806 1550.65 228.711Z" stroke="#ED725A" stroke-width="3.55334" stroke-miterlimit="10"/>
<path d="M888.979 897.21C888.979 908.115 880.132 916.954 869.216 916.954C858.3 916.954 849.452 908.115 849.452 897.21C849.452 886.305 858.302 877.466 869.216 877.466C880.132 877.466 888.979 886.305 888.979 897.21Z" stroke="#ED725A" stroke-width="3.55334" stroke-miterlimit="10"/>
<path d="M819.952 37.5039C828.158 37.5039 834.807 44.1492 834.807 52.3445V345.756C834.807 353.953 828.155 360.596 819.952 360.596H249.914C241.708 360.596 235.058 353.951 235.058 345.756V52.3445C235.058 44.1492 241.71 37.5039 249.914 37.5039H819.952ZM819.952 33.9541H249.914C239.763 33.9541 231.505 42.2039 231.505 52.3445V345.756C231.505 355.896 239.763 364.146 249.914 364.146H819.952C830.103 364.146 838.361 355.896 838.361 345.756V52.3445C838.363 42.2039 830.103 33.9541 819.952 33.9541Z" fill="white"/>
<rect x="233.784" y="35.1313" width="601.699" height="63.8967" rx="18.9511" fill="#F8F9FA"/>
<path d="M819.95 360.598H249.912C241.706 360.598 235.057 353.952 235.057 345.757V77.0808H834.808V345.757C834.808 353.955 828.156 360.598 819.95 360.598Z" fill="#AFB9E8"/>
<g filter="url(#filter2_i_438_2788)">
<path d="M269.943 58.4503C269.943 63.1408 266.137 66.9438 261.441 66.9438C256.746 66.9438 252.939 63.1408 252.939 58.4503C252.939 53.7598 256.746 49.9568 261.441 49.9568C266.137 49.9568 269.943 53.7598 269.943 58.4503Z" stroke="white" stroke-width="3.55334" stroke-miterlimit="10"/>
</g>
<g filter="url(#filter3_i_438_2788)">
<path d="M302.899 58.4503C302.899 63.1408 299.093 66.9438 294.397 66.9438C289.702 66.9438 285.896 63.1408 285.896 58.4503C285.896 53.7598 289.702 49.9568 294.397 49.9568C299.093 49.9568 302.899 53.7598 302.899 58.4503Z" stroke="white" stroke-width="3.55334" stroke-miterlimit="10"/>
</g>
<path d="M235.057 77.0808H834.808" stroke="white" stroke-width="3.55334" stroke-miterlimit="10"/>
<path d="M786.588 319.449C780.557 311.462 770.264 304.111 762.229 309.611C755.487 314.226 755.236 324.646 755.76 333.307C736.643 306.272 713.897 282.292 688.471 262.365C674.694 251.569 658.86 241.589 641.937 242.891C625.013 244.193 616.234 267.917 620.683 285.768C574.475 224.643 522.942 181.285 469.275 143.768C450.959 130.965 430.634 118.619 408.904 111.321C385.791 103.556 353.863 94.4567 332.979 112.485C324.031 120.209 319.369 131.995 318.1 143.74C316.529 158.278 318.99 173.629 322.956 187.637C332.441 221.145 347.654 252.738 365.3 282.5C382.953 312.271 421.781 361.162 421.781 361.162H804.966C802.031 345.919 795.668 331.473 786.588 319.449Z" fill="#909DF4"/>
<path d="M585.081 301.269C585.081 301.269 511.515 237.531 479.962 226.723C448.408 215.915 383.571 233.276 382.759 233.276C381.944 233.276 324.719 360.606 324.719 360.606H559.419L585.081 301.269Z" fill="#DC7B2C"/>
<path d="M724.838 474.317C730.203 479.909 735.78 485.297 741.55 490.473C747.117 495.466 753.215 499.92 758.644 505.03C759.983 506.291 761.205 507.671 762.423 509.048C766.862 514.065 771.339 519.137 774.573 525.003C775.004 525.784 775.423 526.594 776.07 527.206C776.719 527.819 777.659 528.208 778.515 527.952C779.403 527.687 779.967 526.823 780.343 525.976C781.907 522.459 781.518 518.379 780.561 514.652C779.948 512.252 779.109 509.919 778.439 507.536C777.882 505.562 777.07 503.437 777.368 501.39C793.128 507.966 805.949 519.887 820.318 529.107C823.261 530.995 829.744 531.698 830.836 529.1C832.281 525.661 811.314 510.141 801.711 499.882C808.95 503.579 816.63 507.448 823.166 512.311C827.695 515.681 832.639 518.557 838.043 520.273C841.075 521.236 848.037 522.663 846.618 517.13C846.199 515.497 844.967 514.214 843.759 513.04C834.371 503.936 823.04 497.504 813.176 488.918C824.282 493.294 834.473 501.134 846.402 501.546C847.565 501.586 848.821 501.522 849.738 500.808C851.133 499.721 851.6 498.209 850.692 496.692C849.783 495.175 848.217 494.196 846.708 493.273C835.638 486.507 824.104 479.031 813.034 472.265C818.987 473.879 824.492 476.792 830.194 479.14C835.899 481.487 842.051 483.302 848.172 482.54C850.143 482.294 852.59 481.028 852.142 479.097C851.927 478.162 851.074 477.535 850.28 476.995C836.825 467.806 823.37 458.617 809.917 449.43C806.143 446.853 802.367 444.273 798.496 441.84C793.837 438.911 788.457 436.736 784.129 433.439C780.748 430.867 776.667 428.957 773.042 426.732C764.088 421.237 755.416 415.312 747.006 409.014" fill="#FFCAA3"/>
<path d="M777.665 501.339C773.43 499.476 769.128 497.763 764.771 496.201" stroke="black" stroke-width="2.36889" stroke-miterlimit="10"/>
<path d="M802.346 499.855C796.599 495.926 790.646 492.298 784.518 488.995" stroke="black" stroke-width="2.36889" stroke-miterlimit="10"/>
<path d="M813.208 488.69C808.487 485.702 803.768 482.713 799.047 479.724" stroke="black" stroke-width="2.36889" stroke-miterlimit="10"/>
<path d="M818.406 475.19C814.891 473.257 811.508 471.084 808.286 468.694" stroke="black" stroke-width="2.36889" stroke-miterlimit="10"/>
<path d="M496.901 228.707C525.961 237.832 540.543 238.665 566.54 254.779C594.166 271.901 662.506 343.839 662.506 343.839C662.506 343.839 754.725 408.791 789.287 433.351L727.2 492.47C658.528 451.458 588.04 402.496 535.983 341.799" fill="#DC7B2C"/>
<path d="M391.461 348.257C391.461 348.257 420.281 332.816 432.964 329.628C450.532 325.214 471.368 323.967 476.954 325.666C479.57 326.461 489.412 330.501 494.562 336.519C500.032 338.909 502.254 340.107 505.502 341.472C508.75 342.838 510.275 346.658 513.677 349.568C517.076 352.479 520.81 360.587 520.81 360.587C520.81 360.587 494.875 360.675 487.591 360.916C480.304 361.157 472.437 375.054 456.136 379.976" fill="#FFCAA3"/>
<path d="M450.839 217.251C430.845 217.09 411.375 211.886 391.422 211.874C355.181 211.853 334.379 230.847 316.75 257.174C303.401 277.11 290.832 301.644 281.373 323.532C270.334 349.081 257.968 377.532 254.747 405.434C253.273 418.196 255.109 431.378 261.015 442.721C271.942 463.705 296.224 467.371 310.387 468.942C324.551 470.516 349.37 465.736 361.524 458.205C425.501 418.575 467.802 378.857 467.802 378.857L398.977 343.612L365.959 356.52L407.656 279.512" fill="#DC7B2C"/>
<path d="M404.271 285.765L365.961 356.524" stroke="black" stroke-width="2.36889" stroke-miterlimit="10"/>
<path d="M398.978 343.621C379.243 351.272 359.505 358.921 339.77 366.572C326.296 371.795 313.087 382.129 302.354 391.737" stroke="black" stroke-width="2.36889" stroke-miterlimit="10"/>
<path d="M375.332 353.229L446.636 397.062" stroke="black" stroke-width="2.36889" stroke-miterlimit="10"/>
<path d="M566.986 318.936C557.546 334.527 544.475 360.592 544.475 360.592" stroke="black" stroke-width="2.36889" stroke-miterlimit="10"/>
<path d="M764.112 415.518L694.938 473.077" stroke="black" stroke-width="2.36889" stroke-miterlimit="10"/>
<path d="M491.899 343.899C496.914 345.229 502.017 346.235 507.162 346.91C508.752 347.118 510.408 347.317 511.753 348.185" stroke="black" stroke-width="2.36889" stroke-miterlimit="10"/>
<path d="M496.327 337.865C495.436 337.418 494.498 337.075 493.56 336.732C488.595 334.909 483.483 333.061 478.195 333.198" stroke="black" stroke-width="2.36889" stroke-miterlimit="10"/>
<path d="M480.21 363.801C482.894 361.87 486.21 360.995 489.498 360.654C496.326 359.946 503.634 361.416 510.186 358.851" stroke="black" stroke-width="2.36889" stroke-miterlimit="10"/>
<path d="M223.816 410.381C224.923 437.35 242.149 463.042 266.693 474.328" stroke="black" stroke-width="2.36889" stroke-miterlimit="10"/>
<path d="M204.708 409.209C205.267 426.806 212.54 443.86 223.815 454.01" stroke="black" stroke-width="2.36889" stroke-miterlimit="10"/>
<path d="M592.918 238.501C613.968 256.3 633.521 275.869 651.299 296.931" stroke="black" stroke-width="2.36889" stroke-miterlimit="10"/>
<path d="M593.383 217.4C608.063 228.291 621.518 240.829 633.41 254.704" stroke="black" stroke-width="2.36889" stroke-miterlimit="10"/>
<path d="M423.418 253.146C412.294 249.154 401.987 243.214 391.815 237.2C387.501 234.649 383.142 232.036 379.66 228.432C376.178 224.828 373.617 220.059 373.717 215.052C373.809 210.437 376.121 206.132 378.995 202.516C387.958 191.237 402.447 185.382 416.802 184.081C431.158 182.779 445.56 185.548 459.591 188.856C480.682 193.829 502.212 200.438 518.484 214.735C523.063 218.76 527.209 223.425 529.767 228.958C533.299 236.599 533.56 245.424 532.051 253.704C530.542 261.985 527.363 269.854 524.205 277.656" fill="#DC7B2C"/>
<path d="M480.472 169.91L452.111 178.164L452.746 192.408L438.391 216.876C438.391 216.876 472.325 230.006 485.084 256.778C498.982 258.842 504.547 247.587 504.547 247.587L518.21 214.879" fill="#FFCAA3"/>
<path d="M547.207 198.341C549.652 184.295 552.596 169.1 552.366 157.915C552.172 148.447 550.722 134.148 544.601 126.731C536.722 117.18 522.374 117.026 510.33 115.684C490.555 113.484 476.889 131.379 471.035 148.097C466.539 160.94 466.909 173.475 471.073 186.714C476.517 204.016 495.819 227.255 520.934 224.403C534.261 222.891 544.618 213.214 547.207 198.341Z" fill="#FFCAA3"/>
<path d="M522.937 167.645C522.696 169.735 521.203 171.28 519.602 171.095C518.001 170.911 516.899 169.067 517.141 166.975C517.382 164.885 518.877 163.34 520.476 163.525C522.077 163.709 523.179 165.553 522.937 167.645Z" fill="black"/>
<path d="M550.305 170.24C550.063 172.33 548.568 173.875 546.969 173.691C545.368 173.506 544.266 171.663 544.508 169.571C544.749 167.481 546.244 165.936 547.843 166.12C549.445 166.307 550.546 168.151 550.305 170.24Z" fill="black"/>
<path d="M538.17 165.614C537.561 170.454 538.061 175.371 538.07 180.227C538.078 183.233 538.184 188.527 534.276 189.208C531.712 189.656 526.129 188.129 526.129 188.129" stroke="black" stroke-width="2.36889" stroke-miterlimit="10"/>
<path d="M528.316 196.711L518.063 188.087C518.063 188.087 510.535 197.918 514.422 201.48C520.705 207.237 528.316 196.711 528.316 196.711Z" fill="white"/>
<path d="M544.963 129.72C549.485 136.789 551.982 142.475 552.174 163.682C554.339 163.142 556.533 162.591 558.478 161.5C560.423 160.409 562.123 158.693 562.694 156.54C563.753 152.55 560.778 148.602 560.615 144.478C560.496 141.498 561.861 138.656 563.481 136.15C564.727 134.221 566.186 132.299 566.485 130.023C566.906 126.816 564.895 123.768 562.498 121.593C557.144 116.739 549.969 114.806 543.819 111.244C540.839 109.519 539.254 106.823 536.487 104.798C533.363 102.509 530.023 100.517 526.526 98.8506C518.46 95.0026 509.61 92.9248 500.689 92.5461C483.4 91.8078 466.321 98.2566 454.268 110.321C438.335 126.274 431.939 156.698 441.935 174.317C447.571 184.247 452.745 192.407 452.745 192.407C453.384 193.422 467.171 181.057 468.017 179.377C468.872 177.673 469.194 175.763 469.718 173.929C471.502 167.679 477.722 166.631 483.055 164.678C490.832 161.834 494.721 154.916 496.228 147.109C497.095 142.622 497.223 138.026 497.349 133.459C497.322 134.481 503.607 136.687 504.548 136.978C513.819 139.834 524.297 140.338 533.709 137.809C536.487 137.063 539.448 136.107 541.644 134.211C542.246 133.693 545.963 130.737 544.963 129.72Z" fill="#1E1611"/>
<path d="M487.028 211.856C487.523 212.215 497.369 222.957 516.201 224.637" stroke="black" stroke-width="2.36889" stroke-miterlimit="10"/>
<path d="M506.346 152.777C508.021 149.499 511.373 147.133 515.028 146.655C518.681 146.177 522.53 147.599 524.996 150.335" stroke="black" stroke-width="2.36889" stroke-miterlimit="10"/>
<path d="M541.157 153.227C542.401 150.451 545.035 148.679 547.335 149.072C549.635 149.465 551.372 152.016 551.514 154.99" stroke="black" stroke-width="2.36889" stroke-miterlimit="10"/>
<path d="M532.795 173.031C530.4 180.144 522.824 183.924 515.876 181.472C508.928 179.02 505.237 171.263 507.632 164.149C510.027 157.035 517.603 153.256 524.551 155.707C531.499 158.159 535.19 165.917 532.795 173.031Z" stroke="#572A2F" stroke-width="2.36889" stroke-miterlimit="10"/>
<path d="M558.329 176.357C557.04 183.767 552.26 189.091 547.65 188.251C543.04 187.411 540.346 180.723 541.633 173.316C542.921 165.906 547.702 160.582 552.312 161.422C556.924 162.262 559.617 168.947 558.329 176.357Z" stroke="#572A2F" stroke-width="2.36889" stroke-miterlimit="10"/>
<path d="M542.852 169.388L533.49 167.635" stroke="#572A2F" stroke-width="2.36889" stroke-miterlimit="10"/>
<path d="M508.163 162.81L479.961 164.964" stroke="#572A2F" stroke-width="2.36889" stroke-miterlimit="10"/>
<path d="M488.022 170.037C487.882 163.207 478.655 157.851 472.586 160.029C457.994 165.263 462.909 191.371 476.469 193.875C480.304 194.583 485.812 193.075 487.169 188.735" fill="#FFCAA3"/>
<path d="M471.527 171.674L484.068 183.024" stroke="black" stroke-width="2.36889" stroke-miterlimit="10"/>
<path d="M481.582 161.615C484.636 163.451 487.113 166.272 488.587 169.599" stroke="black" stroke-width="2.36889" stroke-miterlimit="10"/>
<path d="M464.238 181.562C466.119 187.145 469.959 193.054 476.038 194.06C480.257 194.758 485.089 192.912 486.816 188.539" stroke="black" stroke-width="2.36889" stroke-miterlimit="10"/>
<path d="M432.036 143.133C432.32 133.946 433.33 124.69 436.321 115.998C439.313 107.306 444.411 99.1576 451.767 93.6365C455.839 90.5813 460.494 88.3946 465.203 86.4611C469.169 84.8329 473.219 83.3657 477.415 82.4735C493.132 79.1319 509.411 84.0993 524.134 90.5316" fill="#FFC36C"/>
<path d="M531.174 91.7883C527.294 88.0515 522.274 85.6376 517.053 84.3005C513.94 83.503 510.721 83.0699 507.513 83.2285C505.846 83.3113 504.188 83.5551 502.548 83.8769C491.156 86.1157 480.887 92.0865 471.014 98.1898C457.828 106.34 444.667 115.113 434.997 127.22C431.505 131.591 428.416 136.634 428.103 142.217C427.931 145.31 428.629 148.394 429.643 151.323C431.354 156.262 435.374 163.308 438.74 167.309C467.737 140.21 500.307 118.772 537.911 106.035C537.714 100.656 535.054 95.5251 531.174 91.7883Z" fill="#FFC36C"/>
<path d="M433.914 128.625C433.914 128.625 458.394 94.5297 503.832 83.1987" stroke="black" stroke-width="2.36889" stroke-miterlimit="10"/>
<path d="M446.636 132.48C450.22 138.671 453.894 144.973 459.231 149.742" stroke="black" stroke-width="2.36889" stroke-miterlimit="10"/>
<path d="M475.241 106.844C478.953 114.658 483.561 122.077 488.952 128.914" stroke="black" stroke-width="2.36889" stroke-miterlimit="10"/>
<path d="M505.582 90.5576C511.841 97.0017 517.192 104.324 521.428 112.245" stroke="black" stroke-width="2.36889" stroke-miterlimit="10"/>
<path d="M516.049 86.8662C521.426 93.4831 526.14 101.34 529.651 109.003" stroke="black" stroke-width="2.36889" stroke-miterlimit="10"/>
<path d="M432.403 136.297C434.161 146.121 439.915 154.446 447.259 160.36" stroke="black" stroke-width="2.36889" stroke-miterlimit="10"/>
<path d="M415.659 207.789C429.52 212.962 443.52 218.201 455.852 226.368C468.187 234.533 480.676 246.006 485.082 260.118" stroke="black" stroke-width="2.36889" stroke-miterlimit="10"/>
<path d="M494.683 255.82C500.993 252.795 506.12 247.376 508.785 240.911" stroke="black" stroke-width="2.36889" stroke-miterlimit="10"/>
<path d="M373.711 213.561C380.121 250.337 428.683 243.301 451.304 254.703" stroke="black" stroke-width="2.36889" stroke-miterlimit="10"/>
<path d="M532.877 240.279C531.991 245.33 530.243 250.365 526.889 254.247C521.848 260.075 514.012 262.489 506.606 264.633" stroke="black" stroke-width="2.36889" stroke-miterlimit="10"/>
<path d="M513.308 255.819C516.676 278.948 520.085 304.866 519.007 328.212" stroke="black" stroke-width="2.36889" stroke-miterlimit="10"/>
<path d="M461.852 250.507C465.365 260.118 463.714 286.176 463.332 309.683" stroke="black" stroke-width="2.36889" stroke-miterlimit="10"/>
<rect x="153.242" y="501.344" width="561.427" height="63.8967" rx="18.9511" fill="#F8F9FA"/>
<path d="M696.89 923.962H169.489C161.283 923.962 154.634 917.317 154.634 909.122V552.37H711.745V909.122C711.745 917.319 705.093 923.962 696.89 923.962Z" fill="#FFEBC3"/>
<path d="M696.891 504.274C705.097 504.274 711.747 510.919 711.747 519.115V909.119C711.747 917.316 705.095 923.959 696.891 923.959H169.491C161.285 923.959 154.635 917.314 154.635 909.119V519.115C154.635 510.917 161.287 504.274 169.491 504.274H696.891ZM696.891 500.724H169.491C159.34 500.724 151.082 508.974 151.082 519.115V909.119C151.082 919.259 159.34 927.509 169.491 927.509H696.889C707.04 927.509 715.298 919.259 715.298 909.119V519.115C715.3 508.974 707.042 500.724 696.891 500.724Z" fill="white"/>
<g filter="url(#filter4_i_438_2788)">
<path d="M197.032 529.727C197.032 535.428 192.405 540.05 186.701 540.05C180.994 540.05 176.37 535.428 176.37 529.727C176.37 524.026 180.997 519.407 186.701 519.407C192.405 519.407 197.032 524.029 197.032 529.727Z" stroke="white" stroke-width="3.55334" stroke-miterlimit="10"/>
</g>
<g filter="url(#filter5_i_438_2788)">
<path d="M226.747 540.048C232.452 540.048 237.077 535.427 237.077 529.727C237.077 524.027 232.452 519.407 226.747 519.407C221.041 519.407 216.416 524.027 216.416 529.727C216.416 535.427 221.041 540.048 226.747 540.048Z" stroke="white" stroke-width="3.55334" stroke-miterlimit="10"/>
</g>
<path d="M154.634 552.37H711.745" stroke="white" stroke-width="3.55334" stroke-miterlimit="10"/>
<path d="M658.213 923.958C650.732 905.529 640.541 888.27 628.092 872.951C620.45 863.547 611.569 854.606 600.357 850.469C589.145 846.33 575.152 848.143 567.529 857.564C561.697 864.77 560.588 874.724 559.719 884.06C541.251 864.257 522.546 844.252 500.021 829.563C477.495 814.874 450.158 804.426 424.074 810.139C395.15 816.474 395.15 852.994 395.15 852.994C395.15 852.994 377.419 828.165 375.817 825.829C363.959 808.501 350.544 792.631 336.266 777.39C322.245 762.424 308.91 746.684 293.114 733.619C277.373 720.6 251.827 703.975 230.67 711.854C219.665 715.953 216.632 725.492 219.075 736.492C221.358 746.786 222.562 757.102 225.764 767.236C207.972 747.423 187.722 729.179 164.249 716.847C147.312 707.949 111.972 692.872 94.3928 707.445C89.3234 711.648 87.0208 718.61 86.8716 725.308C85.9501 766.301 115.516 810.354 139.338 840.641C163.778 871.716 193.263 899.241 223.796 923.958H658.213Z" fill="#FFDD99"/>
<path d="M551.165 738.752C548.005 756.177 548.943 774.191 549.028 791.995C549.114 809.801 550.549 821.449 544.101 837.61C538.281 852.204 526.124 857.162 519.777 871.456C516.546 878.736 504.292 923.925 504.292 923.925H339.718C339.718 923.925 335.103 852.891 360.481 792.272C385.859 731.65 417.583 720.778 417.583 720.778L511.214 696.651L551.165 738.752Z" fill="#735D9D"/>
<path d="M766.773 632.778C771.656 626.895 778.485 623.203 784.332 618.418C789.721 614.009 793.748 607.825 798.218 602.484C803.685 595.95 807.935 588.517 812.678 581.467C817.766 573.901 824.288 567.781 830.745 561.413C831.641 560.528 832.557 559.616 833.067 558.466C833.988 556.389 832.915 553.657 830.527 553.014C825.861 551.757 820.883 552.95 816.357 554.642C813.668 555.648 804.55 558.873 803.996 553.745C803.37 547.949 808.226 539.487 810.088 534.115C812.507 527.126 814.985 520.121 816.949 512.986C818.818 506.189 818.394 493.128 814.776 492.915C811.157 492.702 813.888 494.868 812.945 495.379C814.457 493.391 811.811 488.802 809.641 487.432C807.471 486.062 804.647 490.499 803.998 492.892C804.737 490.556 802.683 486.696 800.945 486.535C798.415 486.301 796.448 488.696 794.939 490.648C793.43 492.601 792.09 494.783 789.955 496.089C789.972 494.413 789.721 492.733 789.211 491.124C787.563 490.192 785.668 491.735 784.476 493.14C760.221 521.749 743.809 557.224 716.903 584.766" fill="#E27769"/>
<path d="M804.567 549.817C804.652 556.859 804.472 563.905 804.029 570.936" stroke="black" stroke-width="2.36889" stroke-miterlimit="10"/>
<path d="M812.172 493.702C810.054 500.35 805.965 505.968 802.893 512.152C798.001 521.994 793.631 532.078 789.092 542.084" stroke="black" stroke-width="2.36889" stroke-miterlimit="10"/>
<path d="M803.825 492.396C802.344 495.505 800.655 498.516 798.772 501.398C796.754 504.489 794.517 507.43 792.357 510.422C786.179 518.974 780.61 527.965 775.701 537.303" stroke="black" stroke-width="2.36889" stroke-miterlimit="10"/>
<path d="M789.116 497.154C787.482 500.638 784.814 503.508 782.296 506.419C774.408 515.535 767.616 525.595 762.113 536.318" stroke="black" stroke-width="2.36889" stroke-miterlimit="10"/>
<path d="M463.98 706.08C493.426 693.769 512.713 680.843 541.865 667.725C568.15 655.9 605.036 646.199 630.954 633.576C666.796 616.121 700.403 596.84 729.865 570.43L783.388 626.723C783.388 626.723 707.751 703.806 681.345 718.831C617.71 755.041 594.53 761.822 528.381 796.383" fill="#735D9D"/>
<path d="M548.28 786.702C548.655 773.407 551.689 760.192 557.156 748.063" stroke="black" stroke-width="2.36889" stroke-miterlimit="10"/>
<path d="M712.001 585.229L765.083 644.748" stroke="black" stroke-width="2.36889" stroke-miterlimit="10"/>
<path d="M455.416 869.267C477.864 869.683 500.217 873.223 519.677 885.037C529.023 890.71 534.229 898.299 536.804 908.833C538.979 917.726 539.683 927.237 538.882 936.361C538.806 937.227 538.136 938.024 537.389 938.204C536.335 938.46 534.215 937.409 534.215 937.409C534.215 937.409 536.129 946.454 534.101 948.335C532.69 949.646 530.025 947.864 529.023 946.773C527.855 945.502 526.26 942.256 526.26 942.256C526.26 942.256 527.599 947.445 526.469 948.34C524.792 949.665 519.943 946.305 518.796 942.904C518.09 944.835 516.939 946.627 515.155 946.153C509.546 944.665 505.156 936.737 500.539 932.806C494.404 927.581 486.174 927.226 478.52 927.342C474.998 927.394 471.466 927.481 467.953 927.133C464.354 926.776 461.114 925.366 457.603 924.656C451.069 923.335 444.254 922.732 437.626 922.346" fill="#E27769"/>
<path d="M496.87 915.979C503.032 918.537 509.56 921.386 513.028 926.661C514.066 928.24 514.779 929.972 515.416 931.714C516.757 935.387 517.78 939.147 518.801 942.903" stroke="black" stroke-width="2.36889" stroke-miterlimit="10"/>
<path d="M505.71 904.855C509.214 907.08 512.648 909.453 515.619 912.35C518.59 915.247 521.094 918.697 522.446 922.616C523.218 924.857 523.605 927.209 523.993 929.548C524.791 934.363 525.618 939.175 526.469 943.981" stroke="black" stroke-width="2.36889" stroke-miterlimit="10"/>
<path d="M517.743 897.21C523.578 901.555 528.147 907.578 530.755 914.365C533.063 920.367 533.833 926.83 534.586 933.217C534.825 935.24 535.062 937.264 535.301 939.287" stroke="black" stroke-width="2.36889" stroke-miterlimit="10"/>
<path d="M430.693 710.383C430.693 710.383 384.236 717.248 366.408 727.479C338.536 743.474 326.284 767.888 308.522 809.288C290.76 850.688 283.556 868.856 283.383 882.573C283.127 902.767 292.226 923.931 329.406 923.931C395.638 923.931 447.976 923.931 447.976 923.931L471.9 868.104L379.636 853.682L405.097 794.133" fill="#735D9D"/>
<path d="M471.895 868.103L379.632 853.682L405.093 794.132" stroke="black" stroke-width="2.36889" stroke-miterlimit="10"/>
<path d="M346.865 862.201C347.576 862.201 361.619 853.459 379.634 853.681" stroke="black" stroke-width="2.36889" stroke-miterlimit="10"/>
<path d="M446.445 864.125L421.136 923.93" stroke="black" stroke-width="2.36889" stroke-miterlimit="10"/>
<path d="M502.725 724.603C503.945 718.305 503.902 711.584 502.89 704.83" stroke="black" stroke-width="2.36889" stroke-miterlimit="10"/>
<path d="M404.401 723.011C409.521 735.781 420.844 746.369 433.214 751.786C448.79 758.604 469.915 759.865 484.802 750.759C491.735 746.516 496.506 740.938 499.515 734.567" stroke="black" stroke-width="2.36889" stroke-miterlimit="10"/>
<path d="M666.435 746.95C694.172 732.833 719.533 714.074 741.14 691.686" stroke="black" stroke-width="2.36889" stroke-miterlimit="10"/>
<path d="M718.174 733.555C731.62 723.152 744.227 711.667 755.835 699.25" stroke="black" stroke-width="2.36889" stroke-miterlimit="10"/>
<path d="M273.316 847.742C267.448 866.859 265.33 887.117 267.121 907.031" stroke="black" stroke-width="2.36889" stroke-miterlimit="10"/>
<path d="M254.795 850.593C251.092 861.321 248.974 872.595 248.536 883.935" stroke="black" stroke-width="2.36889" stroke-miterlimit="10"/>
<path d="M446.24 653.311L420.834 670.322L426.318 688.464L418.678 715.811C418.19 717.556 418.486 719.411 419.495 720.914C423.646 727.088 436.525 742.43 462.053 742.407C489.034 742.381 488.655 724.501 488.655 724.501L493.568 686.419" fill="#E27769"/>
<path d="M497.345 651.043C490.359 638.039 486.367 629.993 479.028 621.026C472.815 613.434 462.494 602.706 452.762 600.569C440.233 597.812 428.443 606.843 417.771 613.436C400.249 624.261 400.554 647.564 406.472 664.923C411.018 678.258 420.417 683.346 432.276 691.478C447.773 702.104 481.459 706.91 495.921 695.267C506.74 686.56 504.743 664.816 497.345 651.043Z" fill="#E27769"/>
<path d="M459.895 649.898C460.725 651.914 460.147 654.06 458.602 654.695C457.06 655.329 455.136 654.21 454.307 652.193C453.478 650.179 454.056 648.03 455.601 647.396C457.143 646.762 459.066 647.881 459.895 649.898Z" fill="black"/>
<path d="M484.772 636.202C485.601 638.216 485.023 640.365 483.481 640.999C481.939 641.633 480.015 640.511 479.186 638.497C478.357 636.481 478.935 634.335 480.48 633.7C482.019 633.066 483.943 634.186 484.772 636.202Z" fill="black"/>
<path d="M471.452 644.962C474.238 647.442 477.595 649.11 480.956 650.661C483.038 651.621 489.982 653.47 488.432 656.844C487.437 659.012 483.377 662.436 483.377 662.436" stroke="black" stroke-width="2.36889" stroke-miterlimit="10"/>
<path d="M420.617 708.864C420.617 708.864 423.789 700.756 424.561 697.857C425.861 692.961 421.737 692.71 420.316 688.398C419.574 686.152 420.183 683.4 420.683 681.175C421.754 676.402 424.215 671.042 422.01 666.224C420.614 663.173 417.615 661.24 415.216 658.894C412.814 656.549 410.859 652.973 412.297 649.942C413.998 646.354 419.022 646.087 422.104 643.58C425.184 641.077 425.904 636.661 425.693 632.699C425.482 628.738 424.568 624.748 425.262 620.843C425.388 620.14 425.582 619.411 426.079 618.897C427.584 617.34 430.092 618.848 431.98 619.908C435.375 621.815 439.48 621.579 443.031 620.142C444.831 619.413 446.483 618.079 447.132 616.249C447.534 615.12 447.53 613.892 447.726 612.709C447.923 611.526 448.39 610.286 449.413 609.658C450.157 609.204 451.076 609.147 451.945 609.185C454.686 609.308 457.384 610.267 459.587 611.904C461.433 613.277 462.468 614.271 464.794 614.183C467.028 614.098 469.177 613.36 471.408 614.008C474.099 614.791 475.897 617.255 477.484 619.562C481.852 625.914 486.221 632.266 490.589 638.618C492.773 635.468 494.99 632.249 496.066 628.572C497.139 624.894 496.89 620.613 494.474 617.638C492.145 614.773 488.17 613.488 486.192 610.368C484.006 606.923 484.345 601.943 484.108 598.041C483.849 593.781 482.537 589.481 480.102 585.884C477.745 582.403 473.784 579.698 469.589 580.017C467.161 580.202 464.851 581.366 462.418 581.293C460.914 581.248 459.466 580.732 458.085 580.138C451.687 577.395 446.141 572.944 439.767 570.149C433.392 567.354 425.395 566.505 419.894 570.769C417.073 572.956 415.201 576.269 412.131 578.089C403.279 583.338 390.577 573.45 382.141 579.341C376.697 583.141 376.529 591.372 371.945 596.174C366.085 602.313 355.425 600.699 348.775 605.974C342.067 611.296 342.04 621.908 346.065 629.464C348.055 633.198 350.952 637.044 350.095 641.186C349.559 643.765 347.652 645.798 346.032 647.878C343.718 650.855 341.834 654.291 341.372 658.033C340.91 661.774 342.059 665.847 344.945 668.275C346.738 669.785 349.469 670.5 350.827 672.455C352.355 674.656 352.783 678.601 353.084 681.194C353.35 683.473 353.378 685.802 354.067 687.991C355.951 693.967 362.553 697.526 368.823 697.528C371.716 697.528 374.89 696.986 377.268 698.629C379.239 699.987 380.042 702.446 381.236 704.519C385.121 711.259 394.573 714.092 401.53 710.601C404.146 709.29 406.562 707.184 409.488 707.139C412.394 707.098 417.864 709.342 420.617 708.864Z" fill="#2C221D"/>
<path d="M461.474 701.398C469.305 703.348 484.144 703.758 495.391 696.658" stroke="black" stroke-width="2.36889" stroke-miterlimit="10"/>
<path d="M440.296 649.287C440.272 641.44 445.46 633.914 453.931 635.398" stroke="black" stroke-width="2.36889" stroke-miterlimit="10"/>
<path d="M469.493 629.738C469.228 627.502 470.91 624.887 473.442 623.602C475.975 622.317 479.123 622.511 480.892 623.952" stroke="black" stroke-width="2.36889" stroke-miterlimit="10"/>
<path d="M434.348 671.967C429.869 666.491 418.927 668.013 415.371 673.659C406.827 687.236 427.526 705.376 440.176 698.764C443.755 696.894 447.278 692.149 445.61 687.747" fill="#E27769"/>
<path d="M421.953 683.823L439.431 685.071" stroke="black" stroke-width="2.36889" stroke-miterlimit="10"/>
<path d="M423.716 669.217C427.378 668.762 431.202 669.485 434.527 671.257" stroke="black" stroke-width="2.36889" stroke-miterlimit="10"/>
<path d="M422.337 696.537C427.44 699.888 434.347 702.252 439.943 699.192C443.825 697.069 446.583 692.481 445.194 687.816" stroke="black" stroke-width="2.36889" stroke-miterlimit="10"/>
<path d="M474.174 663.728C473.047 667.931 474.44 673.454 479.267 674.323C482.887 674.976 486.805 672.749 487.976 669.249" stroke="black" stroke-width="2.36889" stroke-miterlimit="10"/>
<path d="M1561.09 722.761H1164.08C1155.87 722.761 1149.22 716.116 1149.22 707.92V426.143H1575.95V707.92C1575.95 716.118 1569.3 722.761 1561.09 722.761Z" fill="#F9D4BB"/>
<path d="M1561.09 386.57C1569.29 386.57 1575.94 393.215 1575.94 401.41V707.92C1575.94 716.118 1569.29 722.761 1561.09 722.761H1164.08C1155.87 722.761 1149.22 716.116 1149.22 707.92V401.41C1149.22 393.213 1155.88 386.57 1164.08 386.57H1561.09ZM1561.09 383.02H1164.08C1153.93 383.02 1145.67 391.27 1145.67 401.41V707.92C1145.67 718.061 1153.93 726.311 1164.08 726.311H1561.09C1571.24 726.311 1579.5 718.061 1579.5 707.92V401.41C1579.5 391.27 1571.24 383.02 1561.09 383.02Z" fill="white"/>
<path d="M1184.11 407.516C1184.11 412.206 1180.3 416.009 1175.61 416.009C1170.91 416.009 1167.11 412.206 1167.11 407.516C1167.11 402.826 1170.91 399.022 1175.61 399.022C1180.3 399.022 1184.11 402.826 1184.11 407.516Z" stroke="white" stroke-width="3.55334" stroke-miterlimit="10"/>
<path d="M1217.07 407.516C1217.07 412.206 1213.26 416.009 1208.56 416.009C1203.87 416.009 1200.06 412.206 1200.06 407.516C1200.06 402.826 1203.87 399.022 1208.56 399.022C1213.26 399.022 1217.07 402.826 1217.07 407.516Z" stroke="white" stroke-width="3.55334" stroke-miterlimit="10"/>
<path d="M1149.22 426.143H1575.95" stroke="white" stroke-width="3.55334" stroke-miterlimit="10"/>
<path d="M1465.96 608.556C1456.18 606.847 1453.42 633.094 1458.11 641.829C1445.24 623.446 1428.95 595.289 1416.08 576.906C1401.65 556.286 1384.4 530.604 1358.37 523.893C1334.92 517.846 1322.69 538.246 1322.33 559.074C1321.98 579.014 1323.98 599.13 1327.68 618.711C1331.71 640.059 1336.94 664.375 1348.58 683.014C1336.21 663.206 1316.42 656.509 1294.31 658.348C1284.01 659.205 1273.3 662.667 1266.8 670.692C1256.39 683.528 1260.3 706.855 1264.73 722.767C1274.4 722.767 1284.07 722.767 1293.74 722.767C1345.18 722.767 1548.93 722.853 1548.93 722.853C1548.93 722.853 1497.67 614.103 1465.96 608.556Z" fill="#DC7B2C"/>
<path d="M1170.43 571.584C1128.04 572.214 1086.01 563.256 1045.46 550.905C1004.9 538.557 931.005 511.443 931.005 511.443L909.907 575.084C909.907 575.084 1019.14 644.214 1164.5 656.02" fill="#E27769"/>
<path d="M1261.24 588.866C1232.98 564.916 1171.76 566.627 1154.21 567.311C1136.66 567.995 1105.38 562.817 1105.38 562.817L1093.87 658.695C1093.87 658.695 1158.86 669.593 1195.02 672.232" fill="#2C221D"/>
<path d="M1181.61 611.869C1186.05 624.369 1184.02 642.759 1184.07 656.021C1184.11 667.851 1188.28 674.423 1190.03 686.124C1192.12 700.107 1200.06 710.097 1208.43 722.767H1388.44L1378.96 623.06L1354.46 587.682L1302.72 573.902L1185.92 604.591" fill="#2C221D"/>
<path d="M1238.13 587.682C1236.33 594.012 1235.03 601.114 1236.12 607.675C1237.39 615.361 1242.27 620.201 1249.23 623.059" stroke="#6D574E" stroke-width="2.36889" stroke-miterlimit="10"/>
<path d="M1258.08 625.176C1289.99 630.886 1323.56 608.106 1326.76 579.106" stroke="#6D574E" stroke-width="2.36889" stroke-miterlimit="10"/>
<path d="M1498.09 711.273C1495.49 703.759 1490.63 697.266 1485.62 691.091C1471.86 674.114 1456.45 658.466 1439.69 644.435L1379.45 699.213L1416.72 735.312L1373.19 814.144L1430.94 830.608C1430.94 830.608 1475.13 781.851 1492.04 754.671C1500.34 741.331 1503.25 726.246 1498.09 711.273Z" fill="#E27769"/>
<path d="M1384.71 796.48C1384.71 796.48 1359.45 832.79 1356.9 839.343C1354.61 845.231 1353.36 852.598 1352.46 858.871C1349.98 876.164 1359.25 893.941 1366.25 902.34C1367.04 903.287 1368.21 903.897 1369.38 904.115C1371.97 904.598 1373.01 903.251 1372.96 900.194C1374.37 902.118 1375.79 904.039 1377.2 905.963C1377.79 906.758 1378.4 907.58 1379.24 907.994C1380.85 908.789 1382.86 907.819 1384.09 906.247C1385.33 904.676 1385.96 902.631 1386.56 900.65C1388.06 902.818 1390.39 905.092 1392.63 903.765C1394.88 902.437 1396.82 897.638 1396.32 894.881C1397.05 897.304 1400.27 897.37 1402.03 895.607C1403.78 893.844 1404.43 891.082 1404.95 888.508C1406.27 881.988 1407.52 875.264 1410.72 869.568C1412.85 865.77 1415.74 862.62 1418.27 859.146C1426.49 847.834 1430.56 833.414 1433.22 819.21" fill="#E27769"/>
<path d="M1401.28 852.45C1400.14 854.965 1399 857.481 1397.86 859.994C1396.94 862.037 1396.01 864.084 1395.27 866.204C1391.95 875.654 1392.5 886.459 1396.76 895.44" stroke="black" stroke-width="2.36889" stroke-miterlimit="10"/>
<path d="M1382.27 851.512C1379.95 862.942 1379.01 876.687 1380.66 885.283C1381.73 890.851 1384.16 896.145 1387.14 900.918" stroke="black" stroke-width="2.36889" stroke-miterlimit="10"/>
<path d="M1365.62 847.211C1365.62 847.211 1364.14 855.643 1363.79 860.409C1362.68 875.56 1364.69 890.192 1372.95 901.424" stroke="black" stroke-width="2.36889" stroke-miterlimit="10"/>
<path d="M925.841 576.16C921.297 575.72 916.751 575.28 912.208 574.839C908.14 574.447 904.037 574.044 900.148 572.797C897.551 571.964 895.09 570.769 892.641 569.576C882.549 564.668 877.383 563.198 867.729 557.516C862.184 554.253 856.51 551.176 850.598 548.623C844.806 546.121 838.796 544.775 833.447 541.393C832.982 541.1 832.502 540.768 832.288 540.264C832.125 539.876 832.139 539.436 832.198 539.017C833.44 530.299 851.225 532.294 858.142 534.225C860.227 534.807 862.392 535.505 864.515 535.074C864.657 532.301 863.435 529.646 862.082 527.22C858.098 520.082 852.27 514.396 847.009 508.19C842.143 502.449 837.213 496.713 832.729 490.664C828.529 485.001 824.206 472.666 827.503 471.161C830.801 469.656 829.038 472.662 830.102 472.799C827.975 471.49 828.785 466.258 830.313 464.196C831.841 462.137 836.079 465.257 837.547 467.254C836.015 465.342 836.533 461.002 838.099 460.225C840.376 459.094 843.074 460.618 845.187 461.896C847.3 463.174 849.337 464.726 851.801 465.174C851.18 463.619 850.808 461.96 850.699 460.275C851.9 458.813 854.224 459.567 855.845 460.448C888.801 478.384 916.922 505.549 951.962 521.535" fill="#E27769"/>
<path d="M857.573 520.549C861.273 525.85 863.768 532.228 865.703 540.049" stroke="black" stroke-width="2.36889" stroke-miterlimit="10"/>
<path d="M830.207 470.958C834.582 476.393 840.426 480.159 845.527 484.818C853.645 492.233 861.365 500.061 869.211 507.757" stroke="black" stroke-width="2.36889" stroke-miterlimit="10"/>
<path d="M837.522 466.73C840.026 469.097 842.689 471.293 845.487 473.304C848.486 475.458 851.634 477.396 854.73 479.408C863.58 485.156 872.023 491.532 879.975 498.473" stroke="black" stroke-width="2.36889" stroke-miterlimit="10"/>
<path d="M852.957 465.863C855.74 468.521 859.265 470.237 862.665 472.045C873.313 477.703 883.284 484.637 892.29 492.653" stroke="black" stroke-width="2.36889" stroke-miterlimit="10"/>
<path d="M927.169 578.23C927.169 578.23 908.545 575.707 900.94 573.703" stroke="black" stroke-width="2.36889" stroke-miterlimit="10"/>
<path d="M1339.31 583.73C1352.14 584.967 1364.97 586.165 1377.17 590.768C1392.6 596.585 1406 607.518 1418.63 618.695C1431.82 630.372 1445.27 646.266 1458.1 658.451L1392.32 715.96L1345.74 670.613" fill="#2C221D"/>
<path d="M1416.72 735.312C1416.72 735.312 1426.46 722.867 1436.32 715.963" stroke="black" stroke-width="2.36889" stroke-miterlimit="10"/>
<path d="M1373.18 697.324L1441.78 641.831" stroke="#6D574E" stroke-width="2.36889" stroke-miterlimit="10"/>
<path d="M1119.02 662.696L1128.98 565.976" stroke="#6D574E" stroke-width="2.36889" stroke-miterlimit="10"/>
<path d="M1181.61 644.435C1181.61 644.435 1186.16 665.078 1187.4 673.931" stroke="#6D574E" stroke-width="2.36889" stroke-miterlimit="10"/>
<path d="M1343.41 670.442C1357.67 681.437 1392.32 715.962 1392.32 715.962" stroke="#6D574E" stroke-width="2.36889" stroke-miterlimit="10"/>
<path d="M1270.23 515.113L1300.88 527.525L1299.08 547.944L1314.54 577.783C1314.54 577.783 1306.99 605.924 1273.15 612.931C1244.58 618.848 1245.23 600.426 1245.23 600.426L1231.62 561.187" fill="#E27769"/>
<path d="M1205.46 530.835C1209.99 515.525 1212.44 506.128 1218.23 495.017C1223.13 485.61 1231.7 471.979 1241.53 467.572C1254.18 461.895 1268.66 468.859 1281.42 473.486C1302.36 481.087 1307.18 505.83 1304.74 525.512C1302.88 540.634 1294.05 548.094 1283.29 559.316C1269.22 573.981 1234.62 586.491 1216.73 577.349C1203.36 570.507 1200.67 547.048 1205.46 530.835Z" fill="#E27769"/>
<path d="M1424.45 623.363C1432.69 620.658 1436.74 610.971 1436.28 604.09C1435.54 593.007 1430.36 587.292 1429.51 580.445C1428.96 575.987 1430.28 571.474 1429.9 566.999C1429.28 559.608 1423.91 553.173 1417.28 549.839C1410.65 546.504 1402.94 545.903 1395.55 546.564C1389.88 547.07 1384.18 548.277 1378.54 547.475C1373.84 546.805 1369.43 544.76 1365.33 542.356C1358.07 538.106 1351.45 532.573 1346.78 525.587C1338.84 513.706 1337.15 498.764 1331.02 485.855C1327.93 479.351 1323.65 473.437 1318.52 468.39C1306.06 456.126 1294.2 451.585 1276.53 450.998C1264.43 450.595 1247.59 452.209 1238.33 463.484C1238.33 463.484 1220.44 463.943 1211.9 472.948C1201.77 483.637 1202.49 499.11 1211.34 511.442C1215.92 503.942 1219.81 496.009 1226.51 490.245C1225.74 491.461 1226.11 493.167 1227.1 494.213C1228.09 495.259 1229.56 495.733 1231 495.849C1234.83 496.159 1238.45 494.254 1241.81 492.405C1240.67 495.437 1240.19 498.714 1240.41 501.945C1240.45 502.626 1240.55 503.353 1241 503.866C1241.51 504.453 1242.35 504.612 1243.12 504.678C1248.4 505.121 1253.83 502.586 1256.87 498.26C1255.43 502.181 1254.17 507.101 1257.08 510.105C1259.13 512.227 1262.61 512.384 1265.34 511.271C1268.08 510.159 1270.25 508.029 1272.35 505.949C1271.34 506.95 1272.66 512.599 1272.91 513.903C1273.45 516.759 1274.33 519.533 1275.3 522.266C1278.29 530.67 1281.97 538.858 1286.76 546.4C1291.7 554.186 1298.76 560.091 1303.81 567.678C1307.02 572.487 1309.72 577.752 1314.02 581.61C1319.31 586.35 1326.6 589.916 1333.55 591.329C1340.55 592.754 1347.79 592.108 1354.87 591.876C1381.04 591.024 1400.88 604.116 1424.45 623.363Z" fill="#893D33"/>
<path d="M1363.39 454.046C1361.89 450.328 1359.68 446.921 1356.85 444.32C1346.65 434.936 1324.41 435.545 1316.81 448.293C1312.63 455.3 1314.66 464.315 1317.83 471.831L1324.08 485.528C1332.79 490.259 1343.82 490.46 1352.7 486.054C1360.12 482.374 1365.35 475.582 1365.72 467.164C1365.91 462.871 1365.1 458.259 1363.39 454.046Z" fill="#893D33"/>
<path d="M1272.6 533.511C1274.72 527.185 1284.88 524.88 1289.9 528.674C1301.98 537.801 1289.78 560.705 1276.41 559.091C1272.63 558.634 1267.94 555.626 1267.94 551.187" fill="#E27769"/>
<path d="M1287.49 539.833L1272.49 546.762" stroke="black" stroke-width="2.36889" stroke-miterlimit="10"/>
<path d="M1281.05 527.537C1277.67 528.358 1274.54 530.27 1272.19 532.94" stroke="black" stroke-width="2.36889" stroke-miterlimit="10"/>
<path d="M1291.4 551.174C1288.02 555.831 1282.72 560.221 1276.76 559.388C1272.62 558.811 1268.66 555.682 1268.32 551.105" stroke="black" stroke-width="2.36889" stroke-miterlimit="10"/>
<path d="M1238.58 581.268C1238.58 581.268 1252.66 580.598 1266.92 570.978" stroke="black" stroke-width="2.36889" stroke-miterlimit="10"/>
<path d="M1223.79 523.125C1221.57 527.002 1219.26 530.99 1215.67 533.661C1214.81 534.3 1213.88 534.866 1213.19 535.675C1212.19 536.835 1211.76 538.465 1212.06 539.966C1212.37 541.466 1213.39 542.803 1214.76 543.487" stroke="black" stroke-width="2.36889" stroke-miterlimit="10"/>
<path d="M1217.47 552.535C1219.72 554.402 1223.09 555.136 1225.75 553.709C1229.12 551.906 1229.19 547.61 1229.3 544.264" stroke="black" stroke-width="2.36889" stroke-miterlimit="10"/>
<path d="M1240.21 514.815C1242.68 514.299 1245.25 514.188 1247.7 514.765C1250.15 515.342 1252.46 516.642 1254.03 518.611C1256.01 521.11 1256.63 524.397 1257.19 527.537" stroke="black" stroke-width="2.36889" stroke-miterlimit="10"/>
<path d="M1212.81 505.471C1215.15 503.793 1218.43 503.684 1221.02 504.939C1223.62 506.195 1225.51 508.685 1226.32 511.444" stroke="black" stroke-width="2.36889" stroke-miterlimit="10"/>
<path d="M1244.35 528.957C1243.38 530.964 1241.43 532.029 1239.98 531.336C1238.53 530.642 1238.14 528.453 1239.1 526.447C1240.07 524.44 1242.02 523.375 1243.47 524.068C1244.91 524.762 1245.31 526.951 1244.35 528.957Z" fill="black"/>
<path d="M1217.74 520.214C1216.78 522.22 1214.82 523.285 1213.37 522.592C1211.92 521.899 1211.53 519.71 1212.49 517.703C1213.45 515.696 1215.41 514.631 1216.86 515.324C1218.31 516.018 1218.7 518.207 1217.74 520.214Z" fill="black"/>
<path d="M1493.74 794.673C1508.17 780.012 1518.4 761.262 1522.91 741.198" stroke="black" stroke-width="2.36889" stroke-miterlimit="10"/>
<path d="M1526.8 786.508C1531.16 777.905 1533.95 768.505 1534.98 758.916" stroke="black" stroke-width="2.36889" stroke-miterlimit="10"/>
<path d="M1297.43 89.1782C1272.36 65.6547 1246.76 42.252 1217.13 24.8153C1162.28 -7.46673 1085.71 -2.47095 1047.87 21.017C1018.82 39.0453 1003.51 61.4991 984.854 89.3036C961.502 124.108 937.012 161.549 898.53 178.212C879.773 186.334 859.147 188.774 839.085 192.698C819.023 196.622 798.508 202.5 783.139 215.968C767.769 229.434 759.011 252.297 767.314 270.962C773.836 285.623 789.897 294.845 805.951 295.299C822.003 295.756 837.654 288.311 849.209 277.172C878.7 248.747 892.425 173.969 837.955 152.443" stroke="#ED725A" stroke-width="3.55334" stroke-miterlimit="10"/>
<path d="M107.356 596.126C110.822 612.547 119.585 630.027 131.429 643.511C146.848 661.066 178.295 672.428 191.817 646.903C198.106 635.032 201.243 615.823 186.255 607.327C185.191 606.723 183.997 606.181 182.709 606.167C179.811 606.136 177.89 608.652 177.035 610.95C173.029 621.718 179.477 633.354 188.181 642.004C192.22 646.017 196.924 649.759 202.749 651.756C208.572 653.754 215.705 653.732 220.786 650.637C228.689 645.821 230.769 635.214 230.191 627.62" stroke="#8F96DB" stroke-width="3.55334" stroke-miterlimit="10"/>
<path d="M74.2285 163.744C88.1742 146.177 106.952 130.309 128.054 122.178C139.473 117.778 154.389 116.2 166.395 118.581C172.388 119.769 179.35 121.657 183.013 127.041C186.876 132.721 182.366 143.247 190.006 146.466C191.967 147.292 194.199 147.093 196.305 146.776C202.926 145.782 209.369 143.789 215.992 142.816C222.618 141.846 229.67 141.976 235.635 145.017C241.6 148.058 246.134 154.573 245.244 161.205C244.895 163.801 243.765 166.371 244.246 168.945C245.052 173.253 249.936 175.506 254.305 175.917C263.349 176.767 271.948 176.473 279.638 182.257C285.28 186.5 288.521 194.09 285.633 200.181" stroke="#FFDD99" stroke-width="3.55334" stroke-miterlimit="10"/>
<path d="M665.091 147.037C668.606 139.223 672.546 131.387 678.681 125.402C684.817 119.417 693.574 115.512 701.991 117.148C706.343 117.995 710.455 120.257 714.887 120.165C720.985 120.037 726.204 115.352 728.947 109.908C731.69 104.465 732.488 98.2911 733.602 92.3014C735.378 82.7358 738.259 72.9596 744.809 65.7606C751.359 58.5616 762.426 54.7017 771.179 58.971" stroke="#FFDD99" stroke-width="3.55334" stroke-miterlimit="10"/>
<path d="M252.332 944.011C254.767 929.498 244.964 915.761 230.437 913.329C215.91 910.896 202.16 920.689 199.725 935.202C197.29 949.714 207.093 963.451 221.62 965.883C236.147 968.316 249.897 958.523 252.332 944.011Z" stroke="#909DF4" stroke-width="3.55334" stroke-miterlimit="10"/>
<path d="M679.971 53.0547C691.917 53.0547 701.602 43.3801 701.602 31.4458C701.602 19.5116 691.917 9.83691 679.971 9.83691C668.025 9.83691 658.341 19.5116 658.341 31.4458C658.341 43.3801 668.025 53.0547 679.971 53.0547Z" stroke="#8F96DB" stroke-width="3.55334" stroke-miterlimit="10"/>
<path d="M1449.66 860.426L1463.99 954.775L1520.35 913.306L1449.66 860.426Z" fill="#FFDD99"/>
<path d="M31.003 756.903L69.1256 713.723L4 716.057L31.003 756.903Z" stroke="#8F96DB" stroke-width="3.55334" stroke-miterlimit="10"/>
<path d="M91.9206 863.832C100.444 863.832 107.354 856.929 107.354 848.414C107.354 839.898 100.444 832.996 91.9206 832.996C83.397 832.996 76.4873 839.898 76.4873 848.414C76.4873 856.929 83.397 863.832 91.9206 863.832Z" fill="#FFDD99"/>
<path d="M124.905 204.889L87.8008 285.768L201.176 269.342L124.905 204.889Z" fill="#ED725A"/>
<path d="M52.1443 406.405C52.1443 411.574 47.9514 415.763 42.7777 415.763C37.6041 415.763 33.4111 411.574 33.4111 406.405C33.4111 401.237 37.6041 397.048 42.7777 397.048C47.9514 397.048 52.1443 401.237 52.1443 406.405Z" fill="#909DF4"/>
<path d="M1323.42 37.506C1323.42 42.6745 1319.22 46.8633 1314.05 46.8633C1308.88 46.8633 1304.68 42.6745 1304.68 37.506C1304.68 32.3375 1308.88 28.1487 1314.05 28.1487C1319.22 28.1487 1323.42 32.3375 1323.42 37.506Z" fill="#ED725A"/>
<path d="M1495.67 854.561C1502.66 851.698 1511.69 852.252 1518.01 856.493C1523.59 860.234 1526.51 867.272 1533.24 869.466C1543.11 872.684 1551.81 863.507 1561.33 862.878C1569.56 862.333 1576.2 867.906 1579.42 875.084C1582.17 881.228 1582.7 888.1 1583.19 894.814" stroke="#8F96DB" stroke-width="3.55334" stroke-miterlimit="10"/>
<path d="M1423.18 212.851C1426.6 204.348 1435.62 198.427 1444.8 198.661C1449.46 198.779 1454.2 200.327 1458.72 199.158C1472.78 195.52 1471.61 171.057 1485.5 166.821C1495.13 163.887 1505.6 173.204 1515.02 169.671C1523.13 166.63 1525.12 156.43 1527.69 148.168C1534.63 125.833 1555.18 108.337 1578.35 105.026" stroke="#8F96DB" stroke-width="3.55334" stroke-miterlimit="10"/>
<path d="M1316.01 703.93C1324.22 703.93 1330.87 710.576 1330.87 718.771V981.557C1330.87 989.754 1324.21 996.397 1316.01 996.397H889.939C881.733 996.397 875.084 989.752 875.084 981.557V718.773C875.084 710.575 881.735 703.933 889.939 703.933H1316.01M1316.01 700.38H889.939C879.788 700.38 871.53 708.63 871.53 718.771V981.557C871.53 991.697 879.788 999.947 889.939 999.947H1316.01C1326.16 999.947 1334.42 991.697 1334.42 981.557V718.773C1334.42 708.633 1326.16 700.38 1316.01 700.38Z" fill="white"/>
<path d="M1316.01 996.4H889.937C881.732 996.4 875.082 989.755 875.082 981.559V743.506H1330.87V981.559C1330.87 989.755 1324.21 996.4 1316.01 996.4Z" fill="#C5B3DD"/>
<path d="M909.97 724.878C909.97 729.569 906.163 733.372 901.468 733.372C896.773 733.372 892.966 729.569 892.966 724.878C892.966 720.188 896.773 716.385 901.468 716.385C906.163 716.385 909.97 720.188 909.97 724.878Z" stroke="white" stroke-width="3.55334" stroke-miterlimit="10"/>
<path d="M942.925 724.878C942.925 729.569 939.118 733.372 934.423 733.372C929.728 733.372 925.921 729.569 925.921 724.878C925.921 720.188 929.728 716.385 934.423 716.385C939.118 716.385 942.925 720.188 942.925 724.878Z" stroke="white" stroke-width="3.55334" stroke-miterlimit="10"/>
<path d="M875.082 743.506H1330.87" stroke="white" stroke-width="3.55334" stroke-miterlimit="10"/>
<path d="M1266.92 939.56C1244.24 914.474 1217.9 902.066 1204.5 905.091C1184.8 909.542 1188.38 959.786 1188.93 979.961C1179.41 968.966 1167.62 959.947 1154.51 953.645C1144.63 948.898 1133.39 945.656 1122.74 948.247C1112.1 950.838 1102.72 960.839 1103.97 971.716C1079.16 934.862 1044.93 904.397 1005.42 884.036C980.451 871.164 912.563 844.403 900.941 872.175C888.194 902.634 960.51 996.399 960.51 996.399H1311.01C1311.01 996.399 1287.4 962.214 1266.92 939.56Z" fill="#A29DCE"/>
<path d="M828.951 671.627C816.083 658.159 803.722 632.134 800.249 618.254C797.196 606.045 794.469 593.547 788.696 582.261C787.14 579.218 780.455 572.194 782.878 568.54C787.768 561.18 799.626 570.876 802.718 575.259C803.824 576.828 807.908 583.438 809.952 583.823C811.997 584.209 812.859 576.295 813.108 572.902C814.065 559.857 814.126 545.637 813.02 532.439C811.881 518.845 813.818 506.918 818.087 506.288C822.415 505.652 822.19 508.21 822.977 509.062C823.668 504.757 827.591 499.652 830.126 501.089C831.666 501.962 832.225 503.891 832.44 505.647C832.656 507.403 833.703 510.744 833.703 510.744C833.703 510.744 836.157 501.581 840.639 506.764C842.904 509.384 846.353 523.306 848.563 527.727C848.343 524.804 847.601 523.176 848.544 519.761C849.056 517.908 850.103 516.384 852.111 517.359C853.296 517.934 853.639 519.105 854.054 520.256C856.302 526.494 861.833 536.53 863.845 542.849C865.939 549.437 868.033 556.028 870.129 562.617C874.066 575.003 877.916 588.038 880.74 600.959C883.352 612.913 892.944 642.369 892.944 642.369" fill="#FBC3C3"/>
<path d="M822.858 509.8C824 516.887 826.597 525.925 828.02 533.96C830.06 545.48 830.981 556.146 832.725 566.291" stroke="black" stroke-width="2.36889" stroke-miterlimit="10"/>
<path d="M834.32 510.964C835.685 517.034 838.051 525.443 839.638 532.351C842.287 543.895 844.232 554.241 846.511 564.382" stroke="black" stroke-width="2.36889" stroke-miterlimit="10"/>
<path d="M848.537 527.529C851.903 538.56 856.774 551.213 860.633 565.174" stroke="black" stroke-width="2.36889" stroke-miterlimit="10"/>
<path d="M811.243 583.126C810.378 588.952 809.945 595.143 806.058 600.233" stroke="black" stroke-width="2.36889" stroke-miterlimit="10"/>
<path d="M1264.45 996.402C1259.89 984.235 1255.02 971.451 1248.16 960.298C1241.31 949.144 1232.36 938.937 1220.93 931.946C1215.8 928.811 1210.25 926.359 1204.72 923.919C1189.84 917.357 1174.97 910.794 1160.1 904.23L1087.09 875.779C1082.57 871.59 1078.06 867.401 1073.55 863.208C1064.83 855.098 1056.14 846.964 1047.51 838.752C1047.18 838.437 1046.85 838.122 1046.52 837.808C980.435 774.796 931.29 704.394 888.359 622.232L811.244 656.022C811.244 656.022 844.598 769.561 876.287 817.761C918.148 881.43 966.565 939.344 988.444 957.683C992.348 970.781 996.821 983.71 1001.89 996.404L1264.45 996.402Z" fill="#FCDDD2"/>
<path d="M823.666 695.074L906.381 655.342" stroke="black" stroke-width="2.36889" stroke-miterlimit="10"/>
<path d="M827.791 648.772L855.68 709.23" stroke="black" stroke-width="2.36889" stroke-miterlimit="10"/>
<path d="M853.998 661.478C853.998 664.491 851.553 666.935 848.535 666.935C845.519 666.935 843.072 664.493 843.072 661.478C843.072 658.465 845.517 656.021 848.535 656.021C851.551 656.023 853.998 658.465 853.998 661.478Z" stroke="#D8A798" stroke-width="2.36889" stroke-miterlimit="10"/>
<path d="M1152.08 994.786C1155.88 989.838 1159.68 984.889 1163.49 979.941C1167.59 974.602 1171.7 969.251 1176.34 964.362C1189.85 950.094 1208.1 939.941 1227.65 937.823" stroke="#D8A798" stroke-width="2.36889" stroke-miterlimit="10"/>
<path d="M986.155 950.585C986.155 930.844 992.757 911.246 1004.12 895.154C1018.44 874.884 1039.51 860.33 1064.98 859.604" stroke="#D8A798" stroke-width="2.36889" stroke-miterlimit="10"/>
<path d="M988.108 956.907C984.462 946.059 982.365 933.892 976.595 923.915" stroke="black" stroke-width="2.36889" stroke-miterlimit="10"/>
<path d="M1063.85 867.697L1059.04 928.297C1059.04 928.297 1079.43 949.044 1107.47 935.534C1135.5 922.023 1155.95 896.322 1155.95 896.322L1146.79 858.758" fill="#FBC3C3"/>
<path d="M1175.29 792.189C1172.46 783.333 1167.15 775.242 1160 769.399C1142.81 755.337 1123.89 755.721 1105.43 766.559C1089.38 775.978 1067.35 790.845 1055.11 805.068C1042.48 819.75 1034.02 838.008 1046.92 855.175C1067.69 882.799 1125.91 873.435 1153.68 850.78C1164.99 841.555 1175.67 826.577 1177.34 811.827C1178.08 805.25 1177.32 798.524 1175.29 792.189Z" fill="#FBC3C3"/>
<path d="M1101.86 774.272C1092.6 778.977 1082.47 780.226 1072.34 781.426C1067.47 782.001 1061.02 783.634 1061.9 790.024C1062.47 794.144 1066.06 797.694 1069.05 800.212" fill="#FBC3C3"/>
<path d="M1061.5 837.183C1061.5 837.183 1063.18 833.399 1064.02 831.503C1065.63 827.854 1060.38 825.393 1057.88 824.134C1056.06 823.22 1055.1 822.409 1053.29 823.599C1052.82 823.904 1050.18 826.455 1049.61 825.992C1049.58 825.968 1044.72 820.317 1044.72 820.317C1040.95 826.209 1038.52 837.396 1039.06 844.032C1039.6 850.668 1042.17 857.268 1046.92 861.939C1048.82 863.814 1051.81 866.519 1054.1 867.896C1073.22 879.381 1097.05 878.508 1117.84 870.433C1124.26 867.941 1130.51 864.611 1135.19 859.559C1071.55 858.636 1061.5 837.183 1061.5 837.183Z" fill="#FBC3C3"/>
<path d="M1137.4 832.934C1137.12 832.873 1136.83 832.818 1136.55 832.771C1132.3 832.071 1128.1 832.693 1123.91 831.318C1120.54 830.211 1117.4 828.116 1115.55 825.092C1113.36 821.516 1116.36 819.433 1119.28 817.826C1123.59 815.448 1127.79 812.779 1131.3 809.326C1137.06 803.651 1140.1 795.512 1137.6 787.587C1134.89 778.991 1126.42 773.944 1119.84 768.496C1113.51 763.247 1105.41 755.073 1108.08 745.969C1110.76 736.836 1119.6 733.506 1128.32 734.796C1133 735.49 1137.72 736.798 1142.4 736.072C1144.77 735.703 1147.04 734.818 1149.39 734.29C1156.59 732.676 1164.9 734.981 1169.19 740.985C1172.28 745.311 1173.48 751.442 1178.25 753.802C1180.55 754.938 1183.22 754.914 1185.71 755.501C1190.78 756.691 1195.06 760.539 1197.12 765.313C1199.18 770.086 1199.1 775.666 1197.25 780.53C1193.92 789.267 1188.94 793.64 1193.03 803.279C1202.52 825.657 1206.51 853.135 1183.84 869.225C1177.87 873.459 1170.4 875.646 1165.44 881.015C1162.34 884.362 1159.81 889.135 1155.28 889.618C1152.23 889.942 1149.35 888.061 1147.26 885.82C1145.39 883.808 1143.92 881.465 1142.47 879.134C1140.46 875.904 1138.41 872.524 1138 868.745C1137.41 863.349 1140.21 858.237 1142.76 853.443C1145.16 848.923 1149.99 839.551 1144.27 835.814C1142.3 834.525 1139.78 833.455 1137.4 832.934Z" fill="#1E1611"/>
<path d="M1123.4 784.045C1121.97 779.712 1119.36 775.407 1115.34 777.364C1114.34 777.852 1113.75 778.957 1113.6 780.062C1113.44 781.165 1113.64 782.287 1113.84 783.382C1114.79 788.518 1115.79 793.793 1118.58 798.214C1119.14 799.106 1119.8 799.986 1120.75 800.459C1127.05 803.619 1124.21 786.52 1123.4 784.045Z" fill="#1E1611"/>
<path d="M1083.59 813.349L1065.76 809.311C1065.76 809.311 1064.01 824.585 1071.59 826.1C1079.16 827.614 1083.59 813.349 1083.59 813.349Z" fill="white"/>
<path d="M1064.68 795.424C1066.17 797.343 1068.18 798.848 1070.43 799.731" stroke="black" stroke-width="2.36889" stroke-miterlimit="10"/>
<path d="M1084.38 779.75C1091.07 778.775 1097.58 776.541 1103.45 773.198" stroke="black" stroke-width="2.36889" stroke-miterlimit="10"/>
<path d="M1133.25 833.559C1139.83 828.613 1151.76 833.353 1154.21 840.711C1160.11 858.403 1131.71 873.168 1119.26 862.209C1115.73 859.109 1113.07 852.78 1116.17 848.267" fill="#FBC3C3"/>
<path d="M1143.97 850.372L1123.89 846.952" stroke="black" stroke-width="2.36889" stroke-miterlimit="10"/>
<path d="M1146.02 833.388C1142.01 831.862 1137.49 831.621 1133.25 832.701" stroke="black" stroke-width="2.36889" stroke-miterlimit="10"/>
<path d="M1116.62 848.457C1114.38 852.286 1115.05 856.995 1117.49 860.557C1121.93 867.037 1132.67 867.065 1139.15 864.294" stroke="black" stroke-width="2.36889" stroke-miterlimit="10"/>
<path d="M1104.73 798.712C1102.19 800.549 1099.06 800.565 1097.74 798.75C1096.43 796.933 1097.42 793.97 1099.96 792.133C1102.5 790.297 1105.63 790.28 1106.95 792.095C1108.26 793.913 1107.27 796.876 1104.73 798.712Z" fill="black"/>
<path d="M1165.85 894.344C1101.86 901.924 1062.68 931.198 1062.68 931.198L1073.81 981.993C1131.05 927.624 1186.73 915.359 1187.29 914.774L1165.85 894.344Z" fill="#FCDDD2"/>
<path d="M1060.82 898.743L1036.72 914.199C1036.72 914.199 1032.58 957.401 1040.49 980.375L1062.68 931.193L1060.82 898.743Z" fill="#FCDDD2"/>
<path d="M1062.68 931.196L1073.81 981.991C1131.05 927.622 1186.73 915.357 1187.29 914.772" stroke="black" stroke-width="2.36889" stroke-miterlimit="10"/>
<path d="M1060.82 898.743L1036.72 914.199C1036.72 914.199 1032.58 957.401 1040.49 980.375L1062.68 931.193" stroke="black" stroke-width="2.36889" stroke-miterlimit="10"/>
<path d="M823.324 761.393C829.791 784.363 839.373 806.452 851.73 826.871" stroke="black" stroke-width="2.36889" stroke-miterlimit="10"/>
<path d="M825.437 800.845C829.499 815.615 834.37 830.16 840.019 844.397" stroke="black" stroke-width="2.36889" stroke-miterlimit="10"/>
<path d="M1220.56 831.808C1220.9 842.332 1216.81 852.684 1210.54 861.149C1204.27 869.611 1195.92 876.344 1187.11 882.126" stroke="black" stroke-width="2.36889" stroke-miterlimit="10"/>
<path d="M1213.39 881.755C1222.21 876.755 1229.73 869.496 1235.05 860.868" stroke="black" stroke-width="2.36889" stroke-miterlimit="10"/>
<path d="M1234.52 339.999C1234.52 339.999 1209.86 351.297 1193.31 358.794C1183.94 363.035 1168.25 374.636 1162.89 383.463C1156.07 394.692 1154.29 408.579 1155.07 420.045C1155.59 427.632 1159.06 436.225 1164.15 444.496C1167.5 449.944 1171.07 455.64 1174.2 454.899C1177.32 454.161 1176.19 446.524 1176.19 446.515C1176.2 446.976 1179.89 454.22 1180.74 454.797C1181.88 455.571 1183.23 456.241 1184.41 455.626C1186 454.788 1187.09 453.874 1187.86 452.246C1188.51 450.869 1188.56 449.44 1188.7 447.904C1188.82 446.51 1188.71 443.147 1188.63 441.729C1189.32 443.258 1189.98 448.027 1191.29 447.776C1192.6 447.523 1194.73 446.432 1195.91 445.002C1198.18 442.226 1199.39 438.752 1200.55 435.356C1200.57 436.177 1200.58 437.022 1200.89 437.784C1201.2 438.546 1201.87 439.218 1202.69 439.28C1203.73 439.356 1207.95 436.279 1208.56 435.446C1211.22 431.842 1212.21 427.019 1214.13 422.975C1215.73 419.6 1217.3 417.21 1219.61 414.275C1221.72 411.599 1224.94 408.288 1228.01 406.676C1234.28 403.394 1238.12 402.499 1244.53 399.475C1249.92 396.926 1255.21 393.776 1258.94 389.012" fill="#7A492B"/>
<path d="M1200 436.777C1200.47 431.388 1201.13 426.016 1201.97 420.673C1202.53 417.111 1203.19 413.523 1204.61 410.21C1206.94 404.781 1211.18 400.436 1215.33 396.224" stroke="black" stroke-width="2.36889" stroke-miterlimit="10"/>
<path d="M1189.21 442.914C1187.11 433.933 1187.34 424.597 1187.57 415.377C1187.64 412.829 1187.71 410.258 1188.32 407.783C1189.37 403.511 1191.96 399.805 1194.5 396.211" stroke="black" stroke-width="2.36889" stroke-miterlimit="10"/>
<path d="M1176.45 448.305C1173.57 439.369 1170.66 430.336 1169.87 420.979C1169.71 419.187 1169.64 417.387 1169.7 415.588C1169.94 408.876 1172.13 402.321 1175.44 396.473" stroke="black" stroke-width="2.36889" stroke-miterlimit="10"/>
<path d="M1255.5 206.443L1298.89 288.217L1202.06 354.461L1265.78 404.604C1265.78 404.604 1374.44 369.269 1404.03 351.74C1427.27 337.978 1437.24 302.236 1392.48 243.939C1347.71 185.642 1316.81 151.069 1307.63 141.347C1287.87 120.424 1264.37 111.734 1242.47 122.751" fill="#13431D"/>
<path d="M1255.5 206.442L1298.89 288.215L1202.06 354.457" stroke="black" stroke-width="2.36889" stroke-miterlimit="10"/>
<path d="M1258 382.059C1258 383.843 1256.55 385.292 1254.77 385.292C1252.98 385.292 1251.53 383.846 1251.53 382.059C1251.53 380.275 1252.98 378.826 1254.77 378.826C1256.55 378.826 1258 380.275 1258 382.059Z" stroke="black" stroke-width="2.36889" stroke-miterlimit="10"/>
<path d="M1274.75 375.222C1276.53 375.222 1277.98 373.774 1277.98 371.989C1277.98 370.204 1276.53 368.756 1274.75 368.756C1272.96 368.756 1271.51 370.204 1271.51 371.989C1271.51 373.774 1272.96 375.222 1274.75 375.222Z" stroke="black" stroke-width="2.36889" stroke-miterlimit="10"/>
<path d="M1236.24 381.359C1236.59 381.638 1277.98 360.799 1277.98 360.799" stroke="black" stroke-width="2.36889" stroke-miterlimit="10"/>
<path d="M1238.5 329.528C1238.91 329.246 1312.91 388.604 1312.91 388.604" stroke="black" stroke-width="2.36889" stroke-miterlimit="10"/>
<path d="M1296.52 289.033C1305.61 285.487 1314.74 281.668 1324.45 280.21C1334.82 278.651 1345.37 279.188 1355.81 279.727" stroke="black" stroke-width="2.36889" stroke-miterlimit="10"/>
<path d="M1265.78 404.602L1391.2 359.065" stroke="black" stroke-width="2.36889" stroke-miterlimit="10"/>
<defs>
<filter id="filter0_i_438_2788" x="902.209" y="131.253" width="24.1104" height="33.5622" filterUnits="userSpaceOnUse" color-interpolation-filters="sRGB">
<feFlood flood-opacity="0" result="BackgroundImageFix"/>
<feBlend mode="normal" in="SourceGraphic" in2="BackgroundImageFix" result="shape"/>
<feColorMatrix in="SourceAlpha" type="matrix" values="0 0 0 0 0 0 0 0 0 0 0 0 0 0 0 0 0 0 127 0" result="hardAlpha"/>
<feOffset dy="9.47557"/>
<feGaussianBlur stdDeviation="4.73778"/>
<feComposite in2="hardAlpha" operator="arithmetic" k2="-1" k3="1"/>
<feColorMatrix type="matrix" values="0 0 0 0 0 0 0 0 0 0 0 0 0 0 0 0 0 0 0.25 0"/>
<feBlend mode="normal" in2="shape" result="effect1_innerShadow_438_2788"/>
</filter>
<filter id="filter1_i_438_2788" x="935.167" y="131.253" width="24.1104" height="33.5622" filterUnits="userSpaceOnUse" color-interpolation-filters="sRGB">
<feFlood flood-opacity="0" result="BackgroundImageFix"/>
<feBlend mode="normal" in="SourceGraphic" in2="BackgroundImageFix" result="shape"/>
<feColorMatrix in="SourceAlpha" type="matrix" values="0 0 0 0 0 0 0 0 0 0 0 0 0 0 0 0 0 0 127 0" result="hardAlpha"/>
<feOffset dy="9.47557"/>
<feGaussianBlur stdDeviation="4.73778"/>
<feComposite in2="hardAlpha" operator="arithmetic" k2="-1" k3="1"/>
<feColorMatrix type="matrix" values="0 0 0 0 0 0 0 0 0 0 0 0 0 0 0 0 0 0 0.25 0"/>
<feBlend mode="normal" in2="shape" result="effect1_innerShadow_438_2788"/>
</filter>
<filter id="filter2_i_438_2788" x="251.163" y="48.1802" width="20.5566" height="30.0159" filterUnits="userSpaceOnUse" color-interpolation-filters="sRGB">
<feFlood flood-opacity="0" result="BackgroundImageFix"/>
<feBlend mode="normal" in="SourceGraphic" in2="BackgroundImageFix" result="shape"/>
<feColorMatrix in="SourceAlpha" type="matrix" values="0 0 0 0 0 0 0 0 0 0 0 0 0 0 0 0 0 0 127 0" result="hardAlpha"/>
<feOffset dy="9.47557"/>
<feGaussianBlur stdDeviation="4.73778"/>
<feComposite in2="hardAlpha" operator="arithmetic" k2="-1" k3="1"/>
<feColorMatrix type="matrix" values="0 0 0 0 0 0 0 0 0 0 0 0 0 0 0 0 0 0 0.25 0"/>
<feBlend mode="normal" in2="shape" result="effect1_innerShadow_438_2788"/>
</filter>
<filter id="filter3_i_438_2788" x="284.119" y="48.1802" width="20.5566" height="30.0159" filterUnits="userSpaceOnUse" color-interpolation-filters="sRGB">
<feFlood flood-opacity="0" result="BackgroundImageFix"/>
<feBlend mode="normal" in="SourceGraphic" in2="BackgroundImageFix" result="shape"/>
<feColorMatrix in="SourceAlpha" type="matrix" values="0 0 0 0 0 0 0 0 0 0 0 0 0 0 0 0 0 0 127 0" result="hardAlpha"/>
<feOffset dy="9.47557"/>
<feGaussianBlur stdDeviation="4.73778"/>
<feComposite in2="hardAlpha" operator="arithmetic" k2="-1" k3="1"/>
<feColorMatrix type="matrix" values="0 0 0 0 0 0 0 0 0 0 0 0 0 0 0 0 0 0 0.25 0"/>
<feBlend mode="normal" in2="shape" result="effect1_innerShadow_438_2788"/>
</filter>
<filter id="filter4_i_438_2788" x="174.594" y="517.63" width="24.2148" height="33.6721" filterUnits="userSpaceOnUse" color-interpolation-filters="sRGB">
<feFlood flood-opacity="0" result="BackgroundImageFix"/>
<feBlend mode="normal" in="SourceGraphic" in2="BackgroundImageFix" result="shape"/>
<feColorMatrix in="SourceAlpha" type="matrix" values="0 0 0 0 0 0 0 0 0 0 0 0 0 0 0 0 0 0 127 0" result="hardAlpha"/>
<feOffset dy="9.47557"/>
<feGaussianBlur stdDeviation="4.73778"/>
<feComposite in2="hardAlpha" operator="arithmetic" k2="-1" k3="1"/>
<feColorMatrix type="matrix" values="0 0 0 0 0 0 0 0 0 0 0 0 0 0 0 0 0 0 0.25 0"/>
<feBlend mode="normal" in2="shape" result="effect1_innerShadow_438_2788"/>
</filter>
<filter id="filter5_i_438_2788" x="214.64" y="517.63" width="24.2148" height="33.6699" filterUnits="userSpaceOnUse" color-interpolation-filters="sRGB">
<feFlood flood-opacity="0" result="BackgroundImageFix"/>
<feBlend mode="normal" in="SourceGraphic" in2="BackgroundImageFix" result="shape"/>
<feColorMatrix in="SourceAlpha" type="matrix" values="0 0 0 0 0 0 0 0 0 0 0 0 0 0 0 0 0 0 127 0" result="hardAlpha"/>
<feOffset dy="9.47557"/>
<feGaussianBlur stdDeviation="4.73778"/>
<feComposite in2="hardAlpha" operator="arithmetic" k2="-1" k3="1"/>
<feColorMatrix type="matrix" values="0 0 0 0 0 0 0 0 0 0 0 0 0 0 0 0 0 0 0.25 0"/>
<feBlend mode="normal" in2="shape" result="effect1_innerShadow_438_2788"/>
</filter>
</defs>
</svg>
