<svg width="618" height="619" viewBox="0 0 618 619" fill="none" xmlns="http://www.w3.org/2000/svg">
<path opacity="0.7" d="M534.037 207.024C534.037 207.024 568.497 296.016 520.07 385.626C471.644 475.236 371.899 522.574 292.065 563.053C212.232 603.532 129.334 583.818 89.9424 517.519C50.5511 451.22 104.577 403.894 104.651 309.352C104.725 214.81 90.4986 189.781 141.731 109.911C192.963 30.0408 318.553 12.3536 413.527 71.5951C508.501 130.837 534.037 207.024 534.037 207.024Z" fill="white"/>
<path d="M118.458 573.138C118.458 573.138 7.9599 421.864 76.4343 305.594C144.909 189.323 280.881 269.119 306.775 160.611C332.669 52.1023 427.186 34.3039 516.821 170.004C606.456 305.705 585.011 494.393 537.549 573.138H118.458Z" fill="#DC7B2C"/>
<path opacity="0.7" d="M118.458 573.138C118.458 573.138 7.9599 421.864 76.4343 305.594C144.909 189.323 280.881 269.119 306.775 160.611C332.669 52.1023 427.186 34.3039 516.821 170.004C606.456 305.705 585.011 494.393 537.549 573.138H118.458Z" fill="white"/>
<path d="M554.147 573.139H61.5273" stroke="#263238" stroke-width="1.236" stroke-linecap="round" stroke-linejoin="round"/>
<path d="M505.24 177.767H474.401V165.382H505.24V177.767Z" stroke="#263238" stroke-width="1.236" stroke-linecap="round" stroke-linejoin="round"/>
<path d="M480.544 191.934H449.706V179.549H480.544V191.934Z" stroke="#263238" stroke-width="1.236" stroke-linecap="round" stroke-linejoin="round"/>
<path d="M409.758 272.246H378.92V259.861H409.758V272.246Z" stroke="#263238" stroke-width="1.236" stroke-linecap="round" stroke-linejoin="round"/>
<path d="M425.17 288.599H394.332V276.214H425.17V288.599Z" stroke="#263238" stroke-width="1.236" stroke-linecap="round" stroke-linejoin="round"/>
<path d="M520.663 388.581H489.825V376.196H520.663V388.581Z" stroke="#263238" stroke-width="1.236" stroke-linecap="round" stroke-linejoin="round"/>
<path d="M503.768 403.995H472.93V391.61H503.768V403.995Z" stroke="#263238" stroke-width="1.236" stroke-linecap="round" stroke-linejoin="round"/>
<path d="M324.14 418.713H293.302V406.328H324.14V418.713Z" stroke="#263238" stroke-width="1.236" stroke-linecap="round" stroke-linejoin="round"/>
<path d="M340.444 435.203H309.605V422.818H340.444V435.203Z" stroke="#263238" stroke-width="1.236" stroke-linecap="round" stroke-linejoin="round"/>
<path d="M510.912 499.932H480.074V487.547H510.912V499.932Z" stroke="#263238" stroke-width="1.236" stroke-linecap="round" stroke-linejoin="round"/>
<path d="M486.106 388.581H455.268V376.196H486.106V388.581Z" stroke="#263238" stroke-width="1.236" stroke-linecap="round" stroke-linejoin="round"/>
<path d="M339.516 340.203C369.501 340.537 400.401 340.537 429.447 340.203" stroke="#263238" stroke-width="1.236" stroke-linecap="round" stroke-linejoin="round"/>
<path d="M327.168 340.203H334.708" stroke="#263238" stroke-width="1.236" stroke-linecap="round" stroke-linejoin="round"/>
<path d="M82.3177 515.306C112.303 515.639 143.203 515.639 172.249 515.306" stroke="#263238" stroke-width="1.236" stroke-linecap="round" stroke-linejoin="round"/>
<path d="M69.9692 515.306H77.5088" stroke="#263238" stroke-width="1.236" stroke-linecap="round" stroke-linejoin="round"/>
<path d="M210.442 138.068C240.427 138.402 271.327 138.402 300.373 138.068" stroke="#263238" stroke-width="1.236" stroke-linecap="round" stroke-linejoin="round"/>
<path d="M198.093 138.068H205.633" stroke="#263238" stroke-width="1.236" stroke-linecap="round" stroke-linejoin="round"/>
<path d="M476.774 229.014C489.958 229.236 503.113 229.281 516.239 229.15" stroke="#263238" stroke-width="1.236" stroke-linecap="round" stroke-linejoin="round"/>
<path d="M222.765 490.464C235.949 490.686 249.1 490.732 262.218 490.6" stroke="#263238" stroke-width="1.236" stroke-linecap="round" stroke-linejoin="round"/>
<path d="M481.459 468.053H477.207" stroke="#263238" stroke-width="1.236" stroke-linecap="round" stroke-linejoin="round"/>
<path d="M526.264 468.053H486.291" stroke="#263238" stroke-width="1.236" stroke-linecap="round" stroke-linejoin="round"/>
<path d="M375.422 104.931H371.17" stroke="#263238" stroke-width="1.236" stroke-linecap="round" stroke-linejoin="round"/>
<path d="M420.239 104.931H380.267" stroke="#263238" stroke-width="1.236" stroke-linecap="round" stroke-linejoin="round"/>
<path d="M104.219 454.164H135.058V466.549H104.219V454.164Z" stroke="#263238" stroke-width="1.236" stroke-linecap="round" stroke-linejoin="round"/>
<path d="M128.914 439.997H159.752V452.382H128.914V439.997Z" stroke="#263238" stroke-width="1.236" stroke-linecap="round" stroke-linejoin="round"/>
<path d="M199.7 359.683H230.538V372.067H199.7V359.683Z" stroke="#263238" stroke-width="1.236" stroke-linecap="round" stroke-linejoin="round"/>
<path d="M184.287 343.332H215.125V355.717H184.287V343.332Z" stroke="#263238" stroke-width="1.236" stroke-linecap="round" stroke-linejoin="round"/>
<path d="M88.7936 243.352H119.632V255.736H88.7936V243.352Z" stroke="#263238" stroke-width="1.236" stroke-linecap="round" stroke-linejoin="round"/>
<path d="M105.689 227.938H136.527V240.322H105.689V227.938Z" stroke="#263238" stroke-width="1.236" stroke-linecap="round" stroke-linejoin="round"/>
<path d="M285.305 213.216H316.144V225.601H285.305V213.216Z" stroke="#263238" stroke-width="1.236" stroke-linecap="round" stroke-linejoin="round"/>
<path d="M269.015 196.728H299.854V209.112H269.015V196.728Z" stroke="#263238" stroke-width="1.236" stroke-linecap="round" stroke-linejoin="round"/>
<path d="M170.506 105.425H201.344V117.81H170.506V105.425Z" stroke="#263238" stroke-width="1.236" stroke-linecap="round" stroke-linejoin="round"/>
<path d="M123.352 243.352H154.19V255.736H123.352V243.352Z" stroke="#263238" stroke-width="1.236" stroke-linecap="round" stroke-linejoin="round"/>
<path d="M269.93 291.727C239.957 291.393 209.057 291.393 179.998 291.727" stroke="#263238" stroke-width="1.236" stroke-linecap="round" stroke-linejoin="round"/>
<path d="M282.277 291.728H274.75" stroke="#263238" stroke-width="1.236" stroke-linecap="round" stroke-linejoin="round"/>
<path d="M132.685 402.917C119.501 402.694 106.345 402.645 93.2191 402.768" stroke="#263238" stroke-width="1.236" stroke-linecap="round" stroke-linejoin="round"/>
<path d="M128 163.876H132.252" stroke="#263238" stroke-width="1.236" stroke-linecap="round" stroke-linejoin="round"/>
<path d="M83.1834 163.876H123.168" stroke="#263238" stroke-width="1.236" stroke-linecap="round" stroke-linejoin="round"/>
<path d="M180.802 255.114L201.468 239.417C201.468 239.417 226.485 192.078 227.906 190.348L235.396 200.026C235.396 200.026 221.281 241.246 219.193 246.994C217.104 252.741 208.513 259.23 204.361 263.642C200.208 268.055 183.732 279.649 183.732 279.649L180.802 255.114Z" fill="white" stroke="#263238" stroke-width="1.236" stroke-linecap="round" stroke-linejoin="round"/>
<path d="M283.713 393.906H302.759C308.495 393.905 314.013 391.711 318.182 387.771C322.352 383.832 324.855 378.447 325.181 372.721L326.219 354.428H260.266L261.304 372.721C261.626 378.446 264.127 383.831 268.294 387.77C272.461 391.71 277.978 393.905 283.713 393.906Z" fill="#263238"/>
<path d="M193.991 221.967C193.989 208.732 196.634 195.629 201.772 183.432C206.909 171.234 214.434 160.187 223.905 150.941C233.375 141.695 244.599 134.437 256.917 129.594C269.234 124.751 282.396 122.421 295.628 122.741C349.295 123.977 392.617 168.473 392.493 222.202C392.463 247.576 382.678 271.968 365.165 290.33C354.977 300.873 347.784 313.941 344.326 328.189L343.671 330.982H242.801L242.418 329.338C238.822 314.491 231.384 300.85 220.85 289.786C203.571 271.435 193.963 247.172 193.991 221.967Z" fill="white"/>
<mask id="mask0_179_9731" style="mask-type:luminance" maskUnits="userSpaceOnUse" x="193" y="122" width="200" height="209">
<path d="M193.991 221.964C193.989 208.729 196.634 195.627 201.772 183.429C206.909 171.231 214.434 160.184 223.905 150.938C233.375 141.692 244.599 134.434 256.917 129.591C269.234 124.748 282.396 122.418 295.628 122.738C349.295 123.974 392.617 168.47 392.493 222.199C392.463 247.574 382.678 271.965 365.165 290.327C354.977 300.87 347.784 313.938 344.326 328.186L343.671 330.979H242.801L242.418 329.335C238.822 314.488 231.384 300.847 220.85 289.783C203.571 271.432 193.963 247.169 193.991 221.964Z" fill="white"/>
</mask>
<g mask="url(#mask0_179_9731)">
<path opacity="0.4" d="M295.628 122.737C349.295 123.973 392.617 168.469 392.493 222.198C392.463 247.573 382.678 271.964 365.165 290.326C354.977 300.869 347.784 313.937 344.326 328.185L343.671 330.978H242.801L242.418 329.334C238.822 314.484 231.379 300.843 220.837 289.782C207.473 275.512 198.622 257.612 195.394 238.329C192.167 219.046 194.707 199.239 202.697 181.395C210.686 163.551 223.768 148.464 240.301 138.028C256.835 127.592 276.082 122.273 295.628 122.737ZM293.563 302.081C311.088 302.078 328.219 296.879 342.789 287.141C357.359 277.403 368.714 263.564 375.419 247.372C382.123 231.181 383.876 213.365 380.456 196.177C377.035 178.99 368.595 163.202 356.203 150.811C343.81 138.421 328.021 129.983 310.833 126.565C293.645 123.147 275.83 124.902 259.639 131.609C243.449 138.316 229.611 149.673 219.875 164.245C210.139 178.816 204.942 195.947 204.942 213.472C204.942 225.109 207.235 236.632 211.688 247.384C216.142 258.135 222.67 267.904 230.9 276.132C239.129 284.36 248.899 290.887 259.651 295.339C270.402 299.791 281.926 302.082 293.563 302.081Z" fill="#DC7B2C"/>
</g>
<path d="M193.991 221.967C193.989 208.732 196.634 195.629 201.772 183.432C206.909 171.234 214.434 160.187 223.905 150.941C233.375 141.695 244.599 134.437 256.917 129.594C269.234 124.751 282.396 122.421 295.628 122.741C349.295 123.977 392.617 168.473 392.493 222.202C392.463 247.576 382.678 271.968 365.165 290.33C354.977 300.873 347.784 313.941 344.326 328.189L343.671 330.982H242.801L242.418 329.338C238.822 314.491 231.384 300.85 220.85 289.786C203.571 271.435 193.963 247.172 193.991 221.967Z" stroke="#263238" stroke-width="1.236" stroke-miterlimit="10"/>
<path d="M327.108 381.089H259.363C253.847 378.038 249.196 373.639 245.843 368.302C242.49 362.965 240.546 356.864 240.192 350.572L238.474 320.203H347.996L346.29 350.572C345.932 356.865 343.984 362.964 340.63 368.301C337.275 373.637 332.623 378.037 327.108 381.089Z" fill="#DC7B2C" stroke="#263238" stroke-width="1.236" stroke-linecap="round" stroke-linejoin="round"/>
<path d="M238.981 331.228L345.463 339.818C346.536 339.907 347.601 339.567 348.423 338.871C349.246 338.176 349.759 337.183 349.85 336.11C349.936 335.037 349.594 333.974 348.9 333.153C348.205 332.331 347.214 331.817 346.142 331.722L239.636 323.095C238.563 323.006 237.498 323.346 236.676 324.042C235.853 324.737 235.34 325.73 235.248 326.803C235.201 327.339 235.26 327.879 235.422 328.392C235.585 328.905 235.847 329.381 236.194 329.792C236.541 330.204 236.966 330.542 237.444 330.789C237.922 331.035 238.445 331.184 238.981 331.228Z" fill="#DC7B2C" stroke="#263238" stroke-width="1.236" stroke-linecap="round" stroke-linejoin="round"/>
<path d="M239.006 347.346L344.35 355.849C345.422 355.932 346.483 355.589 347.304 354.895C348.126 354.201 348.64 353.212 348.738 352.141C348.824 351.069 348.482 350.006 347.788 349.184C347.093 348.362 346.102 347.848 345.03 347.754L239.661 339.163C238.588 339.078 237.525 339.419 236.704 340.114C235.882 340.808 235.368 341.799 235.273 342.871C235.217 343.412 235.27 343.958 235.428 344.477C235.587 344.997 235.847 345.479 236.195 345.896C236.543 346.313 236.971 346.656 237.454 346.905C237.937 347.154 238.464 347.304 239.006 347.346Z" fill="#DC7B2C" stroke="#263238" stroke-width="1.236" stroke-linecap="round" stroke-linejoin="round"/>
<path d="M242.256 363.81L339.332 371.646C340.404 371.728 341.465 371.385 342.286 370.692C343.107 369.998 343.622 369.008 343.719 367.938C343.809 366.863 343.468 365.797 342.774 364.973C342.079 364.148 341.086 363.632 340.011 363.538L242.936 355.701C241.864 355.619 240.803 355.962 239.982 356.656C239.161 357.35 238.646 358.339 238.548 359.409C238.462 360.483 238.804 361.548 239.498 362.372C240.192 363.195 241.183 363.712 242.256 363.81Z" fill="#DC7B2C" stroke="#263238" stroke-width="1.236" stroke-linecap="round" stroke-linejoin="round"/>
<path d="M216.065 552.993C216.065 552.993 213.816 566.737 216.065 573.152H261.525C261.525 573.152 263.441 568.344 261.525 565.303C259.61 562.263 245.198 560.545 240.711 556.441C237.277 553.031 234.169 549.307 231.429 545.317L216.065 552.993Z" fill="#263238" stroke="#263238" stroke-width="1.236" stroke-miterlimit="10"/>
<path d="M262.378 570.714H215.459L215.064 573.136H262.378V570.714Z" fill="white" stroke="#263238" stroke-width="1.236" stroke-linecap="round" stroke-linejoin="round"/>
<path d="M226.991 551.311C226.991 551.311 231.267 552.336 231.75 552.547C232.232 552.757 236.385 559.11 240.55 560.234C244.715 561.359 248.88 561.137 248.238 563.164" stroke="white" stroke-width="1.236" stroke-linecap="round" stroke-linejoin="round"/>
<path d="M236.46 551.311L231.59 554.895" stroke="white" stroke-width="1.236" stroke-linecap="round" stroke-linejoin="round"/>
<path d="M238.722 554.449L234.025 557.898" stroke="white" stroke-width="1.236" stroke-linecap="round" stroke-linejoin="round"/>
<path d="M241.725 557.205L237.646 561.148" stroke="white" stroke-width="1.236" stroke-linecap="round" stroke-linejoin="round"/>
<path d="M245.841 559.222L244.073 563.115" stroke="white" stroke-width="1.236" stroke-linecap="round" stroke-linejoin="round"/>
<path d="M215.324 559.17C220.609 558.729 225.929 559.389 230.947 561.111C239.117 563.978 241.935 566.475 241.725 567.229C241.514 567.983 240.55 570.208 240.55 570.208H236.459C236.459 570.208 237.942 567.6 237.695 567.229C237.448 566.858 223.444 561.407 215.373 562.371L215.324 559.17Z" fill="white"/>
<path d="M149.655 573.138C149.655 573.138 147.9 566.452 149.952 563.967C153.66 559.518 149.507 555.785 153.203 554.24L154.748 556.032C155.044 554.215 154.179 548.678 161.026 547.949C169.308 547.084 169.468 553.103 169.913 555.093L169.777 552.312C173.312 552.312 171.483 555.834 176.835 561.607C178.237 563.16 179.303 564.986 179.966 566.97C180.63 568.954 180.877 571.054 180.691 573.138H149.655Z" fill="#263238" stroke="#263238" stroke-width="1.236" stroke-miterlimit="10"/>
<path d="M180.729 570.714H148.963L149.655 573.136H180.691L180.729 570.714Z" fill="white" stroke="#263238" stroke-width="1.236" stroke-linecap="round" stroke-linejoin="round"/>
<path d="M170.569 561.322C170.569 561.322 160.137 557.873 155.107 562.187" stroke="white" stroke-width="1.236" stroke-linecap="round" stroke-linejoin="round"/>
<path d="M170.569 559.049C170.569 559.049 161.398 556.144 155.107 560.025" stroke="white" stroke-width="1.236" stroke-linecap="round" stroke-linejoin="round"/>
<path d="M169.987 556.799C169.987 556.799 161.335 553.548 155.069 558.035" stroke="white" stroke-width="1.236" stroke-linecap="round" stroke-linejoin="round"/>
<path d="M176.835 561.644L175.797 562.657C175.657 562.796 175.57 562.979 175.549 563.175C175.529 563.371 175.577 563.568 175.686 563.732C177.067 565.814 177.806 568.255 177.812 570.753H179.332C178.992 568.315 178.249 565.951 177.132 563.757L177.911 562.966L176.835 561.644Z" fill="white"/>
<path d="M207.883 488.362C207.883 488.362 214.632 499.832 226.04 497.385" stroke="#263238" stroke-width="1.236" stroke-linecap="round" stroke-linejoin="round"/>
<path d="M200.751 357.8L205.176 367.157C217.33 393.253 227.19 420.358 234.642 448.164C234.914 449.19 240.699 469.671 236.064 520.68L238.709 529.629L235.816 544.461C235.816 544.461 240.167 550.74 240.006 552.804C240.006 552.804 229.278 554.806 225.694 556.722C222.913 558.218 214.57 566.487 214.57 566.487C212.196 565.992 211.999 556.401 211.999 556.401C211.999 556.401 207.055 471.265 205.609 467.582C204.162 463.898 195.473 448.102 181.89 411.9C181.89 411.9 181.581 462.465 177.947 475.257C174.721 486.641 178.54 518.517 178.54 518.517L176.365 553.966C176.365 553.966 184.003 561.901 177.811 564.039C177.811 564.039 173.67 556.067 161.866 554.262C155.872 553.335 148.394 563.99 148.394 563.99C145.774 563.149 149.506 549.763 149.506 549.763C141.151 486.666 147.319 498.086 145.65 467.236C144.575 447.46 138.963 362.744 145.551 355.872L200.751 357.8Z" fill="#757575"/>
<mask id="mask1_179_9731" style="mask-type:luminance" maskUnits="userSpaceOnUse" x="142" y="355" width="99" height="212">
<path d="M200.751 357.8L205.176 367.157C217.33 393.253 227.19 420.358 234.642 448.164C234.914 449.19 240.699 469.671 236.064 520.68L238.709 529.629L235.816 544.461C235.816 544.461 240.167 550.74 240.006 552.804C240.006 552.804 229.278 554.806 225.694 556.722C222.913 558.218 214.57 566.487 214.57 566.487C212.196 565.992 211.999 556.401 211.999 556.401C211.999 556.401 207.055 471.265 205.609 467.582C204.162 463.898 195.473 448.102 181.89 411.9C181.89 411.9 181.581 462.465 177.947 475.257C174.721 486.641 178.54 518.517 178.54 518.517L176.365 553.966C176.365 553.966 184.003 561.901 177.811 564.039C177.811 564.039 173.67 556.067 161.866 554.262C155.872 553.335 148.394 563.99 148.394 563.99C145.774 563.149 149.506 549.763 149.506 549.763C141.151 486.666 147.319 498.086 145.65 467.236C144.575 447.46 138.963 362.744 145.551 355.872L200.751 357.8Z" fill="white"/>
</mask>
<g mask="url(#mask1_179_9731)">
<path opacity="0.2" d="M142.363 386.959C171.903 389.283 197.488 379.617 208.575 374.599C206.474 369.865 205.176 367.183 205.176 367.183L200.751 357.827L145.527 355.824C143.141 358.284 142.363 370.903 142.363 386.959Z" fill="black"/>
<path opacity="0.2" d="M182.101 412.495C195.548 448.24 204.176 463.888 205.585 467.534C206.4 469.647 208.378 498.557 209.911 522.832C211.69 500.757 213.507 477.459 213.619 472.886C213.952 463.789 207.377 451.305 206.388 448.079C205.399 444.853 207.624 441.368 207.624 441.368L195.795 426.462C196.191 421.394 189.937 399.27 189.937 399.27C186.266 402.842 182.929 410.332 182.101 412.495Z" fill="black"/>
</g>
<path d="M200.751 357.8L205.176 367.157C217.33 393.253 227.19 420.358 234.642 448.164C234.914 449.19 240.699 469.671 236.064 520.68L238.709 529.629L235.816 544.461C235.816 544.461 240.167 550.74 240.006 552.804C240.006 552.804 229.278 554.806 225.694 556.722C222.913 558.218 214.57 566.487 214.57 566.487C212.196 565.992 211.999 556.401 211.999 556.401C211.999 556.401 207.055 471.265 205.609 467.582C204.162 463.898 195.473 448.102 181.89 411.9C181.89 411.9 181.581 462.465 177.947 475.257C174.721 486.641 178.54 518.517 178.54 518.517L176.365 553.966C176.365 553.966 184.003 561.901 177.811 564.039C177.811 564.039 173.67 556.067 161.866 554.262C155.872 553.335 148.394 563.99 148.394 563.99C145.774 563.149 149.506 549.763 149.506 549.763C141.151 486.666 147.319 498.086 145.65 467.236C144.575 447.46 138.963 362.744 145.551 355.872L200.751 357.8Z" stroke="#263238" stroke-width="1.236" stroke-linecap="round" stroke-linejoin="round"/>
<path d="M181.866 411.853C181.866 411.853 188.614 398.825 194.374 395.191" stroke="#263238" stroke-width="1.236" stroke-linecap="round" stroke-linejoin="round"/>
<path d="M196.896 390.977C196.896 390.977 176.39 397.157 169.283 398.393" stroke="#263238" stroke-width="1.236" stroke-linecap="round" stroke-linejoin="round"/>
<path d="M186.401 370.063C187.291 387.145 193.31 390.05 187.489 393.77C187.489 393.77 187.649 401.755 184.757 406.822" stroke="#263238" stroke-width="1.236" stroke-linecap="round" stroke-linejoin="round"/>
<path d="M150.471 363.525C150.471 363.525 152.943 389.766 144.823 394.697" stroke="#263238" stroke-width="1.236" stroke-linecap="round" stroke-linejoin="round"/>
<path d="M144.822 371.979C144.822 371.979 144.216 389.444 144.822 403.522C144.822 403.522 146.837 463.011 148.851 470.489C150.866 477.967 145.749 489.226 146.194 521.535" stroke="#263238" stroke-width="1.236" stroke-linecap="round" stroke-linejoin="round"/>
<path d="M164.203 546.812C162.286 546.4 160.285 546.666 158.542 547.566" stroke="#263238" stroke-width="1.236" stroke-linecap="round" stroke-linejoin="round"/>
<path d="M176.341 553.894C173.814 551.434 170.888 549.42 167.689 547.937" stroke="#263238" stroke-width="1.236" stroke-linecap="round" stroke-linejoin="round"/>
<path d="M172.966 415.98C168.43 421.048 161.261 430.627 153.907 431.443" stroke="#263238" stroke-width="1.236" stroke-linecap="round" stroke-linejoin="round"/>
<path d="M179.937 407.7C178.552 409.468 177.106 411.186 175.648 412.891" stroke="#263238" stroke-width="1.236" stroke-linecap="round" stroke-linejoin="round"/>
<path d="M173.485 467.164C173.485 467.164 163.189 481.18 157.541 481.996" stroke="#263238" stroke-width="1.236" stroke-linecap="round" stroke-linejoin="round"/>
<path d="M185.598 409.318C185.598 409.318 203.928 460.39 210.318 465.433C210.318 465.433 211.047 502.982 211.245 516.109C211.443 529.235 214.471 546.663 214.471 546.663" stroke="#263238" stroke-width="1.236" stroke-linecap="round" stroke-linejoin="round"/>
<path d="M234.037 546.279C234.037 546.279 226.98 548.751 223.543 550.272C221.437 551.289 219.781 553.05 218.896 555.216" stroke="#263238" stroke-width="1.236" stroke-linecap="round" stroke-linejoin="round"/>
<path d="M216.177 447.018C206.289 440.838 193.348 433.125 188.12 422.236" stroke="#263238" stroke-width="1.236" stroke-linecap="round" stroke-linejoin="round"/>
<path d="M224.756 452.109C222.889 451.084 221.048 450.008 219.243 448.908" stroke="#263238" stroke-width="1.236" stroke-linecap="round" stroke-linejoin="round"/>
<path d="M193.73 376.948C188.44 376.874 182.606 376.17 178.12 373.24" stroke="#263238" stroke-width="1.236" stroke-linecap="round" stroke-linejoin="round"/>
<path d="M202.148 376.452C200.628 376.662 199.108 376.798 197.575 376.872" stroke="#263238" stroke-width="1.236" stroke-linecap="round" stroke-linejoin="round"/>
<path d="M174.733 265.733C174.733 265.733 143.611 256.896 125.713 266.475C121.264 268.848 111.092 276.573 111.45 285.831C111.809 295.088 141.262 338.188 140.904 343.923C140.545 349.658 140.904 364.49 143.079 365.503C145.255 366.517 192.519 367.889 204.187 364.885C208.847 363.649 199.688 341.636 199.688 341.636C199.688 341.636 190.764 293.865 174.733 265.733Z" fill="#DC7B2C" stroke="#263238" stroke-width="1.236" stroke-linecap="round" stroke-linejoin="round"/>
<path d="M130.423 264.089C130.423 264.089 150.1 271.962 156.552 263.731C155.456 263.794 154.363 263.579 153.373 263.105C152.383 262.632 151.529 261.916 150.891 261.024C149.874 259.458 149.321 257.637 149.296 255.771C149.198 254.312 152.09 235.599 150.891 233.918C132.759 208.58 128.754 245.784 128.754 245.784C128.754 245.784 135.169 261.753 130.423 264.089Z" fill="white" stroke="#263238" stroke-width="1.236" stroke-linecap="round" stroke-linejoin="round"/>
<path d="M144.204 253.941C144.204 253.941 145.44 259.788 150.891 261.024C149.874 259.458 149.321 257.637 149.296 255.771C147.547 255.316 145.843 254.704 144.204 253.941Z" fill="#263238"/>
<path d="M126.9 257.488L147.245 262.89V273.457C147.245 273.457 153.153 288.228 152.967 290.625C152.782 293.023 147.245 389.308 147.245 389.308C147.245 389.308 130.719 388.072 124.75 377.813C124.75 377.813 127.147 340.486 124.75 334.343C123.191 329.75 122.284 324.961 122.055 320.116C122.055 320.116 106.494 291.033 109.955 282.159C113.415 273.284 124.218 264.645 124.218 264.645L126.9 257.488Z" fill="#263238"/>
<path d="M144.896 264.396C144.896 264.396 141.547 275.347 141.127 275.125C140.706 274.902 129.076 270.181 125.936 265.509" stroke="white" stroke-width="1.236" stroke-linecap="round" stroke-linejoin="round"/>
<path d="M151.868 262.124C152.164 261.704 164.821 253.942 164.821 253.942L171.335 255.672L180.951 249.665C180.951 249.665 190.69 279.329 190.406 286.189C190.122 293.049 200.504 331.031 202.024 346.024C202.024 346.024 189.664 321.65 187.897 317.398C186.129 313.146 180.394 284.52 175.648 277.846C170.902 271.171 159.803 262.878 159.803 262.878L151.868 262.124Z" fill="#263238"/>
<path d="M128.049 243.261C127.114 240.782 126.743 238.127 126.962 235.487C128.296 216.736 132.721 212.373 140.026 213.597C167.305 218.145 159.221 231.989 160.259 236.587C161.298 241.184 165.203 241.531 164.647 243.619C164.437 244.448 161.224 244.534 161.224 244.534L161.026 248.86L159.79 249.157C159.79 249.157 158.801 259.045 156.292 260.145C153.115 261.591 143.623 255.856 143.648 252.296" fill="white"/>
<path d="M128.049 243.261C127.114 240.782 126.743 238.127 126.962 235.487C128.296 216.736 132.721 212.373 140.026 213.597C167.305 218.145 159.221 231.989 160.259 236.587C161.298 241.184 165.203 241.531 164.647 243.619C164.437 244.448 161.224 244.534 161.224 244.534L161.026 248.86L159.79 249.157C159.79 249.157 158.801 259.045 156.292 260.145C153.115 261.591 143.623 255.856 143.648 252.296" stroke="#263238" stroke-width="1.236" stroke-linecap="round" stroke-linejoin="round"/>
<path d="M158.134 229.851C158.134 229.851 154.302 229.072 152.386 232.138" stroke="#263238" stroke-width="1.236" stroke-linecap="round" stroke-linejoin="round"/>
<path d="M156.539 235.526C156.403 236.441 155.896 237.108 155.427 237.034C154.957 236.96 154.685 236.169 154.821 235.266C154.957 234.364 155.464 233.684 155.934 233.758C156.403 233.833 156.675 234.624 156.539 235.526Z" fill="#263238"/>
<path d="M159.804 249.157C157.79 249.161 155.787 248.87 153.859 248.292" stroke="#263238" stroke-width="1.236" stroke-linecap="round" stroke-linejoin="round"/>
<path d="M154.686 248.566C154.686 248.566 156.268 250.766 157.689 250.766C159.111 250.766 159.197 249.666 159.197 249.666" stroke="#263238" stroke-width="1.236" stroke-linecap="round" stroke-linejoin="round"/>
<path d="M126.406 216.554C126.406 216.554 125.046 210.732 138.618 209.954C149.21 209.348 158.888 210.275 162.46 217.135C166.032 223.995 165.661 230.162 160.557 230.953C160.113 228.407 159.161 225.976 157.757 223.806C156.354 221.636 154.527 219.771 152.387 218.322C152.387 218.322 155.353 225.985 150.891 229.767C149.912 230.61 148.796 231.279 147.591 231.744C147.264 232.4 146.848 233.007 146.355 233.549C144.204 236.021 144.118 241.138 144.118 241.138L142.042 239.902C142.042 239.902 145.057 231.918 136.294 233.796C131.795 234.76 132.586 240.199 131.931 243.585C131.276 246.972 129.459 247.899 129.459 247.899C127.423 245.604 125.823 242.957 124.738 240.087C124.738 240.087 120.263 236.899 120.263 232.214C120.263 227.53 121.524 219.916 126.406 216.554Z" fill="#263238"/>
<path d="M141.127 233.93C141.127 233.93 138.284 229.555 135.763 229.456C133.241 229.357 131.548 238.108 133.859 241.507C136.171 244.906 138.445 246.043 139.495 245.029C139.799 244.701 140.023 244.308 140.152 243.879C140.28 243.451 140.309 242.999 140.237 242.557" fill="white"/>
<path d="M141.127 233.93C141.127 233.93 138.284 229.555 135.763 229.456C133.241 229.357 131.548 238.108 133.859 241.507C136.171 244.906 138.445 246.043 139.495 245.029C139.799 244.701 140.023 244.308 140.152 243.879C140.28 243.451 140.309 242.999 140.237 242.557" stroke="#263238" stroke-width="1.236" stroke-linecap="round" stroke-linejoin="round"/>
<path d="M174.276 268.439C171.202 265.04 168.435 261.376 166.008 257.488" stroke="white" stroke-width="1.236" stroke-linecap="round" stroke-linejoin="round"/>
<path d="M174.276 257.488C172.533 258.154 171.074 259.403 170.148 261.023" stroke="white" stroke-width="1.236" stroke-linecap="round" stroke-linejoin="round"/>
<path d="M180.95 249.665L191.135 245.389L194.583 240.136C200.145 248.984 202.743 259.375 201.999 269.8L196.339 273.409L188.614 290.96L180.95 249.665Z" fill="#263238"/>
<path d="M144.045 290.959C144.045 290.959 133.811 305.395 138.841 311.501C141.202 314.381 162.054 321.303 162.054 321.303L224.595 317.595L245.409 321.303L247.733 321.488C247.942 321.227 248.094 320.926 248.179 320.603C248.264 320.28 248.281 319.942 248.227 319.613C248.173 319.283 248.051 318.968 247.868 318.689C247.685 318.409 247.445 318.171 247.165 317.99C247.165 317.99 248.289 315.271 247.82 314.665C246.398 312.848 239.922 309.87 239.922 309.87C239.922 309.87 247.399 311.736 244.322 307.719C242.221 304.987 234.236 304.419 230.553 302.009C227.524 300.019 230.17 288.981 223.594 290.959C224.714 293.951 225.137 297.16 224.83 300.34C224.731 301.143 224.558 305.099 224.558 305.099C221.221 308.918 185.439 303.974 182.361 303.863C179.283 303.751 164.291 301.489 164.291 301.489L144.045 290.959Z" fill="white" stroke="#263238" stroke-width="1.236" stroke-linecap="round" stroke-linejoin="round"/>
<path d="M234.395 305.434C234.029 306.207 233.835 307.05 233.827 307.906C233.988 308.721 236.188 310.266 236.188 310.266C236.315 311.048 236.315 311.845 236.188 312.627C235.94 313.196 238.548 315.223 238.548 315.952C238.774 316.804 239.16 317.605 239.686 318.313" stroke="#263238" stroke-width="1.236" stroke-linecap="round" stroke-linejoin="round"/>
<path d="M247.2 318.027C246.224 318.769 242.058 314.653 239.722 314.455" stroke="#263238" stroke-width="1.236" stroke-linecap="round" stroke-linejoin="round"/>
<path d="M241.712 318.597C243.424 319.671 245.253 320.546 247.163 321.205" stroke="#263238" stroke-width="1.236" stroke-linecap="round" stroke-linejoin="round"/>
<path d="M145.849 290.762L144.254 288.043C144.254 288.043 140.052 289.835 138.915 288.043C137.778 286.251 125.059 280.392 122.612 280.553" stroke="white" stroke-width="1.236" stroke-linecap="round" stroke-linejoin="round"/>
<path d="M140.657 314.444C140.657 314.444 137.567 317.62 136.751 316.273C135.936 314.926 124.886 314.345 120.276 310.525" stroke="white" stroke-width="1.236" stroke-linecap="round" stroke-linejoin="round"/>
<path d="M143.6 327.321C143.6 327.816 135.442 353.401 132.191 356.985" stroke="white" stroke-width="1.236" stroke-linecap="round" stroke-linejoin="round"/>
<path d="M160.224 329.932C161.2 330.587 180.16 346.395 188.12 346.556" stroke="#263238" stroke-width="1.236" stroke-linecap="round" stroke-linejoin="round"/>
<path d="M174.276 285.657C174.276 286.584 168.665 294.247 166.008 296.361" stroke="#263238" stroke-width="1.236" stroke-linecap="round" stroke-linejoin="round"/>
<path d="M248.758 369.51C245.458 369.51 250.513 374.849 250.513 374.849C250.625 378.742 251.385 382.59 252.763 386.233L242.528 402.054L251.329 409.049L260.265 390.905C260.265 390.905 268.064 388.112 266.185 383.489C265.024 380.572 261.241 380.251 261.241 380.251C257.522 376.187 253.331 372.581 248.758 369.51Z" fill="white" stroke="#263238" stroke-width="1.236" stroke-linecap="round" stroke-linejoin="round"/>
<path d="M257.445 399.604C257.445 399.604 252.069 391.323 246.321 391.866L244.158 396.81C244.158 396.81 240.611 396.996 238.473 402.039C236.334 407.082 224.481 421.098 224.481 421.098L241.649 438.909C241.649 438.909 255.987 408.775 255.245 403.88L257.445 399.604Z" fill="#BFBFBF"/>
<mask id="mask2_179_9731" style="mask-type:luminance" maskUnits="userSpaceOnUse" x="224" y="391" width="34" height="48">
<path d="M257.446 399.607C257.446 399.607 252.07 391.326 246.322 391.869L244.159 396.813C244.159 396.813 240.612 396.999 238.474 402.042C236.335 407.085 224.482 421.101 224.482 421.101L241.65 438.912C241.65 438.912 255.988 408.778 255.246 403.883L257.446 399.607Z" fill="white"/>
</mask>
<g mask="url(#mask2_179_9731)">
<path opacity="0.2" d="M257.446 399.607C257.446 399.607 252.07 391.326 246.322 391.869L244.159 396.813C244.159 396.813 240.612 396.999 238.474 402.042C236.335 407.085 224.482 421.101 224.482 421.101L241.65 438.912C241.65 438.912 255.988 408.778 255.246 403.883L257.446 399.607Z" fill="black"/>
</g>
<path d="M257.445 399.604C257.445 399.604 252.069 391.323 246.321 391.866L244.158 396.81C244.158 396.81 240.611 396.996 238.473 402.039C236.334 407.082 224.481 421.098 224.481 421.098L241.649 438.909C241.649 438.909 255.987 408.775 255.245 403.88L257.445 399.604Z" stroke="#263238" stroke-width="1.236" stroke-linecap="round" stroke-linejoin="round"/>
<path d="M215.323 357.198C215.323 357.198 237.04 360.399 233.171 385.478C229.302 410.556 231.725 414.079 231.503 424.412C231.28 434.745 224.482 438.923 224.482 438.923L219.18 421.013C219.18 421.013 221.825 424.412 220.947 411.211C220.07 398.011 219.847 381.078 219.847 381.078" fill="#DC7B2C"/>
<mask id="mask3_179_9731" style="mask-type:luminance" maskUnits="userSpaceOnUse" x="215" y="357" width="19" height="82">
<path d="M215.323 357.197C215.323 357.197 237.04 360.399 233.171 385.477C229.302 410.555 231.725 414.078 231.503 424.411C231.28 434.744 224.482 438.922 224.482 438.922L219.18 421.012C219.18 421.012 221.825 424.411 220.947 411.21C220.07 398.01 219.847 381.077 219.847 381.077" fill="white"/>
</mask>
<g mask="url(#mask3_179_9731)">
<path opacity="0.2" d="M215.323 357.197C215.323 357.197 237.04 360.399 233.171 385.477C229.302 410.555 231.725 414.078 231.503 424.411C231.28 434.744 224.482 438.922 224.482 438.922L219.18 421.012C219.18 421.012 221.825 424.411 220.947 411.21C220.07 398.01 219.847 381.077 219.847 381.077" fill="black"/>
</g>
<path d="M215.323 357.198C215.323 357.198 237.04 360.399 233.171 385.478C229.302 410.556 231.725 414.079 231.503 424.412C231.28 434.745 224.482 438.923 224.482 438.923L219.18 421.013C219.18 421.013 221.825 424.412 220.947 411.211C220.07 398.011 219.847 381.078 219.847 381.078" stroke="#263238" stroke-width="1.236" stroke-linecap="round" stroke-linejoin="round"/>
<path d="M228.659 395.747C228.659 395.747 226.187 409.343 227.992 418.761" stroke="#263238" stroke-width="1.236" stroke-linecap="round" stroke-linejoin="round"/>
<path d="M276.555 413.818C278.402 410.849 279.696 407.57 280.374 404.14C279.002 402.348 279.78 394.017 279.731 393.177C279.682 392.336 284.168 388.134 285.911 382.263C287.05 383.312 287.74 384.759 287.839 386.304C287.728 388.776 286.529 390.643 286.974 391.063C289.335 393.288 295.527 390.668 297.406 390C301.559 388.542 303.586 390.705 301.485 393.016C300.743 393.832 299.149 393.238 299.285 395.241C299.421 397.243 299.742 395.513 298.679 398.739C297.616 401.965 297.999 402.99 295.577 404.61L289.31 408.812L284.28 419.503L276.555 413.818Z" fill="white" stroke="#263238" stroke-width="1.236" stroke-linecap="round" stroke-linejoin="round"/>
<path d="M225.482 493.85C225.482 493.85 216.83 481.057 195.286 480.34C173.743 479.624 174.806 492.49 174.806 492.49C174.806 492.49 163.608 508.917 164.918 521.759C166.228 534.601 183.062 546.046 183.062 546.046C183.062 546.046 148.677 554.093 144.746 552.424C140.816 550.755 132.831 567.837 135.909 571.668C138.987 575.5 236.21 568.949 236.21 568.949C236.21 568.949 245.888 557.566 246.321 549.606C246.753 541.646 224.901 511.117 225.494 509.658C226.087 508.2 225.482 493.85 225.482 493.85Z" fill="#263238"/>
<path d="M189.046 508.359C189.046 508.359 186.166 532.189 198.415 536.33L238.77 552.559C238.77 552.559 182.619 557.416 174.066 555.686C165.513 553.955 153.511 571.309 153.511 571.309H255.976C273.44 571.309 283.415 557.478 279.892 546.342C276.37 535.205 228.561 502.402 228.561 502.402C228.561 502.402 231.033 490.375 204.818 481.526C181.161 473.541 189.046 508.359 189.046 508.359Z" fill="#263238"/>
<path d="M180.764 475.508C180.764 475.508 174.584 485.087 176.784 487.263C176.784 487.263 201.628 478.401 227.065 498.77C227.534 499.141 227.992 499.524 228.461 499.919L230.303 493.393L225.816 489.685C225.816 489.685 226.632 486.447 227.275 482.368C227.917 478.289 228.449 473.024 227.707 469.613C227.633 469.254 228.622 467.771 229.784 465.114C231.229 461.778 232.21 458.259 232.701 454.657C233.581 447.751 233.132 440.741 231.378 434.003C230.426 430.078 229.186 426.228 227.67 422.484C224.061 413.436 205.805 409.185 184.559 414.709C182.002 415.36 179.754 416.887 178.205 419.023C167.489 433.435 180.764 475.508 180.764 475.508Z" fill="#BFBFBF"/>
<mask id="mask4_179_9731" style="mask-type:luminance" maskUnits="userSpaceOnUse" x="174" y="412" width="60" height="88">
<path d="M180.764 475.508C180.764 475.508 174.584 485.087 176.784 487.263C176.784 487.263 201.628 478.401 227.065 498.77C227.534 499.141 227.992 499.524 228.461 499.919L230.303 493.393L225.816 489.685C225.816 489.685 226.632 486.447 227.275 482.368C227.917 478.289 228.449 473.024 227.707 469.613C227.633 469.254 228.622 467.771 229.784 465.114C231.229 461.778 232.21 458.259 232.701 454.657C233.581 447.751 233.132 440.741 231.378 434.003C230.426 430.078 229.186 426.228 227.67 422.484C224.061 413.436 205.805 409.185 184.559 414.709C182.002 415.36 179.754 416.887 178.205 419.023C167.489 433.435 180.764 475.508 180.764 475.508Z" fill="white"/>
</mask>
<g mask="url(#mask4_179_9731)">
<path opacity="0.2" d="M232.712 454.68C233.592 447.774 233.144 440.764 231.39 434.027L226.891 432.593C226.891 432.593 223.962 440.998 232.712 454.68Z" fill="black"/>
<path opacity="0.2" d="M227.274 482.391C227.954 478.164 228.448 473.047 227.707 469.636C227.633 469.277 228.621 467.794 229.783 465.137C229.783 465.137 219.413 473.27 215.322 472.553C212.85 472.108 220.674 477.806 227.274 482.391Z" fill="black"/>
<path opacity="0.2" d="M180.762 475.506C180.762 475.506 174.582 485.085 176.782 487.261C176.782 487.261 201.626 478.399 227.062 498.768C222.193 492.588 214.702 485.444 205.507 483.318C188.499 479.4 181.862 479.956 181.862 479.956L187.375 472.812C187.375 472.812 205.915 472.812 215.321 458.734C210.445 460.343 205.361 461.234 200.229 461.379C193.307 461.527 185.137 455.73 182.653 453.827C184.767 455.211 191.305 457.733 202.182 446.88C215.629 433.433 216.297 408.379 187.375 415.387C184.164 416.191 181.081 417.439 178.216 419.095C167.487 433.433 180.762 475.506 180.762 475.506Z" fill="black"/>
</g>
<path d="M180.764 475.508C180.764 475.508 174.584 485.087 176.784 487.263C176.784 487.263 201.628 478.401 227.065 498.77C227.534 499.141 227.992 499.524 228.461 499.919L230.303 493.393L225.816 489.685C225.816 489.685 226.632 486.447 227.275 482.368C227.917 478.289 228.449 473.024 227.707 469.613C227.633 469.254 228.622 467.771 229.784 465.114C231.229 461.778 232.21 458.259 232.701 454.657C233.581 447.751 233.132 440.741 231.378 434.003C230.426 430.078 229.186 426.228 227.67 422.484C224.061 413.436 205.805 409.185 184.559 414.709C182.002 415.36 179.754 416.887 178.205 419.023C167.489 433.435 180.764 475.508 180.764 475.508Z" stroke="#263238" stroke-width="1.236" stroke-linecap="round" stroke-linejoin="round"/>
<path d="M179.442 518.111C179.22 526.689 191.666 535.489 198.749 534.822C198.749 534.822 210.577 543.474 224.26 546.725" stroke="white" stroke-width="1.236" stroke-linecap="round" stroke-linejoin="round"/>
<path d="M253.491 548.246C253.491 548.246 237.04 546.491 230.971 549.42C224.903 552.35 194.707 556.725 189.714 555.86" stroke="white" stroke-width="1.236" stroke-linecap="round" stroke-linejoin="round"/>
<path d="M200.849 499.919C200.849 499.919 192.791 498.225 186.771 499.919C186.771 499.919 185.894 508.941 186.771 513.935L193.619 517.445C196.074 516.695 198.487 515.817 200.849 514.812C201.294 514.367 201.245 505.135 201.851 503.379" stroke="white" stroke-width="1.236" stroke-linecap="round" stroke-linejoin="round"/>
<path d="M166.538 516.282L168.281 517.444L172.557 513.637C172.409 509.534 175.932 500.734 175.932 500.734C174.328 500.517 172.697 500.77 171.235 501.463" stroke="white" stroke-width="1.236" stroke-linecap="round" stroke-linejoin="round"/>
<path d="M182.507 532.413C180.993 533.352 179.306 533.978 177.546 534.254C175.786 534.53 173.989 534.451 172.26 534.02" stroke="white" stroke-width="1.236" stroke-linecap="round" stroke-linejoin="round"/>
<path d="M184.287 546.725C184.287 546.725 190.974 551.323 201.851 548.826" stroke="white" stroke-width="1.236" stroke-linecap="round" stroke-linejoin="round"/>
<path d="M201.851 533.872C201.851 533.872 211.998 530.534 214.347 525.825" stroke="white" stroke-width="1.236" stroke-linecap="round" stroke-linejoin="round"/>
<path d="M220.946 531.522C220.205 532.116 214.346 533.871 208.104 533.871" stroke="white" stroke-width="1.236" stroke-linecap="round" stroke-linejoin="round"/>
<path d="M255.977 542.969C255.977 542.969 250.86 544.205 249.537 546.046" stroke="white" stroke-width="1.236" stroke-linecap="round" stroke-linejoin="round"/>
<path d="M192.493 558.356C192.493 558.356 197.437 561.582 197.338 565.834" stroke="white" stroke-width="1.236" stroke-linecap="round" stroke-linejoin="round"/>
<path d="M153.177 558.53C152.905 551.447 146.367 554.389 146.367 554.389C146.367 554.389 141.583 547.356 136.948 549C132.313 550.644 131.114 553.079 123.748 555.674C116.381 558.27 106.37 556.231 103.651 563.239C100.931 570.247 104.405 574.177 121.029 572.892C137.653 571.606 142.041 571.075 142.041 571.075C142.041 571.075 153.733 572.768 153.177 558.53Z" fill="#DC7B2C" stroke="#263238" stroke-width="1.236" stroke-linecap="round" stroke-linejoin="round"/>
<path d="M146.712 557.033C146.848 558.533 146.616 560.044 146.034 561.434C145.452 562.823 144.539 564.05 143.375 565.005" stroke="#263238" stroke-width="1.236" stroke-linecap="round" stroke-linejoin="round"/>
<path d="M139.939 548.999C143.474 550.408 143.919 558.529 135.736 563.708C127.554 568.886 125.923 564.462 120.756 568.8C115.59 573.138 107.482 573.744 102.809 570.382C98.1374 567.02 101.957 560.494 110.67 557.033C119.384 553.572 122.178 557.033 126.973 554.388C131.769 551.743 132.412 545.996 139.939 548.999Z" fill="#BFBFBF" stroke="#263238" stroke-width="1.236" stroke-linecap="round" stroke-linejoin="round"/>
<path d="M137.109 550.521C137.381 551.41 137.109 559.593 137.109 559.593" stroke="#263238" stroke-width="1.236" stroke-linecap="round" stroke-linejoin="round"/>
<path d="M132.994 550.952V563.238" stroke="#263238" stroke-width="1.236" stroke-linecap="round" stroke-linejoin="round"/>
<path d="M128.654 554.387V564.794" stroke="#263238" stroke-width="1.236" stroke-linecap="round" stroke-linejoin="round"/>
<path d="M123.883 557.033L124.439 565.005" stroke="#263238" stroke-width="1.236" stroke-linecap="round" stroke-linejoin="round"/>
<path d="M118.582 557.096V568.207" stroke="#263238" stroke-width="1.236" stroke-linecap="round" stroke-linejoin="round"/>
<path d="M113.391 558.221V570.383" stroke="#263238" stroke-width="1.236" stroke-linecap="round" stroke-linejoin="round"/>
<path d="M107.544 560.357L107 569.566" stroke="#263238" stroke-width="1.236" stroke-linecap="round" stroke-linejoin="round"/>
<path d="M169.184 552.129C173.775 553.027 178.159 554.77 182.112 557.271C182.112 557.271 184.72 553.427 187.168 557.172C189.615 560.917 187.835 574.068 182.112 571.435C182.112 571.435 173.942 574.13 157.454 572.486C140.966 570.842 156.638 561.77 156.638 561.77L169.184 552.129Z" fill="#DC7B2C" stroke="#263238" stroke-width="1.236" stroke-linecap="round" stroke-linejoin="round"/>
<path d="M167.675 552.214C174.09 550.904 177.699 561.843 174.671 567.046C171.643 572.25 169.084 572.287 157.664 572.287C146.243 572.287 134.847 572.695 135.552 561.744C136.256 550.793 151.867 553.574 155.587 554.958C159.307 556.343 164.251 552.919 167.675 552.214Z" fill="#BFBFBF" stroke="#263238" stroke-width="1.236" stroke-linecap="round" stroke-linejoin="round"/>
<path d="M169.715 554.636L169.072 569.357" stroke="#263238" stroke-width="1.236" stroke-linecap="round" stroke-linejoin="round"/>
<path d="M164.944 556.009L164.129 569.358" stroke="#263238" stroke-width="1.236" stroke-linecap="round" stroke-linejoin="round"/>
<path d="M160.854 556.689L160.038 570.038" stroke="#263238" stroke-width="1.236" stroke-linecap="round" stroke-linejoin="round"/>
<path d="M155.971 557.505L154.722 570.038" stroke="#263238" stroke-width="1.236" stroke-linecap="round" stroke-linejoin="round"/>
<path d="M151.051 556.009L149.901 570.037" stroke="#263238" stroke-width="1.236" stroke-linecap="round" stroke-linejoin="round"/>
<path d="M146.008 556.009L144.376 569.358" stroke="#263238" stroke-width="1.236" stroke-linecap="round" stroke-linejoin="round"/>
<path d="M141.101 556.689L139.741 567.171" stroke="#263238" stroke-width="1.236" stroke-linecap="round" stroke-linejoin="round"/>
<path d="M183.064 559.407C183.064 559.407 184.3 565.229 182.384 568.541" stroke="#263238" stroke-width="1.236" stroke-linecap="round" stroke-linejoin="round"/>
<path d="M216.819 411.161C218.055 411.396 226.571 411.68 230.156 412.879C239.265 415.895 262.428 435.449 262.428 435.449L278.347 407.342C278.347 407.342 285.281 406.106 288.705 412.286L286.888 417.514C287.471 419.775 287.909 422.07 288.198 424.387C288.619 430.023 276.444 459.365 270.524 461.096C261.254 463.803 235.755 444.521 235.755 444.521C235.755 444.521 225.063 437.389 223.976 430.74" fill="#BFBFBF"/>
<path d="M216.819 411.161C218.055 411.396 226.571 411.68 230.156 412.879C239.265 415.895 262.428 435.449 262.428 435.449L278.347 407.342C278.347 407.342 285.281 406.106 288.705 412.286L286.888 417.514C287.471 419.775 287.909 422.07 288.198 424.387C288.619 430.023 276.444 459.365 270.524 461.096C261.254 463.803 235.755 444.521 235.755 444.521C235.755 444.521 225.063 437.389 223.976 430.74" stroke="#263238" stroke-width="1.236" stroke-linecap="round" stroke-linejoin="round"/>
<path d="M227.152 365.638C221.034 353.76 209.848 357.901 209.848 357.901C188.07 353.76 187.402 379.123 185.425 392.509C183.447 405.895 176.241 408.96 174.202 420.183C173.881 422.884 173.93 425.616 174.35 428.303C174.623 427.112 175.328 426.064 176.328 425.362C175.907 439.872 184.498 447.066 185.042 447.486C178.96 439.131 179.702 433.717 179.702 433.717C182.05 442.221 191.147 450.589 191.147 450.589C191.147 450.589 198.909 448.833 202.556 437.524C205.782 427.463 210.071 423.928 210.33 423.767C207.379 429.542 205.202 435.68 203.853 442.023C208.118 435.754 211.962 429.21 215.361 422.432C230.502 393.547 228.66 381.521 228.66 381.521" fill="#DC7B2C"/>
<mask id="mask5_179_9731" style="mask-type:luminance" maskUnits="userSpaceOnUse" x="173" y="357" width="56" height="94">
<path d="M227.152 365.64C221.034 353.762 209.848 357.903 209.848 357.903C188.07 353.762 187.402 379.125 185.425 392.511C183.447 405.897 176.241 408.962 174.202 420.185C173.881 422.886 173.93 425.618 174.35 428.305C174.623 427.114 175.328 426.066 176.328 425.364C175.907 439.874 184.498 447.068 185.042 447.488C178.96 439.133 179.702 433.719 179.702 433.719C182.05 442.223 191.147 450.59 191.147 450.59C191.147 450.59 198.909 448.835 202.556 437.526C205.782 427.465 210.071 423.93 210.33 423.769C207.379 429.544 205.202 435.682 203.853 442.025C208.118 435.756 211.962 429.212 215.361 422.434C230.502 393.549 228.66 381.523 228.66 381.523" fill="white"/>
</mask>
<g mask="url(#mask5_179_9731)">
<path opacity="0.2" d="M227.152 365.64C221.034 353.762 209.848 357.903 209.848 357.903C188.07 353.762 187.402 379.125 185.425 392.511C183.447 405.897 176.241 408.962 174.202 420.185C173.881 422.886 173.93 425.618 174.35 428.305C174.623 427.114 175.328 426.066 176.328 425.364C175.907 439.874 184.498 447.068 185.042 447.488C178.96 439.133 179.702 433.719 179.702 433.719C182.05 442.223 191.147 450.59 191.147 450.59C191.147 450.59 198.909 448.835 202.556 437.526C205.782 427.465 210.071 423.93 210.33 423.769C207.379 429.544 205.202 435.682 203.853 442.025C208.118 435.756 211.962 429.212 215.361 422.434C230.502 393.549 228.66 381.523 228.66 381.523" fill="black"/>
</g>
<path d="M227.152 365.638C221.034 353.76 209.848 357.901 209.848 357.901C188.07 353.76 187.402 379.123 185.425 392.509C183.447 405.895 176.241 408.96 174.202 420.183C173.881 422.884 173.93 425.616 174.35 428.303C174.623 427.112 175.328 426.064 176.328 425.362C175.907 439.872 184.498 447.066 185.042 447.486C178.96 439.131 179.702 433.717 179.702 433.717C182.05 442.221 191.147 450.589 191.147 450.589C191.147 450.589 198.909 448.833 202.556 437.524C205.782 427.463 210.071 423.928 210.33 423.767C207.379 429.542 205.202 435.68 203.853 442.023C208.118 435.754 211.962 429.21 215.361 422.432C230.502 393.547 228.66 381.521 228.66 381.521" stroke="#263238" stroke-width="1.236" stroke-linecap="round" stroke-linejoin="round"/>
<path d="M208.265 360.262C208.265 360.262 197.141 353.068 193.012 374.55C188.884 396.032 185.535 398.232 183.483 408.787C181.431 419.343 183.619 427.859 186.709 431.035" stroke="#263238" stroke-width="1.236" stroke-linecap="round" stroke-linejoin="round"/>
<path d="M206.795 363.773C202.976 370.967 200.046 380.645 198.872 398.53C197.698 416.415 198.093 434.881 190.962 440.319" stroke="#263238" stroke-width="1.236" stroke-linecap="round" stroke-linejoin="round"/>
<path d="M218.772 361.723C218.772 361.723 228.45 366.568 221.404 381.078C214.359 395.589 206.745 407.183 206.745 415.538C206.745 423.893 204.471 428.281 200.145 429.764" stroke="#263238" stroke-width="1.236" stroke-linecap="round" stroke-linejoin="round"/>
<path d="M250.512 374.848C250.512 374.848 253.281 379.248 253.441 380.546" stroke="#263238" stroke-width="1.236" stroke-linecap="round" stroke-linejoin="round"/>
<path d="M262.427 435.45C262.427 435.45 269.769 438.417 268.867 444.733" stroke="#263238" stroke-width="1.236" stroke-linecap="round" stroke-linejoin="round"/>
<path d="M270.683 434.337C270.683 434.337 267.963 431.556 265.739 432.606" stroke="#263238" stroke-width="1.236" stroke-linecap="round" stroke-linejoin="round"/>
<path d="M283.6 413.944C283.6 413.944 279.039 410.533 276.554 410.867" stroke="#263238" stroke-width="1.236" stroke-linecap="round" stroke-linejoin="round"/>
<path d="M244.159 396.825C247.051 397.524 249.734 398.905 251.982 400.855" stroke="#263238" stroke-width="1.236" stroke-linecap="round" stroke-linejoin="round"/>
<path d="M221.998 437.351C222.233 437.351 227.894 441.714 231.787 441.491" stroke="#263238" stroke-width="1.236" stroke-linecap="round" stroke-linejoin="round"/>
<path d="M217.054 456.089C217.054 457.646 202.222 475.173 185.931 472.54" stroke="#263238" stroke-width="1.236" stroke-linecap="round" stroke-linejoin="round"/>
<path d="M428.299 294.668C428.299 294.668 415.444 301.552 412.602 307.658C409.759 313.764 399.413 345.257 399.413 345.257C399.413 345.257 391.565 358.174 389.736 360.794C387.906 363.414 388.697 374.39 397.757 374.316C406.817 374.242 417.286 365.602 417.681 361.696C418.077 357.791 422.737 355.516 423.095 352.142C423.454 348.768 434.343 326.495 434.343 326.495L428.299 294.668Z" fill="#263238"/>
<path d="M413.799 555.145C413.799 555.145 415.739 567.06 413.799 572.622H374.395C374.395 572.622 372.726 568.445 374.395 565.824C376.064 563.204 388.547 561.696 392.428 558.137C395.406 555.177 398.1 551.946 400.475 548.483L413.799 555.145Z" fill="white" stroke="#263238" stroke-width="1.236" stroke-linecap="round" stroke-linejoin="round"/>
<path d="M373.655 570.518H414.307L414.665 572.619H373.655V570.518Z" fill="white" stroke="#263238" stroke-width="1.236" stroke-linecap="round" stroke-linejoin="round"/>
<path d="M404.319 553.697C404.319 553.697 400.611 554.587 400.203 554.736C399.796 554.884 396.174 560.421 392.565 561.385C388.956 562.349 385.359 562.176 385.915 563.931" stroke="#263238" stroke-width="1.236" stroke-linecap="round" stroke-linejoin="round"/>
<path d="M396.112 553.697L400.339 556.812" stroke="#263238" stroke-width="1.236" stroke-linecap="round" stroke-linejoin="round"/>
<path d="M394.159 556.431L398.226 559.409" stroke="#263238" stroke-width="1.236" stroke-linecap="round" stroke-linejoin="round"/>
<path d="M391.563 558.814L395.086 562.226" stroke="#263238" stroke-width="1.236" stroke-linecap="round" stroke-linejoin="round"/>
<path d="M387.991 560.546L389.523 563.933" stroke="#263238" stroke-width="1.236" stroke-linecap="round" stroke-linejoin="round"/>
<path d="M480.567 572.621C480.567 572.621 482.087 566.824 480.307 564.673C477.119 560.817 480.703 557.578 477.502 556.244L476.154 557.801C475.895 556.219 476.649 551.411 470.704 550.793C463.535 550.039 463.399 555.255 463.016 556.973L463.127 554.575C460.074 554.575 461.656 557.628 457.021 562.621C455.804 563.967 454.879 565.551 454.302 567.271C453.726 568.992 453.511 570.813 453.672 572.621H480.567Z" fill="white" stroke="#263238" stroke-width="1.236" stroke-linecap="round" stroke-linejoin="round"/>
<path d="M506.561 352.105C509.861 353.997 518.414 372.228 513.421 408.381C508.428 444.534 493.509 515.047 491 525.801C488.491 536.554 479.728 562.572 479.728 562.572C479.728 562.572 476.378 551.299 460.273 557.331C460.135 557.379 459.988 557.391 459.844 557.363C459.701 557.336 459.567 557.272 459.457 557.176C459.347 557.081 459.263 556.958 459.216 556.821C459.168 556.683 459.158 556.535 459.185 556.392L462.72 537.988C462.72 537.988 462.968 524.527 464.129 521.153C468.492 508.447 470.668 459.353 472.114 452.493C473.56 445.634 470.717 425.932 470.717 425.932C470.717 425.932 450.558 474.136 449.903 478.907C449.248 483.678 436.962 503.355 436.962 503.355L434.836 521.462C434.836 521.462 418.484 549.495 415.604 557.862L396.112 553.648L396.656 539.792L401.909 537.988L411.08 506.482C413.98 495.563 417.543 484.831 421.747 474.346C426.085 463.383 438.383 420.951 438.383 420.951C442.203 416.798 445.799 393.833 445.799 393.833L451.708 364.873L506.561 352.105Z" fill="#DC7B2C"/>
<mask id="mask6_179_9731" style="mask-type:luminance" maskUnits="userSpaceOnUse" x="396" y="352" width="119" height="211">
<path d="M506.56 352.107C509.86 353.999 518.414 372.23 513.42 408.383C508.427 444.536 493.508 515.049 490.999 525.803C488.49 536.556 479.727 562.574 479.727 562.574C479.727 562.574 476.377 551.301 460.272 557.333C460.134 557.381 459.987 557.392 459.843 557.365C459.7 557.338 459.566 557.274 459.456 557.178C459.346 557.083 459.262 556.96 459.215 556.822C459.167 556.685 459.157 556.537 459.184 556.394L462.719 537.989C462.719 537.989 462.967 524.529 464.128 521.155C468.491 508.449 470.667 459.355 472.113 452.495C473.559 445.636 470.716 425.934 470.716 425.934C470.716 425.934 450.557 474.138 449.902 478.909C449.247 483.68 436.961 503.357 436.961 503.357L434.835 521.464C434.835 521.464 418.483 549.497 415.603 557.864L396.111 553.65L396.655 539.794L401.908 537.989L411.079 506.484C413.979 495.565 417.542 484.833 421.746 474.348C426.084 463.384 438.382 420.953 438.382 420.953C442.202 416.8 445.799 393.835 445.799 393.835L451.707 364.875L506.56 352.107Z" fill="white"/>
</mask>
<g mask="url(#mask6_179_9731)">
<path opacity="0.2" d="M448.876 378.805C458.764 384.083 480.345 394.23 490.134 387.902C498.353 382.587 507.648 374.046 513.321 368.534C511.418 358.51 508.278 353.109 506.56 352.107L451.707 364.912L448.876 378.805Z" fill="black"/>
<path opacity="0.2" d="M396.111 553.699L415.602 557.939C418.482 549.571 434.835 521.538 434.835 521.538L436.96 503.431C436.96 503.431 449.246 483.692 449.901 478.958C450.556 474.224 470.716 425.983 470.716 425.983C470.716 425.983 471.198 429.358 471.68 433.819C471.531 431.508 470.444 415.972 471.074 411.188L470.58 408.296C470.58 408.296 457.305 398.705 455.525 402.363C453.745 406.022 462.484 409.779 462.484 409.779C462.484 409.779 454.413 412.251 450.495 412.375C446.577 412.499 451.385 422.102 453.226 423.19C455.068 424.278 462.187 423.19 462.187 423.19C462.187 423.19 446.91 460.925 432.733 474.051C428.733 477.748 423.969 480.52 418.779 482.172C413.575 496.423 411.079 506.533 411.079 506.533L401.907 538.039L396.654 539.844L396.111 553.699Z" fill="black"/>
</g>
<path d="M506.561 352.105C509.861 353.997 518.414 372.228 513.421 408.381C508.428 444.534 493.509 515.047 491 525.801C488.491 536.554 479.728 562.572 479.728 562.572C479.728 562.572 476.378 551.299 460.273 557.331C460.135 557.379 459.988 557.391 459.844 557.363C459.701 557.336 459.567 557.272 459.457 557.176C459.347 557.081 459.263 556.958 459.216 556.821C459.168 556.683 459.158 556.535 459.185 556.392L462.72 537.987C462.72 537.987 462.968 524.527 464.129 521.153C468.492 508.447 470.668 459.353 472.114 452.493C473.56 445.634 470.717 425.932 470.717 425.932C470.717 425.932 450.558 474.136 449.903 478.907C449.248 483.678 436.962 503.355 436.962 503.355L434.836 521.462C434.836 521.462 418.484 549.495 415.604 557.862L396.112 553.648L396.656 539.792L401.909 537.987L411.08 506.482C413.98 495.563 417.543 484.831 421.747 474.346C426.085 463.383 438.383 420.951 438.383 420.951C442.203 416.798 445.799 393.833 445.799 393.833L451.708 364.873L506.561 352.105Z" stroke="#263238" stroke-width="1.236" stroke-linecap="round" stroke-linejoin="round"/>
<path d="M426.419 326.953C433.156 340.302 443.723 356.988 443.723 356.988L448.383 375.59C448.383 375.59 465.885 386.392 485.958 381.869C509.442 376.554 513.298 364.565 513.298 364.565L506.97 343.614C503.917 329.623 497.279 302.913 483.486 295.41C469.692 287.908 446.047 287.216 436.518 290.269C428.026 293 423.329 295.064 421.006 297.586C421.006 297.586 417.57 309.377 418.324 313.295C419.078 317.213 426.419 326.953 426.419 326.953Z" fill="#263238"/>
<path d="M453.648 570.518H481.174L480.568 572.619H453.673L453.648 570.518Z" fill="white" stroke="#263238" stroke-width="1.236" stroke-linecap="round" stroke-linejoin="round"/>
<path d="M462.485 562.375C462.485 562.375 471.508 559.396 475.871 563.129" stroke="#263238" stroke-width="1.236" stroke-linecap="round" stroke-linejoin="round"/>
<path d="M462.485 560.408C462.485 560.408 470.42 557.936 475.871 561.248" stroke="#263238" stroke-width="1.236" stroke-linecap="round" stroke-linejoin="round"/>
<path d="M462.943 558.456C462.943 558.456 470.359 555.638 475.871 559.495" stroke="#263238" stroke-width="1.236" stroke-linecap="round" stroke-linejoin="round"/>
<g opacity="0.96">
<path d="M464.13 405.811C465.205 406.058 485.982 413.634 490.086 421.211" stroke="#263238" stroke-width="1.236" stroke-linecap="round" stroke-linejoin="round"/>
<path d="M469.173 416.811C468.135 418.281 459.285 445.906 455.577 453.483C451.869 461.059 439.076 495.049 436.147 497.002C436.147 497.002 432.229 516.778 429.794 519.979C427.359 523.181 414.702 548.482 414.702 548.482" stroke="#263238" stroke-width="1.236" stroke-linecap="round" stroke-linejoin="round"/>
<path d="M400.476 548.483L415.814 551.771" stroke="#263238" stroke-width="1.236" stroke-linecap="round" stroke-linejoin="round"/>
<path d="M462.942 550.126C462.942 550.126 475.228 549.026 479.381 553.698" stroke="#263238" stroke-width="1.236" stroke-linecap="round" stroke-linejoin="round"/>
<path d="M477.094 419.987C478.12 425.858 493.52 458.377 497.191 454.707" stroke="#263238" stroke-width="1.236" stroke-linecap="round" stroke-linejoin="round"/>
<path d="M471.163 422.932C471.163 422.932 469.359 414.861 471.077 411.19C471.719 409.793 457.864 414.614 453.229 413.513" stroke="#263238" stroke-width="1.236" stroke-linecap="round" stroke-linejoin="round"/>
<path d="M469.172 382.971C469.172 382.971 471.644 389.917 472.188 392.117C472.731 394.317 467.775 402.883 469.172 404.588" stroke="#263238" stroke-width="1.236" stroke-linecap="round" stroke-linejoin="round"/>
<path d="M502.854 376.47C502.854 376.47 506.277 381.71 506.277 385.579C506.277 389.448 510.925 391.141 510.925 391.141" stroke="#263238" stroke-width="1.236" stroke-linecap="round" stroke-linejoin="round"/>
<path d="M510.145 370.746C512.716 382.269 512.981 394.186 510.924 405.811C507.5 425.13 501.876 464.484 499.676 474.508C497.476 484.532 492.335 507.027 492.335 510.204C492.335 513.381 487.18 531.476 487.18 531.476" stroke="#263238" stroke-width="1.236" stroke-linecap="round" stroke-linejoin="round"/>
<path d="M488.429 504.1C487.699 504.1 474.005 517.3 470.581 517.547" stroke="#263238" stroke-width="1.236" stroke-linecap="round" stroke-linejoin="round"/>
<path d="M428.532 496.026C427.791 496.274 416.308 501.897 415.814 500.179" stroke="#263238" stroke-width="1.236" stroke-linecap="round" stroke-linejoin="round"/>
</g>
<path d="M442.673 287.945C442.673 287.945 456.64 289.341 457.134 297.103C457.628 304.865 451.102 313.653 440.176 314.148C429.25 314.642 427.915 303.926 427.532 298.08C427.149 292.233 435.071 287.487 442.673 287.945Z" fill="#BFBFBF" stroke="#263238" stroke-width="1.236" stroke-linecap="round" stroke-linejoin="round"/>
<path d="M447.135 292.667C449.389 286.352 449.742 279.515 448.149 273.002C446.208 264.857 436.505 253.659 421.797 263.843C414.208 269.096 413.751 280.48 416.111 290.912C416.668 293.384 416.247 295.856 417.076 298.118C419.98 306.152 425.307 312.332 428.2 312.468C433.057 312.702 442.76 306.831 442.364 301.714" fill="#BFBFBF"/>
<path d="M447.135 292.667C449.389 286.352 449.742 279.515 448.149 273.002C446.208 264.857 436.505 253.659 421.797 263.843C414.208 269.096 413.751 280.48 416.111 290.912C416.668 293.384 416.247 295.856 417.076 298.118C419.98 306.152 425.307 312.332 428.2 312.468C433.057 312.702 442.76 306.831 442.364 301.714" stroke="#263238" stroke-width="1.236" stroke-linecap="round" stroke-linejoin="round"/>
<path d="M427.532 287.476C428.813 287.107 430.156 287.004 431.478 287.175C432.8 287.345 434.074 287.784 435.22 288.464" stroke="#263238" stroke-width="1.236" stroke-linecap="round" stroke-linejoin="round"/>
<path d="M420.128 287.251C420.128 287.251 417.162 285.768 415.184 286.151" stroke="#263238" stroke-width="1.236" stroke-linecap="round" stroke-linejoin="round"/>
<path d="M432.253 294.645C431.802 294.645 431.437 294.058 431.437 293.335C431.437 292.611 431.802 292.024 432.253 292.024C432.703 292.024 433.068 292.611 433.068 293.335C433.068 294.058 432.703 294.645 432.253 294.645Z" fill="#263238"/>
<path d="M420.128 293.916C419.677 293.916 419.312 293.33 419.312 292.606C419.312 291.882 419.677 291.296 420.128 291.296C420.578 291.296 420.943 291.882 420.943 292.606C420.943 293.33 420.578 293.916 420.128 293.916Z" fill="#263238"/>
<path d="M436.962 277.5L437.357 283.507C437.357 283.507 441.609 285.695 442.672 287.944C443.314 289.408 443.549 291.018 443.352 292.604C443.352 292.604 445.935 288.093 447.32 288.464C447.826 288.587 447.826 290.478 447.826 290.478C447.826 290.478 453.611 277.5 448.383 270.64C443.154 263.781 436.962 277.5 436.962 277.5Z" fill="#263238"/>
<path d="M445.17 291.295C445.17 291.295 446.332 286.944 450.25 285.782C454.168 284.621 451.486 295.065 448.149 296.449C444.812 297.833 443.971 298.773 443.773 297.537" fill="#BFBFBF"/>
<path d="M445.17 291.295C445.17 291.295 446.332 286.944 450.25 285.782C454.168 284.621 451.486 295.065 448.149 296.449C444.812 297.833 443.971 298.773 443.773 297.537" stroke="#263238" stroke-width="1.236" stroke-linecap="round" stroke-linejoin="round"/>
<path d="M422.983 293.334C423.161 294.792 422.843 296.268 422.081 297.524C421.82 297.897 421.684 298.343 421.693 298.798C421.701 299.253 421.854 299.693 422.129 300.056C422.403 300.418 422.786 300.684 423.222 300.816C423.657 300.947 424.123 300.937 424.553 300.787" stroke="#263238" stroke-width="1.236" stroke-linecap="round" stroke-linejoin="round"/>
<path d="M424.528 304.444C426.771 305.044 429.132 305.044 431.375 304.444" stroke="#263238" stroke-width="1.236" stroke-linecap="round" stroke-linejoin="round"/>
<path d="M436.962 277.501C436.962 277.501 426.976 279.911 420.894 279.108C414.813 278.304 411.006 275.511 411.933 269.121C412.86 262.731 420.079 259.777 431.932 257.749C443.587 255.76 455.799 264.486 450.249 275.14C444.7 285.794 436.962 277.501 436.962 277.501Z" fill="#263238"/>
<path d="M423.724 372.413C423.388 373.077 423.211 373.808 423.204 374.552C423.081 376.084 428.581 377.913 429.558 377.308C430.534 376.702 432.845 373.6 430.163 371.808C427.481 370.015 423.724 372.413 423.724 372.413Z" fill="#BFBFBF" stroke="#263238" stroke-width="1.236" stroke-linecap="round" stroke-linejoin="round"/>
<path d="M409.264 370.744C409.023 372.449 408.549 374.113 407.855 375.688C407.002 377.097 401.675 375.688 400.216 376.442C398.758 377.196 398.634 374.613 400.216 373.315C401.798 372.018 403.825 369.138 409.264 370.744Z" fill="#BFBFBF" stroke="#263238" stroke-width="1.236" stroke-linecap="round" stroke-linejoin="round"/>
<path d="M412.6 369.978H418.879V469.167H412.6V369.978Z" fill="#BFBFBF" stroke="#263238" stroke-width="1.236" stroke-linecap="round" stroke-linejoin="round"/>
<path d="M420.943 441.753H410.536C409.933 441.753 409.354 441.993 408.928 442.419C408.501 442.846 408.262 443.424 408.262 444.027V572.571H423.205V444.027C423.205 443.426 422.967 442.85 422.543 442.423C422.12 441.997 421.544 441.756 420.943 441.753Z" fill="#757575" stroke="#263238" stroke-width="1.236" stroke-linecap="round" stroke-linejoin="round"/>
<path d="M397.559 363.144H433.922C434.676 363.144 435.399 363.443 435.932 363.976C436.465 364.509 436.765 365.232 436.765 365.986V367.902C436.765 368.656 436.465 369.379 435.932 369.912C435.399 370.445 434.676 370.745 433.922 370.745H420.499V376.468H410.969V370.745H397.559C397.185 370.745 396.816 370.671 396.471 370.529C396.126 370.386 395.813 370.176 395.549 369.912C395.285 369.648 395.075 369.335 394.932 368.99C394.789 368.645 394.716 368.275 394.716 367.902V365.986C394.716 365.613 394.789 365.243 394.932 364.898C395.075 364.554 395.285 364.24 395.549 363.976C395.813 363.712 396.126 363.503 396.471 363.36C396.816 363.217 397.185 363.144 397.559 363.144Z" fill="#DC7B2C" stroke="#263238" stroke-width="1.236" stroke-linecap="round" stroke-linejoin="round"/>
<path d="M449.124 360.029C449.124 360.029 429.855 357.421 427.951 357.099C426.048 356.778 420.128 366.876 420.128 366.876L424.528 373.649C424.528 373.649 441.337 375.998 442.338 375.021C442.988 374.266 443.461 373.375 443.723 372.413C443.723 372.413 452.375 375.676 453.178 369.805C453.982 363.934 454.6 363.069 449.124 360.029Z" fill="#BFBFBF" stroke="#263238" stroke-width="1.236" stroke-linecap="round" stroke-linejoin="round"/>
<path d="M409.918 363.142C409.918 363.142 406.976 357.914 404.047 357.914C401.118 357.914 389.87 359.867 388.56 361.498C387.25 363.13 384.16 365.738 384.654 367.851C385.149 369.965 388.239 374.39 391.168 373.648C394.097 372.907 401.6 373.735 401.6 373.735C401.6 373.735 405.678 372.981 406 370.744L402.576 369.804C402.576 369.804 402.094 365.083 402.749 364.428C403.404 363.773 409.918 363.142 409.918 363.142Z" fill="#BFBFBF" stroke="#263238" stroke-width="1.236" stroke-linecap="round" stroke-linejoin="round"/>
<path d="M399.412 373.539C399.412 373.539 395.84 369.646 396.112 368.175C396.384 366.704 396.915 362.143 397.793 361.661" stroke="#263238" stroke-width="1.236" stroke-linecap="round" stroke-linejoin="round"/>
<path d="M394.468 373.34C394.468 373.34 391.823 372.252 391.823 369.805C391.893 367.838 392.116 365.879 392.49 363.946" stroke="#263238" stroke-width="1.236" stroke-linecap="round" stroke-linejoin="round"/>
<path d="M389.733 373.624C388.827 372.642 388.231 371.414 388.022 370.094C387.813 368.774 388 367.422 388.559 366.208" stroke="#263238" stroke-width="1.236" stroke-linecap="round" stroke-linejoin="round"/>
<path d="M427.655 373.774C427.655 373.774 424.59 369.658 425.084 367.594C425.763 365.544 426.623 363.558 427.655 361.661" stroke="#263238" stroke-width="1.236" stroke-linecap="round" stroke-linejoin="round"/>
<path d="M431.746 374.551C431.746 374.551 430.04 369.607 430.163 368.643C430.287 367.679 432.635 362.883 432.734 362.389" stroke="#263238" stroke-width="1.236" stroke-linecap="round" stroke-linejoin="round"/>
<path d="M436.764 375.008C435.664 373.216 433.056 372.536 435.058 368.593C437.06 364.65 437.987 363.896 437.987 363.896" stroke="#263238" stroke-width="1.236" stroke-linecap="round" stroke-linejoin="round"/>
<path d="M443.723 372.413C442.833 371.56 441.115 369.496 441.115 369.496C441.115 369.496 440.756 371.189 440.015 371.684" stroke="#263238" stroke-width="1.236" stroke-linecap="round" stroke-linejoin="round"/>
<path d="M435.318 569.987H395.519C394.984 569.987 394.472 570.2 394.094 570.577C393.716 570.955 393.504 571.468 393.504 572.002V573.127H436.851V571.532C436.852 571.33 436.814 571.129 436.737 570.942C436.661 570.755 436.549 570.584 436.406 570.441C436.264 570.297 436.094 570.183 435.907 570.105C435.721 570.027 435.52 569.987 435.318 569.987Z" fill="#263238"/>
<path d="M495.45 315.271C500.394 327.52 506.141 341.846 506.969 355.17C507.278 360.114 502.519 361.856 498.502 363.673C490.614 367.211 482.344 369.828 473.857 371.472C470.878 372.053 467.677 372.029 464.834 372.708C461.608 373.512 457.072 376.342 453.71 374.513" stroke="white" stroke-width="1.236" stroke-linecap="round" stroke-linejoin="round"/>
<path d="M472.238 321.859L478.703 335.764L482.855 344.107C481.307 345.671 479.304 346.705 477.133 347.061C476.134 347.198 475.177 347.547 474.324 348.084C473.471 348.621 472.743 349.335 472.189 350.176C472.189 350.176 455.911 357.209 453.711 357.135C451.511 357.061 449.731 354.947 447.926 357.963" stroke="white" stroke-width="1.236" stroke-linecap="round" stroke-linejoin="round"/>
<path d="M482.855 344.11C482.855 344.11 491.656 341.168 494.832 344.11" stroke="white" stroke-width="1.236" stroke-linecap="round" stroke-linejoin="round"/>
<path d="M481.384 300.848C480.655 300.267 471.706 310.044 471.162 317.386" stroke="white" stroke-width="1.236" stroke-linecap="round" stroke-linejoin="round"/>
<path d="M468.925 321.859C468.925 321.859 471.322 326.803 475.253 328.348" stroke="white" stroke-width="1.236" stroke-linecap="round" stroke-linejoin="round"/>
<path d="M419.3 322.787C419.3 322.787 424.244 331.266 429.361 332.675" stroke="white" stroke-width="1.236" stroke-linecap="round" stroke-linejoin="round"/>
<path d="M418.125 352.107C418.125 352.107 411.216 346.792 406.581 347.015" stroke="white" stroke-width="1.236" stroke-linecap="round" stroke-linejoin="round"/>
<path d="M420.128 330.512C420.128 330.512 424.417 334.022 427.605 332.712" stroke="white" stroke-width="1.236" stroke-linecap="round" stroke-linejoin="round"/>
<path d="M412.502 563.956C377.783 563.956 383.394 572.608 347.995 572.608C312.596 572.608 291.139 573.128 291.139 387.728" stroke="#263238" stroke-width="3.708" stroke-linecap="round" stroke-linejoin="round"/>
</svg>
