<svg width="536" height="331" viewBox="0 0 536 331" fill="none" xmlns="http://www.w3.org/2000/svg">
<g filter="url(#filter0_i_1005_775)">
<g filter="url(#filter1_i_1005_775)">
<rect x="125.75" y="54.6907" width="409.082" height="41.5789" rx="13.4125" fill="#F8F9FA"/>
</g>
<path d="M521.741 285.451H138.086C132.123 285.451 127.292 280.617 127.292 274.657V85.0046H532.535V274.655C532.535 280.618 527.702 285.451 521.741 285.451Z" fill="#D5D8BC"/>
<path d="M521.741 56.221C527.704 56.221 532.535 61.0541 532.535 67.0146V274.655C532.535 280.617 527.702 285.449 521.741 285.449H138.085C132.123 285.449 127.292 280.616 127.292 274.655V67.0163C127.292 61.0541 132.125 56.2227 138.085 56.2227L521.741 56.221ZM521.741 53.6392H138.085C130.71 53.6392 124.71 59.6393 124.71 67.0146V274.655C124.71 282.031 130.71 288.031 138.085 288.031H521.74C529.115 288.031 535.115 282.031 535.115 274.655V67.0163C535.117 59.641 529.117 53.6392 521.741 53.6392Z" fill="white"/>
<g filter="url(#filter2_i_1005_775)">
<path d="M146.462 65.2798C149.874 65.2798 152.64 68.0458 152.64 71.4572C152.64 74.8686 149.874 77.6346 146.462 77.6346C143.051 77.6346 140.285 74.8686 140.285 71.4572C140.285 68.0458 143.051 65.2798 146.462 65.2798ZM146.462 62.698C141.633 62.698 137.703 66.6275 137.703 71.4572C137.703 76.2869 141.633 80.2164 146.462 80.2164C151.292 80.2164 155.221 76.2869 155.221 71.4572C155.221 66.6275 151.292 62.698 146.462 62.698Z" fill="white"/>
</g>
<g filter="url(#filter3_i_1005_775)">
<path d="M170.408 65.2798C173.819 65.2798 176.585 68.0458 176.585 71.4572C176.585 74.8686 173.819 77.6346 170.408 77.6346C166.996 77.6346 164.23 74.8686 164.23 71.4572C164.23 68.0458 166.996 65.2798 170.408 65.2798ZM170.408 62.698C165.578 62.698 161.648 66.6275 161.648 71.4572C161.648 76.2869 165.578 80.2164 170.408 80.2164C175.237 80.2164 179.167 76.2869 179.167 71.4572C179.167 66.6275 175.237 62.698 170.408 62.698Z" fill="white"/>
</g>
<path d="M127.292 85.0046H532.535" stroke="white" stroke-width="2.58234" stroke-miterlimit="10"/>
<path d="M477.201 249.614C469.614 236.939 461.568 223.787 449.106 216.055C436.645 208.324 418.398 208.031 409.095 219.465C400.849 229.6 402.381 244.376 404.357 257.369C395.181 245.655 384.434 235.212 372.504 226.422C363.297 219.639 353.146 213.742 341.965 211.616C330.357 209.408 317.114 211.842 307.591 219.021C294.592 228.818 294.792 244.244 296.067 259.123C280.291 229.219 262.757 199.553 238.469 175.65C232.183 169.464 224.796 164.108 216.3 161.738C211.427 160.38 205.928 160.115 201.56 162.665C194.919 166.54 193.162 175.285 192.973 182.972C192.744 192.246 193.812 201.551 196.14 210.532C191.9 205.978 186.308 202.606 180.198 201.437C166.139 198.745 152.264 209.379 151.462 223.811C150.629 238.825 159.765 253.158 166.743 265.769C169.402 270.574 172.136 275.363 175.146 279.96C175.733 280.857 177.972 285.315 179.332 285.315C179.339 285.315 497.307 285.315 497.307 285.315C490.606 274.113 483.904 260.81 477.201 249.614Z" fill="#B5AE6B"/>
</g>
<mask id="mask0_1005_775" style="mask-type:luminance" maskUnits="userSpaceOnUse" x="62" y="56" width="406" height="230">
<path d="M456.617 285.778H72.9606C66.9984 285.778 62.167 280.945 62.167 274.985V67.344C62.167 61.3817 67.0001 56.5503 72.9606 56.5503H456.615C462.577 56.5503 467.408 61.3834 467.408 67.344V274.985C467.41 280.945 462.577 285.778 456.617 285.778Z" fill="white"/>
</mask>
<g mask="url(#mask0_1005_775)">
<path d="M439.9 271.565L333.55 67.7399L303.327 65.9619L279.596 85.3323L218.541 129.724L287.176 330.869L439.9 271.565Z" fill="white"/>
<path d="M240.091 126.789C246.026 131.734 254.291 133.748 261.835 132.087" stroke="black" stroke-width="1.72156" stroke-miterlimit="10"/>
<path d="M269.271 129.724C276.703 127.225 283.296 122.297 287.799 115.877C292.302 109.457 294.689 101.579 294.507 93.7385" stroke="black" stroke-width="1.72156" stroke-miterlimit="10"/>
<path d="M410.879 195.783C392.48 160.692 337.262 50.1009 322.693 55.5468C305.977 61.7947 287.175 77.9052 287.175 77.9052C287.175 77.9052 296.182 106.734 296.869 109.467C299.373 119.434 301.95 129.381 304.6 139.311C311.199 164.029 317.079 189.112 325.229 213.378C333.506 238.023 342.677 262.382 352.565 286.425C356.529 296.064 359.713 307.36 367.255 314.904C371.533 319.261 377.517 322.299 383.6 321.763C387.8 321.393 391.659 319.398 395.394 317.443C411.826 308.837 457.627 288.315 457.627 288.315C457.627 288.315 434.086 240.044 410.879 195.783Z" fill="#13431D"/>
<path d="M317.059 330.659C312.587 314.369 304.931 299.379 299.262 283.546C291.845 262.831 285.255 241.829 277.602 221.197C265.929 189.725 249.376 146.205 236.705 115.121C236.705 115.121 213.474 128.449 208.788 131.679C204.103 134.912 205.121 142.6 205.121 142.6C223.611 211.56 279.616 368.178 279.616 368.178C286.246 364.673 302.69 355.436 309.32 351.931C318.059 347.315 319.572 339.81 317.059 330.659Z" fill="#13431D"/>
<path d="M213.398 128.781C234.876 161.774 251.597 188.641 273.981 221.027" stroke="black" stroke-width="1.72156" stroke-miterlimit="10"/>
<path d="M316.331 63.8757C320.787 107.644 323.503 151.588 324.476 195.572" stroke="black" stroke-width="1.72156" stroke-miterlimit="10"/>
</g>
<path d="M93.3936 297.517C88.9134 300.934 84.3057 304.182 79.5844 307.254C75.0284 310.218 70.1523 312.734 65.6789 315.798C64.5756 316.554 63.5446 317.409 62.5153 318.261C58.7648 321.369 54.9833 324.511 52.0039 328.364C51.608 328.877 51.2156 329.413 50.682 329.779C50.1484 330.148 49.429 330.32 48.8438 330.041C48.2362 329.75 47.9281 329.067 47.7525 328.416C47.0245 325.714 47.7612 322.826 48.8662 320.254C49.577 318.598 50.4393 317.017 51.1881 315.378C51.8094 314.022 52.6305 312.586 52.646 311.082C40.5941 314.042 30.0534 321.17 18.7021 326.185C16.3785 327.213 11.6452 326.993 11.1512 325.001C10.4989 322.37 27.2926 313.566 35.3375 307.269C29.7264 309.115 23.7779 311.034 18.542 313.796C14.912 315.71 11.041 317.221 6.96866 317.85C4.68462 318.201 -0.473782 318.449 1.1648 314.631C1.64846 313.505 2.676 312.72 3.67774 312.013C11.4386 306.522 20.2942 303.171 28.3391 298.107C19.876 300.008 11.6813 304.5 3.07016 303.459C2.23194 303.357 1.33688 303.171 0.758559 302.555C-0.120975 301.617 -0.287888 300.479 0.534847 299.49C1.35758 298.502 2.59165 297.973 3.77928 297.479C12.4851 293.858 21.604 289.779 30.3099 286.157C25.8554 286.649 21.5765 288.126 17.2184 289.174C12.8604 290.223 8.23893 290.837 3.93076 289.603C2.54348 289.205 0.928988 288.021 1.46772 286.684C1.72763 286.037 2.41093 285.682 3.03917 285.381C13.7296 280.286 24.4199 275.191 35.1086 270.095C38.1069 268.666 41.107 267.236 44.1587 265.921C50.7836 263.067 57.1882 259.804 63.832 256.957C70.8081 253.969 77.8202 251.072 84.8703 248.263" fill="#7A492B"/>
<path d="M52.4375 311.015C55.6871 310.151 58.9677 309.402 62.2707 308.769" stroke="black" stroke-width="1.72156" stroke-miterlimit="10"/>
<path d="M34.8867 307.182C39.4531 305.003 44.1348 303.063 48.9042 301.374" stroke="black" stroke-width="1.72156" stroke-miterlimit="10"/>
<path d="M28.3408 297.942C32.0638 296.324 35.7884 294.705 39.5114 293.087" stroke="black" stroke-width="1.72156" stroke-miterlimit="10"/>
<path d="M26.1211 287.66C28.8612 286.663 31.5342 285.482 34.1143 284.126" stroke="black" stroke-width="1.72156" stroke-miterlimit="10"/>
<path d="M208.791 131.679C200.833 136.981 192.962 142.902 187.912 148.394C179.813 157.203 132.196 214.915 132.196 214.915C132.196 214.915 83.4208 244.33 55.4668 260.575L86.0319 310.371C86.0319 310.371 142.701 289.997 171.601 269.696C197.872 251.241 248.166 190.773 248.166 190.773" fill="#13431D"/>
<path d="M228.718 214.925L213.399 167.286" stroke="black" stroke-width="1.72156" stroke-miterlimit="10"/>
<path d="M81.1904 245.437L115.103 298.121" stroke="black" stroke-width="1.72156" stroke-miterlimit="10"/>
<path d="M77.0273 295.701L105.16 282.675" stroke="black" stroke-width="1.72156" stroke-miterlimit="10"/>
<path d="M95.8649 282.021C96.0061 283.312 95.0749 284.472 93.7857 284.615C92.4948 284.756 91.3347 283.825 91.1919 282.534C91.0507 281.243 91.9819 280.083 93.2728 279.94C94.562 279.799 95.7221 280.73 95.8649 282.021Z" stroke="black" stroke-width="1.72156" stroke-miterlimit="10"/>
<path d="M82.1226 288.247C83.4212 288.247 84.4738 287.194 84.4738 285.896C84.4738 284.597 83.4212 283.544 82.1226 283.544C80.8241 283.544 79.7715 284.597 79.7715 285.896C79.7715 287.194 80.8241 288.247 82.1226 288.247Z" stroke="black" stroke-width="1.72156" stroke-miterlimit="10"/>
<path d="M131.869 215.633C131.829 215.316 131.79 214.999 131.75 214.684C138.244 212.738 144.444 209.808 150.074 206.028" stroke="black" stroke-width="1.72156" stroke-miterlimit="10"/>
<path d="M154.811 159.49C164.028 148.402 175.312 139.037 187.909 132.022" stroke="black" stroke-width="1.72156" stroke-miterlimit="10"/>
<path d="M162.235 134.16C170.958 127.667 180.496 122.27 190.554 118.135" stroke="black" stroke-width="1.72156" stroke-miterlimit="10"/>
<path d="M255.521 43.5312L262.332 63.702L286.632 87.2102C286.632 87.2102 287.266 101.197 273.518 115.86C259.876 130.411 245.094 120.645 245.094 120.645L227.452 94.7043" fill="#7A492B"/>
<path d="M198.635 96.1034C195.84 87.148 192.315 67.8292 192.585 60.4728C192.814 54.2438 194.676 48.149 198.78 43.3331C204.062 37.1316 216.482 39.3537 224.413 38.5998C237.436 37.3623 245.572 52.7928 249.244 63.855C252.063 72.3526 253.404 81.1014 250.526 89.7694C245.844 103.863 230.811 118.107 214.905 114.253C206.265 112.159 201.342 104.783 198.635 96.1034Z" fill="#7A492B"/>
<path d="M267.819 41.0061C265.73 38.7754 262.857 37.0249 261.928 34.1127C261.413 32.4982 260.613 27.6668 260.091 26.0557C257.184 17.0676 249.647 14.0589 241.082 15.5357C240.168 6.94006 231.051 6.11044 223.564 6.02438C220.445 5.98824 217.273 5.68358 214.479 4.1913C211.526 2.61295 208.848 0.378838 205.398 0.0500888C202.321 -0.242516 199.152 0.771272 196.596 2.45289C187.718 8.28948 185.183 19.5823 174.308 22.992C170.873 24.0695 167.282 24.3879 164.317 26.6426C162.103 28.3243 160.456 30.8407 160.144 33.6049C159.7 37.5482 162.306 39.9475 164.996 42.3469C168.134 45.1456 169.964 48.7119 169.711 52.9702C169.558 55.5485 168.867 58.0597 168.454 60.6088C167.281 67.8671 169.599 74.7279 175.678 79.1221C176.961 80.0481 178.696 80.9156 183.389 81.9345C186.697 82.6523 195.279 81.413 195.279 81.413C195.279 81.413 193.161 69.0668 193.2 64.2612C193.238 59.6897 194.632 55.4297 197.307 51.7774C199.589 48.6603 204.579 47.5639 208.297 47.7308C213.865 47.9804 219.183 51.0493 224.719 50.4004C227.018 50.1302 229.204 49.1611 231.01 47.717C238.456 52.5381 246.163 59.626 247.869 68.2682C247.955 68.7071 249.05 73.8242 248.664 73.9051C255.048 72.5626 263.091 72.0462 265.96 65.0754C266.95 62.6708 266.451 60.1424 267.2 57.7052C267.819 55.6862 269.625 54.2129 270.467 52.2748C272.091 48.5243 270.611 43.9872 267.819 41.0061Z" fill="#33281B"/>
<path d="M241.279 67.2113C241.61 61.657 249.28 57.5915 254.145 59.5554C265.844 64.2784 261.018 85.37 249.915 86.9776C246.773 87.432 242.345 86.0292 241.379 82.4543" fill="#7A492B"/>
<path d="M254.639 69.0649L244.081 77.905" stroke="black" stroke-width="1.72156" stroke-miterlimit="10"/>
<path d="M246.783 60.5642C244.241 61.9618 242.138 64.1805 240.835 66.8397" stroke="black" stroke-width="1.72156" stroke-miterlimit="10"/>
<path d="M260.252 77.3459C258.546 81.8297 255.236 86.5182 250.262 87.143C246.809 87.5768 242.94 85.921 241.675 82.3082" stroke="black" stroke-width="1.72156" stroke-miterlimit="10"/>
<path d="M237.364 109.274C237.364 109.274 243.046 105.665 246.784 97.7163" stroke="black" stroke-width="1.72156" stroke-miterlimit="10"/>
<path d="M208.113 74.7346C208.64 79.6882 209.186 84.6401 209.75 89.5903C209.828 90.2736 209.929 91.0069 210.402 91.5077C212.27 93.4819 216.552 92.5336 218.542 91.3511" stroke="black" stroke-width="1.72156" stroke-miterlimit="10"/>
<path d="M223.208 93.3823L214.646 98.3841C214.646 98.3841 217.959 104.735 221.276 103.494C227.453 101.186 223.208 93.3823 223.208 93.3823Z" fill="white"/>
<path d="M212.475 64.0272C213.352 62.2251 215.156 61.0151 217.063 60.3989C220.287 59.3576 223.976 59.8688 226.795 61.7483" stroke="black" stroke-width="1.72156" stroke-miterlimit="10"/>
<path d="M192.469 71.2151C192.777 69.3269 193.861 67.8983 195.128 67.0394C197.267 65.5885 200.023 65.604 202.397 67.0773" stroke="black" stroke-width="1.72156" stroke-miterlimit="10"/>
<path d="M223.803 71.413C224.242 73.2616 223.435 75.0362 222.001 75.3752C220.567 75.7143 219.049 74.4923 218.612 72.6437C218.173 70.7951 218.98 69.0206 220.414 68.6815C221.848 68.3424 223.364 69.5645 223.803 71.413Z" fill="black"/>
<path d="M204.06 77.289C204.499 79.1376 203.691 80.9121 202.258 81.2512C200.824 81.592 199.306 80.3682 198.869 78.5197C198.43 76.6711 199.237 74.8965 200.671 74.5575C202.103 74.2184 203.621 75.4404 204.06 77.289Z" fill="black"/>
<path d="M198.855 50.125C195.171 52.1044 193.569 56.4315 191.08 59.7913C187.056 65.2217 180.08 68.3147 173.352 67.6486" stroke="black" stroke-width="1.72156" stroke-miterlimit="10"/>
<path d="M231.641 47.2216C234.976 44.1423 237.37 40.0579 238.427 35.6448" stroke="black" stroke-width="1.72156" stroke-miterlimit="10"/>
<path d="M314.037 214.844C314.037 214.844 296.121 223.061 284.093 228.514C277.289 231.598 265.888 240.036 261.993 246.456C257.039 254.623 255.745 264.723 256.309 273.062C256.685 278.58 259.208 284.83 262.905 290.846C265.341 294.808 267.938 298.951 270.206 298.412C272.473 297.875 271.657 292.321 271.657 292.314C271.664 292.649 274.344 297.918 274.962 298.338C275.79 298.901 276.769 299.388 277.625 298.94C278.785 298.331 279.573 297.667 280.134 296.483C280.608 295.481 280.645 294.441 280.744 293.324C280.833 292.31 280.749 289.865 280.697 288.834C281.198 289.945 281.678 293.414 282.628 293.231C283.578 293.047 285.129 292.254 285.981 291.214C287.635 289.195 288.511 286.668 289.358 284.198C289.367 284.796 289.377 285.41 289.603 285.964C289.826 286.519 290.315 287.007 290.912 287.052C291.665 287.107 294.73 284.87 295.176 284.264C297.107 281.642 297.827 278.135 299.222 275.193C300.388 272.739 301.527 271 303.207 268.866C304.739 266.919 307.078 264.511 309.31 263.339C313.86 260.952 316.653 260.301 321.307 258.101C325.23 256.248 329.071 253.957 331.782 250.492" fill="#7A492B"/>
<path d="M288.954 285.231C289.3 281.312 289.779 277.405 290.39 273.518C290.797 270.928 291.271 268.318 292.305 265.909C294.001 261.96 297.078 258.8 300.092 255.736" stroke="black" stroke-width="1.72156" stroke-miterlimit="10"/>
<path d="M281.114 289.696C279.59 283.164 279.754 276.374 279.926 269.668C279.974 267.814 280.024 265.945 280.466 264.145C281.232 261.038 283.115 258.342 284.96 255.728" stroke="black" stroke-width="1.72156" stroke-miterlimit="10"/>
<path d="M271.845 293.615C269.748 287.116 267.638 280.546 267.058 273.741C266.948 272.438 266.893 271.128 266.939 269.82C267.113 264.938 268.702 260.171 271.106 255.917" stroke="black" stroke-width="1.72156" stroke-miterlimit="10"/>
<path d="M329.28 117.71L360.805 177.184L290.449 225.364L336.751 261.833C336.751 261.833 415.698 236.134 437.201 223.385C454.084 213.376 461.328 187.381 428.805 144.981C396.279 102.581 373.826 77.4355 367.156 70.3648C352.803 55.1477 335.725 48.8274 319.809 56.8396" fill="#13431D"/>
<path d="M329.279 117.71L360.804 177.184L290.45 225.363" stroke="black" stroke-width="1.72156" stroke-miterlimit="10"/>
<path d="M331.097 245.437C331.097 246.735 330.044 247.788 328.746 247.788C327.448 247.788 326.395 246.736 326.395 245.437C326.395 244.139 327.448 243.086 328.746 243.086C330.045 243.086 331.097 244.139 331.097 245.437Z" stroke="black" stroke-width="1.72156" stroke-miterlimit="10"/>
<path d="M343.263 240.465C344.562 240.465 345.614 239.412 345.614 238.113C345.614 236.815 344.562 235.762 343.263 235.762C341.965 235.762 340.912 236.815 340.912 238.113C340.912 239.412 341.965 240.465 343.263 240.465Z" stroke="black" stroke-width="1.72156" stroke-miterlimit="10"/>
<path d="M315.285 244.926C315.543 245.129 345.614 229.972 345.614 229.972" stroke="black" stroke-width="1.72156" stroke-miterlimit="10"/>
<path d="M316.932 207.23C317.229 207.025 370.993 250.196 370.993 250.196" stroke="black" stroke-width="1.72156" stroke-miterlimit="10"/>
<path d="M359.087 177.778C365.688 175.2 372.323 172.422 379.376 171.361C386.915 170.227 394.581 170.618 402.163 171.01" stroke="black" stroke-width="1.72156" stroke-miterlimit="10"/>
<path d="M336.751 261.831L427.875 228.712" stroke="black" stroke-width="1.72156" stroke-miterlimit="10"/>
<defs>
<filter id="filter0_i_1005_775" x="124.71" y="53.6392" width="410.405" height="239.756" filterUnits="userSpaceOnUse" color-interpolation-filters="sRGB">
<feFlood flood-opacity="0" result="BackgroundImageFix"/>
<feBlend mode="normal" in="SourceGraphic" in2="BackgroundImageFix" result="shape"/>
<feColorMatrix in="SourceAlpha" type="matrix" values="0 0 0 0 0 0 0 0 0 0 0 0 0 0 0 0 0 0 127 0" result="hardAlpha"/>
<feOffset dy="5.36502"/>
<feGaussianBlur stdDeviation="2.68251"/>
<feComposite in2="hardAlpha" operator="arithmetic" k2="-1" k3="1"/>
<feColorMatrix type="matrix" values="0 0 0 0 0 0 0 0 0 0 0 0 0 0 0 0 0 0 0.25 0"/>
<feBlend mode="normal" in2="shape" result="effect1_innerShadow_1005_775"/>
</filter>
<filter id="filter1_i_1005_775" x="125.75" y="54.6907" width="409.082" height="46.9439" filterUnits="userSpaceOnUse" color-interpolation-filters="sRGB">
<feFlood flood-opacity="0" result="BackgroundImageFix"/>
<feBlend mode="normal" in="SourceGraphic" in2="BackgroundImageFix" result="shape"/>
<feColorMatrix in="SourceAlpha" type="matrix" values="0 0 0 0 0 0 0 0 0 0 0 0 0 0 0 0 0 0 127 0" result="hardAlpha"/>
<feOffset dy="5.36502"/>
<feGaussianBlur stdDeviation="2.68251"/>
<feComposite in2="hardAlpha" operator="arithmetic" k2="-1" k3="1"/>
<feColorMatrix type="matrix" values="0 0 0 0 0 0 0 0 0 0 0 0 0 0 0 0 0 0 0.25 0"/>
<feBlend mode="normal" in2="shape" result="effect1_innerShadow_1005_775"/>
</filter>
<filter id="filter2_i_1005_775" x="137.703" y="62.698" width="17.5186" height="22.8833" filterUnits="userSpaceOnUse" color-interpolation-filters="sRGB">
<feFlood flood-opacity="0" result="BackgroundImageFix"/>
<feBlend mode="normal" in="SourceGraphic" in2="BackgroundImageFix" result="shape"/>
<feColorMatrix in="SourceAlpha" type="matrix" values="0 0 0 0 0 0 0 0 0 0 0 0 0 0 0 0 0 0 127 0" result="hardAlpha"/>
<feOffset dy="5.36502"/>
<feGaussianBlur stdDeviation="2.68251"/>
<feComposite in2="hardAlpha" operator="arithmetic" k2="-1" k3="1"/>
<feColorMatrix type="matrix" values="0 0 0 0 0 0 0 0 0 0 0 0 0 0 0 0 0 0 0.25 0"/>
<feBlend mode="normal" in2="shape" result="effect1_innerShadow_1005_775"/>
</filter>
<filter id="filter3_i_1005_775" x="161.648" y="62.698" width="17.5186" height="22.8833" filterUnits="userSpaceOnUse" color-interpolation-filters="sRGB">
<feFlood flood-opacity="0" result="BackgroundImageFix"/>
<feBlend mode="normal" in="SourceGraphic" in2="BackgroundImageFix" result="shape"/>
<feColorMatrix in="SourceAlpha" type="matrix" values="0 0 0 0 0 0 0 0 0 0 0 0 0 0 0 0 0 0 127 0" result="hardAlpha"/>
<feOffset dy="5.36502"/>
<feGaussianBlur stdDeviation="2.68251"/>
<feComposite in2="hardAlpha" operator="arithmetic" k2="-1" k3="1"/>
<feColorMatrix type="matrix" values="0 0 0 0 0 0 0 0 0 0 0 0 0 0 0 0 0 0 0.25 0"/>
<feBlend mode="normal" in2="shape" result="effect1_innerShadow_1005_775"/>
</filter>
</defs>
</svg>
