<svg width="173" height="116" viewBox="0 0 173 116" fill="none" xmlns="http://www.w3.org/2000/svg">
<path d="M27.6653 76.8122C24.2997 76.8122 21.1475 76.5515 18.2085 76.0301C15.317 75.5561 12.7572 74.7265 10.5293 73.5415C8.34882 72.309 6.61863 70.6262 5.33877 68.4931C4.1063 66.3126 3.49007 63.587 3.49007 60.3162C3.49007 60.2214 3.49007 60.1029 3.49007 59.9607C3.49007 59.7711 3.51377 59.5815 3.56118 59.3918H18.4218C18.3744 59.5815 18.3507 59.7711 18.3507 59.9607C18.3507 60.1029 18.3507 60.2451 18.3507 60.3873C18.3507 61.8094 18.6825 62.8996 19.3462 63.6581C20.0098 64.4165 20.9342 64.9379 22.1192 65.2223C23.3517 65.4594 24.7263 65.5779 26.2432 65.5779C26.8121 65.5779 27.4046 65.5779 28.0208 65.5779C28.6844 65.5305 29.3007 65.4594 29.8695 65.3645C30.4857 65.2223 31.0309 65.0327 31.5049 64.7957C32.0263 64.5587 32.4292 64.2506 32.7136 63.8714C32.9981 63.4448 33.1403 62.9233 33.1403 62.3071C33.1403 61.4064 32.7373 60.6954 31.9315 60.174C31.1257 59.6526 30.0354 59.2022 28.6607 58.823C27.2861 58.4438 25.7455 58.0883 24.039 57.7565C22.3325 57.4246 20.5549 57.0454 18.7062 56.6188C16.8575 56.1448 15.08 55.5523 13.3735 54.8412C11.667 54.1302 10.1264 53.2295 8.75174 52.1393C7.37707 51.0016 6.28681 49.6033 5.48097 47.9442C4.67513 46.2377 4.27221 44.1994 4.27221 41.8293C4.27221 38.9851 4.86474 36.5676 6.0498 34.5767C7.23486 32.5858 8.84654 30.9741 10.8848 29.7416C12.9706 28.5092 15.317 27.6085 17.9241 27.0397C20.5786 26.4709 23.3517 26.1865 26.2432 26.1865C29.1822 26.1865 31.9315 26.4946 34.4912 27.1108C37.0984 27.6796 39.3974 28.5803 41.3883 29.8127C43.3792 31.0452 44.9435 32.6095 46.0811 34.5056C47.2188 36.4017 47.8113 38.6533 47.8587 41.2604V42.1137H33.1403V41.8293C33.1403 40.976 32.927 40.1702 32.5003 39.4117C32.0737 38.6533 31.3864 38.0371 30.4383 37.563C29.5377 37.089 28.3289 36.852 26.8121 36.852C25.39 36.852 24.1812 36.9942 23.1858 37.2786C22.2377 37.563 21.5267 37.966 21.0527 38.4874C20.5786 38.9614 20.3416 39.4828 20.3416 40.0517C20.3416 40.9523 20.7445 41.6871 21.5504 42.2559C22.3562 42.8247 23.4465 43.2987 24.8212 43.678C26.1958 44.0572 27.7364 44.4127 29.4429 44.7445C31.1494 45.0763 32.927 45.4555 34.7757 45.8822C36.6243 46.2614 38.4019 46.7828 40.1084 47.4464C41.8149 48.1101 43.3555 48.987 44.7302 50.0773C46.1048 51.1201 47.1951 52.4237 48.0009 53.988C48.8068 55.5523 49.2097 57.472 49.2097 59.7474C49.2097 63.7766 48.2616 67.0473 46.3655 69.5597C44.5168 72.072 41.9571 73.9207 38.6864 75.1057C35.463 76.2434 31.7893 76.8122 27.6653 76.8122Z" fill="#DC7B2C"/>
<path d="M57.0083 75.959V27.0397H78.1972C83.7907 27.0397 88.4835 27.9167 92.2757 29.6705C96.0679 31.4244 98.9357 34.1027 100.879 37.7052C102.87 41.3078 103.866 45.9059 103.866 51.4993C103.866 57.0454 102.87 61.6435 100.879 65.2934C98.9357 68.896 96.0679 71.5743 92.2757 73.3282C88.4835 75.082 83.7907 75.959 78.1972 75.959H57.0083ZM72.7222 64.2269H77.9128C79.6192 64.2269 81.0887 63.9899 82.3212 63.5159C83.601 63.0418 84.6439 62.3545 85.4497 61.4539C86.2556 60.5532 86.8481 59.4392 87.2273 58.112C87.6065 56.7847 87.7962 55.2915 87.7962 53.6325V49.3662C87.7962 47.7072 87.6065 46.214 87.2273 44.8867C86.8481 43.5594 86.2556 42.4455 85.4497 41.5448C84.6439 40.6442 83.601 39.9569 82.3212 39.4828C81.0887 39.0088 79.6192 38.7718 77.9128 38.7718H72.7222V64.2269Z" fill="#6C91C2"/>
<path d="M112.35 75.959V27.0397H133.539C139.132 27.0397 143.825 27.9167 147.617 29.6705C151.409 31.4244 154.277 34.1027 156.221 37.7052C158.211 41.3078 159.207 45.9059 159.207 51.4993C159.207 57.0454 158.211 61.6435 156.221 65.2934C154.277 68.896 151.409 71.5743 147.617 73.3282C143.825 75.082 139.132 75.959 133.539 75.959H112.35ZM128.064 64.2269H133.254C134.961 64.2269 136.43 63.9899 137.663 63.5159C138.942 63.0418 139.985 62.3545 140.791 61.4539C141.597 60.5532 142.189 59.4392 142.569 58.112C142.948 56.7847 143.138 55.2915 143.138 53.6325V49.3662C143.138 47.7072 142.948 46.214 142.569 44.8867C142.189 43.5594 141.597 42.4455 140.791 41.5448C139.985 40.6442 138.942 39.9569 137.663 39.4828C136.43 39.0088 134.961 38.7718 133.254 38.7718H128.064V64.2269Z" fill="#002366"/>
<path d="M54.2282 107.802V88.2861H60.4971V95.4059H67.3899V88.2861H73.6588V107.802H67.3899V100.398H60.4971V107.802H54.2282ZM87.5866 108.142C85.5443 108.142 83.7951 107.84 82.3389 107.234C80.9017 106.61 79.7955 105.693 79.0201 104.483C78.2448 103.254 77.8571 101.741 77.8571 99.9444V88.2861H84.126V99.8593C84.126 100.899 84.4096 101.76 84.977 102.441C85.5443 103.121 86.4047 103.462 87.5583 103.462C88.7118 103.462 89.5722 103.121 90.1395 102.441C90.7258 101.76 91.0189 100.899 91.0189 99.8593V88.2861H97.2877V99.9444C97.2877 101.741 96.9001 103.254 96.1247 104.483C95.3683 105.693 94.262 106.61 92.8059 107.234C91.3687 107.84 89.629 108.142 87.5866 108.142ZM101.486 107.802V88.2861H114.478C115.461 88.2861 116.359 88.4941 117.172 88.9101C117.986 89.3073 118.638 89.8651 119.13 90.5837C119.621 91.3023 119.867 92.1344 119.867 93.0799C119.867 94.0254 119.716 94.8008 119.413 95.4059C119.111 96.011 118.714 96.4933 118.222 96.8526C117.73 97.1929 117.191 97.4482 116.605 97.6184V97.7319C117.286 97.8832 117.9 98.1479 118.449 98.5261C119.016 98.8854 119.47 99.396 119.81 100.058C120.151 100.72 120.321 101.571 120.321 102.611C120.321 103.651 120.066 104.559 119.555 105.334C119.045 106.109 118.364 106.714 117.513 107.149C116.662 107.584 115.707 107.802 114.648 107.802H101.486ZM107.755 103.263H112.52C112.955 103.263 113.305 103.112 113.57 102.809C113.835 102.507 113.967 102.053 113.967 101.448C113.967 101.164 113.901 100.909 113.768 100.682C113.655 100.436 113.485 100.247 113.258 100.115C113.05 99.9823 112.804 99.9161 112.52 99.9161H107.755V103.263ZM107.755 95.8881H112.067C112.369 95.8881 112.624 95.8219 112.832 95.6896C113.04 95.5383 113.201 95.3303 113.315 95.0655C113.447 94.8008 113.513 94.4698 113.513 94.0727C113.513 93.6567 113.371 93.3068 113.088 93.0232C112.804 92.7206 112.464 92.5693 112.067 92.5693H107.755V95.8881Z" fill="#333333"/>
</svg>
