<svg width="548" height="383" viewBox="0 0 548 383" fill="none" xmlns="http://www.w3.org/2000/svg">
<g filter="url(#filter0_i_1005_721)">
<rect x="232.312" y="1.4856" width="313.853" height="41.5789" rx="13.4125" fill="#F8F9FA"/>
<path d="M533.857 247.095H245.395C239.433 247.095 234.602 242.262 234.602 236.302V31.3635H544.652V236.302C544.65 242.264 539.819 247.095 533.857 247.095Z" fill="#F9D4BB"/>
<path d="M533.856 2.5818C539.819 2.5818 544.65 7.41493 544.65 13.3754V236.302C544.65 242.264 539.817 247.096 533.856 247.096H245.395C239.433 247.096 234.601 242.263 234.601 236.302V13.3754C234.601 7.41321 239.434 2.5818 245.395 2.5818H533.856ZM533.856 0H245.395C238.02 0 232.02 6.0001 232.02 13.3754V236.302C232.02 243.677 238.02 249.677 245.395 249.677H533.856C541.232 249.677 547.232 243.677 547.232 236.302V13.3754C547.232 6.0001 541.232 0 533.856 0Z" fill="white"/>
<g filter="url(#filter1_i_1005_721)">
<path d="M259.949 17.8161C259.949 21.2275 257.184 23.9934 253.772 23.9934C250.361 23.9934 247.595 21.2275 247.595 17.8161C247.595 14.4047 250.361 11.6387 253.772 11.6387C257.184 11.6387 259.949 14.4047 259.949 17.8161Z" stroke="white" stroke-width="2.58234" stroke-miterlimit="10"/>
</g>
<g filter="url(#filter2_i_1005_721)">
<path d="M283.893 17.8161C283.893 21.2275 281.127 23.9934 277.715 23.9934C274.304 23.9934 271.538 21.2275 271.538 17.8161C271.538 14.4047 274.304 11.6387 277.715 11.6387C281.127 11.6387 283.893 14.4047 283.893 17.8161Z" stroke="white" stroke-width="2.58234" stroke-miterlimit="10"/>
</g>
<path d="M234.602 31.3635H544.65" stroke="white" stroke-width="2.58234" stroke-miterlimit="10"/>
<path d="M464.734 164.032C457.634 162.789 455.627 181.879 459.031 188.232C449.682 174.862 437.847 154.383 428.495 141.013C418.008 126.016 405.476 107.337 386.564 102.456C369.527 98.0584 360.641 112.895 360.374 128.043C360.119 142.546 361.577 157.176 364.264 171.418C367.191 186.945 370.994 204.63 379.446 218.186C370.462 203.78 356.083 198.909 340.015 200.246C332.532 200.869 324.752 203.387 320.027 209.224C312.469 218.56 315.304 235.526 318.524 247.099C325.55 247.099 332.578 247.099 339.604 247.099C376.976 247.099 525.022 247.161 525.022 247.161C525.022 247.161 487.774 168.067 464.734 164.032Z" fill="#EF9748"/>
</g>
<path d="M250.014 137.14C219.21 137.598 188.676 131.083 159.207 122.1C129.738 113.119 76.0488 93.399 76.0488 93.399L60.7197 139.686C60.7197 139.686 140.086 189.964 245.704 198.551" fill="#E27769"/>
<path d="M315.99 149.71C295.461 132.291 250.982 133.536 238.23 134.033C225.477 134.53 202.751 130.764 202.751 130.764L194.384 200.497C194.384 200.497 241.608 208.423 267.883 210.342" fill="#333333"/>
<path d="M258.135 166.438C261.359 175.53 259.887 188.905 259.923 198.551C259.956 207.155 262.98 211.935 264.25 220.444C265.77 230.615 271.539 237.88 277.626 247.095H408.418L401.528 174.578L383.724 148.848L346.131 138.825L261.264 161.145" fill="#333333"/>
<path d="M299.2 148.849C297.896 153.453 296.945 158.619 297.737 163.39C298.665 168.98 302.211 172.5 307.269 174.579" stroke="#6D574E" stroke-width="1.72156" stroke-miterlimit="10"/>
<path d="M313.699 176.118C336.879 180.271 361.27 163.703 363.599 142.611" stroke="#6D574E" stroke-width="1.72156" stroke-miterlimit="10"/>
<path d="M488.081 238.736C486.198 233.271 482.661 228.548 479.024 224.057C469.023 211.709 457.829 200.329 445.648 190.124L401.879 229.964L428.964 256.22L397.332 313.554L439.29 325.529C439.29 325.529 471.4 290.067 483.688 270.299C489.719 260.597 491.833 249.626 488.081 238.736Z" fill="#E27769"/>
<path d="M405.703 300.709C405.703 300.709 387.353 327.117 385.499 331.884C383.833 336.166 382.925 341.524 382.271 346.087C380.467 358.664 387.209 371.593 392.291 377.702C392.864 378.39 393.713 378.834 394.565 378.993C396.45 379.344 397.205 378.365 397.164 376.141C398.193 377.54 399.221 378.938 400.25 380.337C400.675 380.915 401.121 381.513 401.73 381.814C402.899 382.392 404.36 381.686 405.257 380.544C406.154 379.401 406.612 377.914 407.047 376.473C408.137 378.05 409.829 379.704 411.46 378.738C413.092 377.772 414.502 374.282 414.137 372.277C414.672 374.039 417.01 374.087 418.287 372.805C419.562 371.523 420.03 369.514 420.411 367.642C421.373 362.9 422.278 358.01 424.6 353.867C426.147 351.104 428.252 348.813 430.087 346.287C436.063 338.059 439.02 327.572 440.95 317.241" fill="#E27769"/>
<path d="M417.742 341.416C416.916 343.245 416.088 345.075 415.262 346.903C414.59 348.388 413.917 349.877 413.377 351.419C410.969 358.292 411.368 366.151 414.458 372.683" stroke="black" stroke-width="1.72156" stroke-miterlimit="10"/>
<path d="M403.931 340.732C402.247 349.046 401.562 359.042 402.76 365.294C403.536 369.344 405.304 373.194 407.469 376.666" stroke="black" stroke-width="1.72156" stroke-miterlimit="10"/>
<path d="M391.835 337.606C391.835 337.606 390.759 343.739 390.505 347.206C389.696 358.225 391.155 368.867 397.159 377.036" stroke="black" stroke-width="1.72156" stroke-miterlimit="10"/>
<path d="M72.2972 140.467C68.996 140.147 65.693 139.827 62.3917 139.507C59.4364 139.221 56.4553 138.928 53.6291 138.021C51.7427 137.415 49.9543 136.546 48.1746 135.679C40.8423 132.109 37.0884 131.04 30.0745 126.907C26.0451 124.534 21.9228 122.296 17.6267 120.439C13.4184 118.62 9.0517 117.64 5.16522 115.181C4.82787 114.967 4.47844 114.726 4.32353 114.36C4.20477 114.077 4.21511 113.757 4.25814 113.453C5.16005 107.112 18.0828 108.563 23.1087 109.967C24.6234 110.391 26.1966 110.898 27.7388 110.585C27.842 108.568 26.9539 106.637 25.9711 104.873C23.0761 99.6814 18.8419 95.5453 15.0191 91.0323C11.4838 86.8567 7.90192 82.6845 4.64368 78.2851C1.59199 74.1663 -1.54919 65.1954 0.846724 64.1007C3.24264 63.006 1.96209 65.1919 2.73491 65.2917C1.18927 64.3399 1.7779 60.5344 2.88808 59.0352C3.99825 57.5377 7.07746 59.8063 8.1446 61.259C7.03098 59.8682 7.40793 56.7116 8.54565 56.147C10.1997 55.3243 12.1602 56.4327 13.6955 57.3622C15.2308 58.2916 16.711 59.4207 18.5011 59.746C18.0501 58.6152 17.7799 57.4087 17.7007 56.1832C18.5734 55.1195 20.2619 55.6685 21.4392 56.3088C45.3845 69.3538 65.8169 89.1114 91.2769 100.738" fill="#E27769"/>
<path d="M22.6963 100.021C25.3848 103.876 27.1972 108.515 28.6035 114.203" stroke="black" stroke-width="1.72156" stroke-miterlimit="10"/>
<path d="M2.8125 63.9545C5.99156 67.9081 10.2378 70.6465 13.9435 74.0355C19.8421 79.4281 25.4515 85.1218 31.1521 90.7192" stroke="black" stroke-width="1.72156" stroke-miterlimit="10"/>
<path d="M8.12891 60.8785C9.94822 62.5997 11.8828 64.197 13.9156 65.66C16.0946 67.2263 18.3821 68.636 20.6317 70.099C27.0621 74.2798 33.1965 78.9167 38.9745 83.965" stroke="black" stroke-width="1.72156" stroke-miterlimit="10"/>
<path d="M19.3408 60.2487C21.3632 62.1816 23.9244 63.4294 26.3943 64.7444C34.1311 68.8598 41.3756 73.9029 47.9197 79.7326" stroke="black" stroke-width="1.72156" stroke-miterlimit="10"/>
<path d="M66.3789 142.143C64.3674 142.143 60.3445 137.449 53.6396 138.12" stroke="black" stroke-width="1.34125" stroke-miterlimit="10"/>
<path d="M372.721 145.975C382.039 146.875 391.36 147.746 400.229 151.094C411.436 155.325 421.176 163.276 430.348 171.406C439.93 179.898 449.707 191.458 459.032 200.32L411.233 242.147L377.387 209.165" fill="#333333"/>
<path d="M428.966 256.22C428.966 256.22 436.037 247.168 443.204 242.147" stroke="black" stroke-width="1.72156" stroke-miterlimit="10"/>
<path d="M397.324 228.593L447.168 188.232" stroke="#6D574E" stroke-width="1.72156" stroke-miterlimit="10"/>
<path d="M212.66 203.406L219.898 133.061" stroke="#6D574E" stroke-width="1.72156" stroke-miterlimit="10"/>
<path d="M258.135 190.124C258.135 190.124 261.439 205.138 262.345 211.577" stroke="#6D574E" stroke-width="1.72156" stroke-miterlimit="10"/>
<path d="M375.697 209.04C386.055 217.036 411.235 242.147 411.235 242.147" stroke="#6D574E" stroke-width="1.72156" stroke-miterlimit="10"/>
<path d="M322.519 96.0687L344.793 105.096L343.485 119.947L354.714 141.65C354.714 141.65 349.233 162.116 324.644 167.213C303.883 171.516 304.353 158.118 304.353 158.118L294.465 129.579" fill="#E27769"/>
<path d="M275.465 107.503C278.754 96.3682 280.534 89.5333 284.741 81.4523C288.302 74.6105 294.524 64.6964 301.667 61.4915C310.863 57.3624 321.382 62.4278 330.65 65.7928C345.867 71.3213 349.368 89.3164 347.601 103.632C346.243 114.63 339.828 120.055 332.008 128.217C321.791 138.884 296.646 147.982 283.653 141.333C273.933 136.357 271.981 119.295 275.465 107.503Z" fill="#E27769"/>
<path d="M434.577 174.8C440.565 172.832 443.508 165.788 443.174 160.782C442.637 152.722 438.871 148.565 438.253 143.586C437.851 140.343 438.815 137.061 438.539 133.806C438.086 128.431 434.186 123.751 429.369 121.325C424.551 118.9 418.947 118.463 413.575 118.943C409.456 119.312 405.316 120.189 401.222 119.606C397.802 119.119 394.599 117.632 391.617 115.883C386.347 112.792 381.538 108.768 378.144 103.687C372.374 95.0461 371.144 84.1785 366.693 74.7893C364.45 70.0595 361.336 65.7582 357.61 62.0868C348.556 53.1676 339.937 49.8646 327.1 49.4377C318.308 49.1451 306.075 50.319 299.347 58.5188C299.347 58.5188 286.344 58.8527 280.14 65.4019C272.777 73.1766 273.306 84.4298 279.738 93.3989C283.061 87.9445 285.891 82.175 290.757 77.9821C290.196 78.8668 290.464 80.1078 291.184 80.8686C291.903 81.6294 292.972 81.9736 294.017 82.0579C296.798 82.2834 299.428 80.8979 301.874 79.5536C301.048 81.7585 300.697 84.1423 300.853 86.4918C300.886 86.9875 300.955 87.5159 301.282 87.8894C301.654 88.3162 302.265 88.4315 302.828 88.4797C306.661 88.8016 310.604 86.9582 312.817 83.8119C311.769 86.6639 310.854 90.2423 312.965 92.4265C314.458 93.9704 316.983 94.084 318.971 93.275C320.959 92.4661 322.537 90.917 324.06 89.404C323.327 90.1321 324.291 94.2406 324.47 95.189C324.862 97.2665 325.499 99.2837 326.207 101.272C328.379 107.384 331.055 113.339 334.534 118.825C338.124 124.487 343.255 128.782 346.925 134.3C349.25 137.797 351.216 141.627 354.341 144.433C358.183 147.88 363.479 150.474 368.528 151.502C373.614 152.538 378.874 152.068 384.018 151.899C403.034 151.279 417.451 160.801 434.577 174.8Z" fill="#893D33"/>
<path d="M390.213 51.6548C389.118 48.9508 387.516 46.4722 385.462 44.5806C378.049 37.7561 361.889 38.1984 356.364 47.4705C353.327 52.567 354.804 59.1231 357.107 64.5896L361.648 74.5519C367.978 77.9926 375.989 78.1389 382.442 74.934C387.832 72.2575 391.636 67.3177 391.905 61.1954C392.044 58.0731 391.454 54.7185 390.213 51.6548Z" fill="#893D33"/>
<path d="M324.242 109.449C325.784 104.849 333.166 103.172 336.815 105.931C345.59 112.57 336.728 129.228 327.013 128.054C324.264 127.722 320.856 125.534 320.856 122.305" fill="#E27769"/>
<path d="M335.068 114.048L324.169 119.088" stroke="black" stroke-width="1.72156" stroke-miterlimit="10"/>
<path d="M330.387 105.103C327.929 105.701 325.653 107.091 323.951 109.033" stroke="black" stroke-width="1.72156" stroke-miterlimit="10"/>
<path d="M337.907 122.297C335.45 125.684 331.598 128.877 327.268 128.271C324.263 127.851 321.381 125.575 321.139 122.247" stroke="black" stroke-width="1.72156" stroke-miterlimit="10"/>
<path d="M299.525 144.183C299.525 144.183 309.756 143.696 320.116 136.699" stroke="black" stroke-width="1.72156" stroke-miterlimit="10"/>
<path d="M288.781 101.896C287.168 104.716 285.485 107.616 282.881 109.559C282.258 110.024 281.581 110.435 281.075 111.024C280.349 111.867 280.039 113.053 280.259 114.145C280.479 115.236 281.225 116.208 282.221 116.706" stroke="black" stroke-width="1.72156" stroke-miterlimit="10"/>
<path d="M284.187 123.286C285.822 124.644 288.269 125.177 290.206 124.14C292.651 122.828 292.701 119.704 292.784 117.27" stroke="black" stroke-width="1.72156" stroke-miterlimit="10"/>
<path d="M300.714 95.8517C302.502 95.4765 304.375 95.3956 306.153 95.8155C307.933 96.2355 309.614 97.1805 310.75 98.6125C312.193 100.43 312.642 102.821 313.045 105.105" stroke="black" stroke-width="1.72156" stroke-miterlimit="10"/>
<path d="M280.801 89.0548C282.501 87.8345 284.887 87.7553 286.77 88.6676C288.653 89.5815 290.026 91.3922 290.619 93.3991" stroke="black" stroke-width="1.72156" stroke-miterlimit="10"/>
<path d="M303.718 106.139C303.017 107.599 301.599 108.373 300.545 107.869C299.494 107.365 299.208 105.773 299.907 104.313C300.607 102.854 302.026 102.079 303.079 102.583C304.131 103.088 304.416 104.68 303.718 106.139Z" fill="black"/>
<path d="M284.383 99.7777C283.684 101.237 282.264 102.012 281.21 101.508C280.159 101.003 279.873 99.4111 280.572 97.9515C281.271 96.4919 282.691 95.7174 283.744 96.2217C284.797 96.726 285.083 98.3181 284.383 99.7777Z" fill="black"/>
<path d="M484.919 299.396C495.408 288.733 502.84 275.096 506.119 260.504" stroke="black" stroke-width="1.72156" stroke-miterlimit="10"/>
<path d="M508.942 293.456C512.115 287.2 514.139 280.363 514.886 273.389" stroke="black" stroke-width="1.72156" stroke-miterlimit="10"/>
<defs>
<filter id="filter0_i_1005_721" x="232.02" y="0" width="315.212" height="255.043" filterUnits="userSpaceOnUse" color-interpolation-filters="sRGB">
<feFlood flood-opacity="0" result="BackgroundImageFix"/>
<feBlend mode="normal" in="SourceGraphic" in2="BackgroundImageFix" result="shape"/>
<feColorMatrix in="SourceAlpha" type="matrix" values="0 0 0 0 0 0 0 0 0 0 0 0 0 0 0 0 0 0 127 0" result="hardAlpha"/>
<feOffset dy="5.36502"/>
<feGaussianBlur stdDeviation="2.68251"/>
<feComposite in2="hardAlpha" operator="arithmetic" k2="-1" k3="1"/>
<feColorMatrix type="matrix" values="0 0 0 0 0 0 0 0 0 0 0 0 0 0 0 0 0 0 0.25 0"/>
<feBlend mode="normal" in2="shape" result="effect1_innerShadow_1005_721"/>
</filter>
<filter id="filter1_i_1005_721" x="246.304" y="10.3474" width="14.9365" height="20.3023" filterUnits="userSpaceOnUse" color-interpolation-filters="sRGB">
<feFlood flood-opacity="0" result="BackgroundImageFix"/>
<feBlend mode="normal" in="SourceGraphic" in2="BackgroundImageFix" result="shape"/>
<feColorMatrix in="SourceAlpha" type="matrix" values="0 0 0 0 0 0 0 0 0 0 0 0 0 0 0 0 0 0 127 0" result="hardAlpha"/>
<feOffset dy="5.36502"/>
<feGaussianBlur stdDeviation="2.68251"/>
<feComposite in2="hardAlpha" operator="arithmetic" k2="-1" k3="1"/>
<feColorMatrix type="matrix" values="0 0 0 0 0 0 0 0 0 0 0 0 0 0 0 0 0 0 0.25 0"/>
<feBlend mode="normal" in2="shape" result="effect1_innerShadow_1005_721"/>
</filter>
<filter id="filter2_i_1005_721" x="270.247" y="10.3474" width="14.9365" height="20.3023" filterUnits="userSpaceOnUse" color-interpolation-filters="sRGB">
<feFlood flood-opacity="0" result="BackgroundImageFix"/>
<feBlend mode="normal" in="SourceGraphic" in2="BackgroundImageFix" result="shape"/>
<feColorMatrix in="SourceAlpha" type="matrix" values="0 0 0 0 0 0 0 0 0 0 0 0 0 0 0 0 0 0 127 0" result="hardAlpha"/>
<feOffset dy="5.36502"/>
<feGaussianBlur stdDeviation="2.68251"/>
<feComposite in2="hardAlpha" operator="arithmetic" k2="-1" k3="1"/>
<feColorMatrix type="matrix" values="0 0 0 0 0 0 0 0 0 0 0 0 0 0 0 0 0 0 0.25 0"/>
<feBlend mode="normal" in2="shape" result="effect1_innerShadow_1005_721"/>
</filter>
</defs>
</svg>
