<svg width="543" height="337" viewBox="0 0 543 337" fill="none" xmlns="http://www.w3.org/2000/svg">
<g filter="url(#filter0_i_1005_920)">
<rect x="46.96" y="12.2522" width="409.082" height="41.5789" rx="13.4125" fill="#F8F9FA"/>
<path d="M443.245 317.291H60.0437C54.5569 317.291 50.1108 312.843 50.1108 307.358V48.7509H453.178V307.358C453.178 312.845 448.73 317.291 443.245 317.291Z" fill="#FFEBC4" stroke="white" stroke-width="1.72156"/>
<path d="M454.899 23.7055C454.899 17.2697 449.683 12.0511 443.245 12.0511H60.0434C53.6076 12.0511 48.389 17.2678 48.389 23.7055V307.358C48.389 313.794 53.6057 319.012 60.0434 319.012H443.245C449.681 319.012 454.899 313.796 454.899 307.358V23.7055ZM60.0434 11.1909H443.245C450.145 11.1909 455.759 16.8056 455.758 23.7053V307.358C455.758 314.258 450.143 319.873 443.243 319.873H60.0434C53.1435 319.873 47.5288 314.258 47.5288 307.358V23.7055C47.5288 16.8056 53.1435 11.1909 60.0434 11.1909Z" fill="white" stroke="white" stroke-width="1.72156"/>
<g filter="url(#filter1_i_1005_920)">
<path d="M80.0533 31.4251C80.0533 35.5715 76.6918 38.933 72.5472 38.933C68.4008 38.933 65.041 35.5715 65.041 31.4251C65.041 27.2787 68.4025 23.9189 72.5472 23.9189C76.6918 23.9189 80.0533 27.2804 80.0533 31.4251Z" stroke="white" stroke-width="2.58234" stroke-miterlimit="10"/>
</g>
<g filter="url(#filter2_i_1005_920)">
<path d="M101.645 38.9313C105.79 38.9313 109.151 35.5706 109.151 31.4251C109.151 27.2796 105.79 23.9189 101.645 23.9189C97.4993 23.9189 94.1387 27.2796 94.1387 31.4251C94.1387 35.5706 97.4993 38.9313 101.645 38.9313Z" stroke="white" stroke-width="2.58234" stroke-miterlimit="10"/>
</g>
<path d="M49.25 47.8901H454.039" stroke="white" stroke-width="2.58234" stroke-miterlimit="10"/>
<path d="M349.923 270.404L349.254 269.863L349.923 270.404C355.163 263.922 364.896 262.587 372.808 265.51L373.106 264.703L372.808 265.51C380.727 268.435 387.058 274.782 392.59 281.597L393.258 281.054L392.59 281.597C401.314 292.343 408.503 304.411 413.859 317.291H99.8075C77.737 299.388 56.4546 279.476 38.8133 257.023L38.1364 257.555L38.8133 257.023C30.1739 246.028 20.514 232.56 13.0996 218.14C5.68085 203.711 0.545615 188.396 0.875835 173.691L0.875838 173.691C0.980958 168.969 2.60401 164.186 6.02976 161.343C12.0842 156.319 21.3314 156.322 30.838 158.536C40.2896 160.738 49.7114 165.06 55.8359 168.281C72.7666 177.184 87.4007 190.372 100.292 204.741L101.754 203.907C100.25 199.146 99.369 194.379 98.4741 189.538C97.9909 186.924 97.5038 184.288 96.9125 181.62L96.9124 181.62C96.0507 177.735 96.1752 174.196 97.412 171.303C98.6384 168.435 100.997 166.111 104.798 164.694C112.183 161.941 120.415 163.442 128.314 166.891C136.201 170.336 143.63 175.67 149.319 180.38C158.206 187.738 166.005 196.258 173.846 204.824C176.083 207.268 178.323 209.715 180.593 212.14C190.948 223.204 200.664 234.712 209.248 247.268L209.249 247.268C209.836 248.126 213.355 253.076 216.717 257.797C218.401 260.161 220.047 262.471 221.273 264.191L222.749 266.26L223.16 266.836L223.268 266.988L223.295 267.026L223.302 267.036L223.304 267.039L223.305 267.039C223.305 267.039 223.305 267.039 223.364 266.997L223.305 267.039L224.866 269.228V266.54V266.54V266.539L224.866 266.537L224.866 266.526L224.867 266.474C224.867 266.427 224.869 266.356 224.871 266.263C224.876 266.075 224.886 265.796 224.906 265.437C224.946 264.72 225.026 263.685 225.188 262.427C225.511 259.908 226.156 256.509 227.441 252.977C230.015 245.909 235.098 238.427 245.206 236.211C263.825 232.129 283.442 239.585 299.733 250.219C315.997 260.835 329.518 275.304 342.949 289.72L344.258 291.126L344.436 289.213C345.072 282.376 345.876 275.41 349.923 270.404ZM5.48008 160.68C1.79671 163.737 0.123706 168.801 0.0152701 173.672L56.2366 167.519C43.93 161.047 18.2531 150.081 5.48008 160.68Z" fill="#FFDD99" stroke="white" stroke-width="1.72156"/>
</g>
<path d="M337.364 183.45C335.068 196.124 335.75 209.225 335.812 222.174C335.874 235.124 336.917 243.596 332.231 255.35C328.003 265.965 319.169 269.571 314.558 279.967C312.21 285.261 303.307 318.128 303.307 318.128H183.73C183.73 318.128 180.377 266.464 198.816 222.375C217.255 178.285 240.306 170.378 240.306 170.378L308.336 152.83L337.364 183.45Z" fill="#735D9D"/>
<path d="M494.023 106.375C497.57 102.096 502.532 99.411 506.78 95.9307C510.696 92.7241 513.622 88.2266 516.87 84.3419C520.843 79.5896 523.93 74.1833 527.376 69.0559C531.073 63.5532 535.812 59.1022 540.504 54.4704C541.155 53.8267 541.821 53.164 542.191 52.3275C542.86 50.8163 542.08 48.83 540.346 48.3618C536.955 47.4479 533.339 48.3154 530.049 49.5461C528.096 50.2776 521.471 52.6236 521.068 48.8937C520.614 44.6785 524.142 38.5235 525.495 34.6163C527.252 29.5336 529.053 24.4389 530.48 19.2495C531.838 14.3062 531.53 4.80686 528.901 4.65195C526.271 4.49704 528.256 6.07194 527.571 6.44372C528.669 4.99791 526.746 1.6605 525.17 0.663925C523.593 -0.33265 521.541 2.89461 521.07 4.63475C521.607 2.93592 520.115 0.128635 518.851 0.0115937C517.013 -0.158805 515.584 1.58306 514.488 3.00305C513.392 4.42304 512.417 6.00998 510.867 6.96009C510.879 5.74148 510.696 4.51944 510.326 3.34902C509.128 2.67087 507.751 3.79307 506.885 4.81547C489.262 25.6231 477.337 51.4239 457.788 71.4552" fill="#E27769"/>
<path d="M521.483 46.0348C521.545 51.1571 521.414 56.2811 521.092 61.3948" stroke="black" stroke-width="1.72156" stroke-miterlimit="10"/>
<path d="M527.011 5.22327C525.472 10.0581 522.501 14.1442 520.269 18.6417C516.715 25.8002 513.539 33.1343 510.241 40.4115" stroke="black" stroke-width="1.72156" stroke-miterlimit="10"/>
<path d="M520.941 4.27332C519.865 6.53497 518.638 8.72434 517.27 10.8208C515.803 13.0687 514.178 15.2081 512.609 17.3837C508.12 23.6041 504.073 30.143 500.507 36.9349" stroke="black" stroke-width="1.72156" stroke-miterlimit="10"/>
<path d="M510.257 7.73279C509.069 10.2664 507.131 12.3542 505.301 14.4713C499.57 21.1013 494.635 28.4182 490.637 36.2169" stroke="black" stroke-width="1.72156" stroke-miterlimit="10"/>
<path d="M274.017 159.686C295.411 150.732 309.425 141.331 330.606 131.79C349.705 123.189 376.506 116.134 395.337 106.953C421.379 94.2576 445.798 80.235 467.204 61.0264L506.093 101.969C506.093 101.969 451.137 158.032 431.951 168.959C385.714 195.296 368.872 200.227 320.809 225.363" fill="#735D9D"/>
<path d="M335.268 218.323C335.54 208.654 337.744 199.043 341.717 190.221" stroke="black" stroke-width="1.72156" stroke-miterlimit="10"/>
<path d="M454.226 71.7909L492.794 115.079" stroke="black" stroke-width="1.72156" stroke-miterlimit="10"/>
<path d="M267.793 278.375C284.104 278.678 300.345 281.253 314.484 289.845C321.275 293.971 325.058 299.49 326.929 307.152C328.509 313.62 329.02 320.537 328.438 327.173C328.383 327.803 327.896 328.383 327.354 328.513C326.588 328.699 325.047 327.935 325.047 327.935C325.047 327.935 326.438 334.513 324.965 335.882C323.939 336.835 322.003 335.539 321.275 334.746C320.426 333.822 319.268 331.46 319.268 331.46C319.268 331.46 320.24 335.235 319.419 335.885C318.201 336.849 314.677 334.405 313.844 331.932C313.331 333.336 312.495 334.639 311.199 334.295C307.123 333.212 303.933 327.446 300.579 324.587C296.121 320.787 290.141 320.529 284.58 320.613C282.021 320.651 279.455 320.715 276.902 320.462C274.288 320.202 271.933 319.176 269.382 318.659C264.635 317.699 259.683 317.26 254.867 316.98" fill="#E27769"/>
<path d="M297.912 312.348C302.389 314.208 307.133 316.281 309.652 320.117C310.406 321.265 310.924 322.525 311.387 323.792C312.362 326.463 313.105 329.198 313.847 331.93" stroke="black" stroke-width="1.72156" stroke-miterlimit="10"/>
<path d="M304.336 304.258C306.882 305.876 309.377 307.603 311.536 309.709C313.694 311.816 315.513 314.326 316.496 317.176C317.057 318.806 317.338 320.517 317.62 322.217C318.2 325.72 318.801 329.219 319.419 332.715" stroke="black" stroke-width="1.72156" stroke-miterlimit="10"/>
<path d="M313.077 298.699C317.316 301.859 320.637 306.239 322.532 311.176C324.208 315.541 324.768 320.241 325.315 324.887C325.489 326.358 325.661 327.83 325.835 329.302" stroke="black" stroke-width="1.72156" stroke-miterlimit="10"/>
<path d="M249.832 162.817C249.832 162.817 216.077 167.81 203.123 175.251C182.872 186.884 173.97 204.64 161.064 234.751C148.159 264.862 142.924 278.075 142.799 288.051C142.613 302.738 149.224 318.131 176.238 318.131C224.361 318.131 262.39 318.131 262.39 318.131L279.772 277.528L212.735 267.039L231.234 223.728" fill="#735D9D"/>
<path d="M279.77 277.528L212.732 267.039L231.232 223.728" stroke="black" stroke-width="1.72156" stroke-miterlimit="10"/>
<path d="M188.925 273.235C189.441 273.235 199.644 266.877 212.734 267.039" stroke="black" stroke-width="1.72156" stroke-miterlimit="10"/>
<path d="M261.277 274.634L242.888 318.131" stroke="black" stroke-width="1.72156" stroke-miterlimit="10"/>
<path d="M302.169 173.158C303.055 168.577 303.024 163.689 302.289 158.777" stroke="black" stroke-width="1.72156" stroke-miterlimit="10"/>
<path d="M230.729 172.001C234.448 181.288 242.675 188.989 251.663 192.929C262.98 197.888 278.33 198.805 289.146 192.182C294.184 189.096 297.651 185.039 299.836 180.405" stroke="black" stroke-width="1.72156" stroke-miterlimit="10"/>
<path d="M421.119 189.412C441.273 179.146 459.7 165.502 475.399 149.219" stroke="black" stroke-width="1.72156" stroke-miterlimit="10"/>
<path d="M458.71 179.671C468.48 172.104 477.64 163.751 486.074 154.72" stroke="black" stroke-width="1.72156" stroke-miterlimit="10"/>
<path d="M135.485 262.719C131.221 276.622 129.682 291.356 130.984 305.84" stroke="black" stroke-width="1.72156" stroke-miterlimit="10"/>
<path d="M122.026 264.793C119.336 272.595 117.797 280.795 117.479 289.043" stroke="black" stroke-width="1.72156" stroke-miterlimit="10"/>
<path d="M261.127 121.306L242.667 133.678L246.652 146.873L241.101 166.763C240.746 168.032 240.961 169.381 241.695 170.474C244.71 174.965 254.068 186.123 272.616 186.106C292.22 186.087 291.945 173.084 291.945 173.084L295.515 145.386" fill="#E27769"/>
<path d="M298.26 119.657C293.184 110.199 290.284 104.347 284.951 97.8256C280.437 92.304 272.937 84.5019 265.867 82.9476C256.763 80.9424 248.197 87.5105 240.443 92.3058C227.711 100.179 227.933 117.127 232.233 129.752C235.536 139.451 242.365 143.152 250.982 149.066C262.242 156.794 286.717 160.29 297.225 151.821C305.086 145.489 303.635 129.675 298.26 119.657Z" fill="#E27769"/>
<path d="M271.05 118.825C271.653 120.291 271.233 121.852 270.11 122.314C268.99 122.775 267.592 121.961 266.99 120.494C266.387 119.029 266.807 117.467 267.93 117.005C269.05 116.544 270.448 117.358 271.05 118.825Z" fill="black"/>
<path d="M289.126 108.866C289.728 110.33 289.308 111.893 288.188 112.354C287.067 112.816 285.669 112 285.067 110.535C284.465 109.069 284.885 107.507 286.007 107.046C287.126 106.585 288.523 107.399 289.126 108.866Z" fill="black"/>
<path d="M279.445 115.236C281.469 117.04 283.908 118.253 286.351 119.38C287.864 120.079 292.909 121.423 291.783 123.878C291.06 125.454 288.11 127.945 288.11 127.945" stroke="black" stroke-width="1.72156" stroke-miterlimit="10"/>
<path d="M242.51 161.712C242.51 161.712 244.815 155.815 245.376 153.706C246.321 150.145 243.324 149.963 242.291 146.827C241.753 145.193 242.195 143.191 242.558 141.574C243.336 138.102 245.124 134.203 243.522 130.699C242.508 128.48 240.329 127.074 238.586 125.368C236.84 123.663 235.42 121.062 236.465 118.857C237.701 116.248 241.352 116.053 243.591 114.23C245.828 112.409 246.352 109.198 246.198 106.316C246.045 103.435 245.381 100.533 245.885 97.6932C245.976 97.182 246.118 96.6519 246.479 96.2784C247.572 95.1458 249.395 96.2422 250.767 97.0133C253.233 98.4006 256.216 98.2285 258.796 97.1837C260.104 96.6536 261.304 95.6828 261.775 94.3523C262.068 93.5313 262.064 92.638 262.207 91.7774C262.35 90.9168 262.689 90.0149 263.433 89.5588C263.973 89.2283 264.641 89.187 265.273 89.2146C267.264 89.3041 269.225 90.0011 270.825 91.1922C272.166 92.1905 272.918 92.9134 274.609 92.8497C276.232 92.7878 277.793 92.2507 279.414 92.7224C281.369 93.2921 282.676 95.0839 283.829 96.762C287.003 101.382 290.177 106.001 293.351 110.621C294.938 108.33 296.549 105.989 297.33 103.315C298.11 100.64 297.929 97.5262 296.174 95.3627C294.482 93.2783 291.593 92.3437 290.156 90.0752C288.568 87.5691 288.814 83.9477 288.642 81.1094C288.454 78.0112 287.5 74.8838 285.731 72.2676C284.018 69.7357 281.141 67.7684 278.092 68.0007C276.328 68.135 274.65 68.9818 272.882 68.9285C271.789 68.8957 270.738 68.5206 269.734 68.0885C265.085 66.0937 261.056 62.8561 256.424 60.8233C251.792 58.7906 245.982 58.1727 241.985 61.2743C239.935 62.8647 238.575 65.2743 236.345 66.5979C229.912 70.4156 220.683 63.2244 214.554 67.5085C210.599 70.2727 210.477 76.2591 207.146 79.7514C202.888 84.2162 195.142 83.0423 190.311 86.8789C185.437 90.7499 185.418 98.4677 188.342 103.964C189.788 106.68 191.893 109.477 191.27 112.489C190.881 114.365 189.495 115.843 188.318 117.356C186.636 119.521 185.268 122.021 184.932 124.742C184.597 127.463 185.431 130.425 187.528 132.191C188.831 133.289 190.815 133.809 191.802 135.231C192.912 136.832 193.223 139.701 193.442 141.587C193.635 143.245 193.655 144.938 194.156 146.531C195.525 150.877 200.322 153.465 204.878 153.467C206.979 153.467 209.286 153.073 211.014 154.267C212.446 155.255 213.029 157.044 213.897 158.551C216.719 163.453 223.587 165.514 228.642 162.975C230.542 162.021 232.298 160.489 234.424 160.457C236.536 160.428 240.51 162.059 242.51 161.712Z" fill="#2C221D"/>
<path d="M272.196 156.281C277.887 157.699 288.668 157.997 296.84 152.833" stroke="black" stroke-width="1.72156" stroke-miterlimit="10"/>
<path d="M256.809 118.382C256.791 112.675 260.561 107.201 266.716 108.28" stroke="black" stroke-width="1.72156" stroke-miterlimit="10"/>
<path d="M278.024 104.163C277.831 102.537 279.053 100.635 280.893 99.7003C282.733 98.7656 285.021 98.9067 286.306 99.955" stroke="black" stroke-width="1.72156" stroke-miterlimit="10"/>
<path d="M252.488 134.876C249.234 130.893 241.283 132 238.7 136.107C232.491 145.981 247.531 159.174 256.723 154.365C259.323 153.006 261.883 149.555 260.671 146.353" fill="#E27769"/>
<path d="M243.481 143.5L256.18 144.407" stroke="black" stroke-width="1.72156" stroke-miterlimit="10"/>
<path d="M244.764 132.875C247.425 132.544 250.203 133.069 252.619 134.356" stroke="black" stroke-width="1.72156" stroke-miterlimit="10"/>
<path d="M243.761 152.744C247.468 155.181 252.487 156.901 256.553 154.675C259.374 153.131 261.377 149.794 260.369 146.401" stroke="black" stroke-width="1.72156" stroke-miterlimit="10"/>
<path d="M281.425 128.883C280.606 131.94 281.618 135.957 285.126 136.589C287.756 137.064 290.603 135.444 291.453 132.899" stroke="black" stroke-width="1.72156" stroke-miterlimit="10"/>
<defs>
<filter id="filter0_i_1005_920" x="0" y="10.3301" width="456.618" height="315.768" filterUnits="userSpaceOnUse" color-interpolation-filters="sRGB">
<feFlood flood-opacity="0" result="BackgroundImageFix"/>
<feBlend mode="normal" in="SourceGraphic" in2="BackgroundImageFix" result="shape"/>
<feColorMatrix in="SourceAlpha" type="matrix" values="0 0 0 0 0 0 0 0 0 0 0 0 0 0 0 0 0 0 127 0" result="hardAlpha"/>
<feOffset dy="5.36502"/>
<feGaussianBlur stdDeviation="2.68251"/>
<feComposite in2="hardAlpha" operator="arithmetic" k2="-1" k3="1"/>
<feColorMatrix type="matrix" values="0 0 0 0 0 0 0 0 0 0 0 0 0 0 0 0 0 0 0.25 0"/>
<feBlend mode="normal" in2="shape" result="effect1_innerShadow_1005_920"/>
</filter>
<filter id="filter1_i_1005_920" x="63.75" y="22.6278" width="17.5947" height="22.9613" filterUnits="userSpaceOnUse" color-interpolation-filters="sRGB">
<feFlood flood-opacity="0" result="BackgroundImageFix"/>
<feBlend mode="normal" in="SourceGraphic" in2="BackgroundImageFix" result="shape"/>
<feColorMatrix in="SourceAlpha" type="matrix" values="0 0 0 0 0 0 0 0 0 0 0 0 0 0 0 0 0 0 127 0" result="hardAlpha"/>
<feOffset dy="5.36502"/>
<feGaussianBlur stdDeviation="2.68251"/>
<feComposite in2="hardAlpha" operator="arithmetic" k2="-1" k3="1"/>
<feColorMatrix type="matrix" values="0 0 0 0 0 0 0 0 0 0 0 0 0 0 0 0 0 0 0.25 0"/>
<feBlend mode="normal" in2="shape" result="effect1_innerShadow_1005_920"/>
</filter>
<filter id="filter2_i_1005_920" x="92.8477" y="22.6278" width="17.5947" height="22.9596" filterUnits="userSpaceOnUse" color-interpolation-filters="sRGB">
<feFlood flood-opacity="0" result="BackgroundImageFix"/>
<feBlend mode="normal" in="SourceGraphic" in2="BackgroundImageFix" result="shape"/>
<feColorMatrix in="SourceAlpha" type="matrix" values="0 0 0 0 0 0 0 0 0 0 0 0 0 0 0 0 0 0 127 0" result="hardAlpha"/>
<feOffset dy="5.36502"/>
<feGaussianBlur stdDeviation="2.68251"/>
<feComposite in2="hardAlpha" operator="arithmetic" k2="-1" k3="1"/>
<feColorMatrix type="matrix" values="0 0 0 0 0 0 0 0 0 0 0 0 0 0 0 0 0 0 0.25 0"/>
<feBlend mode="normal" in2="shape" result="effect1_innerShadow_1005_920"/>
</filter>
</defs>
</svg>
