<svg width="347" height="223" viewBox="0 0 347 223" fill="none" xmlns="http://www.w3.org/2000/svg">
<path d="M113.233 99.7595C109.867 99.7595 106.715 99.4988 103.776 98.9774C100.884 98.5033 98.3246 97.6738 96.0967 96.4887C93.9162 95.2563 92.186 93.5735 90.9061 91.4404C89.6737 89.2599 89.0575 86.5342 89.0575 83.2635C89.0575 83.1687 89.0575 83.0501 89.0575 82.9079C89.0575 82.7183 89.0812 82.5287 89.1286 82.3391H103.989C103.942 82.5287 103.918 82.7183 103.918 82.9079C103.918 83.0501 103.918 83.1924 103.918 83.3346C103.918 84.7566 104.25 85.8469 104.914 86.6053C105.577 87.3638 106.502 87.8852 107.687 88.1696C108.919 88.4066 110.294 88.5251 111.811 88.5251C112.379 88.5251 112.972 88.5251 113.588 88.5251C114.252 88.4777 114.868 88.4066 115.437 88.3118C116.053 88.1696 116.598 87.98 117.072 87.743C117.594 87.506 117.997 87.1979 118.281 86.8186C118.565 86.392 118.708 85.8706 118.708 85.2544C118.708 84.3537 118.305 83.6427 117.499 83.1213C116.693 82.5998 115.603 82.1495 114.228 81.7703C112.853 81.3911 111.313 81.0355 109.606 80.7037C107.9 80.3719 106.122 79.9927 104.274 79.5661C102.425 79.092 100.647 78.4995 98.9409 77.7885C97.2344 77.0774 95.6938 76.1768 94.3191 75.0865C92.9445 73.9489 91.8542 72.5505 91.0484 70.8914C90.2425 69.1849 89.8396 67.1466 89.8396 64.7765C89.8396 61.9324 90.4321 59.5149 91.6172 57.524C92.8022 55.5331 94.4139 53.9214 96.4522 52.6889C98.5379 51.4564 100.884 50.5558 103.491 49.987C106.146 49.4181 108.919 49.1337 111.811 49.1337C114.75 49.1337 117.499 49.4418 120.059 50.0581C122.666 50.6269 124.965 51.5276 126.956 52.76C128.947 53.9925 130.511 55.5568 131.649 57.4529C132.786 59.3489 133.379 61.6006 133.426 64.2077V65.0609H118.708V64.7765C118.708 63.9233 118.494 63.1174 118.068 62.359C117.641 61.6006 116.954 60.9843 116.006 60.5103C115.105 60.0363 113.896 59.7993 112.379 59.7993C110.957 59.7993 109.749 59.9415 108.753 60.2259C107.805 60.5103 107.094 60.9132 106.62 61.4347C106.146 61.9087 105.909 62.4301 105.909 62.9989C105.909 63.8996 106.312 64.6343 107.118 65.2031C107.924 65.772 109.014 66.246 110.389 66.6252C111.763 67.0044 113.304 67.36 115.01 67.6918C116.717 68.0236 118.494 68.4028 120.343 68.8294C122.192 69.2086 123.969 69.7301 125.676 70.3937C127.382 71.0573 128.923 71.9343 130.298 73.0245C131.672 74.0674 132.762 75.371 133.568 76.9352C134.374 78.4995 134.777 80.4193 134.777 82.6946C134.777 86.7238 133.829 89.9946 131.933 92.5069C130.084 95.0193 127.525 96.8679 124.254 98.053C121.03 99.1907 117.357 99.7595 113.233 99.7595Z" fill="#DC7B2C"/>
<path d="M142.576 98.9062V49.987H163.765C169.358 49.987 174.051 50.8639 177.843 52.6178C181.635 54.3717 184.503 57.0499 186.447 60.6525C188.438 64.2551 189.433 68.8531 189.433 74.4466C189.433 79.9927 188.438 84.5907 186.447 88.2407C184.503 91.8433 181.635 94.5215 177.843 96.2754C174.051 98.0293 169.358 98.9062 163.765 98.9062H142.576ZM158.29 87.1742H163.48C165.187 87.1742 166.656 86.9371 167.889 86.4631C169.168 85.9891 170.211 85.3018 171.017 84.4011C171.823 83.5005 172.415 82.3865 172.795 81.0592C173.174 79.732 173.364 78.2388 173.364 76.5797V72.3135C173.364 70.6544 173.174 69.1612 172.795 67.834C172.415 66.5067 171.823 65.3928 171.017 64.4921C170.211 63.5915 169.168 62.9041 167.889 62.4301C166.656 61.9561 165.187 61.7191 163.48 61.7191H158.29V87.1742Z" fill="#6C91C2"/>
<path d="M197.917 98.9062V49.987H219.106C224.699 49.987 229.392 50.8639 233.184 52.6178C236.977 54.3717 239.844 57.0499 241.788 60.6525C243.779 64.2551 244.774 68.8531 244.774 74.4466C244.774 79.9927 243.779 84.5907 241.788 88.2407C239.844 91.8433 236.977 94.5215 233.184 96.2754C229.392 98.0293 224.699 98.9062 219.106 98.9062H197.917ZM213.631 87.1742H218.822C220.528 87.1742 221.997 86.9371 223.23 86.4631C224.51 85.9891 225.553 85.3018 226.358 84.4011C227.164 83.5005 227.757 82.3865 228.136 81.0592C228.515 79.732 228.705 78.2388 228.705 76.5797V72.3135C228.705 70.6544 228.515 69.1612 228.136 67.834C227.757 66.5067 227.164 65.3928 226.358 64.4921C225.553 63.5915 224.51 62.9041 223.23 62.4301C221.997 61.9561 220.528 61.7191 218.822 61.7191H213.631V87.1742Z" fill="#002366"/>
<path d="M134.431 129.786V110.27H140.7V117.39H147.593V110.27H153.862V129.786H147.593V122.382H140.7V129.786H134.431ZM167.79 130.126C165.747 130.126 163.998 129.823 162.542 129.218C161.105 128.594 159.999 127.677 159.223 126.467C158.448 125.238 158.06 123.725 158.06 121.928V110.27H164.329V121.843C164.329 122.883 164.613 123.744 165.18 124.425C165.747 125.105 166.608 125.446 167.761 125.446C168.915 125.446 169.775 125.105 170.343 124.425C170.929 123.744 171.222 122.883 171.222 121.843V110.27H177.491V121.928C177.491 123.725 177.103 125.238 176.328 126.467C175.571 127.677 174.465 128.594 173.009 129.218C171.572 129.823 169.832 130.126 167.79 130.126ZM181.689 129.786V110.27H194.681C195.664 110.27 196.562 110.478 197.375 110.894C198.189 111.291 198.841 111.849 199.333 112.568C199.824 113.286 200.07 114.118 200.07 115.064C200.07 116.009 199.919 116.785 199.616 117.39C199.314 117.995 198.917 118.477 198.425 118.836C197.933 119.177 197.394 119.432 196.808 119.602V119.716C197.489 119.867 198.103 120.132 198.652 120.51C199.219 120.869 199.673 121.38 200.013 122.042C200.354 122.704 200.524 123.555 200.524 124.595C200.524 125.635 200.269 126.542 199.758 127.318C199.248 128.093 198.567 128.698 197.716 129.133C196.865 129.568 195.91 129.786 194.851 129.786H181.689ZM187.958 125.247H192.723C193.158 125.247 193.508 125.096 193.773 124.793C194.038 124.491 194.17 124.037 194.17 123.432C194.17 123.148 194.104 122.893 193.972 122.666C193.858 122.42 193.688 122.231 193.461 122.099C193.253 121.966 193.007 121.9 192.723 121.9H187.958V125.247ZM187.958 117.872H192.27C192.572 117.872 192.827 117.806 193.035 117.673C193.243 117.522 193.404 117.314 193.518 117.049C193.65 116.785 193.716 116.454 193.716 116.057C193.716 115.641 193.574 115.291 193.291 115.007C193.007 114.704 192.667 114.553 192.27 114.553H187.958V117.872Z" fill="#F8F9FA"/>
<path d="M92.0867 38.3701C66.5866 7.40634 4.29755 84.2065 31.1146 24.7522M31.1146 24.7522L21.5866 29.3798M31.1146 24.7522L36.0866 31.245" stroke="#6C91C2" stroke-width="4" stroke-linecap="round"/>
<path d="M259.086 93.4759C291.086 88.4762 321.353 58.5256 299.925 36.4029C285.296 21.2989 270.441 41.332 287.087 57.2367C303.734 73.1415 338.934 55.4019 321.435 13.8903M321.435 13.8903L316.808 21.737M321.435 13.8903L331.726 20.3296" stroke="#6C91C2" stroke-width="2.93581" stroke-linecap="round"/>
<path d="M69.586 87.9768C29.5865 77.9765 27.0858 82.9763 36.8783 160.175M36.8783 160.175L46.5858 149.976M36.8783 160.175L25.5858 149.976" stroke="#6C91C2" stroke-width="4" stroke-linecap="round"/>
<path d="M197.385 153.977C210.477 179.664 137.536 236.713 197.385 209.742M188.623 206.289L199.513 207.987L194.689 218.826" stroke="#6C91C2" stroke-width="4" stroke-linecap="round"/>
</svg>
