<svg width="732" height="1231" viewBox="0 0 732 1231" fill="none" xmlns="http://www.w3.org/2000/svg">
<path d="M127.923 564.11C86.1327 596.888 120.481 697.446 136.761 762.657C144.785 794.801 153.346 827.363 155.495 860.905C157.098 885.942 156.553 911.121 157.445 936.214C158.373 962.302 159.901 988.411 163.647 1014.16C169.958 1057.55 181.813 1133.15 233.327 1131.25C253.955 1130.49 273.446 1115.67 293.911 1118.34C320.139 1121.77 339.086 1150.54 356.743 1169.66C381.115 1196.05 408.439 1220.07 444.362 1217.81C473.338 1215.99 499.752 1196.23 518.617 1171.14C537.482 1146.06 549.958 1115.86 562.272 1086.1C581.028 1040.78 602.207 1002.73 634.486 967.997C653.186 947.875 671.794 926.383 681.753 899.556C695.134 863.507 687.61 816.262 653.967 799.533C635.625 790.414 613.897 786.982 597.509 773.469C580.627 759.551 567.285 731.37 571.395 707.342C578.089 668.208 604.806 654.209 633.045 636.869C646.835 628.4 659.664 618.162 668.462 603.185C683.552 577.495 679.59 550.829 675.488 522.698C671.057 492.303 667.794 461.661 666.151 430.87C663.367 378.632 668.572 326.493 677.076 275.031C685.153 226.164 717.56 156.296 680.78 113.718C664.666 95.0629 641.517 90.3034 619.405 95.6311C587.72 103.265 552.038 121.396 519.69 118.621C471.934 114.524 441.366 88.5465 405.543 56.8756C388.39 41.7089 369.075 29.7052 346.654 29.0444C295.069 27.5218 253.602 61.8636 216.088 97.9682C178.657 133.994 161.283 145.776 127.845 182.46" stroke="#6C91C2" stroke-width="2.15683" stroke-miterlimit="10"/>
<path d="M126.712 183.319C103.329 208.276 138.816 246.423 125.786 264.572C91.5059 310.725 106.134 340.195 118.448 362.912C127.9 380.35 151.821 389.633 131.142 400.815C115.974 410.126 152.93 426.051 161.311 448.936C165.396 460.09 166.167 472.16 167.805 483.948C169.443 495.735 172.188 507.844 179.442 517.188C186.695 526.533 199.537 532.314 210.492 528.045C219.097 524.692 224.875 515.628 225.625 506.303C226.376 496.98 222.584 487.653 216.549 480.597C174.209 431.092 145.499 548.095 126.701 565.024" stroke="#6C91C2" stroke-width="2.15683" stroke-miterlimit="10"/>
<path d="M644.424 716.623C637.011 714.903 629.54 720.391 627.735 728.879C625.931 737.368 630.477 745.643 637.889 747.362C645.302 749.081 652.773 743.594 654.578 735.105C656.382 726.617 651.836 718.342 644.424 716.623Z" stroke="#909DF4" stroke-width="2.15683" stroke-miterlimit="10"/>
<path d="M108.275 662.991C108.655 655.749 103.415 649.588 96.5721 649.23C89.7292 648.871 83.8742 654.451 83.4948 661.692C83.1153 668.933 88.3549 675.094 95.1978 675.453C102.041 675.811 107.896 670.232 108.275 662.991Z" stroke="#8F96DB" stroke-width="2.15683" stroke-miterlimit="10"/>
<path d="M595.655 220.688L650.209 214.832L628.222 179.428L595.655 220.688Z" fill="#FFDD99"/>
<path d="M440.317 1139.45L416.769 1115.05L416.038 1154.59L440.317 1139.45Z" stroke="#8F96DB" stroke-width="2.15683" stroke-miterlimit="10"/>
<path d="M656.683 881.149C656.954 875.982 653.215 871.587 648.333 871.331C643.45 871.075 639.273 875.056 639.002 880.222C638.731 885.389 642.47 889.785 647.352 890.041C652.235 890.297 656.412 886.316 656.683 881.149Z" fill="#FFDD99"/>
<path d="M256.572 1040.39L301.768 1065.32L295.951 996.098L256.572 1040.39Z" fill="#ED725A"/>
<path d="M334.72 1082.46C337.684 1082.62 339.952 1085.28 339.788 1088.42C339.624 1091.56 337.089 1093.97 334.125 1093.82C331.162 1093.66 328.893 1090.99 329.057 1087.86C329.222 1084.72 331.757 1082.31 334.72 1082.46Z" fill="#909DF4"/>
<path d="M119.797 272.481C122.761 272.637 125.029 275.304 124.865 278.44C124.701 281.576 122.166 283.992 119.202 283.836C116.239 283.681 113.97 281.014 114.134 277.878C114.299 274.742 116.834 272.326 119.797 272.481Z" fill="#ED725A"/>
<path d="M593.754 192.62C592.334 188.3 592.939 182.843 595.571 179.138C597.894 175.867 602.022 174.31 603.494 170.298C605.652 164.412 600.667 158.859 600.608 153.071C600.558 148.065 603.964 144.209 608.182 142.475C611.792 140.989 615.749 140.877 619.614 140.782" stroke="#8F96DB" stroke-width="2.15683" stroke-miterlimit="10"/>
<path d="M355.822 106.947C351.055 104.617 347.947 98.9727 348.372 93.4199C348.588 90.5947 349.626 87.7721 349.099 84.9973C347.461 76.3644 333.397 76.3387 331.409 67.7898C330.032 61.8646 335.707 55.7992 333.981 49.9795C332.495 44.973 326.709 43.4618 322.054 41.657C309.468 36.7786 300.089 23.7977 298.926 9.65061" stroke="#8F96DB" stroke-width="2.15683" stroke-miterlimit="10"/>
<path d="M346.745 186.798C352.503 187.099 356.889 192.707 356.542 199.324C356.195 205.941 351.247 211.059 345.49 210.757C339.732 210.456 335.347 204.847 335.693 198.231C336.04 191.615 340.988 186.496 346.745 186.798Z" stroke="#ED725A" stroke-width="2.15683" stroke-miterlimit="10"/>
<g filter="url(#filter0_i_765_656)">
<rect x="12.1504" y="62.8135" width="234.752" height="22.1869" rx="7.15707" fill="#F8F9FA"/>
<path d="M240.001 63.4756C243.184 63.4756 245.762 66.0552 245.762 69.2364V183.133C245.762 186.315 243.183 188.894 240.001 188.894H18.9435C15.7613 188.894 13.1827 186.314 13.1827 183.133V69.2364C13.1827 66.0552 15.7622 63.4756 18.9435 63.4756H240.001ZM240.001 62.0977H18.9435C15.0071 62.0977 11.8047 65.3 11.8047 69.2364V183.133C11.8047 187.069 15.0071 190.271 18.9435 190.271H240.001C243.938 190.271 247.14 187.069 247.14 183.133V69.2364C247.141 65.3 243.938 62.0977 240.001 62.0977Z" fill="#F8F9FA"/>
<path d="M240.001 188.893H18.9434C15.7612 188.893 13.1826 186.314 13.1826 183.133V78.838H245.763V183.133C245.763 186.315 243.184 188.893 240.001 188.893Z" fill="#AFB9E8"/>
<g filter="url(#filter1_i_765_656)">
<path d="M26.7112 71.6067C26.7112 73.4275 25.235 74.9037 23.4142 74.9037C21.5935 74.9037 20.1172 73.4275 20.1172 71.6067C20.1172 69.786 21.5935 68.3097 23.4142 68.3097C25.235 68.3097 26.7112 69.786 26.7112 71.6067Z" stroke="#F8F9FA" stroke-width="1.37797" stroke-miterlimit="10"/>
</g>
<g filter="url(#filter2_i_765_656)">
<path d="M39.4915 71.6067C39.4915 73.4275 38.0152 74.9037 36.1945 74.9037C34.3737 74.9037 32.8975 73.4275 32.8975 71.6067C32.8975 69.786 34.3737 68.3097 36.1945 68.3097C38.0152 68.3097 39.4915 69.786 39.4915 71.6067Z" stroke="#F8F9FA" stroke-width="1.37797" stroke-miterlimit="10"/>
</g>
<path d="M13.1826 78.838H245.763" stroke="#F8F9FA" stroke-width="1.37797" stroke-miterlimit="10"/>
<path d="M227.065 172.919C224.726 169.818 220.734 166.965 217.618 169.1C215.004 170.891 214.906 174.936 215.109 178.298C207.696 167.804 198.875 158.495 189.015 150.76C183.672 146.569 177.532 142.695 170.969 143.201C164.407 143.706 161.002 152.915 162.727 159.845C144.808 136.117 124.824 119.287 104.012 104.723C96.9093 99.7535 89.0273 94.9609 80.6006 92.1278C71.6374 89.1137 59.2559 85.5816 51.1571 92.5798C47.6874 95.5782 45.8795 100.153 45.3871 104.712C44.7781 110.356 45.7325 116.315 47.2703 121.752C50.9486 134.759 56.8481 147.023 63.6911 158.576C70.5368 170.133 85.5943 189.111 85.5943 189.111H234.191C233.053 183.194 230.586 177.587 227.065 172.919Z" fill="#909DF4"/>
</g>
<path d="M148.922 165.864C148.922 165.864 120.394 141.122 108.158 136.926C95.9212 132.731 70.7779 139.47 70.4628 139.47C70.1468 139.47 47.9551 188.897 47.9551 188.897H138.971L148.922 165.864Z" fill="#DC7B2C"/>
<path d="M203.118 233.038C205.199 235.209 207.361 237.3 209.599 239.309C211.758 241.248 214.123 242.977 216.228 244.96C216.747 245.45 217.221 245.985 217.693 246.52C219.415 248.467 221.151 250.436 222.405 252.713C222.572 253.016 222.735 253.331 222.986 253.569C223.237 253.807 223.602 253.957 223.934 253.858C224.278 253.755 224.497 253.42 224.643 253.091C225.249 251.726 225.099 250.142 224.727 248.695C224.49 247.764 224.164 246.858 223.904 245.933C223.688 245.167 223.373 244.342 223.489 243.547C229.601 246.1 234.573 250.727 240.145 254.306C241.286 255.039 243.8 255.312 244.224 254.303C244.784 252.969 236.653 246.944 232.929 242.962C235.736 244.397 238.715 245.899 241.249 247.787C243.006 249.095 244.923 250.211 247.018 250.877C248.194 251.251 250.894 251.805 250.344 249.657C250.181 249.023 249.704 248.525 249.235 248.07C245.594 244.536 241.201 242.039 237.375 238.706C241.682 240.404 245.634 243.448 250.26 243.608C250.711 243.623 251.198 243.599 251.554 243.321C252.095 242.899 252.276 242.312 251.924 241.724C251.571 241.135 250.964 240.754 250.379 240.396C246.086 237.77 241.613 234.868 237.32 232.241C239.629 232.868 241.764 233.999 243.975 234.91C246.187 235.821 248.573 236.526 250.946 236.23C251.711 236.135 252.66 235.643 252.486 234.893C252.402 234.531 252.072 234.287 251.764 234.078C246.546 230.511 241.328 226.944 236.111 223.377C234.648 222.377 233.184 221.376 231.682 220.431C229.876 219.294 227.789 218.45 226.111 217.17C224.8 216.171 223.217 215.43 221.812 214.567C218.339 212.434 214.976 210.133 211.715 207.689" fill="#FFCAA3"/>
<path d="M223.606 243.528C221.963 242.805 220.295 242.14 218.605 241.533" stroke="black" stroke-width="0.918644" stroke-miterlimit="10"/>
<path d="M233.174 242.951C230.946 241.426 228.637 240.018 226.261 238.735" stroke="black" stroke-width="0.918644" stroke-miterlimit="10"/>
<path d="M237.386 238.618C235.555 237.458 233.725 236.297 231.895 235.137" stroke="black" stroke-width="0.918644" stroke-miterlimit="10"/>
<path d="M239.405 233.378C238.042 232.627 236.73 231.784 235.48 230.856" stroke="black" stroke-width="0.918644" stroke-miterlimit="10"/>
<path d="M114.728 137.696C125.997 141.239 131.652 141.562 141.733 147.817C152.446 154.463 178.948 182.388 178.948 182.388C178.948 182.388 214.71 207.601 228.113 217.135L204.036 240.084C177.406 224.164 150.071 205.158 129.883 181.596" fill="#DC7B2C"/>
<path d="M73.8369 184.104C73.8369 184.104 85.0131 178.109 89.9315 176.872C96.7442 175.159 104.825 174.675 106.991 175.334C108.005 175.643 111.822 177.211 113.819 179.547C115.94 180.475 116.802 180.94 118.061 181.47C119.321 182 119.912 183.483 121.232 184.613C122.55 185.742 123.998 188.89 123.998 188.89C123.998 188.89 113.94 188.924 111.115 189.017C108.29 189.111 105.239 194.505 98.9177 196.416" fill="#FFCAA3"/>
<path d="M96.8611 133.25C89.1077 133.188 81.5574 131.168 73.8196 131.163C59.7653 131.155 51.6987 138.528 44.8621 148.748C39.6856 156.486 34.8112 166.01 31.1431 174.506C26.8622 184.424 22.0669 195.468 20.8176 206.299C20.2462 211.253 20.9581 216.37 23.2483 220.773C27.486 228.919 36.9021 230.342 42.3947 230.952C47.8872 231.563 57.5119 229.707 62.2254 226.784C87.0352 211.4 103.439 195.983 103.439 195.983L76.7492 182.301L63.9451 187.311L80.1151 157.419" fill="#DC7B2C"/>
<path d="M78.8046 159.846L63.9482 187.313" stroke="black" stroke-width="0.918644" stroke-miterlimit="10"/>
<path d="M76.7528 182.303C69.0996 185.273 61.4454 188.242 53.7922 191.212C48.567 193.239 43.4446 197.251 39.2822 200.981" stroke="black" stroke-width="0.918644" stroke-miterlimit="10"/>
<path d="M67.582 186.034L95.2332 203.049" stroke="black" stroke-width="0.918644" stroke-miterlimit="10"/>
<path d="M141.907 172.721C138.246 178.773 133.177 188.891 133.177 188.891" stroke="black" stroke-width="0.918644" stroke-miterlimit="10"/>
<path d="M218.349 210.213L191.523 232.556" stroke="black" stroke-width="0.918644" stroke-miterlimit="10"/>
<path d="M112.784 182.412C114.729 182.928 116.708 183.319 118.703 183.581C119.319 183.662 119.962 183.739 120.483 184.076" stroke="black" stroke-width="0.918644" stroke-miterlimit="10"/>
<path d="M114.504 180.07C114.159 179.897 113.795 179.764 113.431 179.63C111.506 178.923 109.523 178.206 107.473 178.259" stroke="black" stroke-width="0.918644" stroke-miterlimit="10"/>
<path d="M108.254 190.138C109.295 189.388 110.581 189.048 111.856 188.916C114.503 188.641 117.337 189.212 119.878 188.216" stroke="black" stroke-width="0.918644" stroke-miterlimit="10"/>
<path d="M8.8252 208.219C9.2542 218.688 15.9346 228.661 25.4527 233.042" stroke="black" stroke-width="0.918644" stroke-miterlimit="10"/>
<path d="M1.41504 207.764C1.63184 214.595 4.45208 221.215 8.82482 225.155" stroke="black" stroke-width="0.918644" stroke-miterlimit="10"/>
<path d="M151.961 141.498C160.124 148.408 167.706 156.004 174.601 164.18" stroke="black" stroke-width="0.918644" stroke-miterlimit="10"/>
<path d="M152.142 133.307C157.834 137.534 163.052 142.401 167.664 147.787" stroke="black" stroke-width="0.918644" stroke-miterlimit="10"/>
<path d="M86.2302 147.183C81.9163 145.633 77.9193 143.328 73.9746 140.993C72.3018 140.003 70.6114 138.989 69.261 137.59C67.9106 136.191 66.9176 134.34 66.9562 132.396C66.992 130.604 67.8886 128.933 69.0029 127.53C72.4791 123.151 78.0975 120.879 83.6645 120.373C89.2314 119.868 94.8168 120.943 100.258 122.227C108.437 124.157 116.786 126.723 123.096 132.273C124.872 133.835 126.48 135.646 127.472 137.794C128.842 140.76 128.943 144.186 128.357 147.4C127.772 150.614 126.539 153.669 125.315 156.698" fill="#DC7B2C"/>
<path d="M108.354 114.871L97.3559 118.075L97.6022 123.604L92.0352 133.102C92.0352 133.102 105.195 138.199 110.143 148.592C115.532 149.393 117.69 145.024 117.69 145.024L122.989 132.327" fill="#FFCAA3"/>
<path d="M134.233 125.907C135.181 120.455 136.323 114.557 136.234 110.215C136.159 106.54 135.596 100.989 133.223 98.1101C130.167 94.4024 124.603 94.3427 119.933 93.8218C112.264 92.9675 106.964 99.9143 104.694 106.404C102.951 111.389 103.094 116.255 104.709 121.394C106.82 128.11 114.305 137.131 124.045 136.024C129.213 135.437 133.229 131.681 134.233 125.907Z" fill="#FFCAA3"/>
<path d="M124.821 113.994C124.728 114.805 124.149 115.405 123.528 115.333C122.907 115.261 122.48 114.546 122.573 113.734C122.667 112.923 123.247 112.323 123.867 112.394C124.488 112.466 124.915 113.182 124.821 113.994Z" fill="black"/>
<path d="M135.436 115.001C135.342 115.812 134.762 116.412 134.142 116.34C133.521 116.268 133.094 115.553 133.188 114.741C133.281 113.929 133.861 113.33 134.481 113.401C135.102 113.474 135.529 114.189 135.436 115.001Z" fill="black"/>
<path d="M130.727 113.203C130.491 115.082 130.685 116.991 130.689 118.876C130.691 120.043 130.733 122.098 129.217 122.362C128.223 122.536 126.058 121.943 126.058 121.943" stroke="black" stroke-width="0.918644" stroke-miterlimit="10"/>
<path d="M126.908 125.276L122.932 121.928C122.932 121.928 120.013 125.744 121.52 127.127C123.956 129.362 126.908 125.276 126.908 125.276Z" fill="#F8F9FA"/>
<path d="M133.363 99.2714C135.117 102.015 136.085 104.223 136.159 112.455C136.999 112.245 137.85 112.031 138.604 111.608C139.358 111.184 140.018 110.518 140.239 109.682C140.65 108.134 139.496 106.601 139.433 105C139.387 103.843 139.916 102.74 140.544 101.767C141.027 101.019 141.593 100.273 141.709 99.389C141.873 98.1442 141.093 96.961 140.163 96.1168C138.087 94.2326 135.304 93.4821 132.919 92.0995C131.764 91.4298 131.149 90.3835 130.076 89.5971C128.865 88.7088 127.569 87.9353 126.213 87.2886C123.085 85.7949 119.653 84.9883 116.194 84.8413C109.489 84.5547 102.866 87.058 98.1919 91.7413C92.0131 97.9338 89.5328 109.744 93.4095 116.583C95.5949 120.438 97.6012 123.605 97.6012 123.605C97.8493 123.999 103.196 119.2 103.524 118.547C103.855 117.886 103.98 117.145 104.183 116.433C104.875 114.006 107.287 113.599 109.355 112.842C112.371 111.737 113.88 109.052 114.464 106.022C114.8 104.28 114.85 102.496 114.898 100.723C114.888 101.12 117.325 101.976 117.69 102.089C121.286 103.198 125.349 103.393 128.999 102.411C130.076 102.122 131.225 101.751 132.076 101.015C132.309 100.814 133.751 99.6664 133.363 99.2714Z" fill="#1E1611"/>
<path d="M110.896 131.155C111.088 131.295 114.906 135.464 122.21 136.117" stroke="black" stroke-width="0.918644" stroke-miterlimit="10"/>
<path d="M118.388 108.222C119.037 106.95 120.337 106.031 121.755 105.845C123.171 105.66 124.664 106.212 125.62 107.274" stroke="black" stroke-width="0.918644" stroke-miterlimit="10"/>
<path d="M131.889 108.395C132.371 107.318 133.392 106.63 134.284 106.782C135.177 106.935 135.85 107.925 135.905 109.08" stroke="black" stroke-width="0.918644" stroke-miterlimit="10"/>
<path d="M128.643 116.083C127.714 118.845 124.776 120.312 122.082 119.36C119.387 118.409 117.956 115.397 118.885 112.636C119.813 109.874 122.751 108.407 125.446 109.359C128.14 110.311 129.571 113.322 128.643 116.083Z" stroke="#572A2F" stroke-width="0.918644" stroke-miterlimit="10"/>
<path d="M138.542 117.374C138.043 120.251 136.189 122.318 134.401 121.991C132.614 121.665 131.569 119.069 132.068 116.194C132.568 113.318 134.421 111.251 136.209 111.577C137.998 111.903 139.042 114.498 138.542 117.374Z" stroke="#572A2F" stroke-width="0.918644" stroke-miterlimit="10"/>
<path d="M132.542 114.669L128.911 113.989" stroke="#572A2F" stroke-width="0.918644" stroke-miterlimit="10"/>
<path d="M119.089 112.117L108.152 112.952" stroke="#572A2F" stroke-width="0.918644" stroke-miterlimit="10"/>
<path d="M111.282 114.923C111.228 112.271 107.65 110.193 105.297 111.038C99.6377 113.07 101.544 123.204 106.802 124.176C108.29 124.451 110.425 123.866 110.952 122.181" fill="#FFCAA3"/>
<path d="M104.887 115.557L109.75 119.963" stroke="black" stroke-width="0.918644" stroke-miterlimit="10"/>
<path d="M108.785 111.654C109.969 112.367 110.93 113.462 111.502 114.753" stroke="black" stroke-width="0.918644" stroke-miterlimit="10"/>
<path d="M102.06 119.396C102.789 121.563 104.278 123.857 106.635 124.248C108.271 124.519 110.145 123.802 110.815 122.105" stroke="black" stroke-width="0.918644" stroke-miterlimit="10"/>
<path d="M89.5723 104.477C89.6825 100.911 90.0739 97.3185 91.2341 93.9443C92.3943 90.5701 94.3713 87.4072 97.2237 85.264C98.8028 84.078 100.608 83.2292 102.434 82.4787C103.972 81.8467 105.543 81.2771 107.17 80.9308C113.265 79.6336 119.578 81.5619 125.287 84.0587" fill="#FFC36C"/>
<path d="M128.017 84.5475C126.512 83.097 124.565 82.1599 122.54 81.6409C121.333 81.3313 120.085 81.1632 118.841 81.2248C118.194 81.2569 117.551 81.3515 116.916 81.4765C112.498 82.3455 108.516 84.6632 104.687 87.0324C99.5735 90.1962 94.4695 93.6016 90.7196 98.3014C89.3655 99.9982 88.1676 101.956 88.0463 104.123C87.9793 105.324 88.2503 106.521 88.6434 107.658C89.3067 109.575 90.8656 112.31 92.171 113.863C103.416 103.344 116.047 95.0219 130.629 90.0777C130.553 87.9896 129.521 85.998 128.017 84.5475Z" fill="#FFC36C"/>
<path d="M90.3008 98.8458C90.3008 98.8458 99.794 85.6109 117.415 81.2125" stroke="black" stroke-width="0.918644" stroke-miterlimit="10"/>
<path d="M95.2324 100.342C96.6223 102.745 98.0471 105.191 100.117 107.042" stroke="black" stroke-width="0.918644" stroke-miterlimit="10"/>
<path d="M106.327 90.3909C107.767 93.4243 109.553 96.3042 111.644 98.9582" stroke="black" stroke-width="0.918644" stroke-miterlimit="10"/>
<path d="M118.093 84.0678C120.52 86.5693 122.595 89.4116 124.238 92.4863" stroke="black" stroke-width="0.918644" stroke-miterlimit="10"/>
<path d="M122.153 82.6366C124.239 85.2051 126.067 88.255 127.428 91.2296" stroke="black" stroke-width="0.918644" stroke-miterlimit="10"/>
<path d="M89.7129 101.823C90.3945 105.637 92.6259 108.869 95.4737 111.164" stroke="black" stroke-width="0.918644" stroke-miterlimit="10"/>
<path d="M83.2197 129.575C88.5947 131.583 94.0239 133.617 98.8064 136.787C103.59 139.956 108.433 144.41 110.142 149.888" stroke="black" stroke-width="0.918644" stroke-miterlimit="10"/>
<path d="M113.863 148.219C116.311 147.045 118.298 144.942 119.332 142.432" stroke="black" stroke-width="0.918644" stroke-miterlimit="10"/>
<path d="M66.9521 131.817C69.438 146.093 88.2702 143.362 97.0423 147.788" stroke="black" stroke-width="0.918644" stroke-miterlimit="10"/>
<path d="M128.679 142.189C128.335 144.149 127.657 146.104 126.357 147.611C124.402 149.873 121.363 150.81 118.491 151.642" stroke="black" stroke-width="0.918644" stroke-miterlimit="10"/>
<path d="M121.088 148.219C122.394 157.197 123.716 167.258 123.298 176.321" stroke="black" stroke-width="0.918644" stroke-miterlimit="10"/>
<path d="M101.133 146.157C102.495 149.888 101.855 160.003 101.707 169.128" stroke="black" stroke-width="0.918644" stroke-miterlimit="10"/>
<g filter="url(#filter3_i_765_656)">
<g filter="url(#filter4_i_765_656)">
<rect x="505.078" y="76.886" width="218.291" height="22.1869" rx="7.15707" fill="#F8F9FA"/>
</g>
<path d="M716.578 200.068H511.813C508.63 200.068 506.052 197.489 506.052 194.307V93.0857H722.339V194.307C722.339 197.489 719.76 200.068 716.578 200.068Z" fill="#D5D8BC"/>
<path d="M716.578 77.7232C719.761 77.7232 722.339 80.3028 722.339 83.4841V194.307C722.339 197.489 719.76 200.067 716.578 200.067H511.813C508.63 200.067 506.052 197.488 506.052 194.307V83.485C506.052 80.3028 508.631 77.7242 511.813 77.7242L716.578 77.7232ZM716.578 76.3453H511.813C507.876 76.3453 504.674 79.5477 504.674 83.4841V194.307C504.674 198.243 507.876 201.445 511.813 201.445H716.577C720.514 201.445 723.716 198.243 723.716 194.307V83.485C723.717 79.5486 720.515 76.3453 716.578 76.3453Z" fill="#F8F9FA"/>
<g filter="url(#filter5_i_765_656)">
<path d="M516.288 82.5581C518.109 82.5581 519.585 84.0344 519.585 85.8552C519.585 87.6759 518.109 89.1522 516.288 89.1522C514.467 89.1522 512.991 87.6759 512.991 85.8552C512.991 84.0344 514.467 82.5581 516.288 82.5581ZM516.288 81.1802C513.711 81.1802 511.613 83.2774 511.613 85.8552C511.613 88.4329 513.711 90.5301 516.288 90.5301C518.866 90.5301 520.963 88.4329 520.963 85.8552C520.963 83.2774 518.866 81.1802 516.288 81.1802Z" fill="#F8F9FA"/>
</g>
<g filter="url(#filter6_i_765_656)">
<path d="M529.064 82.5581C530.884 82.5581 532.361 84.0343 532.361 85.8551C532.361 87.6759 530.884 89.1521 529.064 89.1521C527.243 89.1521 525.767 87.6759 525.767 85.8551C525.767 84.0343 527.243 82.5581 529.064 82.5581ZM529.064 81.1801C526.486 81.1801 524.389 83.2774 524.389 85.8551C524.389 88.4328 526.486 90.5301 529.064 90.5301C531.641 90.5301 533.739 88.4328 533.739 85.8551C533.739 83.2774 531.641 81.1801 529.064 81.1801Z" fill="#F8F9FA"/>
</g>
<path d="M506.052 93.0857H722.339" stroke="#F8F9FA" stroke-width="1.37797" stroke-miterlimit="10"/>
<path d="M692.806 180.941C688.757 174.177 684.462 167.157 677.811 163.031C671.16 158.904 661.422 158.748 656.457 164.85C652.055 170.259 652.873 178.146 653.928 185.081C649.03 178.829 643.294 173.255 636.927 168.564C632.013 164.943 626.595 161.796 620.628 160.661C614.432 159.483 607.364 160.782 602.281 164.613C595.344 169.842 595.45 178.075 596.131 186.017C587.711 170.056 578.353 154.223 565.39 141.465C562.035 138.164 558.092 135.305 553.558 134.04C550.957 133.315 548.022 133.174 545.69 134.535C542.146 136.603 541.208 141.271 541.107 145.373C540.985 150.323 541.555 155.289 542.797 160.083C540.535 157.652 537.55 155.852 534.289 155.229C526.785 153.792 519.38 159.467 518.952 167.17C518.508 175.183 523.384 182.833 527.108 189.564C528.527 192.129 529.986 194.684 531.593 197.138C531.906 197.617 533.101 199.996 533.827 199.996C533.831 199.996 703.537 199.996 703.537 199.996C699.961 194.017 696.384 186.917 692.806 180.941Z" fill="#B5AE6B"/>
</g>
<mask id="mask0_765_656" style="mask-type:luminance" maskUnits="userSpaceOnUse" x="471" y="77" width="217" height="124">
<path d="M681.821 200.243H477.055C473.873 200.243 471.294 197.664 471.294 194.483V83.6601C471.294 80.4779 473.873 77.8992 477.055 77.8992H681.82C685.002 77.8992 687.58 80.4788 687.58 83.6601V194.483C687.581 197.664 685.002 200.243 681.821 200.243Z" fill="white"/>
</mask>
<g mask="url(#mask0_765_656)">
<path d="M672.899 192.657L616.138 83.8714L600.007 82.9224L587.341 93.2608L554.755 116.954L591.387 224.309L672.899 192.657Z" fill="#F8F9FA"/>
<path d="M566.253 115.387C569.42 118.027 573.832 119.101 577.858 118.215" stroke="black" stroke-width="0.918644" stroke-miterlimit="10"/>
<path d="M581.831 116.954C585.798 115.62 589.317 112.99 591.72 109.563C594.123 106.136 595.398 101.932 595.3 97.7474" stroke="black" stroke-width="0.918644" stroke-miterlimit="10"/>
<path d="M657.411 152.211C647.59 133.482 618.119 74.457 610.344 77.3636C601.422 80.6983 591.387 89.2968 591.387 89.2968C591.387 89.2968 596.194 104.683 596.561 106.142C597.897 111.462 599.272 116.771 600.687 122.07C604.209 135.263 607.347 148.65 611.697 161.601C616.115 174.756 621.009 187.756 626.287 200.589C628.403 205.733 630.102 211.762 634.128 215.789C636.41 218.114 639.605 219.735 642.851 219.449C645.093 219.252 647.152 218.187 649.146 217.144C657.916 212.55 682.361 201.597 682.361 201.597C682.361 201.597 669.797 175.834 657.411 152.211Z" fill="#13431D"/>
<path d="M607.337 224.197C604.95 215.503 600.864 207.503 597.838 199.052C593.88 187.996 590.362 176.787 586.278 165.775C580.048 148.978 571.213 125.75 564.45 109.16C564.45 109.16 552.051 116.273 549.55 117.997C547.05 119.722 547.593 123.826 547.593 123.826C557.462 160.631 587.353 244.222 587.353 244.222C590.891 242.351 599.668 237.421 603.207 235.551C607.871 233.087 608.678 229.081 607.337 224.197Z" fill="#13431D"/>
<path d="M552.012 116.45C563.475 134.06 572.399 148.399 584.346 165.684" stroke="black" stroke-width="0.918644" stroke-miterlimit="10"/>
<path d="M606.948 81.8089C609.327 105.169 610.776 128.623 611.295 152.098" stroke="black" stroke-width="0.918644" stroke-miterlimit="10"/>
</g>
<path d="M487.957 206.508C485.565 208.332 483.106 210.065 480.586 211.705C478.155 213.287 475.552 214.63 473.165 216.265C472.576 216.669 472.026 217.125 471.476 217.58C469.474 219.239 467.456 220.915 465.866 222.972C465.655 223.246 465.445 223.532 465.16 223.727C464.876 223.924 464.492 224.016 464.179 223.867C463.855 223.712 463.691 223.347 463.597 223C463.208 221.558 463.602 220.016 464.191 218.644C464.571 217.76 465.031 216.916 465.431 216.041C465.762 215.317 466.2 214.551 466.209 213.748C459.776 215.328 454.151 219.132 448.092 221.809C446.852 222.358 444.326 222.24 444.062 221.177C443.714 219.773 452.677 215.074 456.971 211.713C453.976 212.698 450.801 213.722 448.007 215.197C446.069 216.218 444.003 217.025 441.83 217.36C440.611 217.548 437.857 217.68 438.732 215.642C438.99 215.042 439.539 214.623 440.073 214.245C444.215 211.315 448.942 209.526 453.236 206.823C448.719 207.838 444.345 210.235 439.749 209.68C439.302 209.625 438.824 209.526 438.515 209.197C438.046 208.697 437.957 208.089 438.396 207.561C438.835 207.034 439.494 206.752 440.127 206.488C444.774 204.555 449.641 202.378 454.287 200.445C451.91 200.708 449.626 201.496 447.3 202.056C444.974 202.615 442.508 202.943 440.208 202.284C439.468 202.072 438.606 201.44 438.894 200.726C439.032 200.381 439.397 200.192 439.732 200.031C445.438 197.312 451.144 194.593 456.849 191.873C458.449 191.11 460.05 190.347 461.679 189.645C465.215 188.122 468.633 186.38 472.179 184.861C475.902 183.266 479.645 181.72 483.408 180.22" fill="#7A492B"/>
<path d="M466.098 213.712C467.832 213.251 469.583 212.852 471.346 212.514" stroke="black" stroke-width="0.918644" stroke-miterlimit="10"/>
<path d="M456.73 211.667C459.168 210.504 461.666 209.468 464.212 208.567" stroke="black" stroke-width="0.918644" stroke-miterlimit="10"/>
<path d="M453.234 206.735C455.221 205.872 457.209 205.007 459.196 204.144" stroke="black" stroke-width="0.918644" stroke-miterlimit="10"/>
<path d="M452.051 201.247C453.513 200.715 454.94 200.085 456.317 199.361" stroke="black" stroke-width="0.918644" stroke-miterlimit="10"/>
<path d="M549.549 117.997C545.301 120.826 541.1 123.987 538.405 126.918C534.082 131.62 508.668 162.422 508.668 162.422C508.668 162.422 482.636 178.121 467.716 186.792L484.029 213.369C484.029 213.369 514.275 202.495 529.7 191.659C543.721 181.81 570.564 149.537 570.564 149.537" fill="#13431D"/>
<path d="M560.183 162.427L552.007 137.001" stroke="black" stroke-width="0.918644" stroke-miterlimit="10"/>
<path d="M481.447 178.712L499.547 206.831" stroke="black" stroke-width="0.918644" stroke-miterlimit="10"/>
<path d="M479.224 205.539L494.239 198.587" stroke="black" stroke-width="0.918644" stroke-miterlimit="10"/>
<path d="M489.281 198.238C489.356 198.927 488.859 199.546 488.171 199.622C487.482 199.698 486.863 199.201 486.787 198.512C486.712 197.823 487.208 197.203 487.897 197.127C488.586 197.052 489.205 197.549 489.281 198.238Z" stroke="black" stroke-width="0.918644" stroke-miterlimit="10"/>
<path d="M481.944 201.56C482.637 201.56 483.199 200.999 483.199 200.306C483.199 199.612 482.637 199.051 481.944 199.051C481.251 199.051 480.689 199.612 480.689 200.306C480.689 200.999 481.251 201.56 481.944 201.56Z" stroke="black" stroke-width="0.918644" stroke-miterlimit="10"/>
<path d="M508.493 162.805C508.472 162.636 508.451 162.467 508.43 162.298C511.896 161.259 515.205 159.696 518.21 157.679" stroke="black" stroke-width="0.918644" stroke-miterlimit="10"/>
<path d="M520.738 132.84C525.658 126.922 531.68 121.924 538.404 118.18" stroke="black" stroke-width="0.918644" stroke-miterlimit="10"/>
<path d="M524.7 119.321C529.356 115.856 534.446 112.975 539.815 110.768" stroke="black" stroke-width="0.918644" stroke-miterlimit="10"/>
<path d="M574.492 70.9504L578.127 81.716L591.096 94.2628C591.096 94.2628 591.435 101.728 584.097 109.554C576.816 117.32 568.927 112.107 568.927 112.107L559.511 98.2626" fill="#7A492B"/>
<path d="M544.131 99.0097C542.64 94.23 540.758 83.9192 540.902 79.9929C541.025 76.6683 542.018 73.4154 544.209 70.845C547.028 67.5351 553.657 68.7211 557.89 68.3187C564.84 67.6582 569.183 75.8939 571.142 81.798C572.647 86.3334 573.363 91.0028 571.827 95.6291C569.328 103.151 561.305 110.754 552.815 108.697C548.204 107.579 545.576 103.642 544.131 99.0097Z" fill="#7A492B"/>
<path d="M581.057 69.6028C579.941 68.4122 578.408 67.478 577.912 65.9236C577.637 65.0619 577.21 62.4833 576.932 61.6234C575.38 56.8263 571.358 55.2205 566.786 56.0087C566.299 51.421 561.433 50.9782 557.436 50.9323C555.772 50.913 554.079 50.7504 552.588 49.9539C551.011 49.1115 549.582 47.9191 547.741 47.7437C546.099 47.5875 544.407 48.1286 543.043 49.0261C538.305 52.1412 536.952 58.1684 531.148 59.9883C529.314 60.5633 527.398 60.7333 525.815 61.9367C524.633 62.8342 523.754 64.1773 523.588 65.6526C523.351 67.7572 524.742 69.0378 526.178 70.3184C527.852 71.8121 528.829 73.7156 528.694 75.9883C528.612 77.3644 528.244 78.7047 528.023 80.0652C527.397 83.9391 528.634 87.6009 531.879 89.9462C532.563 90.4404 533.489 90.9034 535.994 91.4472C537.76 91.8303 542.34 91.1689 542.34 91.1689C542.34 91.1689 541.209 84.5794 541.231 82.0146C541.251 79.5747 541.995 77.301 543.422 75.3517C544.641 73.688 547.304 73.1028 549.288 73.1919C552.26 73.3251 555.098 74.9631 558.053 74.6167C559.28 74.4725 560.447 73.9553 561.41 73.1846C565.385 75.7577 569.498 79.5407 570.409 84.1532C570.455 84.3875 571.039 87.1186 570.833 87.1618C574.24 86.4452 578.533 86.1696 580.064 82.4491C580.593 81.1658 580.326 79.8163 580.726 78.5155C581.057 77.4379 582.02 76.6515 582.47 75.6172C583.337 73.6154 582.547 71.1939 581.057 69.6028Z" fill="#33281B"/>
<path d="M566.893 83.5891C567.069 80.6246 571.162 78.4548 573.759 79.5029C580.003 82.0237 577.428 93.2808 571.501 94.1388C569.825 94.3813 567.461 93.6326 566.946 91.7246" fill="#7A492B"/>
<path d="M574.023 84.5787L568.388 89.2968" stroke="black" stroke-width="0.918644" stroke-miterlimit="10"/>
<path d="M569.829 80.0412C568.472 80.7871 567.35 81.9713 566.654 83.3906" stroke="black" stroke-width="0.918644" stroke-miterlimit="10"/>
<path d="M577.019 88.9983C576.109 91.3914 574.343 93.8937 571.688 94.2272C569.845 94.4587 567.78 93.575 567.104 91.6467" stroke="black" stroke-width="0.918644" stroke-miterlimit="10"/>
<path d="M564.803 106.039C564.803 106.039 567.835 104.113 569.83 99.8704" stroke="black" stroke-width="0.918644" stroke-miterlimit="10"/>
<path d="M549.189 87.6044C549.471 90.2483 549.762 92.8912 550.063 95.5333C550.104 95.898 550.159 96.2893 550.411 96.5566C551.408 97.6103 553.694 97.1041 554.756 96.473" stroke="black" stroke-width="0.918644" stroke-miterlimit="10"/>
<path d="M557.246 97.5572L552.676 100.227C552.676 100.227 554.444 103.617 556.214 102.954C559.511 101.722 557.246 97.5572 557.246 97.5572Z" fill="#F8F9FA"/>
<path d="M551.517 81.8897C551.985 80.9279 552.948 80.2821 553.966 79.9532C555.686 79.3974 557.655 79.6703 559.16 80.6734" stroke="black" stroke-width="0.918644" stroke-miterlimit="10"/>
<path d="M540.84 85.7259C541.004 84.7182 541.583 83.9557 542.259 83.4973C543.401 82.7229 544.872 82.7311 546.139 83.5175" stroke="black" stroke-width="0.918644" stroke-miterlimit="10"/>
<path d="M557.563 85.8315C557.797 86.8181 557.366 87.7652 556.601 87.9462C555.836 88.1271 555.026 87.4749 554.792 86.4883C554.558 85.5017 554.989 84.5545 555.754 84.3736C556.519 84.1926 557.329 84.8448 557.563 85.8315Z" fill="black"/>
<path d="M547.028 88.9678C547.262 89.9545 546.831 90.9016 546.066 91.0826C545.301 91.2644 544.491 90.6113 544.257 89.6247C544.023 88.638 544.454 87.6909 545.219 87.51C545.983 87.329 546.794 87.9812 547.028 88.9678Z" fill="black"/>
<path d="M544.247 74.4698C542.281 75.5263 541.426 77.8358 540.098 79.629C537.95 82.5273 534.227 84.1781 530.636 83.8226" stroke="black" stroke-width="0.918644" stroke-miterlimit="10"/>
<path d="M561.746 72.9203C563.526 71.2768 564.804 69.0969 565.368 66.7415" stroke="black" stroke-width="0.918644" stroke-miterlimit="10"/>
<path d="M605.723 162.384C605.723 162.384 596.161 166.77 589.741 169.68C586.11 171.326 580.025 175.829 577.946 179.256C575.302 183.615 574.611 189.006 574.912 193.456C575.113 196.402 576.459 199.737 578.433 202.948C579.732 205.063 581.119 207.274 582.329 206.986C583.539 206.7 583.104 203.735 583.104 203.731C583.107 203.911 584.538 206.723 584.868 206.947C585.309 207.247 585.832 207.507 586.289 207.268C586.908 206.943 587.329 206.588 587.628 205.956C587.881 205.422 587.901 204.867 587.953 204.271C588.001 203.73 587.956 202.424 587.929 201.874C588.196 202.467 588.452 204.318 588.959 204.221C589.466 204.123 590.294 203.699 590.749 203.144C591.632 202.067 592.099 200.718 592.551 199.4C592.556 199.719 592.561 200.047 592.682 200.343C592.801 200.638 593.062 200.899 593.381 200.923C593.782 200.953 595.418 199.758 595.656 199.435C596.687 198.036 597.071 196.164 597.816 194.594C598.438 193.284 599.046 192.356 599.943 191.217C600.76 190.178 602.009 188.893 603.2 188.267C605.628 186.993 607.119 186.646 609.603 185.472C611.697 184.482 613.747 183.259 615.194 181.41" fill="#7A492B"/>
<path d="M592.335 199.951C592.52 197.86 592.775 195.774 593.101 193.7C593.319 192.317 593.571 190.925 594.124 189.639C595.028 187.531 596.671 185.845 598.28 184.209" stroke="black" stroke-width="0.918644" stroke-miterlimit="10"/>
<path d="M588.151 202.334C587.338 198.848 587.426 195.224 587.517 191.645C587.543 190.656 587.57 189.658 587.806 188.697C588.215 187.039 589.22 185.6 590.204 184.205" stroke="black" stroke-width="0.918644" stroke-miterlimit="10"/>
<path d="M583.203 204.426C582.084 200.957 580.958 197.451 580.648 193.818C580.59 193.123 580.56 192.424 580.585 191.726C580.678 189.12 581.526 186.576 582.809 184.306" stroke="black" stroke-width="0.918644" stroke-miterlimit="10"/>
<path d="M613.857 110.541L630.683 142.284L593.133 167.999L617.845 187.463C617.845 187.463 659.981 173.747 671.457 166.943C680.468 161.601 684.335 147.726 666.976 125.096C649.617 102.467 637.633 89.0461 634.073 85.2723C626.413 77.1506 617.298 73.7773 608.803 78.0536" fill="#13431D"/>
<path d="M613.857 110.541L630.682 142.284L593.133 167.998" stroke="black" stroke-width="0.918644" stroke-miterlimit="10"/>
<path d="M614.826 178.712C614.826 179.405 614.264 179.967 613.571 179.967C612.879 179.967 612.316 179.406 612.316 178.712C612.316 178.019 612.879 177.457 613.571 177.457C614.265 177.457 614.826 178.019 614.826 178.712Z" stroke="black" stroke-width="0.918644" stroke-miterlimit="10"/>
<path d="M621.322 176.058C622.015 176.058 622.577 175.496 622.577 174.803C622.577 174.11 622.015 173.548 621.322 173.548C620.629 173.548 620.067 174.11 620.067 174.803C620.067 175.496 620.629 176.058 621.322 176.058Z" stroke="black" stroke-width="0.918644" stroke-miterlimit="10"/>
<path d="M606.391 178.439C606.528 178.548 622.578 170.458 622.578 170.458" stroke="black" stroke-width="0.918644" stroke-miterlimit="10"/>
<path d="M607.271 158.32C607.43 158.211 636.125 181.252 636.125 181.252" stroke="black" stroke-width="0.918644" stroke-miterlimit="10"/>
<path d="M629.77 142.601C633.293 141.225 636.834 139.742 640.598 139.177C644.622 138.571 648.714 138.78 652.76 138.989" stroke="black" stroke-width="0.918644" stroke-miterlimit="10"/>
<path d="M617.848 187.462L666.482 169.786" stroke="black" stroke-width="0.918644" stroke-miterlimit="10"/>
<g filter="url(#filter7_i_765_656)">
<rect x="24.6465" y="919.679" width="202.442" height="20.576" rx="6.63743" fill="#F8F9FA"/>
<path d="M220.807 1070.76H31.1336C28.4177 1070.76 26.217 1068.55 26.217 1065.84V937.835H225.724V1065.84C225.724 1068.55 223.522 1070.76 220.807 1070.76Z" fill="#FFEBC4" stroke="#F8F9FA" stroke-width="0.851946"/>
<path d="M226.577 925.439C226.577 922.253 223.995 919.67 220.809 919.67H31.1351C27.9496 919.67 25.3666 922.252 25.3666 925.439V1065.84C25.3666 1069.02 27.9487 1071.61 31.1351 1071.61H220.809C223.994 1071.61 226.577 1069.03 226.577 1065.84V925.439ZM31.1351 919.244H220.809C224.224 919.244 227.003 922.024 227.003 925.439V1065.84C227.003 1069.25 224.223 1072.03 220.808 1072.03H31.1351C27.7198 1072.03 24.9406 1069.25 24.9406 1065.84V925.439C24.9406 922.024 27.7198 919.244 31.1351 919.244Z" fill="#F8F9FA" stroke="#F8F9FA" stroke-width="0.851946"/>
<g filter="url(#filter8_i_765_656)">
<path d="M41.04 929.26C41.04 931.312 39.3762 932.976 37.3247 932.976C35.2724 932.976 33.6094 931.312 33.6094 929.26C33.6094 927.207 35.2732 925.544 37.3247 925.544C39.3762 925.544 41.04 927.208 41.04 929.26Z" stroke="#F8F9FA" stroke-width="1.27792" stroke-miterlimit="10"/>
</g>
<g filter="url(#filter9_i_765_656)">
<path d="M51.7271 932.975C53.779 932.975 55.4424 931.312 55.4424 929.26C55.4424 927.208 53.779 925.544 51.7271 925.544C49.6751 925.544 48.0117 927.208 48.0117 929.26C48.0117 931.312 49.6751 932.975 51.7271 932.975Z" stroke="#F8F9FA" stroke-width="1.27792" stroke-miterlimit="10"/>
</g>
<path d="M25.7939 937.409H226.153" stroke="#F8F9FA" stroke-width="1.27792" stroke-miterlimit="10"/>
<path d="M112.717 1046.97V1045.63V1045.63V1045.63V1045.63L112.717 1045.63L112.718 1045.6C112.718 1045.59 112.718 1045.59 112.718 1045.57C112.718 1045.55 112.719 1045.53 112.72 1045.5C112.722 1045.4 112.727 1045.27 112.737 1045.09C112.757 1044.73 112.797 1044.22 112.876 1043.6C113.036 1042.35 113.356 1040.67 113.992 1038.92C115.266 1035.42 117.782 1031.72 122.785 1030.62C132.001 1028.6 141.711 1032.29 149.774 1037.56C157.825 1042.81 164.517 1049.97 171.165 1057.11L171.813 1057.8L171.901 1056.86C172.216 1053.47 172.614 1050.03 174.617 1047.55L174.286 1047.28L174.617 1047.55C177.21 1044.34 182.028 1043.68 185.944 1045.13L186.092 1044.73L185.944 1045.13C189.864 1046.57 192.998 1049.71 195.736 1053.09L196.067 1052.82L195.736 1053.09C200.054 1058.41 203.613 1064.38 206.264 1070.76H50.8169C39.8926 1061.89 29.3584 1052.04 20.6264 1040.92L20.2915 1041.19L20.6264 1040.92C16.3502 1035.48 11.5688 1028.82 7.89891 1021.68C4.22682 1014.54 1.68501 1006.96 1.84846 999.678L1.84846 999.678C1.9005 997.34 2.70385 994.973 4.39954 993.565C7.39633 991.079 11.9735 991.08 16.679 992.176C21.3573 993.266 26.0208 995.405 29.0523 996.999C37.4325 1001.41 44.6759 1007.93 51.0568 1015.05L51.7801 1014.63C51.036 1012.28 50.5998 1009.92 50.1568 1007.52C49.9177 1006.23 49.6765 1004.92 49.3839 1003.6L49.3839 1003.6C48.9573 1001.68 49.0189 999.927 49.6311 998.495C50.2382 997.076 51.4055 995.925 53.287 995.224C56.9427 993.861 61.0173 994.604 64.9268 996.312C68.8305 998.017 72.5076 1000.66 75.3239 1002.99C79.7224 1006.63 83.5828 1010.85 87.4641 1015.09C88.5713 1016.3 89.6801 1017.51 90.8036 1018.71C95.9287 1024.19 100.738 1029.88 104.987 1036.1L104.987 1036.1C105.278 1036.52 107.02 1038.97 108.684 1041.31C109.517 1042.48 110.332 1043.62 110.939 1044.47L111.669 1045.5L111.873 1045.78L111.926 1045.86L111.94 1045.88L111.943 1045.88L111.944 1045.88L111.945 1045.88C111.945 1045.88 111.945 1045.88 111.984 1045.85L111.945 1045.88L112.717 1046.97ZM50.7078 1014.03C50.7904 1014.31 50.8769 1014.6 50.9677 1014.89L51.3739 1014.76L51.691 1014.48C51.4915 1014.26 51.2911 1014.03 51.0899 1013.81C50.5043 1011.74 50.1179 1009.65 49.7305 1007.56C49.4923 1006.27 49.2536 1004.98 48.968 1003.69L50.7078 1014.03Z" fill="#FFDD99" stroke="#F8F9FA" stroke-width="0.851946"/>
</g>
<path d="M168.398 1004.51C167.262 1010.78 167.599 1017.27 167.63 1023.67C167.66 1030.08 168.177 1034.28 165.858 1040.1C163.764 1045.35 159.392 1047.13 157.11 1052.28C155.948 1054.9 151.541 1071.17 151.541 1071.17H92.3534C92.3534 1071.17 90.6938 1045.6 99.8207 1023.77C108.948 1001.95 120.357 998.037 120.357 998.037L154.03 989.352L168.398 1004.51Z" fill="#735D9D"/>
<path d="M245.941 966.358C247.697 964.24 250.153 962.911 252.256 961.188C254.194 959.601 255.642 957.375 257.25 955.452C259.216 953.1 260.744 950.424 262.45 947.886C264.28 945.162 266.625 942.959 268.948 940.666C269.27 940.348 269.6 940.02 269.783 939.606C270.114 938.858 269.728 937.874 268.869 937.643C267.191 937.19 265.401 937.62 263.773 938.229C262.806 938.591 259.527 939.752 259.328 937.906C259.103 935.82 260.849 932.773 261.519 930.839C262.389 928.323 263.28 925.802 263.986 923.233C264.658 920.786 264.506 916.084 263.205 916.008C261.903 915.931 262.885 916.71 262.546 916.894C263.09 916.179 262.138 914.527 261.358 914.034C260.577 913.54 259.562 915.138 259.328 915.999C259.594 915.158 258.856 913.769 258.23 913.711C257.32 913.626 256.613 914.489 256.071 915.191C255.528 915.894 255.046 916.68 254.278 917.15C254.284 916.547 254.194 915.942 254.011 915.363C253.418 915.027 252.736 915.582 252.308 916.088C243.585 926.388 237.682 939.158 228.006 949.073" fill="#E27769"/>
<path d="M259.533 936.491C259.564 939.026 259.499 941.562 259.34 944.094" stroke="black" stroke-width="0.851946" stroke-miterlimit="10"/>
<path d="M262.268 916.29C261.507 918.683 260.036 920.706 258.931 922.932C257.172 926.475 255.6 930.105 253.968 933.707" stroke="black" stroke-width="0.851946" stroke-miterlimit="10"/>
<path d="M259.265 915.82C258.732 916.939 258.125 918.023 257.448 919.061C256.722 920.173 255.917 921.232 255.14 922.309C252.919 925.388 250.916 928.625 249.15 931.987" stroke="black" stroke-width="0.851946" stroke-miterlimit="10"/>
<path d="M253.976 917.533C253.388 918.787 252.429 919.82 251.523 920.868C248.686 924.15 246.244 927.771 244.265 931.632" stroke="black" stroke-width="0.851946" stroke-miterlimit="10"/>
<path d="M137.043 992.745C147.633 988.313 154.569 983.66 165.053 978.937C174.506 974.68 187.772 971.188 197.093 966.644C209.983 960.36 222.07 953.419 232.665 943.911L251.914 964.176C251.914 964.176 224.712 991.926 215.216 997.335C192.33 1010.37 183.994 1012.81 160.204 1025.25" fill="#735D9D"/>
<path d="M167.36 1021.77C167.495 1016.98 168.586 1012.23 170.553 1007.86" stroke="black" stroke-width="0.851946" stroke-miterlimit="10"/>
<path d="M226.239 949.239L245.33 970.666" stroke="black" stroke-width="0.851946" stroke-miterlimit="10"/>
<path d="M133.963 1051.49C142.036 1051.64 150.075 1052.92 157.073 1057.17C160.434 1059.21 162.307 1061.94 163.233 1065.74C164.015 1068.94 164.268 1072.36 163.98 1075.65C163.953 1075.96 163.712 1076.24 163.443 1076.31C163.064 1076.4 162.302 1076.02 162.302 1076.02C162.302 1076.02 162.99 1079.28 162.261 1079.96C161.753 1080.43 160.795 1079.79 160.434 1079.39C160.014 1078.94 159.441 1077.77 159.441 1077.77C159.441 1077.77 159.922 1079.64 159.516 1079.96C158.913 1080.44 157.169 1079.23 156.756 1078C156.503 1078.7 156.088 1079.34 155.447 1079.17C153.43 1078.64 151.851 1075.78 150.19 1074.37C147.984 1072.49 145.024 1072.36 142.272 1072.4C141.005 1072.42 139.735 1072.45 138.471 1072.32C137.177 1072.2 136.011 1071.69 134.749 1071.43C132.399 1070.96 129.948 1070.74 127.564 1070.6" fill="#E27769"/>
<path d="M148.872 1068.31C151.088 1069.23 153.436 1070.25 154.683 1072.15C155.056 1072.72 155.313 1073.35 155.542 1073.97C156.024 1075.29 156.392 1076.65 156.759 1078" stroke="black" stroke-width="0.851946" stroke-miterlimit="10"/>
<path d="M152.051 1064.3C153.311 1065.1 154.546 1065.96 155.614 1067C156.683 1068.04 157.583 1069.29 158.07 1070.7C158.348 1071.5 158.486 1072.35 158.626 1073.19C158.913 1074.93 159.211 1076.66 159.516 1078.39" stroke="black" stroke-width="0.851946" stroke-miterlimit="10"/>
<path d="M156.377 1061.55C158.475 1063.12 160.119 1065.28 161.057 1067.73C161.886 1069.89 162.163 1072.21 162.434 1074.51C162.52 1075.24 162.606 1075.97 162.692 1076.7" stroke="black" stroke-width="0.851946" stroke-miterlimit="10"/>
<path d="M125.073 994.295C125.073 994.295 108.365 996.766 101.954 1000.45C91.9297 1006.21 87.5234 1015 81.1355 1029.9C74.7476 1044.8 72.1568 1051.34 72.0946 1056.28C72.0026 1063.55 75.275 1071.17 88.6463 1071.17C112.466 1071.17 131.289 1071.17 131.289 1071.17L139.893 1051.07L106.711 1045.88L115.868 1024.44" fill="#735D9D"/>
<path d="M139.89 1051.07L106.708 1045.88L115.865 1024.44" stroke="black" stroke-width="0.851946" stroke-miterlimit="10"/>
<path d="M94.9229 1048.95C95.1784 1048.95 100.229 1045.8 106.708 1045.88" stroke="black" stroke-width="0.851946" stroke-miterlimit="10"/>
<path d="M130.738 1049.64L121.636 1071.17" stroke="black" stroke-width="0.851946" stroke-miterlimit="10"/>
<path d="M150.979 999.413C151.417 997.146 151.402 994.726 151.038 992.295" stroke="black" stroke-width="0.851946" stroke-miterlimit="10"/>
<path d="M115.616 998.84C117.457 1003.44 121.53 1007.25 125.978 1009.2C131.58 1011.65 139.178 1012.11 144.531 1008.83C147.025 1007.3 148.741 1005.29 149.823 1003" stroke="black" stroke-width="0.851946" stroke-miterlimit="10"/>
<path d="M209.854 1007.46C219.83 1002.38 228.951 995.623 236.721 987.564" stroke="black" stroke-width="0.851946" stroke-miterlimit="10"/>
<path d="M228.462 1002.64C233.298 998.892 237.832 994.757 242.006 990.287" stroke="black" stroke-width="0.851946" stroke-miterlimit="10"/>
<path d="M68.4733 1043.74C66.363 1050.63 65.6014 1057.92 66.2455 1065.09" stroke="black" stroke-width="0.851946" stroke-miterlimit="10"/>
<path d="M61.8114 1044.77C60.4798 1048.63 59.7182 1052.69 59.5605 1056.77" stroke="black" stroke-width="0.851946" stroke-miterlimit="10"/>
<path d="M130.667 973.748L121.53 979.872L123.502 986.403L120.755 996.248C120.579 996.876 120.686 997.544 121.049 998.085C122.541 1000.31 127.173 1005.83 136.354 1005.82C146.057 1005.81 145.921 999.376 145.921 999.376L147.688 985.667" fill="#E27769"/>
<path d="M149.044 972.932C146.532 968.251 145.096 965.354 142.457 962.126C140.222 959.393 136.51 955.531 133.011 954.762C128.505 953.769 124.265 957.02 120.427 959.394C114.125 963.291 114.235 971.68 116.363 977.929C117.998 982.73 121.378 984.561 125.643 987.489C131.216 991.314 143.331 993.044 148.532 988.853C152.423 985.718 151.705 977.891 149.044 972.932Z" fill="#E27769"/>
<path d="M135.578 972.52C135.876 973.245 135.668 974.018 135.112 974.246C134.558 974.475 133.866 974.072 133.568 973.346C133.27 972.621 133.477 971.847 134.033 971.619C134.588 971.391 135.279 971.794 135.578 972.52Z" fill="black"/>
<path d="M144.524 967.591C144.822 968.316 144.614 969.089 144.06 969.317C143.505 969.546 142.813 969.142 142.515 968.417C142.217 967.691 142.425 966.918 142.98 966.69C143.534 966.462 144.226 966.865 144.524 967.591Z" fill="black"/>
<path d="M139.731 970.743C140.733 971.636 141.941 972.237 143.149 972.795C143.898 973.141 146.395 973.806 145.838 975.021C145.48 975.801 144.02 977.034 144.02 977.034" stroke="black" stroke-width="0.851946" stroke-miterlimit="10"/>
<path d="M121.45 993.748C121.45 993.748 122.591 990.829 122.868 989.785C123.336 988.022 121.853 987.932 121.342 986.38C121.075 985.571 121.294 984.581 121.474 983.78C121.859 982.061 122.744 980.132 121.951 978.397C121.449 977.299 120.371 976.603 119.508 975.759C118.644 974.914 117.941 973.627 118.458 972.536C119.07 971.244 120.877 971.148 121.985 970.246C123.092 969.344 123.351 967.755 123.276 966.329C123.2 964.902 122.871 963.466 123.121 962.06C123.166 961.807 123.236 961.545 123.415 961.36C123.956 960.799 124.858 961.342 125.537 961.724C126.758 962.41 128.234 962.325 129.511 961.808C130.159 961.546 130.752 961.065 130.986 960.407C131.131 960 131.129 959.558 131.2 959.132C131.27 958.706 131.438 958.26 131.806 958.034C132.074 957.87 132.404 957.85 132.717 957.864C133.703 957.908 134.673 958.253 135.465 958.842C136.129 959.337 136.501 959.694 137.338 959.663C138.141 959.632 138.914 959.366 139.717 959.6C140.684 959.882 141.331 960.769 141.902 961.599C143.473 963.886 145.044 966.173 146.615 968.459C147.4 967.325 148.198 966.167 148.584 964.843C148.97 963.519 148.881 961.978 148.012 960.907C147.174 959.875 145.745 959.412 145.034 958.29C144.247 957.049 144.369 955.257 144.284 953.852C144.191 952.318 143.719 950.77 142.843 949.475C141.995 948.222 140.571 947.248 139.062 947.363C138.189 947.43 137.358 947.849 136.483 947.823C135.942 947.806 135.422 947.621 134.925 947.407C132.624 946.419 130.63 944.817 128.337 943.811C126.044 942.805 123.168 942.499 121.19 944.034C120.175 944.821 119.502 946.014 118.398 946.669C115.215 948.559 110.646 944.999 107.613 947.12C105.655 948.488 105.594 951.451 103.946 953.18C101.838 955.39 98.0044 954.809 95.613 956.708C93.2003 958.624 93.1909 962.444 94.6383 965.164C95.354 966.508 96.3959 967.893 96.0875 969.384C95.895 970.312 95.2092 971.044 94.6264 971.793C93.7941 972.865 93.1168 974.102 92.9506 975.449C92.7845 976.796 93.1977 978.262 94.2354 979.136C94.8803 979.679 95.8626 979.937 96.3508 980.64C96.9003 981.433 97.0545 982.853 97.1627 983.787C97.2581 984.607 97.2683 985.445 97.5162 986.233C98.1935 988.385 100.568 989.666 102.823 989.667C103.863 989.667 105.005 989.472 105.86 990.063C106.569 990.552 106.858 991.437 107.287 992.183C108.684 994.61 112.084 995.63 114.586 994.373C115.526 993.901 116.395 993.143 117.448 993.127C118.493 993.112 120.46 993.92 121.45 993.748Z" fill="#2C221D"/>
<path d="M136.145 991.059C138.961 991.762 144.298 991.909 148.343 989.353" stroke="black" stroke-width="0.851946" stroke-miterlimit="10"/>
<path d="M128.528 972.301C128.52 969.476 130.386 966.767 133.432 967.301" stroke="black" stroke-width="0.851946" stroke-miterlimit="10"/>
<path d="M139.029 965.263C138.934 964.458 139.539 963.517 140.45 963.054C141.36 962.591 142.493 962.661 143.129 963.18" stroke="black" stroke-width="0.851946" stroke-miterlimit="10"/>
<path d="M126.39 980.465C124.779 978.494 120.844 979.042 119.565 981.074C116.492 985.962 123.937 992.492 128.486 990.112C129.773 989.439 131.04 987.731 130.44 986.146" fill="#E27769"/>
<path d="M121.933 984.734L128.218 985.183" stroke="black" stroke-width="0.851946" stroke-miterlimit="10"/>
<path d="M122.567 979.474C123.884 979.311 125.26 979.571 126.456 980.208" stroke="black" stroke-width="0.851946" stroke-miterlimit="10"/>
<path d="M122.071 989.309C123.906 990.516 126.391 991.367 128.403 990.265C129.799 989.501 130.791 987.849 130.292 986.17" stroke="black" stroke-width="0.851946" stroke-miterlimit="10"/>
<path d="M140.714 977.499C140.308 979.012 140.809 981 142.545 981.313C143.847 981.548 145.256 980.746 145.677 979.486" stroke="black" stroke-width="0.851946" stroke-miterlimit="10"/>
<g filter="url(#filter10_i_765_656)">
<rect x="385.515" y="1074.87" width="165.936" height="20.576" rx="6.63743" fill="#F8F9FA"/>
<path d="M544.912 1075.64C547.863 1075.64 550.254 1078.03 550.254 1080.98V1175.58C550.254 1178.53 547.862 1180.92 544.912 1180.92H391.68C388.729 1180.92 386.337 1178.53 386.337 1175.58V1080.98C386.337 1078.03 388.73 1075.64 391.68 1075.64H544.912M544.912 1074.36H391.68C388.029 1074.36 385.06 1077.33 385.06 1080.98V1175.58C385.06 1179.23 388.029 1182.2 391.68 1182.2H544.912C548.562 1182.2 551.532 1179.23 551.532 1175.58V1080.98C551.533 1077.33 548.563 1074.36 544.912 1074.36Z" fill="#F8F9FA"/>
<path d="M544.909 1180.92H391.678C388.726 1180.92 386.335 1178.53 386.335 1175.58V1089.88H550.253V1175.58C550.253 1178.53 547.86 1180.92 544.909 1180.92Z" fill="#C5B3DD"/>
<path d="M398.886 1083.18C398.886 1084.87 397.517 1086.24 395.828 1086.24C394.14 1086.24 392.771 1084.87 392.771 1083.18C392.771 1081.49 394.14 1080.12 395.828 1080.12C397.517 1080.12 398.886 1081.49 398.886 1083.18Z" stroke="#F8F9FA" stroke-width="1.27792" stroke-miterlimit="10"/>
<path d="M410.733 1083.18C410.733 1084.87 409.364 1086.24 407.676 1086.24C405.987 1086.24 404.618 1084.87 404.618 1083.18C404.618 1081.49 405.987 1080.12 407.676 1080.12C409.364 1080.12 410.733 1081.49 410.733 1083.18Z" stroke="#F8F9FA" stroke-width="1.27792" stroke-miterlimit="10"/>
<path d="M386.335 1089.88H550.253" stroke="#F8F9FA" stroke-width="1.27792" stroke-miterlimit="10"/>
<path d="M527.257 1160.46C519.102 1151.43 509.628 1146.96 504.81 1148.05C497.723 1149.66 499.012 1167.74 499.21 1175.01C495.787 1171.05 491.545 1167.8 486.83 1165.53C483.278 1163.82 479.235 1162.66 475.406 1163.59C471.577 1164.52 468.204 1168.12 468.653 1172.04C459.733 1158.77 447.421 1147.8 433.213 1140.47C424.232 1135.84 399.817 1126.21 395.638 1136.2C391.053 1147.17 417.061 1180.92 417.061 1180.92H543.113C543.113 1180.92 534.622 1168.62 527.257 1160.46Z" fill="#A29DCE"/>
</g>
<path d="M369.75 1064.01C365.122 1059.16 360.677 1049.79 359.428 1044.79C358.33 1040.4 357.349 1035.9 355.273 1031.84C354.713 1030.74 352.309 1028.21 353.181 1026.9C354.939 1024.25 359.204 1027.74 360.316 1029.31C360.713 1029.88 362.182 1032.26 362.917 1032.4C363.653 1032.54 363.963 1029.69 364.052 1028.47C364.396 1023.77 364.419 1018.65 364.021 1013.9C363.611 1009.01 364.308 1004.71 365.843 1004.49C367.4 1004.26 367.319 1005.18 367.601 1005.48C367.85 1003.93 369.261 1002.1 370.173 1002.61C370.726 1002.93 370.927 1003.62 371.005 1004.25C371.082 1004.89 371.459 1006.09 371.459 1006.09C371.459 1006.09 372.342 1002.79 373.954 1004.66C374.768 1005.6 376.008 1010.61 376.803 1012.2C376.724 1011.15 376.457 1010.57 376.796 1009.34C376.981 1008.67 377.357 1008.12 378.08 1008.47C378.505 1008.68 378.629 1009.1 378.778 1009.51C379.587 1011.76 381.576 1015.37 382.299 1017.65C383.052 1020.02 383.805 1022.39 384.559 1024.76C385.975 1029.22 387.36 1033.92 388.375 1038.57C389.315 1042.87 392.764 1053.47 392.764 1053.47" fill="#FBC3C3"/>
<path d="M367.557 1005.75C367.967 1008.3 368.901 1011.55 369.413 1014.45C370.147 1018.59 370.478 1022.43 371.105 1026.09" stroke="black" stroke-width="0.851946" stroke-miterlimit="10"/>
<path d="M371.683 1006.17C372.173 1008.35 373.024 1011.38 373.595 1013.87C374.548 1018.02 375.247 1021.75 376.067 1025.4" stroke="black" stroke-width="0.851946" stroke-miterlimit="10"/>
<path d="M376.795 1012.13C378.006 1016.1 379.757 1020.66 381.145 1025.68" stroke="black" stroke-width="0.851946" stroke-miterlimit="10"/>
<path d="M363.382 1032.15C363.071 1034.24 362.915 1036.47 361.517 1038.31" stroke="black" stroke-width="0.851946" stroke-miterlimit="10"/>
<path d="M526.372 1180.92C524.733 1176.54 522.979 1171.94 520.515 1167.93C518.05 1163.91 514.829 1160.24 510.718 1157.72C508.874 1156.59 506.878 1155.71 504.889 1154.83C499.54 1152.47 494.191 1150.11 488.842 1147.74L462.587 1137.5C460.962 1135.99 459.338 1134.48 457.716 1132.98C454.581 1130.06 451.454 1127.13 448.351 1124.17C448.232 1124.06 448.114 1123.94 447.994 1123.83C424.229 1101.15 406.554 1075.8 391.114 1046.22L363.381 1058.39C363.381 1058.39 375.376 1099.26 386.773 1116.61C401.827 1139.54 419.24 1160.38 427.109 1166.99C428.513 1171.7 430.121 1176.36 431.944 1180.93L526.372 1180.92Z" fill="#FCDDD2"/>
<path d="M367.848 1072.45L397.595 1058.14" stroke="black" stroke-width="0.851946" stroke-miterlimit="10"/>
<path d="M369.332 1055.78L374.895 1069.23" stroke="black" stroke-width="0.851946" stroke-miterlimit="10"/>
<path d="M378.753 1060.35C378.753 1061.44 377.874 1062.32 376.789 1062.32C375.704 1062.32 374.824 1061.44 374.824 1060.35C374.824 1059.27 375.703 1058.39 376.789 1058.39C377.873 1058.39 378.753 1059.27 378.753 1060.35Z" stroke="#D8A798" stroke-width="0.851946" stroke-miterlimit="10"/>
<path d="M485.959 1180.34C487.326 1178.56 488.694 1176.78 490.062 1175C491.538 1173.08 493.017 1171.15 494.683 1169.39C499.544 1164.25 506.105 1160.6 513.136 1159.84" stroke="#D8A798" stroke-width="0.851946" stroke-miterlimit="10"/>
<path d="M426.287 1164.43C426.287 1157.32 428.661 1150.27 432.749 1144.47C437.899 1137.18 445.477 1131.94 454.636 1131.68" stroke="#D8A798" stroke-width="0.851946" stroke-miterlimit="10"/>
<path d="M426.989 1166.71C425.678 1162.8 424.924 1158.42 422.849 1154.83" stroke="black" stroke-width="0.851946" stroke-miterlimit="10"/>
<path d="M454.228 1134.59L452.498 1156.41C452.498 1156.41 459.831 1163.88 469.914 1159.01C479.996 1154.15 487.351 1144.9 487.351 1144.9L484.054 1131.37" fill="#FBC3C3"/>
<path d="M494.306 1107.41C493.287 1104.22 491.377 1101.31 488.807 1099.2C482.624 1094.14 475.822 1094.28 469.181 1098.18C463.409 1101.57 455.487 1106.92 451.085 1112.04C446.541 1117.33 443.501 1123.9 448.14 1130.08C455.607 1140.03 476.545 1136.66 486.534 1128.5C490.602 1125.18 494.441 1119.79 495.042 1114.48C495.308 1112.11 495.036 1109.69 494.306 1107.41Z" fill="#FBC3C3"/>
<path d="M467.897 1100.96C464.569 1102.65 460.926 1103.1 457.281 1103.53C455.529 1103.74 453.21 1104.33 453.527 1106.63C453.732 1108.11 455.023 1109.39 456.098 1110.3" fill="#FBC3C3"/>
<path d="M453.38 1123.61C453.38 1123.61 453.986 1122.24 454.288 1121.56C454.869 1120.25 452.979 1119.36 452.079 1118.91C451.425 1118.58 451.079 1118.29 450.428 1118.72C450.261 1118.83 449.311 1119.74 449.106 1119.58C449.095 1119.57 447.348 1117.53 447.348 1117.53C445.99 1119.66 445.117 1123.68 445.31 1126.07C445.504 1128.46 446.429 1130.84 448.137 1132.52C448.823 1133.19 449.897 1134.17 450.722 1134.66C457.596 1138.8 466.167 1138.48 473.644 1135.58C475.953 1134.68 478.202 1133.48 479.884 1131.66C456.994 1131.33 453.38 1123.61 453.38 1123.61Z" fill="#FBC3C3"/>
<path d="M480.679 1122.08C480.577 1122.06 480.475 1122.04 480.374 1122.02C478.847 1121.77 477.334 1121.99 475.828 1121.5C474.615 1121.1 473.486 1120.34 472.82 1119.25C472.033 1117.97 473.114 1117.22 474.162 1116.64C475.712 1115.78 477.223 1114.82 478.485 1113.58C480.558 1111.54 481.651 1108.61 480.752 1105.75C479.776 1102.66 476.729 1100.84 474.365 1098.88C472.086 1096.99 469.175 1094.05 470.136 1090.77C471.099 1087.48 474.277 1086.28 477.414 1086.75C479.098 1087 480.795 1087.47 482.477 1087.21C483.331 1087.07 484.146 1086.76 484.99 1086.57C487.582 1085.98 490.569 1086.81 492.113 1088.98C493.225 1090.53 493.656 1092.74 495.371 1093.59C496.196 1094 497.158 1093.99 498.055 1094.2C499.877 1094.63 501.416 1096.02 502.158 1097.73C502.899 1099.45 502.869 1101.46 502.203 1103.21C501.007 1106.36 499.215 1107.93 500.685 1111.4C504.099 1119.46 505.534 1129.35 497.379 1135.14C495.234 1136.67 492.547 1137.45 490.762 1139.39C489.649 1140.59 488.739 1142.31 487.108 1142.48C486.012 1142.6 484.978 1141.92 484.227 1141.12C483.553 1140.39 483.024 1139.55 482.502 1138.71C481.778 1137.55 481.042 1136.33 480.894 1134.97C480.681 1133.03 481.69 1131.19 482.605 1129.46C483.468 1127.83 485.206 1124.46 483.151 1123.11C482.443 1122.65 481.535 1122.26 480.679 1122.08Z" fill="#1E1611"/>
<path d="M475.643 1104.48C475.131 1102.92 474.192 1101.37 472.747 1102.07C472.386 1102.25 472.174 1102.65 472.118 1103.04C472.061 1103.44 472.134 1103.84 472.207 1104.24C472.547 1106.09 472.908 1107.99 473.909 1109.58C474.111 1109.9 474.35 1110.22 474.69 1110.39C476.956 1111.52 475.936 1105.37 475.643 1104.48Z" fill="#1E1611"/>
<path d="M461.324 1115.03L454.912 1113.57C454.912 1113.57 454.284 1119.07 457.009 1119.62C459.733 1120.16 461.324 1115.03 461.324 1115.03Z" fill="#F8F9FA"/>
<path d="M454.53 1108.57C455.063 1109.26 455.786 1109.81 456.598 1110.12" stroke="black" stroke-width="0.851946" stroke-miterlimit="10"/>
<path d="M461.61 1102.93C464.017 1102.58 466.357 1101.78 468.47 1100.57" stroke="black" stroke-width="0.851946" stroke-miterlimit="10"/>
<path d="M479.185 1122.3C481.549 1120.52 485.842 1122.23 486.723 1124.88C488.842 1131.24 478.631 1136.56 474.151 1132.61C472.883 1131.5 471.926 1129.22 473.041 1127.6" fill="#FBC3C3"/>
<path d="M483.037 1128.35L475.815 1127.12" stroke="black" stroke-width="0.851946" stroke-miterlimit="10"/>
<path d="M483.776 1122.24C482.334 1121.69 480.71 1121.6 479.183 1121.99" stroke="black" stroke-width="0.851946" stroke-miterlimit="10"/>
<path d="M473.203 1127.66C472.397 1129.04 472.637 1130.74 473.514 1132.02C475.112 1134.35 478.974 1134.36 481.305 1133.36" stroke="black" stroke-width="0.851946" stroke-miterlimit="10"/>
<path d="M468.927 1109.76C468.013 1110.42 466.888 1110.42 466.415 1109.77C465.942 1109.12 466.299 1108.05 467.213 1107.39C468.127 1106.73 469.252 1106.72 469.724 1107.38C470.197 1108.03 469.84 1109.1 468.927 1109.76Z" fill="black"/>
<path d="M490.912 1144.18C467.897 1146.91 453.807 1157.45 453.807 1157.45L457.809 1175.74C478.395 1156.16 498.421 1151.75 498.622 1151.54L490.912 1144.18Z" fill="#FCDDD2"/>
<path d="M453.139 1145.77L444.471 1151.33C444.471 1151.33 442.981 1166.88 445.826 1175.16L453.806 1157.45L453.139 1145.77Z" fill="#FCDDD2"/>
<path d="M453.807 1157.45L457.809 1175.74C478.395 1156.16 498.421 1151.75 498.622 1151.54" stroke="black" stroke-width="0.851946" stroke-miterlimit="10"/>
<path d="M453.139 1145.77L444.471 1151.33C444.471 1151.33 442.981 1166.88 445.826 1175.16L453.806 1157.45" stroke="black" stroke-width="0.851946" stroke-miterlimit="10"/>
<path d="M367.726 1096.32C370.051 1104.59 373.498 1112.54 377.941 1119.89" stroke="black" stroke-width="0.851946" stroke-miterlimit="10"/>
<path d="M368.484 1110.53C369.945 1115.84 371.697 1121.08 373.729 1126.2" stroke="black" stroke-width="0.851946" stroke-miterlimit="10"/>
<path d="M510.585 1121.67C510.71 1125.46 509.237 1129.19 506.982 1132.23C504.727 1135.28 501.726 1137.7 498.558 1139.78" stroke="black" stroke-width="0.851946" stroke-miterlimit="10"/>
<path d="M508.006 1139.65C511.179 1137.85 513.885 1135.24 515.797 1132.13" stroke="black" stroke-width="0.851946" stroke-miterlimit="10"/>
<g filter="url(#filter11_i_765_656)">
<rect x="567.737" y="905.117" width="155.316" height="20.576" rx="6.63743" fill="#F8F9FA"/>
<path d="M717.153 1026.76H574.373C571.422 1026.76 569.03 1024.37 569.03 1021.42V919.978H722.496V1021.42C722.496 1024.37 720.104 1026.76 717.153 1026.76Z" fill="#F9D4BB"/>
<path d="M717.151 905.731C720.102 905.731 722.493 908.124 722.493 911.074V1021.42C722.493 1024.37 720.101 1026.76 717.151 1026.76H574.37C571.419 1026.76 569.028 1024.37 569.028 1021.42V911.074C569.028 908.123 571.42 905.731 574.37 905.731H717.151ZM717.151 904.453H574.37C570.72 904.453 567.75 907.423 567.75 911.074V1021.42C567.75 1025.07 570.72 1028.04 574.37 1028.04H717.151C720.801 1028.04 723.771 1025.07 723.771 1021.42V911.074C723.771 907.423 720.801 904.453 717.151 904.453Z" fill="#F8F9FA"/>
<g filter="url(#filter12_i_765_656)">
<path d="M581.576 913.272C581.576 914.961 580.207 916.33 578.519 916.33C576.83 916.33 575.461 914.961 575.461 913.272C575.461 911.583 576.83 910.214 578.519 910.214C580.207 910.214 581.576 911.583 581.576 913.272Z" stroke="#F8F9FA" stroke-width="1.27792" stroke-miterlimit="10"/>
</g>
<g filter="url(#filter13_i_765_656)">
<path d="M593.431 913.272C593.431 914.961 592.062 916.33 590.373 916.33C588.684 916.33 587.315 914.961 587.315 913.272C587.315 911.583 588.684 910.214 590.373 910.214C592.062 910.214 593.431 911.583 593.431 913.272Z" stroke="#F8F9FA" stroke-width="1.27792" stroke-miterlimit="10"/>
</g>
<path d="M569.03 919.978H722.496" stroke="#F8F9FA" stroke-width="1.27792" stroke-miterlimit="10"/>
<path d="M682.939 985.645C679.425 985.03 678.432 994.478 680.117 997.623C675.489 991.005 669.631 980.869 665.002 974.251C659.811 966.828 653.608 957.582 644.247 955.166C635.815 952.99 631.416 960.333 631.284 967.831C631.158 975.01 631.88 982.251 633.209 989.3C634.659 996.986 636.541 1005.74 640.724 1012.45C636.277 1005.32 629.16 1002.91 621.207 1003.57C617.503 1003.88 613.652 1005.12 611.314 1008.01C607.573 1012.63 608.976 1021.03 610.57 1026.76C614.047 1026.76 617.526 1026.76 621.004 1026.76C639.502 1026.76 712.78 1026.79 712.78 1026.79C712.78 1026.79 694.343 987.642 682.939 985.645Z" fill="#EF9748"/>
</g>
<path d="M576.659 972.334C561.412 972.56 546.298 969.336 531.712 964.889C517.126 960.444 490.551 950.683 490.551 950.683L482.964 973.594C482.964 973.594 522.248 998.48 574.526 1002.73" fill="#E27769"/>
<path d="M609.319 978.555C599.158 969.934 577.141 970.55 570.829 970.796C564.517 971.042 553.268 969.178 553.268 969.178L549.127 1003.69C549.127 1003.69 572.502 1007.62 585.507 1008.57" fill="#333333"/>
<path d="M580.681 986.835C582.276 991.335 581.548 997.956 581.566 1002.73C581.582 1006.99 583.079 1009.35 583.708 1013.57C584.46 1018.6 587.316 1022.2 590.328 1026.76H655.067L651.656 990.864L642.844 978.128L624.236 973.168L582.229 984.216" fill="#333333"/>
<path d="M601.005 978.13C600.359 980.409 599.889 982.965 600.281 985.327C600.74 988.094 602.495 989.836 604.999 990.865" stroke="#6D574E" stroke-width="0.851946" stroke-miterlimit="10"/>
<path d="M608.185 991.627C619.658 993.683 631.731 985.482 632.883 975.042" stroke="#6D574E" stroke-width="0.851946" stroke-miterlimit="10"/>
<path d="M694.496 1022.62C693.564 1019.92 691.813 1017.58 690.013 1015.36C685.063 1009.24 679.522 1003.61 673.493 998.559L651.829 1018.28L665.235 1031.27L649.578 1059.65L670.346 1065.58C670.346 1065.58 686.24 1048.03 692.322 1038.24C695.307 1033.44 696.353 1028.01 694.496 1022.62Z" fill="#E27769"/>
<path d="M653.721 1053.3C653.721 1053.3 644.638 1066.37 643.721 1068.73C642.896 1070.85 642.446 1073.5 642.123 1075.76C641.23 1081.98 644.567 1088.38 647.083 1091.41C647.366 1091.75 647.786 1091.97 648.208 1092.04C649.141 1092.22 649.515 1091.73 649.494 1090.63C650.004 1091.32 650.512 1092.02 651.022 1092.71C651.232 1093 651.453 1093.29 651.755 1093.44C652.333 1093.73 653.056 1093.38 653.5 1092.81C653.944 1092.25 654.171 1091.51 654.386 1090.8C654.926 1091.58 655.763 1092.4 656.571 1091.92C657.378 1091.44 658.076 1089.71 657.895 1088.72C658.16 1089.59 659.317 1089.62 659.949 1088.98C660.581 1088.35 660.813 1087.35 661.001 1086.43C661.477 1084.08 661.925 1081.66 663.074 1079.61C663.84 1078.24 664.882 1077.11 665.79 1075.86C668.748 1071.78 670.212 1066.59 671.167 1061.48" fill="#E27769"/>
<path d="M659.683 1073.44C659.274 1074.35 658.864 1075.26 658.455 1076.16C658.123 1076.9 657.79 1077.63 657.522 1078.4C656.33 1081.8 656.528 1085.69 658.057 1088.92" stroke="black" stroke-width="0.851946" stroke-miterlimit="10"/>
<path d="M652.848 1073.11C652.015 1077.22 651.676 1082.17 652.269 1085.26C652.653 1087.27 653.528 1089.17 654.6 1090.89" stroke="black" stroke-width="0.851946" stroke-miterlimit="10"/>
<path d="M646.86 1071.56C646.86 1071.56 646.327 1074.59 646.201 1076.31C645.801 1081.76 646.523 1087.03 649.495 1091.08" stroke="black" stroke-width="0.851946" stroke-miterlimit="10"/>
<path d="M488.696 973.981C487.062 973.822 485.427 973.664 483.793 973.505C482.33 973.364 480.855 973.219 479.456 972.77C478.522 972.47 477.637 972.04 476.756 971.611C473.127 969.844 471.269 969.315 467.797 967.269C465.803 966.094 463.762 964.987 461.636 964.068C459.553 963.167 457.391 962.682 455.468 961.465C455.301 961.359 455.128 961.24 455.051 961.059C454.992 960.919 454.997 960.76 455.019 960.61C455.465 957.471 461.862 958.189 464.349 958.884C465.099 959.094 465.878 959.345 466.641 959.19C466.692 958.192 466.253 957.236 465.766 956.363C464.333 953.793 462.237 951.746 460.345 949.512C458.595 947.445 456.822 945.38 455.21 943.203C453.699 941.164 452.144 936.724 453.33 936.182C454.516 935.64 453.882 936.722 454.265 936.771C453.5 936.3 453.791 934.417 454.341 933.674C454.89 932.933 456.414 934.056 456.942 934.775C456.391 934.087 456.578 932.524 457.141 932.245C457.96 931.838 458.93 932.386 459.69 932.846C460.45 933.306 461.183 933.865 462.069 934.026C461.845 933.467 461.712 932.869 461.672 932.263C462.104 931.736 462.94 932.008 463.523 932.325C475.375 938.782 485.489 948.561 498.091 954.316" fill="#E27769"/>
<path d="M464.146 953.961C465.476 955.869 466.373 958.165 467.069 960.981" stroke="black" stroke-width="0.851946" stroke-miterlimit="10"/>
<path d="M454.303 936.109C455.876 938.066 457.978 939.421 459.812 941.099C462.732 943.768 465.508 946.586 468.33 949.357" stroke="black" stroke-width="0.851946" stroke-miterlimit="10"/>
<path d="M456.934 934.587C457.834 935.439 458.792 936.229 459.798 936.954C460.876 937.729 462.009 938.427 463.122 939.151C466.305 941.22 469.341 943.515 472.201 946.014" stroke="black" stroke-width="0.851946" stroke-miterlimit="10"/>
<path d="M462.485 934.275C463.486 935.232 464.754 935.849 465.977 936.5C469.806 938.537 473.392 941.033 476.631 943.919" stroke="black" stroke-width="0.851946" stroke-miterlimit="10"/>
<path d="M485.766 974.81C484.77 974.81 482.779 972.487 479.46 972.819" stroke="black" stroke-width="0.663743" stroke-miterlimit="10"/>
<path d="M637.397 976.707C642.01 977.153 646.623 977.584 651.013 979.241C656.56 981.335 661.381 985.271 665.921 989.295C670.664 993.498 675.503 999.22 680.119 1003.61L656.46 1024.31L639.707 1007.98" fill="#333333"/>
<path d="M665.237 1031.27C665.237 1031.27 668.737 1026.79 672.285 1024.31" stroke="black" stroke-width="0.851946" stroke-miterlimit="10"/>
<path d="M649.574 1017.6L674.246 997.623" stroke="#6D574E" stroke-width="0.851946" stroke-miterlimit="10"/>
<path d="M558.171 1005.13L561.753 970.315" stroke="#6D574E" stroke-width="0.851946" stroke-miterlimit="10"/>
<path d="M580.681 998.559C580.681 998.559 582.316 1005.99 582.765 1009.18" stroke="#6D574E" stroke-width="0.851946" stroke-miterlimit="10"/>
<path d="M638.871 1007.92C643.998 1011.88 656.461 1024.31 656.461 1024.31" stroke="#6D574E" stroke-width="0.851946" stroke-miterlimit="10"/>
<path d="M612.554 952.005L623.579 956.473L622.931 963.824L628.49 974.566C628.49 974.566 625.777 984.697 613.606 987.219C603.33 989.349 603.562 982.717 603.562 982.717L598.668 968.591" fill="#E27769"/>
<path d="M589.262 957.665C590.89 952.153 591.771 948.77 593.853 944.77C595.616 941.384 598.696 936.477 602.231 934.89C606.783 932.847 611.989 935.354 616.577 937.019C624.109 939.756 625.842 948.663 624.967 955.749C624.295 961.192 621.12 963.878 617.249 967.918C612.192 973.197 599.746 977.701 593.315 974.41C588.504 971.947 587.538 963.501 589.262 957.665Z" fill="#E27769"/>
<path d="M668.019 990.975C670.983 990.001 672.44 986.514 672.275 984.036C672.009 980.047 670.145 977.989 669.839 975.525C669.639 973.92 670.117 972.295 669.98 970.684C669.756 968.023 667.826 965.707 665.441 964.506C663.056 963.306 660.283 963.09 657.624 963.327C655.585 963.51 653.536 963.944 651.509 963.655C649.816 963.414 648.231 962.678 646.755 961.813C644.147 960.282 641.766 958.291 640.086 955.776C637.231 951.499 636.621 946.12 634.418 941.472C633.308 939.131 631.767 937.002 629.923 935.185C625.441 930.77 621.175 929.135 614.821 928.924C610.469 928.779 604.414 929.36 601.084 933.419C601.084 933.419 594.648 933.584 591.577 936.826C587.933 940.674 588.194 946.244 591.378 950.684C593.023 947.984 594.424 945.128 596.832 943.053C596.554 943.491 596.687 944.105 597.043 944.481C597.4 944.858 597.929 945.028 598.446 945.07C599.823 945.182 601.124 944.496 602.335 943.831C601.926 944.922 601.752 946.102 601.83 947.265C601.846 947.51 601.88 947.772 602.042 947.957C602.226 948.168 602.528 948.225 602.807 948.249C604.704 948.408 606.656 947.496 607.752 945.938C607.233 947.35 606.779 949.121 607.825 950.202C608.563 950.966 609.813 951.023 610.797 950.622C611.781 950.222 612.562 949.455 613.316 948.706C612.954 949.067 613.431 951.1 613.519 951.57C613.713 952.598 614.029 953.596 614.379 954.58C615.454 957.606 616.779 960.553 618.501 963.269C620.278 966.071 622.817 968.197 624.634 970.928C625.785 972.66 626.758 974.555 628.305 975.944C630.206 977.65 632.828 978.934 635.326 979.443C637.844 979.956 640.448 979.723 642.994 979.64C652.406 979.333 659.542 984.046 668.019 990.975Z" fill="#893D33"/>
<path d="M646.058 930.021C645.517 928.683 644.723 927.456 643.707 926.52C640.038 923.142 632.039 923.361 629.304 927.95C627.801 930.473 628.532 933.718 629.672 936.424L631.92 941.355C635.053 943.058 639.018 943.13 642.212 941.544C644.88 940.219 646.763 937.774 646.896 934.744C646.965 933.198 646.673 931.538 646.058 930.021Z" fill="#893D33"/>
<path d="M613.404 958.628C614.168 956.351 617.822 955.521 619.628 956.887C623.971 960.173 619.584 968.418 614.776 967.837C613.415 967.672 611.729 966.59 611.729 964.991" fill="#E27769"/>
<path d="M618.762 960.905L613.367 963.399" stroke="black" stroke-width="0.851946" stroke-miterlimit="10"/>
<path d="M616.446 956.477C615.23 956.773 614.103 957.461 613.261 958.422" stroke="black" stroke-width="0.851946" stroke-miterlimit="10"/>
<path d="M620.168 964.987C618.952 966.664 617.045 968.244 614.902 967.944C613.414 967.736 611.988 966.61 611.868 964.962" stroke="black" stroke-width="0.851946" stroke-miterlimit="10"/>
<path d="M601.173 975.82C601.173 975.82 606.237 975.579 611.365 972.116" stroke="black" stroke-width="0.851946" stroke-miterlimit="10"/>
<path d="M595.854 954.89C595.056 956.285 594.223 957.721 592.934 958.682C592.625 958.913 592.29 959.116 592.04 959.407C591.68 959.825 591.527 960.412 591.636 960.952C591.745 961.492 592.114 961.974 592.607 962.22" stroke="black" stroke-width="0.851946" stroke-miterlimit="10"/>
<path d="M593.578 965.477C594.387 966.149 595.599 966.413 596.557 965.899C597.768 965.25 597.793 963.704 597.834 962.499" stroke="black" stroke-width="0.851946" stroke-miterlimit="10"/>
<path d="M601.758 951.897C602.643 951.712 603.57 951.672 604.45 951.879C605.331 952.087 606.163 952.555 606.726 953.264C607.439 954.163 607.662 955.347 607.861 956.477" stroke="black" stroke-width="0.851946" stroke-miterlimit="10"/>
<path d="M591.903 948.533C592.745 947.929 593.926 947.89 594.858 948.342C595.79 948.794 596.47 949.69 596.763 950.684" stroke="black" stroke-width="0.851946" stroke-miterlimit="10"/>
<path d="M603.242 956.989C602.896 957.712 602.194 958.095 601.672 957.846C601.152 957.596 601.01 956.808 601.356 956.086C601.703 955.363 602.405 954.98 602.926 955.229C603.447 955.479 603.588 956.267 603.242 956.989Z" fill="black"/>
<path d="M593.677 953.841C593.331 954.563 592.628 954.947 592.107 954.697C591.586 954.448 591.445 953.659 591.791 952.937C592.137 952.215 592.84 951.831 593.361 952.081C593.882 952.33 594.024 953.118 593.677 953.841Z" fill="black"/>
<path d="M692.935 1052.65C698.126 1047.37 701.805 1040.62 703.428 1033.4" stroke="black" stroke-width="0.851946" stroke-miterlimit="10"/>
<path d="M704.824 1049.71C706.394 1046.61 707.396 1043.22 707.766 1039.77" stroke="black" stroke-width="0.851946" stroke-miterlimit="10"/>
<defs>
<filter id="filter0_i_765_656" x="11.8047" y="62.0977" width="235.336" height="131.037" filterUnits="userSpaceOnUse" color-interpolation-filters="sRGB">
<feFlood flood-opacity="0" result="BackgroundImageFix"/>
<feBlend mode="normal" in="SourceGraphic" in2="BackgroundImageFix" result="shape"/>
<feColorMatrix in="SourceAlpha" type="matrix" values="0 0 0 0 0 0 0 0 0 0 0 0 0 0 0 0 0 0 127 0" result="hardAlpha"/>
<feOffset dy="2.86283"/>
<feGaussianBlur stdDeviation="1.43141"/>
<feComposite in2="hardAlpha" operator="arithmetic" k2="-1" k3="1"/>
<feColorMatrix type="matrix" values="0 0 0 0 0 0 0 0 0 0 0 0 0 0 0 0 0 0 0.25 0"/>
<feBlend mode="normal" in2="shape" result="effect1_innerShadow_765_656"/>
</filter>
<filter id="filter1_i_765_656" x="19.4277" y="67.6207" width="7.97266" height="10.8348" filterUnits="userSpaceOnUse" color-interpolation-filters="sRGB">
<feFlood flood-opacity="0" result="BackgroundImageFix"/>
<feBlend mode="normal" in="SourceGraphic" in2="BackgroundImageFix" result="shape"/>
<feColorMatrix in="SourceAlpha" type="matrix" values="0 0 0 0 0 0 0 0 0 0 0 0 0 0 0 0 0 0 127 0" result="hardAlpha"/>
<feOffset dy="2.86283"/>
<feGaussianBlur stdDeviation="1.43141"/>
<feComposite in2="hardAlpha" operator="arithmetic" k2="-1" k3="1"/>
<feColorMatrix type="matrix" values="0 0 0 0 0 0 0 0 0 0 0 0 0 0 0 0 0 0 0.25 0"/>
<feBlend mode="normal" in2="shape" result="effect1_innerShadow_765_656"/>
</filter>
<filter id="filter2_i_765_656" x="32.208" y="67.6207" width="7.97266" height="10.8348" filterUnits="userSpaceOnUse" color-interpolation-filters="sRGB">
<feFlood flood-opacity="0" result="BackgroundImageFix"/>
<feBlend mode="normal" in="SourceGraphic" in2="BackgroundImageFix" result="shape"/>
<feColorMatrix in="SourceAlpha" type="matrix" values="0 0 0 0 0 0 0 0 0 0 0 0 0 0 0 0 0 0 127 0" result="hardAlpha"/>
<feOffset dy="2.86283"/>
<feGaussianBlur stdDeviation="1.43141"/>
<feComposite in2="hardAlpha" operator="arithmetic" k2="-1" k3="1"/>
<feColorMatrix type="matrix" values="0 0 0 0 0 0 0 0 0 0 0 0 0 0 0 0 0 0 0.25 0"/>
<feBlend mode="normal" in2="shape" result="effect1_innerShadow_765_656"/>
</filter>
<filter id="filter3_i_765_656" x="504.674" y="76.3453" width="219.042" height="127.963" filterUnits="userSpaceOnUse" color-interpolation-filters="sRGB">
<feFlood flood-opacity="0" result="BackgroundImageFix"/>
<feBlend mode="normal" in="SourceGraphic" in2="BackgroundImageFix" result="shape"/>
<feColorMatrix in="SourceAlpha" type="matrix" values="0 0 0 0 0 0 0 0 0 0 0 0 0 0 0 0 0 0 127 0" result="hardAlpha"/>
<feOffset dy="2.86283"/>
<feGaussianBlur stdDeviation="1.43141"/>
<feComposite in2="hardAlpha" operator="arithmetic" k2="-1" k3="1"/>
<feColorMatrix type="matrix" values="0 0 0 0 0 0 0 0 0 0 0 0 0 0 0 0 0 0 0.25 0"/>
<feBlend mode="normal" in2="shape" result="effect1_innerShadow_765_656"/>
</filter>
<filter id="filter4_i_765_656" x="505.078" y="76.886" width="218.291" height="25.0497" filterUnits="userSpaceOnUse" color-interpolation-filters="sRGB">
<feFlood flood-opacity="0" result="BackgroundImageFix"/>
<feBlend mode="normal" in="SourceGraphic" in2="BackgroundImageFix" result="shape"/>
<feColorMatrix in="SourceAlpha" type="matrix" values="0 0 0 0 0 0 0 0 0 0 0 0 0 0 0 0 0 0 127 0" result="hardAlpha"/>
<feOffset dy="2.86283"/>
<feGaussianBlur stdDeviation="1.43141"/>
<feComposite in2="hardAlpha" operator="arithmetic" k2="-1" k3="1"/>
<feColorMatrix type="matrix" values="0 0 0 0 0 0 0 0 0 0 0 0 0 0 0 0 0 0 0.25 0"/>
<feBlend mode="normal" in2="shape" result="effect1_innerShadow_765_656"/>
</filter>
<filter id="filter5_i_765_656" x="511.613" y="81.1802" width="9.34961" height="12.2128" filterUnits="userSpaceOnUse" color-interpolation-filters="sRGB">
<feFlood flood-opacity="0" result="BackgroundImageFix"/>
<feBlend mode="normal" in="SourceGraphic" in2="BackgroundImageFix" result="shape"/>
<feColorMatrix in="SourceAlpha" type="matrix" values="0 0 0 0 0 0 0 0 0 0 0 0 0 0 0 0 0 0 127 0" result="hardAlpha"/>
<feOffset dy="2.86283"/>
<feGaussianBlur stdDeviation="1.43141"/>
<feComposite in2="hardAlpha" operator="arithmetic" k2="-1" k3="1"/>
<feColorMatrix type="matrix" values="0 0 0 0 0 0 0 0 0 0 0 0 0 0 0 0 0 0 0.25 0"/>
<feBlend mode="normal" in2="shape" result="effect1_innerShadow_765_656"/>
</filter>
<filter id="filter6_i_765_656" x="524.389" y="81.1801" width="9.34961" height="12.2128" filterUnits="userSpaceOnUse" color-interpolation-filters="sRGB">
<feFlood flood-opacity="0" result="BackgroundImageFix"/>
<feBlend mode="normal" in="SourceGraphic" in2="BackgroundImageFix" result="shape"/>
<feColorMatrix in="SourceAlpha" type="matrix" values="0 0 0 0 0 0 0 0 0 0 0 0 0 0 0 0 0 0 127 0" result="hardAlpha"/>
<feOffset dy="2.86283"/>
<feGaussianBlur stdDeviation="1.43141"/>
<feComposite in2="hardAlpha" operator="arithmetic" k2="-1" k3="1"/>
<feColorMatrix type="matrix" values="0 0 0 0 0 0 0 0 0 0 0 0 0 0 0 0 0 0 0.25 0"/>
<feBlend mode="normal" in2="shape" result="effect1_innerShadow_765_656"/>
</filter>
<filter id="filter7_i_765_656" x="1.41504" y="918.818" width="226.014" height="156.296" filterUnits="userSpaceOnUse" color-interpolation-filters="sRGB">
<feFlood flood-opacity="0" result="BackgroundImageFix"/>
<feBlend mode="normal" in="SourceGraphic" in2="BackgroundImageFix" result="shape"/>
<feColorMatrix in="SourceAlpha" type="matrix" values="0 0 0 0 0 0 0 0 0 0 0 0 0 0 0 0 0 0 127 0" result="hardAlpha"/>
<feOffset dy="2.65497"/>
<feGaussianBlur stdDeviation="1.32749"/>
<feComposite in2="hardAlpha" operator="arithmetic" k2="-1" k3="1"/>
<feColorMatrix type="matrix" values="0 0 0 0 0 0 0 0 0 0 0 0 0 0 0 0 0 0 0.25 0"/>
<feBlend mode="normal" in2="shape" result="effect1_innerShadow_765_656"/>
</filter>
<filter id="filter8_i_765_656" x="32.9707" y="924.906" width="8.70801" height="11.3644" filterUnits="userSpaceOnUse" color-interpolation-filters="sRGB">
<feFlood flood-opacity="0" result="BackgroundImageFix"/>
<feBlend mode="normal" in="SourceGraphic" in2="BackgroundImageFix" result="shape"/>
<feColorMatrix in="SourceAlpha" type="matrix" values="0 0 0 0 0 0 0 0 0 0 0 0 0 0 0 0 0 0 127 0" result="hardAlpha"/>
<feOffset dy="2.65497"/>
<feGaussianBlur stdDeviation="1.32749"/>
<feComposite in2="hardAlpha" operator="arithmetic" k2="-1" k3="1"/>
<feColorMatrix type="matrix" values="0 0 0 0 0 0 0 0 0 0 0 0 0 0 0 0 0 0 0.25 0"/>
<feBlend mode="normal" in2="shape" result="effect1_innerShadow_765_656"/>
</filter>
<filter id="filter9_i_765_656" x="47.373" y="924.906" width="8.70801" height="11.3636" filterUnits="userSpaceOnUse" color-interpolation-filters="sRGB">
<feFlood flood-opacity="0" result="BackgroundImageFix"/>
<feBlend mode="normal" in="SourceGraphic" in2="BackgroundImageFix" result="shape"/>
<feColorMatrix in="SourceAlpha" type="matrix" values="0 0 0 0 0 0 0 0 0 0 0 0 0 0 0 0 0 0 127 0" result="hardAlpha"/>
<feOffset dy="2.65497"/>
<feGaussianBlur stdDeviation="1.32749"/>
<feComposite in2="hardAlpha" operator="arithmetic" k2="-1" k3="1"/>
<feColorMatrix type="matrix" values="0 0 0 0 0 0 0 0 0 0 0 0 0 0 0 0 0 0 0.25 0"/>
<feBlend mode="normal" in2="shape" result="effect1_innerShadow_765_656"/>
</filter>
<filter id="filter10_i_765_656" x="385.06" y="1074.36" width="166.473" height="110.498" filterUnits="userSpaceOnUse" color-interpolation-filters="sRGB">
<feFlood flood-opacity="0" result="BackgroundImageFix"/>
<feBlend mode="normal" in="SourceGraphic" in2="BackgroundImageFix" result="shape"/>
<feColorMatrix in="SourceAlpha" type="matrix" values="0 0 0 0 0 0 0 0 0 0 0 0 0 0 0 0 0 0 127 0" result="hardAlpha"/>
<feOffset dy="2.65497"/>
<feGaussianBlur stdDeviation="1.32749"/>
<feComposite in2="hardAlpha" operator="arithmetic" k2="-1" k3="1"/>
<feColorMatrix type="matrix" values="0 0 0 0 0 0 0 0 0 0 0 0 0 0 0 0 0 0 0.25 0"/>
<feBlend mode="normal" in2="shape" result="effect1_innerShadow_765_656"/>
</filter>
<filter id="filter11_i_765_656" x="567.737" y="904.453" width="156.034" height="126.238" filterUnits="userSpaceOnUse" color-interpolation-filters="sRGB">
<feFlood flood-opacity="0" result="BackgroundImageFix"/>
<feBlend mode="normal" in="SourceGraphic" in2="BackgroundImageFix" result="shape"/>
<feColorMatrix in="SourceAlpha" type="matrix" values="0 0 0 0 0 0 0 0 0 0 0 0 0 0 0 0 0 0 127 0" result="hardAlpha"/>
<feOffset dy="2.65497"/>
<feGaussianBlur stdDeviation="1.32749"/>
<feComposite in2="hardAlpha" operator="arithmetic" k2="-1" k3="1"/>
<feColorMatrix type="matrix" values="0 0 0 0 0 0 0 0 0 0 0 0 0 0 0 0 0 0 0.25 0"/>
<feBlend mode="normal" in2="shape" result="effect1_innerShadow_765_656"/>
</filter>
<filter id="filter12_i_765_656" x="574.822" y="909.575" width="7.39258" height="10.0481" filterUnits="userSpaceOnUse" color-interpolation-filters="sRGB">
<feFlood flood-opacity="0" result="BackgroundImageFix"/>
<feBlend mode="normal" in="SourceGraphic" in2="BackgroundImageFix" result="shape"/>
<feColorMatrix in="SourceAlpha" type="matrix" values="0 0 0 0 0 0 0 0 0 0 0 0 0 0 0 0 0 0 127 0" result="hardAlpha"/>
<feOffset dy="2.65497"/>
<feGaussianBlur stdDeviation="1.32749"/>
<feComposite in2="hardAlpha" operator="arithmetic" k2="-1" k3="1"/>
<feColorMatrix type="matrix" values="0 0 0 0 0 0 0 0 0 0 0 0 0 0 0 0 0 0 0.25 0"/>
<feBlend mode="normal" in2="shape" result="effect1_innerShadow_765_656"/>
</filter>
<filter id="filter13_i_765_656" x="586.677" y="909.575" width="7.39258" height="10.0481" filterUnits="userSpaceOnUse" color-interpolation-filters="sRGB">
<feFlood flood-opacity="0" result="BackgroundImageFix"/>
<feBlend mode="normal" in="SourceGraphic" in2="BackgroundImageFix" result="shape"/>
<feColorMatrix in="SourceAlpha" type="matrix" values="0 0 0 0 0 0 0 0 0 0 0 0 0 0 0 0 0 0 127 0" result="hardAlpha"/>
<feOffset dy="2.65497"/>
<feGaussianBlur stdDeviation="1.32749"/>
<feComposite in2="hardAlpha" operator="arithmetic" k2="-1" k3="1"/>
<feColorMatrix type="matrix" values="0 0 0 0 0 0 0 0 0 0 0 0 0 0 0 0 0 0 0.25 0"/>
<feBlend mode="normal" in2="shape" result="effect1_innerShadow_765_656"/>
</filter>
</defs>
</svg>
