<svg width="100%" height="100%" viewBox="0 0 1931 1664" fill="none" xmlns="http://www.w3.org/2000/svg">
<path d="M0 140.294H1931V1589.62C1931 1589.62 1278.62 1756.16 965.5 1589.62C652.383 1423.08 0 1589.62 0 1589.62V140.294Z" fill="#526997"/>
<path d="M0 70.5637H1931V1519.89C1931 1519.89 1278.62 1686.43 965.5 1519.89C652.383 1353.35 0 1519.89 0 1519.89V70.5637Z" fill="#29467E"/>
<path d="M0 0.833252H1931V1450.16C1931 1450.16 1278.62 1616.7 965.5 1450.16C652.383 1283.62 0 1450.16 0 1450.16V0.833252Z" fill="#002366"/>
<path d="M1031.29 281.907C980.251 217.4 836.095 281.175 742.151 312.883C695.844 328.511 648.969 345.039 600.172 351.327C563.748 356.021 526.953 357.267 490.393 360.82C452.383 364.515 414.389 369.177 377.084 377.379C314.24 391.198 204.783 416.66 211.498 499.423C214.187 532.565 237.316 562.689 234.981 595.858C231.987 638.367 191.443 671.294 164.883 701.329C128.218 742.789 95.2454 788.799 101.293 846.435C106.169 892.925 137.038 933.777 175.096 962.028C213.155 990.28 258.194 1007.82 302.57 1025.13C370.162 1051.5 427.321 1082.38 480.493 1131.41C511.295 1159.81 544.091 1187.95 584.012 1201.72C637.656 1220.22 706.044 1204.12 727.89 1148.56C739.797 1118.26 743.146 1082.99 761.616 1055.47C780.641 1027.13 820.755 1003.27 856.144 1007.86C913.779 1015.33 936.257 1057.16 963.729 1101.15C977.147 1122.64 993.073 1142.42 1015.61 1155.32C1054.26 1177.45 1092.88 1168.82 1133.63 1159.84C1177.66 1150.15 1222.14 1142.31 1266.96 1137.07C1343 1128.18 1419.5 1132.16 1495.27 1141.51C1567.22 1150.39 1671.69 1196.66 1731.02 1133.86C1757.02 1106.35 1762.2 1068.68 1752.73 1033.54C1739.16 983.177 1709.97 927.268 1711.54 874.963C1713.87 797.743 1749.45 746.345 1792.94 686.007C1813.77 657.116 1829.81 625.012 1829.06 588.864C1827.34 505.698 1774.04 441.844 1718.46 384.504C1663.01 327.289 1644.49 300.316 1588.38 249.584" stroke="#6C91C2" stroke-width="3.02587" stroke-miterlimit="10"/>
<path d="M1587.04 247.831C1548.82 212.296 1495.85 272.639 1468.36 253.195C1398.37 201.907 1356.47 227.941 1324.26 249.68C1299.53 266.366 1287.81 305.655 1269.9 273.31C1255.15 249.68 1234.73 310.512 1201.97 325.934C1186 333.451 1168.44 335.71 1151.36 339.341C1134.28 342.973 1116.81 348.413 1103.73 360.878C1090.64 373.341 1083.18 394.502 1090.25 411.777C1095.81 425.345 1109.48 433.881 1123.15 434.302C1136.81 434.724 1150.14 427.834 1159.98 417.524C1229 345.191 1056.02 308.846 1029.87 280.015" stroke="#6C91C2" stroke-width="3.02587" stroke-miterlimit="10"/>
<path d="M1031.29 281.907C980.251 217.401 836.095 281.175 742.151 312.883C695.844 328.512 648.969 345.04 600.172 351.328C563.748 356.021 526.953 357.267 490.393 360.82C452.383 364.515 414.389 369.177 377.084 377.379C314.24 391.199 204.783 416.66 211.498 499.423C214.187 532.565 237.316 562.69 234.981 595.858C231.987 638.367 191.443 671.294 164.883 701.329C128.218 742.789 95.2454 788.799 101.293 846.436C106.169 892.925 137.038 933.777 175.096 962.029C213.155 990.281 258.194 1007.82 302.57 1025.13C370.162 1051.5 427.321 1082.38 480.493 1131.41C511.295 1159.81 544.091 1187.95 584.012 1201.72C637.656 1220.22 706.044 1204.12 727.89 1148.56C739.797 1118.26 743.146 1082.99 761.616 1055.47C780.641 1027.13 820.755 1003.27 856.144 1007.86C913.779 1015.33 936.257 1057.16 963.729 1101.15C977.147 1122.64 993.073 1142.42 1015.61 1155.32C1054.26 1177.45 1092.88 1168.82 1133.63 1159.84C1177.66 1150.15 1222.14 1142.31 1266.96 1137.07C1343 1128.18 1419.5 1132.16 1495.27 1141.51C1567.22 1150.39 1671.69 1196.66 1731.02 1133.86C1757.02 1106.35 1762.2 1068.68 1752.73 1033.54C1739.16 983.177 1709.97 927.268 1711.54 874.963C1713.87 797.743 1749.45 746.345 1792.94 686.008C1813.77 657.116 1829.81 625.012 1829.06 588.865C1827.34 505.698 1774.04 441.844 1718.46 384.504C1663.01 327.29 1644.49 300.316 1588.38 249.584" stroke="#6C91C2" stroke-width="3.02587" stroke-miterlimit="10"/>
<path d="M1587.04 247.832C1548.82 212.296 1495.85 272.64 1468.36 253.196C1398.37 201.907 1356.47 227.941 1324.26 249.68C1299.53 266.366 1287.81 305.655 1269.9 273.31C1255.15 249.68 1234.73 310.513 1201.97 325.935C1186 333.452 1168.44 335.71 1151.36 339.341C1134.28 342.973 1116.81 348.414 1103.73 360.879C1090.64 373.341 1083.18 394.502 1090.25 411.777C1095.81 425.346 1109.48 433.881 1123.15 434.302C1136.81 434.725 1150.14 427.834 1159.98 417.524C1229 345.191 1056.02 308.846 1029.87 280.015" stroke="#6C91C2" stroke-width="3.02587" stroke-miterlimit="10"/>
<g filter="url(#filter0_i_848_942)">
<rect x="71.0864" y="239.576" width="439.931" height="41.5789" rx="13.4125" fill="#F8F9FA"/>
<path d="M497.98 240.767C503.942 240.767 508.774 245.6 508.774 251.561V464.961C508.774 470.923 503.941 475.754 497.98 475.754H83.7988C77.8365 475.754 73.0051 470.921 73.0051 464.961V251.561C73.0051 245.6 77.8383 240.767 83.7988 240.767H497.98ZM497.98 238.186H83.7988C76.4234 238.186 70.4233 244.186 70.4233 251.561V464.961C70.4233 472.336 76.4234 478.336 83.7988 478.336H497.98C505.355 478.336 511.356 472.336 511.356 464.961V251.561C511.357 244.186 505.355 238.186 497.98 238.186Z" fill="white"/>
<path d="M497.981 475.754H83.7995C77.8373 475.754 73.0059 470.921 73.0059 464.96V269.551H508.776V464.96C508.776 470.923 503.943 475.754 497.981 475.754Z" fill="#AFB9E8"/>
<g filter="url(#filter1_i_848_942)">
<path d="M98.3533 256.002C98.3533 259.413 95.5874 262.179 92.1759 262.179C88.7645 262.179 85.9985 259.413 85.9985 256.002C85.9985 252.59 88.7645 249.824 92.1759 249.824C95.5874 249.824 98.3533 252.59 98.3533 256.002Z" stroke="white" stroke-width="2.58234" stroke-miterlimit="10"/>
</g>
<g filter="url(#filter2_i_848_942)">
<path d="M122.298 256.002C122.298 259.413 119.532 262.179 116.121 262.179C112.709 262.179 109.943 259.413 109.943 256.002C109.943 252.59 112.709 249.824 116.121 249.824C119.532 249.824 122.298 252.59 122.298 256.002Z" stroke="white" stroke-width="2.58234" stroke-miterlimit="10"/>
</g>
<path d="M73.0059 269.551H508.776" stroke="white" stroke-width="2.58234" stroke-miterlimit="10"/>
<path d="M473.74 445.824C469.358 440.015 461.88 434.669 456.041 438.669C451.143 442.025 450.96 449.604 451.341 455.903C437.451 436.24 420.924 418.8 402.45 404.307C392.439 396.455 380.935 389.197 368.639 390.143C356.342 391.09 349.964 408.345 353.196 421.328C319.622 376.871 282.179 345.337 243.185 318.051C229.877 308.739 215.109 299.759 199.321 294.451C182.527 288.804 159.328 282.186 144.154 295.298C137.653 300.916 134.266 309.488 133.344 318.03C132.202 328.603 133.991 339.769 136.872 349.957C143.764 374.327 154.817 397.305 167.638 418.951C180.465 440.604 208.677 476.162 208.677 476.162H487.094C484.961 465.076 480.338 454.57 473.74 445.824Z" fill="#909DF4"/>
</g>
<path d="M327.33 432.605C327.33 432.605 273.878 386.248 250.952 378.387C228.026 370.527 180.916 383.153 180.326 383.153C179.734 383.153 138.155 475.761 138.155 475.761H308.685L327.33 432.605Z" fill="#DC7B2C"/>
<path d="M428.875 558.465C432.774 562.532 436.825 566.451 441.018 570.215C445.063 573.847 449.493 577.087 453.438 580.803C454.411 581.72 455.299 582.723 456.184 583.725C459.409 587.374 462.662 591.063 465.012 595.33C465.325 595.898 465.63 596.486 466.099 596.932C466.571 597.378 467.254 597.66 467.876 597.474C468.521 597.281 468.931 596.653 469.204 596.037C470.34 593.479 470.058 590.512 469.363 587.801C468.917 586.056 468.308 584.359 467.821 582.625C467.416 581.19 466.826 579.644 467.043 578.155C478.494 582.939 487.809 591.608 498.25 598.314C500.387 599.688 505.098 600.199 505.892 598.309C506.942 595.808 491.707 584.52 484.73 577.059C489.99 579.747 495.57 582.562 500.319 586.099C503.61 588.55 507.202 590.641 511.128 591.889C513.331 592.589 518.39 593.627 517.359 589.603C517.054 588.415 516.159 587.483 515.281 586.629C508.46 580.007 500.227 575.329 493.06 569.085C501.129 572.267 508.534 577.969 517.202 578.269C518.047 578.298 518.959 578.252 519.625 577.732C520.639 576.942 520.978 575.842 520.319 574.739C519.658 573.635 518.52 572.923 517.424 572.252C509.381 567.331 501 561.893 492.957 556.973C497.282 558.146 501.283 560.265 505.425 561.973C509.57 563.68 514.04 565 518.488 564.446C519.92 564.267 521.698 563.346 521.372 561.942C521.216 561.262 520.596 560.806 520.02 560.413C510.243 553.73 500.467 547.046 490.692 540.365C487.95 538.49 485.206 536.614 482.394 534.845C479.008 532.714 475.1 531.132 471.955 528.734C469.499 526.864 466.533 525.475 463.9 523.857C457.394 519.86 451.092 515.55 444.982 510.97" fill="#FFCAA3"/>
<path d="M467.258 578.119C464.18 576.765 461.054 575.518 457.889 574.382" stroke="black" stroke-width="1.72156" stroke-miterlimit="10"/>
<path d="M485.188 577.038C481.013 574.181 476.687 571.542 472.234 569.14" stroke="black" stroke-width="1.72156" stroke-miterlimit="10"/>
<path d="M493.083 568.919C489.652 566.745 486.224 564.572 482.793 562.398" stroke="black" stroke-width="1.72156" stroke-miterlimit="10"/>
<path d="M496.861 559.102C494.307 557.695 491.849 556.115 489.508 554.377" stroke="black" stroke-width="1.72156" stroke-miterlimit="10"/>
<path d="M263.262 379.83C284.376 386.467 294.971 387.073 313.86 398.792C333.933 411.245 383.587 463.566 383.587 463.566C383.587 463.566 450.592 510.806 475.704 528.669L430.593 571.666C380.698 541.838 329.481 506.228 291.658 462.083" fill="#DC7B2C"/>
<path d="M186.65 466.78C186.65 466.78 207.59 455.549 216.805 453.23C229.57 450.02 244.709 449.113 248.768 450.349C250.668 450.927 257.82 453.866 261.562 458.243C265.536 459.981 267.15 460.852 269.51 461.845C271.87 462.838 272.978 465.616 275.45 467.733C277.92 469.85 280.633 475.747 280.633 475.747C280.633 475.747 261.789 475.811 256.496 475.986C251.202 476.162 245.486 486.269 233.642 489.849" fill="#FFCAA3"/>
<path d="M229.792 371.499C215.265 371.382 201.119 367.597 186.621 367.589C160.288 367.573 145.174 381.388 132.365 400.536C122.666 415.036 113.534 432.879 106.661 448.799C98.64 467.381 89.6554 488.073 87.3145 508.366C86.2439 517.648 87.5779 527.235 91.8688 535.485C99.8087 550.747 117.451 553.413 127.742 554.556C138.033 555.701 156.066 552.224 164.898 546.747C211.382 517.924 242.118 489.037 242.118 489.037L192.11 463.403L168.12 472.79L198.416 416.783" fill="#DC7B2C"/>
<path d="M195.955 421.33L168.12 472.794" stroke="black" stroke-width="1.72156" stroke-miterlimit="10"/>
<path d="M192.112 463.406C177.772 468.971 163.431 474.534 149.092 480.099C139.302 483.897 129.705 491.414 121.906 498.402" stroke="black" stroke-width="1.72156" stroke-miterlimit="10"/>
<path d="M174.93 470.396L226.738 502.276" stroke="black" stroke-width="1.72156" stroke-miterlimit="10"/>
<path d="M314.185 445.453C307.326 456.792 297.828 475.749 297.828 475.749" stroke="black" stroke-width="1.72156" stroke-miterlimit="10"/>
<path d="M457.413 515.7L407.152 557.563" stroke="black" stroke-width="1.72156" stroke-miterlimit="10"/>
<path d="M259.626 463.611C263.27 464.578 266.978 465.31 270.716 465.8C271.871 465.952 273.074 466.097 274.052 466.728" stroke="black" stroke-width="1.72156" stroke-miterlimit="10"/>
<path d="M262.843 459.224C262.196 458.899 261.514 458.649 260.833 458.399C257.225 457.074 253.511 455.73 249.669 455.83" stroke="black" stroke-width="1.72156" stroke-miterlimit="10"/>
<path d="M251.135 478.086C253.085 476.682 255.495 476.045 257.884 475.797C262.845 475.283 268.154 476.351 272.915 474.486" stroke="black" stroke-width="1.72156" stroke-miterlimit="10"/>
<path d="M64.8403 511.963C65.6441 531.578 78.1607 550.263 95.9941 558.472" stroke="black" stroke-width="1.72156" stroke-miterlimit="10"/>
<path d="M50.957 511.111C51.3632 523.91 56.6473 536.313 64.8402 543.695" stroke="black" stroke-width="1.72156" stroke-miterlimit="10"/>
<path d="M333.025 386.954C348.319 399.899 362.526 414.132 375.444 429.45" stroke="black" stroke-width="1.72156" stroke-miterlimit="10"/>
<path d="M333.364 371.606C344.031 379.527 353.807 388.646 362.447 398.737" stroke="black" stroke-width="1.72156" stroke-miterlimit="10"/>
<path d="M209.868 397.605C201.786 394.701 194.297 390.381 186.906 386.007C183.772 384.152 180.605 382.252 178.074 379.63C175.544 377.009 173.684 373.541 173.756 369.899C173.823 366.542 175.503 363.411 177.591 360.781C184.104 352.578 194.631 348.32 205.061 347.373C215.492 346.427 225.957 348.44 236.151 350.847C251.475 354.463 267.119 359.27 278.942 369.668C282.269 372.596 285.281 375.988 287.14 380.012C289.706 385.57 289.896 391.989 288.799 398.011C287.703 404.034 285.393 409.757 283.099 415.431" fill="#DC7B2C"/>
<path d="M251.324 337.063L230.718 343.067L231.179 353.427L220.749 371.222C220.749 371.222 245.405 380.771 254.675 400.243C264.773 401.744 268.817 393.558 268.817 393.558L278.744 369.77" fill="#FFCAA3"/>
<path d="M299.812 357.742C301.588 347.526 303.727 336.475 303.56 328.34C303.419 321.454 302.366 311.054 297.918 305.66C292.194 298.713 281.768 298.601 273.018 297.625C258.649 296.025 248.72 309.04 244.466 321.199C241.2 330.54 241.468 339.657 244.494 349.285C248.449 361.869 262.474 378.771 280.722 376.697C290.405 375.597 297.93 368.559 299.812 357.742Z" fill="#FFCAA3"/>
<path d="M282.178 335.419C282.002 336.939 280.918 338.063 279.754 337.929C278.591 337.795 277.79 336.454 277.966 334.932C278.142 333.412 279.228 332.288 280.389 332.423C281.553 332.557 282.353 333.898 282.178 335.419Z" fill="black"/>
<path d="M302.063 337.306C301.887 338.826 300.801 339.95 299.639 339.816C298.476 339.681 297.675 338.341 297.851 336.819C298.026 335.299 299.112 334.175 300.274 334.309C301.438 334.445 302.238 335.786 302.063 337.306Z" fill="black"/>
<path d="M293.246 333.939C292.804 337.459 293.167 341.036 293.174 344.568C293.179 346.754 293.257 350.604 290.417 351.1C288.554 351.425 284.498 350.315 284.498 350.315" stroke="black" stroke-width="1.72156" stroke-miterlimit="10"/>
<path d="M286.087 356.558L278.638 350.286C278.638 350.286 273.168 357.436 275.993 360.026C280.557 364.214 286.087 356.558 286.087 356.558Z" fill="white"/>
<path d="M298.182 307.836C301.467 312.977 303.282 317.113 303.421 332.537C304.994 332.144 306.588 331.743 308.001 330.95C309.414 330.156 310.65 328.908 311.065 327.342C311.834 324.44 309.672 321.569 309.554 318.569C309.467 316.402 310.459 314.335 311.636 312.512C312.542 311.109 313.602 309.712 313.819 308.056C314.125 305.724 312.664 303.507 310.922 301.925C307.032 298.395 301.818 296.989 297.35 294.398C295.185 293.144 294.033 291.183 292.023 289.71C289.753 288.045 287.326 286.596 284.785 285.384C278.925 282.586 272.494 281.074 266.012 280.799C253.451 280.262 241.041 284.952 232.284 293.727C220.707 305.33 216.06 327.457 223.323 340.272C227.418 347.494 231.177 353.429 231.177 353.429C231.642 354.167 241.659 345.174 242.274 343.952C242.895 342.712 243.129 341.323 243.509 339.99C244.805 335.444 249.325 334.681 253.2 333.261C258.85 331.192 261.677 326.161 262.771 320.483C263.401 317.22 263.494 313.877 263.585 310.555C263.566 311.299 268.133 312.903 268.816 313.115C275.553 315.192 283.166 315.559 290.004 313.719C292.023 313.177 294.175 312.481 295.77 311.103C296.207 310.726 298.908 308.576 298.182 307.836Z" fill="#1E1611"/>
<path d="M256.086 367.573C256.446 367.835 263.599 375.647 277.283 376.869" stroke="black" stroke-width="1.72156" stroke-miterlimit="10"/>
<path d="M270.123 324.605C271.34 322.222 273.775 320.5 276.431 320.153C279.085 319.805 281.882 320.839 283.674 322.829" stroke="black" stroke-width="1.72156" stroke-miterlimit="10"/>
<path d="M295.417 324.93C296.321 322.911 298.235 321.622 299.906 321.908C301.577 322.194 302.839 324.049 302.942 326.213" stroke="black" stroke-width="1.72156" stroke-miterlimit="10"/>
<path d="M289.339 339.335C287.599 344.509 282.095 347.258 277.047 345.475C271.998 343.692 269.317 338.05 271.057 332.876C272.797 327.702 278.301 324.953 283.35 326.736C288.398 328.519 291.08 334.161 289.339 339.335Z" stroke="#572A2F" stroke-width="1.72156" stroke-miterlimit="10"/>
<path d="M307.892 341.754C306.956 347.143 303.482 351.015 300.133 350.404C296.784 349.793 294.827 344.929 295.761 339.542C296.697 334.153 300.171 330.28 303.52 330.891C306.872 331.502 308.829 336.364 307.892 341.754Z" stroke="#572A2F" stroke-width="1.72156" stroke-miterlimit="10"/>
<path d="M296.648 336.684L289.846 335.411" stroke="#572A2F" stroke-width="1.72156" stroke-miterlimit="10"/>
<path d="M271.443 331.903L250.952 333.467" stroke="#572A2F" stroke-width="1.72156" stroke-miterlimit="10"/>
<path d="M256.809 337.16C256.707 332.192 250.003 328.297 245.594 329.881C234.991 333.688 238.562 352.676 248.415 354.497C251.201 355.012 255.203 353.915 256.189 350.759" fill="#FFCAA3"/>
<path d="M244.824 338.349L253.936 346.604" stroke="black" stroke-width="1.72156" stroke-miterlimit="10"/>
<path d="M252.127 331.036C254.346 332.371 256.146 334.423 257.217 336.843" stroke="black" stroke-width="1.72156" stroke-miterlimit="10"/>
<path d="M239.528 345.542C240.895 349.602 243.685 353.9 248.102 354.631C251.167 355.139 254.678 353.797 255.933 350.616" stroke="black" stroke-width="1.72156" stroke-miterlimit="10"/>
<path d="M216.129 317.59C216.335 310.908 217.069 304.176 219.243 297.854C221.416 291.532 225.12 285.606 230.465 281.591C233.424 279.369 236.806 277.778 240.227 276.372C243.109 275.188 246.052 274.121 249.1 273.472C260.52 271.041 272.349 274.654 283.046 279.332" fill="#FFC36C"/>
<path d="M288.162 280.248C285.343 277.53 281.695 275.775 277.902 274.802C275.64 274.222 273.301 273.907 270.971 274.022C269.759 274.083 268.554 274.26 267.363 274.494C259.086 276.122 251.624 280.465 244.45 284.904C234.87 290.832 225.307 297.212 218.281 306.018C215.744 309.197 213.5 312.865 213.273 316.925C213.147 319.175 213.655 321.417 214.391 323.548C215.634 327.14 218.555 332.264 221.001 335.175C242.07 315.465 265.735 299.873 293.057 290.61C292.914 286.697 290.981 282.966 288.162 280.248Z" fill="#FFC36C"/>
<path d="M217.494 307.038C217.494 307.038 235.281 282.241 268.295 274" stroke="black" stroke-width="1.72156" stroke-miterlimit="10"/>
<path d="M226.738 309.841C229.342 314.343 232.012 318.927 235.89 322.395" stroke="black" stroke-width="1.72156" stroke-miterlimit="10"/>
<path d="M247.521 291.197C250.219 296.88 253.566 302.276 257.484 307.248" stroke="black" stroke-width="1.72156" stroke-miterlimit="10"/>
<path d="M269.568 279.35C274.116 284.036 278.004 289.362 281.081 295.123" stroke="black" stroke-width="1.72156" stroke-miterlimit="10"/>
<path d="M277.174 276.668C281.081 281.48 284.507 287.195 287.057 292.768" stroke="black" stroke-width="1.72156" stroke-miterlimit="10"/>
<path d="M216.396 312.617C217.674 319.761 221.854 325.817 227.19 330.118" stroke="black" stroke-width="1.72156" stroke-miterlimit="10"/>
<path d="M204.231 364.613C214.302 368.375 224.474 372.186 233.435 378.126C242.397 384.064 251.472 392.408 254.673 402.672" stroke="black" stroke-width="1.72156" stroke-miterlimit="10"/>
<path d="M261.649 399.546C266.234 397.347 269.959 393.405 271.895 388.703" stroke="black" stroke-width="1.72156" stroke-miterlimit="10"/>
<path d="M173.752 368.814C178.41 395.562 213.695 390.445 230.13 398.737" stroke="black" stroke-width="1.72156" stroke-miterlimit="10"/>
<path d="M289.402 388.247C288.758 391.92 287.488 395.582 285.05 398.405C281.388 402.644 275.694 404.4 270.313 405.959" stroke="black" stroke-width="1.72156" stroke-miterlimit="10"/>
<path d="M275.183 399.546C277.63 416.367 280.107 435.218 279.324 452.198" stroke="black" stroke-width="1.72156" stroke-miterlimit="10"/>
<path d="M237.793 395.682C240.346 402.672 239.146 421.624 238.869 438.721" stroke="black" stroke-width="1.72156" stroke-miterlimit="10"/>
<g filter="url(#filter3_i_848_942)">
<rect x="124.736" y="875.331" width="409.082" height="41.5789" rx="13.4125" fill="#F8F9FA"/>
<path d="M521.021 1180.37H137.82C132.333 1180.37 127.887 1175.92 127.887 1170.44V911.83H530.954V1170.44C530.954 1175.92 526.506 1180.37 521.021 1180.37Z" fill="#FFEBC4" stroke="white" stroke-width="1.72156"/>
<path d="M532.676 886.784C532.676 880.348 527.459 875.13 521.022 875.13H137.82C131.384 875.13 126.166 880.346 126.166 886.784V1170.44C126.166 1176.87 131.383 1182.09 137.82 1182.09H521.022C527.458 1182.09 532.676 1176.87 532.676 1170.44V886.784ZM137.82 874.269H521.022C527.922 874.269 533.536 879.884 533.535 886.784V1170.44C533.535 1177.34 527.92 1182.95 521.02 1182.95H137.82C130.92 1182.95 125.306 1177.34 125.306 1170.44V886.784C125.306 879.884 130.92 874.269 137.82 874.269Z" fill="white" stroke="white" stroke-width="1.72156"/>
<g filter="url(#filter4_i_848_942)">
<path d="M157.83 894.504C157.83 898.65 154.469 902.012 150.324 902.012C146.178 902.012 142.818 898.65 142.818 894.504C142.818 890.357 146.179 886.998 150.324 886.998C154.469 886.998 157.83 890.359 157.83 894.504Z" stroke="white" stroke-width="2.58234" stroke-miterlimit="10"/>
</g>
<g filter="url(#filter5_i_848_942)">
<path d="M179.421 902.01C183.567 902.01 186.927 898.649 186.927 894.504C186.927 890.358 183.567 886.998 179.421 886.998C175.276 886.998 171.915 890.358 171.915 894.504C171.915 898.649 175.276 902.01 179.421 902.01Z" stroke="white" stroke-width="2.58234" stroke-miterlimit="10"/>
</g>
<path d="M127.026 910.969H531.815" stroke="white" stroke-width="2.58234" stroke-miterlimit="10"/>
<path d="M427.7 1133.48L427.087 1132.99L427.7 1133.48C432.939 1127 442.672 1125.67 450.584 1128.59L450.883 1127.78L450.584 1128.59C458.503 1131.51 464.834 1137.86 470.366 1144.68L471.035 1144.13L470.366 1144.68C479.09 1155.42 486.28 1167.49 491.636 1180.37H177.584C155.513 1162.47 134.231 1142.55 116.59 1120.1L115.913 1120.63L116.59 1120.1C107.95 1109.11 98.2904 1095.64 90.876 1081.22C83.4572 1066.79 78.322 1051.47 78.6522 1036.77L78.6522 1036.77C78.7573 1032.05 80.3804 1027.26 83.8061 1024.42C89.8605 1019.4 99.1078 1019.4 108.614 1021.61C118.066 1023.82 127.488 1028.14 133.612 1031.36C150.543 1040.26 165.177 1053.45 178.068 1067.82L179.53 1066.99C178.027 1062.22 177.145 1057.46 176.25 1052.62C175.767 1050 175.28 1047.37 174.689 1044.7L174.689 1044.7C173.827 1040.81 173.952 1037.27 175.188 1034.38C176.415 1031.51 178.773 1029.19 182.574 1027.77C189.96 1025.02 198.192 1026.52 206.09 1029.97C213.977 1033.41 221.406 1038.75 227.096 1043.46C235.982 1050.82 243.781 1059.34 251.623 1067.9C253.859 1070.35 256.1 1072.79 258.37 1075.22C268.724 1086.28 278.44 1097.79 287.025 1110.35L287.025 1110.35C287.613 1111.2 291.132 1116.15 294.494 1120.88C296.177 1123.24 297.824 1125.55 299.05 1127.27L300.525 1129.34L300.936 1129.91L301.044 1130.07L301.072 1130.1L301.079 1130.11L301.081 1130.12L301.081 1130.12C301.081 1130.12 301.081 1130.12 301.782 1129.62L301.081 1130.12L302.643 1132.31L302.643 1129.62V1129.62V1129.62V1129.62L302.643 1129.6L302.643 1129.55C302.644 1129.51 302.645 1129.44 302.648 1129.34C302.652 1129.15 302.662 1128.87 302.682 1128.52C302.722 1127.8 302.803 1126.76 302.964 1125.51C303.287 1122.99 303.932 1119.59 305.218 1116.06C307.791 1108.99 312.875 1101.51 322.982 1099.29C341.601 1095.21 361.218 1102.66 377.509 1113.3C393.773 1123.91 407.295 1138.38 420.726 1152.8L422.035 1154.2L422.213 1152.29C422.849 1145.45 423.652 1138.49 427.7 1133.48Z" fill="#FFDD99" stroke="white" stroke-width="1.72156"/>
</g>
<path d="M415.14 1046.53C412.844 1059.2 413.526 1072.3 413.588 1085.25C413.65 1098.2 414.693 1106.67 410.008 1118.43C405.779 1129.04 396.946 1132.65 392.335 1143.05C389.987 1148.34 381.083 1181.21 381.083 1181.21H261.506C261.506 1181.21 258.153 1129.54 276.592 1085.45C295.032 1041.36 318.082 1033.46 318.082 1033.46L386.112 1015.91L415.14 1046.53Z" fill="#735D9D"/>
<path d="M571.798 969.454C575.346 965.175 580.308 962.49 584.556 959.009C588.472 955.803 591.398 951.305 594.645 947.42C598.618 942.668 601.706 937.262 605.152 932.134C608.849 926.632 613.587 922.181 618.279 917.549C618.93 916.905 619.596 916.243 619.966 915.406C620.636 913.895 619.856 911.909 618.121 911.44C614.73 910.526 611.114 911.394 607.825 912.625C605.871 913.356 599.246 915.702 598.843 911.972C598.389 907.757 601.918 901.602 603.27 897.695C605.028 892.612 606.828 887.518 608.255 882.328C609.613 877.385 609.305 867.885 606.677 867.731C604.047 867.576 606.031 869.151 605.346 869.522C606.444 868.077 604.522 864.739 602.945 863.743C601.368 862.746 599.317 865.973 598.845 867.713C599.382 866.015 597.89 863.207 596.627 863.09C594.788 862.92 593.36 864.662 592.263 866.082C591.167 867.502 590.193 869.089 588.642 870.039C588.654 868.82 588.472 867.598 588.101 866.428C586.904 865.749 585.527 866.872 584.661 867.894C567.037 888.702 555.113 914.503 535.563 934.534" fill="#E27769"/>
<path d="M599.258 909.113C599.32 914.236 599.19 919.36 598.868 924.473" stroke="black" stroke-width="1.72156" stroke-miterlimit="10"/>
<path d="M604.786 868.302C603.247 873.137 600.276 877.223 598.044 881.72C594.49 888.879 591.314 896.213 588.016 903.49" stroke="black" stroke-width="1.72156" stroke-miterlimit="10"/>
<path d="M598.717 867.352C597.641 869.614 596.414 871.803 595.046 873.899C593.579 876.147 591.954 878.287 590.384 880.462C585.896 886.683 581.849 893.222 578.283 900.013" stroke="black" stroke-width="1.72156" stroke-miterlimit="10"/>
<path d="M588.033 870.811C586.845 873.345 584.907 875.433 583.077 877.55C577.346 884.18 572.411 891.497 568.413 899.296" stroke="black" stroke-width="1.72156" stroke-miterlimit="10"/>
<path d="M351.792 1022.76C373.187 1013.81 387.201 1004.41 408.382 994.869C427.481 986.268 454.281 979.213 473.113 970.032C499.155 957.336 523.574 943.314 544.98 924.105L583.869 965.047C583.869 965.047 528.913 1021.11 509.726 1032.04C463.49 1058.37 446.648 1063.31 398.585 1088.44" fill="#735D9D"/>
<path d="M413.043 1081.4C413.315 1071.73 415.52 1062.12 419.493 1053.3" stroke="black" stroke-width="1.72156" stroke-miterlimit="10"/>
<path d="M532.001 934.87L570.57 978.158" stroke="black" stroke-width="1.72156" stroke-miterlimit="10"/>
<path d="M345.569 1141.45C361.879 1141.76 378.121 1144.33 392.26 1152.92C399.05 1157.05 402.834 1162.57 404.705 1170.23C406.285 1176.7 406.796 1183.62 406.214 1190.25C406.159 1190.88 405.672 1191.46 405.13 1191.59C404.364 1191.78 402.823 1191.01 402.823 1191.01C402.823 1191.01 404.214 1197.59 402.741 1198.96C401.715 1199.91 399.779 1198.62 399.05 1197.82C398.202 1196.9 397.044 1194.54 397.044 1194.54C397.044 1194.54 398.016 1198.31 397.195 1198.96C395.976 1199.93 392.453 1197.48 391.62 1195.01C391.107 1196.41 390.271 1197.72 388.975 1197.37C384.899 1196.29 381.709 1190.52 378.355 1187.67C373.897 1183.87 367.917 1183.61 362.356 1183.69C359.797 1183.73 357.23 1183.79 354.678 1183.54C352.063 1183.28 349.709 1182.25 347.158 1181.74C342.411 1180.78 337.459 1180.34 332.643 1180.06" fill="#E27769"/>
<path d="M375.688 1175.43C380.164 1177.29 384.908 1179.36 387.428 1183.2C388.182 1184.34 388.7 1185.6 389.163 1186.87C390.137 1189.54 390.881 1192.28 391.622 1195.01" stroke="black" stroke-width="1.72156" stroke-miterlimit="10"/>
<path d="M382.112 1167.34C384.658 1168.95 387.154 1170.68 389.312 1172.79C391.47 1174.89 393.29 1177.4 394.273 1180.25C394.834 1181.88 395.114 1183.6 395.397 1185.3C395.977 1188.8 396.577 1192.3 397.195 1195.79" stroke="black" stroke-width="1.72156" stroke-miterlimit="10"/>
<path d="M390.854 1161.78C395.093 1164.94 398.413 1169.32 400.308 1174.25C401.985 1178.62 402.544 1183.32 403.091 1187.97C403.265 1189.44 403.437 1190.91 403.611 1192.38" stroke="black" stroke-width="1.72156" stroke-miterlimit="10"/>
<path d="M327.607 1025.9C327.607 1025.9 293.853 1030.89 280.899 1038.33C260.648 1049.96 251.746 1067.72 238.84 1097.83C225.934 1127.94 220.7 1141.15 220.575 1151.13C220.389 1165.82 227 1181.21 254.014 1181.21C302.137 1181.21 340.165 1181.21 340.165 1181.21L357.548 1140.61L290.51 1130.12L309.01 1086.81" fill="#735D9D"/>
<path d="M357.546 1140.61L290.508 1130.12L309.008 1086.81" stroke="black" stroke-width="1.72156" stroke-miterlimit="10"/>
<path d="M266.7 1136.31C267.217 1136.31 277.42 1129.96 290.51 1130.12" stroke="black" stroke-width="1.72156" stroke-miterlimit="10"/>
<path d="M339.053 1137.71L320.664 1181.21" stroke="black" stroke-width="1.72156" stroke-miterlimit="10"/>
<path d="M379.944 1036.24C380.831 1031.66 380.8 1026.77 380.065 1021.86" stroke="black" stroke-width="1.72156" stroke-miterlimit="10"/>
<path d="M308.504 1035.08C312.224 1044.37 320.451 1052.07 329.439 1056.01C340.756 1060.97 356.106 1061.88 366.922 1055.26C371.96 1052.17 375.426 1048.12 377.612 1043.48" stroke="black" stroke-width="1.72156" stroke-miterlimit="10"/>
<path d="M498.895 1052.49C519.049 1042.22 537.476 1028.58 553.175 1012.3" stroke="black" stroke-width="1.72156" stroke-miterlimit="10"/>
<path d="M536.486 1042.75C546.256 1035.18 555.416 1026.83 563.85 1017.8" stroke="black" stroke-width="1.72156" stroke-miterlimit="10"/>
<path d="M213.261 1125.8C208.997 1139.7 207.458 1154.43 208.76 1168.92" stroke="black" stroke-width="1.72156" stroke-miterlimit="10"/>
<path d="M199.802 1127.87C197.112 1135.67 195.573 1143.87 195.254 1152.12" stroke="black" stroke-width="1.72156" stroke-miterlimit="10"/>
<path d="M338.903 984.385L320.443 996.757L324.428 1009.95L318.877 1029.84C318.522 1031.11 318.738 1032.46 319.471 1033.55C322.486 1038.04 331.845 1049.2 350.392 1049.18C369.997 1049.17 369.721 1036.16 369.721 1036.16L373.291 1008.46" fill="#E27769"/>
<path d="M376.036 982.736C370.96 973.278 368.06 967.426 362.728 960.904C358.213 955.383 350.714 947.58 343.643 946.026C334.54 944.021 325.973 950.589 318.219 955.384C305.487 963.257 305.71 980.206 310.009 992.831C313.312 1002.53 320.142 1006.23 328.758 1012.14C340.018 1019.87 364.494 1023.37 375.002 1014.9C382.862 1008.57 381.411 992.753 376.036 982.736Z" fill="#E27769"/>
<path d="M348.826 981.903C349.428 983.37 349.009 984.931 347.886 985.392C346.766 985.853 345.368 985.039 344.766 983.573C344.163 982.108 344.583 980.545 345.706 980.084C346.826 979.623 348.224 980.437 348.826 981.903Z" fill="black"/>
<path d="M366.902 971.944C367.505 973.409 367.085 974.972 365.964 975.433C364.844 975.894 363.446 975.078 362.844 973.614C362.241 972.147 362.661 970.586 363.784 970.125C364.902 969.664 366.3 970.478 366.902 971.944Z" fill="black"/>
<path d="M357.222 978.314C359.246 980.118 361.685 981.332 364.128 982.459C365.641 983.158 370.685 984.502 369.56 986.956C368.837 988.533 365.887 991.024 365.887 991.024" stroke="black" stroke-width="1.72156" stroke-miterlimit="10"/>
<path d="M320.286 1024.79C320.286 1024.79 322.591 1018.89 323.152 1016.78C324.097 1013.22 321.1 1013.04 320.068 1009.91C319.529 1008.27 319.971 1006.27 320.334 1004.65C321.112 1001.18 322.901 997.282 321.298 993.778C320.285 991.559 318.106 990.153 316.362 988.447C314.617 986.741 313.197 984.141 314.241 981.936C315.477 979.326 319.128 979.132 321.367 977.309C323.605 975.488 324.128 972.276 323.975 969.395C323.822 966.514 323.157 963.612 323.662 960.772C323.753 960.261 323.894 959.73 324.255 959.357C325.348 958.224 327.171 959.321 328.543 960.092C331.009 961.479 333.992 961.307 336.572 960.262C337.88 959.732 339.08 958.761 339.552 957.431C339.844 956.61 339.841 955.717 339.984 954.856C340.127 953.995 340.466 953.094 341.209 952.637C341.75 952.307 342.417 952.266 343.049 952.293C345.041 952.383 347.001 953.08 348.602 954.271C349.943 955.269 350.695 955.992 352.385 955.928C354.008 955.866 355.569 955.329 357.191 955.801C359.146 956.371 360.452 958.162 361.605 959.841C364.779 964.46 367.953 969.08 371.127 973.7C372.714 971.409 374.325 969.068 375.107 966.393C375.886 963.718 375.706 960.605 373.95 958.441C372.258 956.357 369.37 955.422 367.933 953.154C366.344 950.648 366.59 947.026 366.418 944.188C366.23 941.09 365.277 937.962 363.507 935.346C361.795 932.814 358.917 930.847 355.869 931.079C354.104 931.214 352.426 932.06 350.659 932.007C349.566 931.974 348.514 931.599 347.511 931.167C342.862 929.172 338.832 925.935 334.2 923.902C329.569 921.869 323.758 921.251 319.761 924.353C317.711 925.943 316.352 928.353 314.121 929.677C307.689 933.494 298.46 926.303 292.331 930.587C288.375 933.351 288.253 939.338 284.922 942.83C280.664 947.295 272.919 946.121 268.087 949.958C263.213 953.828 263.194 961.546 266.118 967.042C267.564 969.758 269.669 972.555 269.046 975.567C268.657 977.443 267.272 978.922 266.094 980.435C264.413 982.6 263.044 985.099 262.709 987.82C262.373 990.542 263.208 993.504 265.304 995.27C266.607 996.368 268.592 996.888 269.578 998.309C270.688 999.91 271 1002.78 271.218 1004.67C271.411 1006.32 271.432 1008.02 271.933 1009.61C273.301 1013.96 278.098 1016.54 282.654 1016.55C284.756 1016.55 287.062 1016.15 288.79 1017.35C290.222 1018.33 290.806 1020.12 291.673 1021.63C294.496 1026.53 301.363 1028.59 306.419 1026.05C308.319 1025.1 310.074 1023.57 312.2 1023.54C314.312 1023.51 318.286 1025.14 320.286 1024.79Z" fill="#2C221D"/>
<path d="M349.973 1019.36C355.663 1020.78 366.445 1021.08 374.617 1015.91" stroke="black" stroke-width="1.72156" stroke-miterlimit="10"/>
<path d="M334.585 981.461C334.567 975.753 338.337 970.28 344.492 971.359" stroke="black" stroke-width="1.72156" stroke-miterlimit="10"/>
<path d="M355.801 967.242C355.608 965.615 356.83 963.713 358.67 962.779C360.51 961.844 362.797 961.985 364.083 963.034" stroke="black" stroke-width="1.72156" stroke-miterlimit="10"/>
<path d="M330.265 997.955C327.01 993.972 319.06 995.079 316.476 999.185C310.268 1009.06 325.308 1022.25 334.499 1017.44C337.1 1016.08 339.659 1012.63 338.447 1009.43" fill="#E27769"/>
<path d="M321.257 1006.58L333.956 1007.49" stroke="black" stroke-width="1.72156" stroke-miterlimit="10"/>
<path d="M322.54 995.953C325.201 995.623 327.979 996.148 330.396 997.435" stroke="black" stroke-width="1.72156" stroke-miterlimit="10"/>
<path d="M321.537 1015.82C325.245 1018.26 330.264 1019.98 334.329 1017.75C337.15 1016.21 339.154 1012.87 338.145 1009.48" stroke="black" stroke-width="1.72156" stroke-miterlimit="10"/>
<path d="M359.201 991.962C358.382 995.019 359.394 999.036 362.902 999.668C365.532 1000.14 368.379 998.523 369.229 995.977" stroke="black" stroke-width="1.72156" stroke-miterlimit="10"/>
<g filter="url(#filter6_i_848_942)">
<rect x="1546.47" y="690.238" width="313.853" height="41.5789" rx="13.4125" fill="#F8F9FA"/>
<path d="M1848.01 935.848H1559.55C1553.59 935.848 1548.76 931.015 1548.76 925.054V720.116H1858.81V925.054C1858.8 931.017 1853.97 935.848 1848.01 935.848Z" fill="#F9D4BB"/>
<path d="M1848.01 691.334C1853.97 691.334 1858.8 696.167 1858.8 702.128V925.054C1858.8 931.017 1853.97 935.848 1848.01 935.848H1559.55C1553.59 935.848 1548.76 931.015 1548.76 925.054V702.128C1548.76 696.166 1553.59 691.334 1559.55 691.334H1848.01ZM1848.01 688.752H1559.55C1552.17 688.752 1546.17 694.753 1546.17 702.128V925.054C1546.17 932.43 1552.17 938.43 1559.55 938.43H1848.01C1855.39 938.43 1861.39 932.43 1861.39 925.054V702.128C1861.39 694.753 1855.39 688.752 1848.01 688.752Z" fill="white"/>
<g filter="url(#filter7_i_848_942)">
<path d="M1574.1 706.569C1574.1 709.98 1571.34 712.746 1567.93 712.746C1564.51 712.746 1561.75 709.98 1561.75 706.569C1561.75 703.157 1564.51 700.391 1567.93 700.391C1571.34 700.391 1574.1 703.157 1574.1 706.569Z" stroke="white" stroke-width="2.58234" stroke-miterlimit="10"/>
</g>
<g filter="url(#filter8_i_848_942)">
<path d="M1598.05 706.569C1598.05 709.98 1595.28 712.746 1591.87 712.746C1588.46 712.746 1585.69 709.98 1585.69 706.569C1585.69 703.157 1588.46 700.391 1591.87 700.391C1595.28 700.391 1598.05 703.157 1598.05 706.569Z" stroke="white" stroke-width="2.58234" stroke-miterlimit="10"/>
</g>
<path d="M1548.76 720.116H1858.8" stroke="white" stroke-width="2.58234" stroke-miterlimit="10"/>
<path d="M1778.89 852.784C1771.79 851.542 1769.78 870.632 1773.19 876.985C1763.84 863.614 1752 843.135 1742.65 829.765C1732.16 814.768 1719.63 796.09 1700.72 791.209C1683.68 786.811 1674.79 801.648 1674.53 816.796C1674.27 831.299 1675.73 845.929 1678.42 860.17C1681.35 875.697 1685.15 893.382 1693.6 906.939C1684.62 892.532 1670.24 887.661 1654.17 888.999C1646.69 889.622 1638.91 892.14 1634.18 897.976C1626.62 907.312 1629.46 924.278 1632.68 935.851C1639.7 935.851 1646.73 935.851 1653.76 935.851C1691.13 935.851 1839.18 935.913 1839.18 935.913C1839.18 935.913 1801.93 856.819 1778.89 852.784Z" fill="#EF9748"/>
</g>
<path d="M1564.17 825.892C1533.36 826.35 1502.83 819.835 1473.36 810.853C1443.89 801.871 1390.2 782.151 1390.2 782.151L1374.87 828.438C1374.87 828.438 1454.24 878.716 1559.86 887.303" fill="#E27769"/>
<path d="M1630.14 838.462C1609.62 821.044 1565.14 822.288 1552.38 822.785C1539.63 823.283 1516.9 819.517 1516.9 819.517L1508.54 889.25C1508.54 889.25 1555.76 897.176 1582.04 899.095" fill="#333333"/>
<path d="M1572.29 855.191C1575.51 864.282 1574.04 877.657 1574.08 887.303C1574.11 895.907 1577.13 900.687 1578.4 909.197C1579.92 919.367 1585.69 926.633 1591.78 935.848H1722.57L1715.68 863.33L1697.88 837.6L1660.29 827.577L1575.42 849.898" fill="#333333"/>
<path d="M1613.35 837.602C1612.05 842.206 1611.1 847.371 1611.89 852.142C1612.82 857.733 1616.36 861.253 1621.42 863.332" stroke="#6D574E" stroke-width="1.72156" stroke-miterlimit="10"/>
<path d="M1627.85 864.871C1651.03 869.024 1675.42 852.455 1677.75 831.364" stroke="#6D574E" stroke-width="1.72156" stroke-miterlimit="10"/>
<path d="M1802.23 927.488C1800.35 922.023 1796.81 917.3 1793.18 912.81C1783.18 900.462 1771.98 889.081 1759.8 878.876L1716.03 918.717L1743.12 944.972L1711.49 1002.31L1753.44 1014.28C1753.44 1014.28 1785.55 978.819 1797.84 959.051C1803.87 949.349 1805.99 938.378 1802.23 927.488Z" fill="#E27769"/>
<path d="M1719.86 989.462C1719.86 989.462 1701.51 1015.87 1699.65 1020.64C1697.99 1024.92 1697.08 1030.28 1696.42 1034.84C1694.62 1047.42 1701.36 1060.35 1706.45 1066.45C1707.02 1067.14 1707.87 1067.59 1708.72 1067.75C1710.6 1068.1 1711.36 1067.12 1711.32 1064.89C1712.35 1066.29 1713.38 1067.69 1714.4 1069.09C1714.83 1069.67 1715.28 1070.27 1715.88 1070.57C1717.05 1071.14 1718.51 1070.44 1719.41 1069.3C1720.31 1068.15 1720.77 1066.67 1721.2 1065.23C1722.29 1066.8 1723.98 1068.46 1725.61 1067.49C1727.25 1066.52 1728.66 1063.03 1728.29 1061.03C1728.83 1062.79 1731.16 1062.84 1732.44 1061.56C1733.72 1060.28 1734.18 1058.27 1734.56 1056.39C1735.53 1051.65 1736.43 1046.76 1738.75 1042.62C1740.3 1039.86 1742.41 1037.57 1744.24 1035.04C1750.22 1026.81 1753.17 1016.32 1755.1 1005.99" fill="#E27769"/>
<path d="M1731.9 1030.17C1731.07 1032 1730.24 1033.83 1729.42 1035.66C1728.74 1037.14 1728.07 1038.63 1727.53 1040.17C1725.12 1047.04 1725.52 1054.9 1728.61 1061.44" stroke="black" stroke-width="1.72156" stroke-miterlimit="10"/>
<path d="M1718.08 1029.48C1716.4 1037.8 1715.72 1047.79 1716.91 1054.05C1717.69 1058.1 1719.46 1061.95 1721.62 1065.42" stroke="black" stroke-width="1.72156" stroke-miterlimit="10"/>
<path d="M1705.99 1026.36C1705.99 1026.36 1704.91 1032.49 1704.66 1035.96C1703.85 1046.98 1705.31 1057.62 1711.31 1065.79" stroke="black" stroke-width="1.72156" stroke-miterlimit="10"/>
<path d="M1386.45 829.219C1383.15 828.899 1379.85 828.579 1376.55 828.259C1373.59 827.973 1370.61 827.681 1367.78 826.774C1365.9 826.168 1364.11 825.299 1362.33 824.431C1355 820.861 1351.24 819.792 1344.23 815.66C1340.2 813.286 1336.08 811.049 1331.78 809.192C1327.57 807.372 1323.21 806.393 1319.32 803.933C1318.98 803.72 1318.63 803.479 1318.48 803.112C1318.36 802.83 1318.37 802.51 1318.41 802.205C1319.31 795.864 1332.24 797.315 1337.26 798.72C1338.78 799.143 1340.35 799.651 1341.89 799.338C1342 797.32 1341.11 795.389 1340.13 793.625C1337.23 788.434 1333 784.298 1329.17 779.785C1325.64 775.609 1322.06 771.437 1318.8 767.038C1315.75 762.919 1312.61 753.948 1315 752.853C1317.4 751.758 1316.12 753.944 1316.89 754.044C1315.34 753.092 1315.93 749.287 1317.04 747.788C1318.15 746.29 1321.23 748.559 1322.3 750.011C1321.19 748.621 1321.56 745.464 1322.7 744.899C1324.35 744.077 1326.31 745.185 1327.85 746.115C1329.39 747.044 1330.87 748.173 1332.66 748.498C1332.2 747.368 1331.93 746.161 1331.86 744.936C1332.73 743.872 1334.42 744.421 1335.59 745.061C1359.54 758.106 1379.97 777.864 1405.43 789.491" fill="#E27769"/>
<path d="M1336.85 788.773C1339.54 792.628 1341.35 797.267 1342.76 802.956" stroke="black" stroke-width="1.72156" stroke-miterlimit="10"/>
<path d="M1316.97 752.707C1320.15 756.661 1324.39 759.399 1328.1 762.788C1334 768.181 1339.61 773.874 1345.31 779.472" stroke="black" stroke-width="1.72156" stroke-miterlimit="10"/>
<path d="M1322.28 749.631C1324.1 751.352 1326.04 752.949 1328.07 754.412C1330.25 755.979 1332.54 757.388 1334.79 758.851C1341.22 763.032 1347.35 767.669 1353.13 772.717" stroke="black" stroke-width="1.72156" stroke-miterlimit="10"/>
<path d="M1333.5 749.001C1335.52 750.934 1338.08 752.182 1340.55 753.497C1348.29 757.612 1355.53 762.655 1362.07 768.485" stroke="black" stroke-width="1.72156" stroke-miterlimit="10"/>
<path d="M1380.53 830.895C1378.52 830.895 1374.5 826.202 1367.79 826.872" stroke="black" stroke-width="1.34125" stroke-miterlimit="10"/>
<path d="M1686.88 834.727C1696.19 835.628 1705.51 836.499 1714.38 839.846C1725.59 844.077 1735.33 852.029 1744.5 860.158C1754.08 868.651 1763.86 880.21 1773.19 889.073L1725.39 930.9L1691.54 897.918" fill="#333333"/>
<path d="M1743.12 944.972C1743.12 944.972 1750.19 935.92 1757.36 930.899" stroke="black" stroke-width="1.72156" stroke-miterlimit="10"/>
<path d="M1711.48 917.345L1761.32 876.984" stroke="#6D574E" stroke-width="1.72156" stroke-miterlimit="10"/>
<path d="M1526.81 892.158L1534.05 821.813" stroke="#6D574E" stroke-width="1.72156" stroke-miterlimit="10"/>
<path d="M1572.29 878.876C1572.29 878.876 1575.59 893.89 1576.5 900.329" stroke="#6D574E" stroke-width="1.72156" stroke-miterlimit="10"/>
<path d="M1689.85 897.792C1700.21 905.789 1725.39 930.899 1725.39 930.899" stroke="#6D574E" stroke-width="1.72156" stroke-miterlimit="10"/>
<path d="M1636.67 784.821L1658.95 793.849L1657.64 808.699L1668.87 830.402C1668.87 830.402 1663.39 850.869 1638.8 855.965C1618.04 860.268 1618.51 846.87 1618.51 846.87L1608.62 818.331" fill="#E27769"/>
<path d="M1589.62 796.255C1592.91 785.121 1594.69 778.286 1598.89 770.205C1602.46 763.363 1608.68 753.449 1615.82 750.244C1625.02 746.115 1635.54 751.18 1644.8 754.545C1660.02 760.074 1663.52 778.069 1661.75 792.384C1660.4 803.383 1653.98 808.808 1646.16 816.97C1635.95 827.636 1610.8 836.734 1597.81 830.085C1588.09 825.109 1586.14 808.047 1589.62 796.255Z" fill="#E27769"/>
<path d="M1748.73 863.552C1754.72 861.585 1757.66 854.54 1757.33 849.535C1756.79 841.474 1753.03 837.318 1752.41 832.338C1752 829.095 1752.97 825.813 1752.69 822.558C1752.24 817.183 1748.34 812.503 1743.52 810.078C1738.71 807.653 1733.1 807.215 1727.73 807.696C1723.61 808.064 1719.47 808.942 1715.38 808.358C1711.96 807.871 1708.75 806.384 1705.77 804.635C1700.5 801.544 1695.69 797.52 1692.3 792.439C1686.53 783.799 1685.3 772.931 1680.85 763.542C1678.6 758.812 1675.49 754.511 1671.76 750.839C1662.71 741.92 1654.09 738.617 1641.25 738.19C1632.46 737.898 1620.23 739.071 1613.5 747.271C1613.5 747.271 1600.5 747.605 1594.29 754.154C1586.93 761.929 1587.46 773.182 1593.89 782.151C1597.22 776.697 1600.05 770.927 1604.91 766.735C1604.35 767.619 1604.62 768.86 1605.34 769.621C1606.06 770.382 1607.13 770.726 1608.17 770.81C1610.95 771.036 1613.58 769.65 1616.03 768.306C1615.2 770.511 1614.85 772.895 1615.01 775.244C1615.04 775.74 1615.11 776.268 1615.44 776.642C1615.81 777.069 1616.42 777.184 1616.98 777.232C1620.81 777.554 1624.76 775.711 1626.97 772.564C1625.92 775.416 1625.01 778.995 1627.12 781.179C1628.61 782.723 1631.14 782.836 1633.13 782.027C1635.11 781.219 1636.69 779.669 1638.21 778.156C1637.48 778.885 1638.45 782.993 1638.62 783.941C1639.02 786.019 1639.65 788.036 1640.36 790.024C1642.53 796.136 1645.21 802.091 1648.69 807.577C1652.28 813.24 1657.41 817.534 1661.08 823.052C1663.4 826.55 1665.37 830.379 1668.5 833.185C1672.34 836.633 1677.63 839.226 1682.68 840.254C1687.77 841.29 1693.03 840.82 1698.17 840.652C1717.19 840.032 1731.61 849.554 1748.73 863.552Z" fill="#893D33"/>
<path d="M1704.37 740.407C1703.27 737.703 1701.67 735.225 1699.62 733.333C1692.2 726.509 1676.04 726.951 1670.52 736.223C1667.48 741.319 1668.96 747.876 1671.26 753.342L1675.8 763.304C1682.13 766.745 1690.14 766.891 1696.6 763.686C1701.99 761.01 1705.79 756.07 1706.06 749.948C1706.2 746.826 1705.61 743.471 1704.37 740.407Z" fill="#893D33"/>
<path d="M1638.4 798.202C1639.94 793.601 1647.32 791.925 1650.97 794.684C1659.74 801.322 1650.88 817.98 1641.17 816.806C1638.42 816.474 1635.01 814.286 1635.01 811.057" fill="#E27769"/>
<path d="M1649.22 802.801L1638.32 807.84" stroke="black" stroke-width="1.72156" stroke-miterlimit="10"/>
<path d="M1644.54 793.856C1642.08 794.453 1639.81 795.844 1638.11 797.785" stroke="black" stroke-width="1.72156" stroke-miterlimit="10"/>
<path d="M1652.06 811.049C1649.6 814.436 1645.75 817.629 1641.42 817.023C1638.42 816.603 1635.54 814.328 1635.29 810.999" stroke="black" stroke-width="1.72156" stroke-miterlimit="10"/>
<path d="M1613.68 832.936C1613.68 832.936 1623.91 832.448 1634.27 825.452" stroke="black" stroke-width="1.72156" stroke-miterlimit="10"/>
<path d="M1602.94 790.649C1601.32 793.468 1599.64 796.368 1597.03 798.312C1596.41 798.776 1595.74 799.188 1595.23 799.776C1594.5 800.62 1594.19 801.806 1594.41 802.897C1594.63 803.988 1595.38 804.961 1596.38 805.458" stroke="black" stroke-width="1.72156" stroke-miterlimit="10"/>
<path d="M1598.34 812.038C1599.98 813.396 1602.42 813.93 1604.36 812.892C1606.81 811.58 1606.86 808.456 1606.94 806.023" stroke="black" stroke-width="1.72156" stroke-miterlimit="10"/>
<path d="M1614.87 784.604C1616.66 784.229 1618.53 784.148 1620.31 784.568C1622.09 784.988 1623.77 785.933 1624.9 787.365C1626.35 789.183 1626.8 791.573 1627.2 793.857" stroke="black" stroke-width="1.72156" stroke-miterlimit="10"/>
<path d="M1594.96 777.807C1596.66 776.587 1599.04 776.508 1600.92 777.42C1602.81 778.334 1604.18 780.145 1604.77 782.152" stroke="black" stroke-width="1.72156" stroke-miterlimit="10"/>
<path d="M1617.87 794.892C1617.17 796.351 1615.75 797.126 1614.7 796.622C1613.65 796.117 1613.36 794.525 1614.06 793.066C1614.76 791.606 1616.18 790.832 1617.23 791.336C1618.28 791.84 1618.57 793.432 1617.87 794.892Z" fill="black"/>
<path d="M1598.54 788.53C1597.84 789.99 1596.42 790.764 1595.36 790.26C1594.31 789.756 1594.03 788.164 1594.73 786.704C1595.42 785.244 1596.84 784.47 1597.9 784.974C1598.95 785.478 1599.24 787.071 1598.54 788.53Z" fill="black"/>
<path d="M1799.07 988.148C1809.56 977.485 1816.99 963.848 1820.27 949.256" stroke="black" stroke-width="1.72156" stroke-miterlimit="10"/>
<path d="M1823.1 982.209C1826.27 975.952 1828.29 969.115 1829.04 962.141" stroke="black" stroke-width="1.72156" stroke-miterlimit="10"/>
<g filter="url(#filter9_i_848_942)">
<rect x="1157.5" y="1096.64" width="335.313" height="41.5789" rx="13.4125" fill="#F8F9FA"/>
<path d="M1479.29 1097.95C1485.25 1097.95 1490.09 1102.78 1490.09 1108.74V1299.87C1490.09 1305.83 1485.25 1310.66 1479.29 1310.66H1169.72C1163.75 1310.66 1158.92 1305.83 1158.92 1299.87V1108.75C1158.92 1102.78 1163.75 1097.95 1169.72 1097.95H1479.29M1479.29 1095.37H1169.72C1162.34 1095.37 1156.34 1101.37 1156.34 1108.74V1299.87C1156.34 1307.25 1162.34 1313.25 1169.72 1313.25H1479.29C1486.67 1313.25 1492.67 1307.25 1492.67 1299.87V1108.75C1492.67 1101.37 1486.67 1095.37 1479.29 1095.37Z" fill="white"/>
<path d="M1479.29 1310.67H1169.72C1163.75 1310.67 1158.92 1305.83 1158.92 1299.87V1126.73H1490.09V1299.87C1490.09 1305.83 1485.25 1310.67 1479.29 1310.67Z" fill="#C5B3DD"/>
<path d="M1184.27 1113.19C1184.27 1116.6 1181.5 1119.36 1178.09 1119.36C1174.68 1119.36 1171.91 1116.6 1171.91 1113.19C1171.91 1109.78 1174.68 1107.01 1178.09 1107.01C1181.5 1107.01 1184.27 1109.78 1184.27 1113.19Z" stroke="white" stroke-width="2.58234" stroke-miterlimit="10"/>
<path d="M1208.21 1113.19C1208.21 1116.6 1205.45 1119.36 1202.04 1119.36C1198.63 1119.36 1195.86 1116.6 1195.86 1113.19C1195.86 1109.78 1198.63 1107.01 1202.04 1107.01C1205.45 1107.01 1208.21 1109.78 1208.21 1113.19Z" stroke="white" stroke-width="2.58234" stroke-miterlimit="10"/>
<path d="M1158.92 1126.73H1490.09" stroke="white" stroke-width="2.58234" stroke-miterlimit="10"/>
<path d="M1443.63 1269.32C1427.15 1251.08 1408.01 1242.05 1398.28 1244.25C1383.96 1247.49 1386.56 1284.03 1386.96 1298.71C1380.05 1290.71 1371.48 1284.15 1361.95 1279.57C1354.78 1276.12 1346.61 1273.76 1338.87 1275.64C1331.14 1277.53 1324.32 1284.8 1325.23 1292.71C1307.21 1265.91 1282.33 1243.75 1253.63 1228.94C1235.48 1219.58 1186.16 1200.12 1177.71 1220.31C1168.45 1242.47 1221 1310.66 1221 1310.66H1475.66C1475.66 1310.66 1458.51 1285.8 1443.63 1269.32Z" fill="#A29DCE"/>
</g>
<path d="M1125.41 1074.45C1116.06 1064.66 1107.08 1045.73 1104.55 1035.64C1102.34 1026.76 1100.35 1017.67 1096.16 1009.46C1095.03 1007.25 1090.17 1002.14 1091.93 999.479C1095.48 994.126 1104.1 1001.18 1106.35 1004.37C1107.15 1005.51 1110.12 1010.31 1111.6 1010.59C1113.09 1010.88 1113.72 1005.12 1113.9 1002.65C1114.59 993.164 1114.64 982.822 1113.83 973.222C1113 963.336 1114.41 954.661 1117.51 954.203C1120.66 953.74 1120.5 955.601 1121.07 956.22C1121.57 953.089 1124.42 949.377 1126.26 950.422C1127.38 951.057 1127.79 952.459 1127.94 953.737C1128.1 955.014 1128.86 957.444 1128.86 957.444C1128.86 957.444 1130.64 950.78 1133.9 954.549C1135.55 956.454 1138.05 966.58 1139.66 969.795C1139.5 967.67 1138.96 966.486 1139.64 964.002C1140.02 962.654 1140.78 961.546 1142.24 962.255C1143.1 962.673 1143.35 963.525 1143.65 964.362C1145.28 968.899 1149.3 976.198 1150.76 980.794C1152.28 985.586 1153.8 990.379 1155.33 995.171C1158.19 1004.18 1160.99 1013.66 1163.04 1023.06C1164.94 1031.75 1171.9 1053.18 1171.9 1053.18" fill="#FBC3C3"/>
<path d="M1120.98 956.757C1121.81 961.912 1123.7 968.486 1124.73 974.329C1126.21 982.708 1126.88 990.465 1128.15 997.844" stroke="black" stroke-width="1.72156" stroke-miterlimit="10"/>
<path d="M1129.31 957.604C1130.3 962.019 1132.02 968.134 1133.17 973.159C1135.1 981.555 1136.51 989.08 1138.17 996.455" stroke="black" stroke-width="1.72156" stroke-miterlimit="10"/>
<path d="M1139.64 969.652C1142.08 977.675 1145.62 986.878 1148.43 997.032" stroke="black" stroke-width="1.72156" stroke-miterlimit="10"/>
<path d="M1112.54 1010.09C1111.91 1014.32 1111.6 1018.83 1108.77 1022.53" stroke="black" stroke-width="1.72156" stroke-miterlimit="10"/>
<path d="M1441.84 1310.67C1438.52 1301.82 1434.98 1292.52 1430 1284.41C1425.02 1276.29 1418.51 1268.87 1410.21 1263.79C1406.49 1261.51 1402.45 1259.72 1398.43 1257.95C1387.63 1253.18 1376.82 1248.4 1366.01 1243.63L1312.97 1222.94C1309.69 1219.89 1306.41 1216.84 1303.13 1213.79C1296.79 1207.89 1290.48 1201.98 1284.21 1196.01C1283.97 1195.78 1283.73 1195.55 1283.49 1195.32C1235.47 1149.49 1199.77 1098.29 1168.57 1038.53L1112.54 1063.1C1112.54 1063.1 1136.78 1145.68 1159.8 1180.74C1190.22 1227.05 1225.4 1269.17 1241.29 1282.5C1244.13 1292.03 1247.38 1301.43 1251.06 1310.67L1441.84 1310.67Z" fill="#FCDDD2"/>
<path d="M1121.57 1091.51L1181.67 1062.61" stroke="black" stroke-width="1.72156" stroke-miterlimit="10"/>
<path d="M1124.56 1057.83L1135.8 1085.01" stroke="black" stroke-width="1.72156" stroke-miterlimit="10"/>
<path d="M1143.61 1067.07C1143.61 1069.26 1141.83 1071.04 1139.64 1071.04C1137.45 1071.04 1135.67 1069.27 1135.67 1067.07C1135.67 1064.88 1137.44 1063.1 1139.64 1063.1C1141.83 1063.11 1143.61 1064.88 1143.61 1067.07Z" stroke="#D8A798" stroke-width="1.72156" stroke-miterlimit="10"/>
<path d="M1360.19 1309.49C1362.95 1305.89 1365.71 1302.29 1368.48 1298.69C1371.46 1294.81 1374.45 1290.92 1377.81 1287.36C1387.63 1276.99 1400.89 1269.6 1415.09 1268.06" stroke="#D8A798" stroke-width="1.72156" stroke-miterlimit="10"/>
<path d="M1239.63 1277.34C1239.63 1262.98 1244.43 1248.73 1252.69 1237.03C1263.09 1222.28 1278.4 1211.7 1296.91 1211.17" stroke="#D8A798" stroke-width="1.72156" stroke-miterlimit="10"/>
<path d="M1241.05 1281.94C1238.4 1274.05 1236.88 1265.2 1232.68 1257.95" stroke="black" stroke-width="1.72156" stroke-miterlimit="10"/>
<path d="M1296.09 1217.06L1292.59 1261.13C1292.59 1261.13 1307.41 1276.22 1327.78 1266.39C1348.15 1256.57 1363.01 1237.88 1363.01 1237.88L1356.35 1210.56" fill="#FBC3C3"/>
<path d="M1377.05 1162.14C1375 1155.7 1371.14 1149.81 1365.94 1145.56C1353.45 1135.34 1339.71 1135.62 1326.29 1143.5C1314.63 1150.35 1298.63 1161.16 1289.73 1171.51C1280.55 1182.18 1274.41 1195.46 1283.78 1207.95C1298.87 1228.04 1341.17 1221.23 1361.35 1204.75C1369.57 1198.04 1377.33 1187.15 1378.54 1176.42C1379.08 1171.64 1378.53 1166.75 1377.05 1162.14Z" fill="#FBC3C3"/>
<path d="M1323.7 1149.11C1316.97 1152.53 1309.61 1153.44 1302.25 1154.31C1298.71 1154.73 1294.03 1155.92 1294.67 1160.56C1295.08 1163.56 1297.69 1166.14 1299.86 1167.97" fill="#FBC3C3"/>
<path d="M1294.37 1194.86C1294.37 1194.86 1295.6 1192.11 1296.21 1190.73C1297.38 1188.08 1293.56 1186.29 1291.74 1185.37C1290.42 1184.71 1289.72 1184.12 1288.41 1184.99C1288.07 1185.21 1286.15 1187.06 1285.74 1186.73C1285.71 1186.71 1282.18 1182.6 1282.18 1182.6C1279.44 1186.88 1277.68 1195.02 1278.07 1199.85C1278.46 1204.67 1280.33 1209.47 1283.78 1212.87C1285.16 1214.23 1287.33 1216.2 1289 1217.2C1302.89 1225.56 1320.21 1224.92 1335.31 1219.05C1339.98 1217.24 1344.52 1214.81 1347.92 1211.14C1301.67 1210.47 1294.37 1194.86 1294.37 1194.86Z" fill="#FBC3C3"/>
<path d="M1349.52 1191.78C1349.32 1191.73 1349.11 1191.69 1348.91 1191.66C1345.82 1191.15 1342.77 1191.6 1339.72 1190.6C1337.27 1189.79 1334.99 1188.27 1333.65 1186.07C1332.06 1183.47 1334.24 1181.96 1336.36 1180.79C1339.49 1179.06 1342.54 1177.12 1345.09 1174.6C1349.28 1170.48 1351.49 1164.56 1349.67 1158.79C1347.7 1152.54 1341.54 1148.87 1336.77 1144.91C1332.16 1141.09 1326.28 1135.15 1328.22 1128.52C1330.17 1121.88 1336.59 1119.46 1342.93 1120.4C1346.33 1120.9 1349.76 1121.85 1353.16 1121.33C1354.88 1121.06 1356.53 1120.41 1358.23 1120.03C1363.47 1118.86 1369.51 1120.53 1372.62 1124.9C1374.87 1128.05 1375.74 1132.51 1379.21 1134.22C1380.87 1135.05 1382.82 1135.03 1384.63 1135.46C1388.31 1136.32 1391.42 1139.12 1392.92 1142.59C1394.42 1146.07 1394.36 1150.12 1393.01 1153.66C1390.59 1160.02 1386.97 1163.2 1389.94 1170.21C1396.84 1186.48 1399.74 1206.47 1383.26 1218.17C1378.93 1221.25 1373.5 1222.84 1369.9 1226.74C1367.65 1229.18 1365.81 1232.65 1362.51 1233C1360.3 1233.24 1358.21 1231.87 1356.69 1230.24C1355.33 1228.78 1354.26 1227.07 1353.21 1225.38C1351.75 1223.03 1350.26 1220.57 1349.96 1217.82C1349.53 1213.9 1351.57 1210.18 1353.42 1206.69C1355.16 1203.4 1358.67 1196.59 1354.52 1193.87C1353.09 1192.93 1351.25 1192.15 1349.52 1191.78Z" fill="#1E1611"/>
<path d="M1339.35 1156.22C1338.31 1153.07 1336.42 1149.93 1333.5 1151.36C1332.77 1151.71 1332.34 1152.52 1332.23 1153.32C1332.11 1154.12 1332.26 1154.94 1332.41 1155.73C1333.1 1159.47 1333.82 1163.31 1335.85 1166.52C1336.25 1167.17 1336.74 1167.81 1337.42 1168.16C1342 1170.45 1339.94 1158.02 1339.35 1156.22Z" fill="#1E1611"/>
<path d="M1310.43 1177.53L1297.47 1174.59C1297.47 1174.59 1296.2 1185.7 1301.71 1186.8C1307.21 1187.9 1310.43 1177.53 1310.43 1177.53Z" fill="white"/>
<path d="M1296.69 1164.49C1297.77 1165.89 1299.23 1166.98 1300.87 1167.63" stroke="black" stroke-width="1.72156" stroke-miterlimit="10"/>
<path d="M1311 1153.09C1315.86 1152.39 1320.59 1150.76 1324.86 1148.33" stroke="black" stroke-width="1.72156" stroke-miterlimit="10"/>
<path d="M1346.51 1192.23C1351.28 1188.63 1359.96 1192.08 1361.74 1197.43C1366.02 1210.3 1345.39 1221.03 1336.34 1213.06C1333.78 1210.81 1331.84 1206.21 1334.09 1202.92" fill="#FBC3C3"/>
<path d="M1354.29 1204.45L1339.7 1201.97" stroke="black" stroke-width="1.72156" stroke-miterlimit="10"/>
<path d="M1355.78 1192.1C1352.87 1190.99 1349.59 1190.82 1346.5 1191.6" stroke="black" stroke-width="1.72156" stroke-miterlimit="10"/>
<path d="M1334.42 1203.06C1332.79 1205.85 1333.28 1209.27 1335.05 1211.86C1338.28 1216.57 1346.08 1216.6 1350.79 1214.58" stroke="black" stroke-width="1.72156" stroke-miterlimit="10"/>
<path d="M1325.78 1166.88C1323.94 1168.22 1321.66 1168.23 1320.71 1166.91C1319.75 1165.59 1320.47 1163.44 1322.32 1162.1C1324.17 1160.76 1326.44 1160.75 1327.39 1162.07C1328.35 1163.39 1327.63 1165.55 1325.78 1166.88Z" fill="black"/>
<path d="M1370.2 1236.44C1323.7 1241.95 1295.23 1263.24 1295.23 1263.24L1303.32 1300.19C1344.91 1260.64 1385.37 1251.72 1385.77 1251.3L1370.2 1236.44Z" fill="#FCDDD2"/>
<path d="M1293.88 1239.64L1276.37 1250.88C1276.37 1250.88 1273.36 1282.3 1279.11 1299.01L1295.23 1263.24L1293.88 1239.64Z" fill="#FCDDD2"/>
<path d="M1295.23 1263.24L1303.32 1300.19C1344.91 1260.64 1385.37 1251.72 1385.77 1251.3" stroke="black" stroke-width="1.72156" stroke-miterlimit="10"/>
<path d="M1293.88 1239.64L1276.37 1250.88C1276.37 1250.88 1273.36 1282.3 1279.11 1299.01L1295.23 1263.24" stroke="black" stroke-width="1.72156" stroke-miterlimit="10"/>
<path d="M1121.32 1139.74C1126.02 1156.45 1132.98 1172.51 1141.96 1187.36" stroke="black" stroke-width="1.72156" stroke-miterlimit="10"/>
<path d="M1122.85 1168.44C1125.8 1179.18 1129.34 1189.76 1133.45 1200.11" stroke="black" stroke-width="1.72156" stroke-miterlimit="10"/>
<path d="M1409.94 1190.95C1410.19 1198.61 1407.22 1206.14 1402.66 1212.29C1398.1 1218.45 1392.04 1223.35 1385.64 1227.55" stroke="black" stroke-width="1.72156" stroke-miterlimit="10"/>
<path d="M1404.73 1227.28C1411.14 1223.64 1416.61 1218.36 1420.47 1212.09" stroke="black" stroke-width="1.72156" stroke-miterlimit="10"/>
<g filter="url(#filter10_i_848_942)">
<g filter="url(#filter11_i_848_942)">
<rect x="1348.72" y="182.916" width="409.082" height="41.5789" rx="13.4125" fill="#F8F9FA"/>
</g>
<path d="M1744.71 413.676H1361.05C1355.09 413.676 1350.26 408.843 1350.26 402.882V213.23H1755.5V402.881C1755.5 408.843 1750.67 413.676 1744.71 413.676Z" fill="#D5D8BC"/>
<path d="M1744.71 184.446C1750.67 184.446 1755.5 189.279 1755.5 195.24V402.881C1755.5 408.843 1750.67 413.674 1744.71 413.674H1361.05C1355.09 413.674 1350.26 408.841 1350.26 402.881V195.242C1350.26 189.279 1355.09 184.448 1361.05 184.448L1744.71 184.446ZM1744.71 181.865H1361.05C1353.68 181.865 1347.68 187.865 1347.68 195.24V402.881C1347.68 410.256 1353.68 416.256 1361.05 416.256H1744.71C1752.08 416.256 1758.08 410.256 1758.08 402.881V195.242C1758.08 187.866 1752.08 181.865 1744.71 181.865Z" fill="white"/>
<g filter="url(#filter12_i_848_942)">
<path d="M1369.43 193.505C1372.84 193.505 1375.61 196.271 1375.61 199.683C1375.61 203.094 1372.84 205.86 1369.43 205.86C1366.02 205.86 1363.25 203.094 1363.25 199.683C1363.25 196.271 1366.02 193.505 1369.43 193.505ZM1369.43 190.923C1364.6 190.923 1360.67 194.853 1360.67 199.683C1360.67 204.512 1364.6 208.442 1369.43 208.442C1374.26 208.442 1378.19 204.512 1378.19 199.683C1378.19 194.853 1374.26 190.923 1369.43 190.923Z" fill="white"/>
</g>
<g filter="url(#filter13_i_848_942)">
<path d="M1393.37 193.505C1396.79 193.505 1399.55 196.271 1399.55 199.683C1399.55 203.094 1396.79 205.86 1393.37 205.86C1389.96 205.86 1387.2 203.094 1387.2 199.683C1387.2 196.271 1389.96 193.505 1393.37 193.505ZM1393.37 190.923C1388.54 190.923 1384.62 194.853 1384.62 199.683C1384.62 204.512 1388.54 208.442 1393.37 208.442C1398.2 208.442 1402.13 204.512 1402.13 199.683C1402.13 194.853 1398.2 190.923 1393.37 190.923Z" fill="white"/>
</g>
<path d="M1350.26 213.23H1755.5" stroke="white" stroke-width="2.58234" stroke-miterlimit="10"/>
<path d="M1700.17 377.839C1692.58 365.164 1684.53 352.012 1672.07 344.281C1659.61 336.549 1641.37 336.257 1632.06 347.69C1623.82 357.825 1625.35 372.601 1627.32 385.595C1618.15 373.88 1607.4 363.438 1595.47 354.648C1586.26 347.864 1576.11 341.967 1564.93 339.842C1553.32 337.633 1540.08 340.067 1530.56 347.246C1517.56 357.043 1517.76 372.469 1519.03 387.349C1503.26 357.444 1485.72 327.778 1461.44 303.876C1455.15 297.69 1447.76 292.333 1439.27 289.963C1434.39 288.605 1428.89 288.34 1424.53 290.891C1417.89 294.765 1416.13 303.511 1415.94 311.198C1415.71 320.471 1416.78 329.776 1419.11 338.757C1414.87 334.203 1409.27 330.831 1403.16 329.663C1389.11 326.971 1375.23 337.604 1374.43 352.036C1373.6 367.051 1382.73 381.383 1389.71 393.994C1392.37 398.8 1395.1 403.588 1398.11 408.186C1398.7 409.082 1400.94 413.54 1402.3 413.54C1402.31 413.54 1720.27 413.54 1720.27 413.54C1713.57 402.339 1706.87 389.035 1700.17 377.839Z" fill="#B5AE6B"/>
</g>
<mask id="mask0_848_942" style="mask-type:luminance" maskUnits="userSpaceOnUse" x="1285" y="184" width="406" height="231">
<path d="M1679.58 414.004H1295.93C1289.97 414.004 1285.13 409.17 1285.13 403.21V195.569C1285.13 189.607 1289.97 184.776 1295.93 184.776H1679.58C1685.54 184.776 1690.38 189.609 1690.38 195.569V403.21C1690.38 409.17 1685.54 414.004 1679.58 414.004Z" fill="white"/>
</mask>
<g mask="url(#mask0_848_942)">
<path d="M1662.87 399.79L1556.52 195.965L1526.29 194.187L1502.56 213.558L1441.51 257.949L1510.14 459.094L1662.87 399.79Z" fill="white"/>
<path d="M1463.06 255.015C1468.99 259.96 1477.26 261.973 1484.8 260.313" stroke="black" stroke-width="1.72156" stroke-miterlimit="10"/>
<path d="M1492.24 257.949C1499.67 255.45 1506.26 250.522 1510.77 244.102C1515.27 237.682 1517.66 229.804 1517.47 221.964" stroke="black" stroke-width="1.72156" stroke-miterlimit="10"/>
<path d="M1633.85 324.009C1615.45 288.917 1560.23 178.326 1545.66 183.772C1528.94 190.02 1510.14 206.131 1510.14 206.131C1510.14 206.131 1519.15 234.959 1519.84 237.692C1522.34 247.66 1524.92 257.607 1527.57 267.536C1534.17 292.254 1540.05 317.337 1548.2 341.603C1556.47 366.249 1565.64 390.607 1575.53 414.651C1579.5 424.289 1582.68 435.586 1590.22 443.13C1594.5 447.486 1600.48 450.524 1606.57 449.989C1610.77 449.619 1614.63 447.624 1618.36 445.668C1634.79 437.062 1680.59 416.541 1680.59 416.541C1680.59 416.541 1657.05 368.269 1633.85 324.009Z" fill="#13431D"/>
<path d="M1540.03 458.884C1535.55 442.595 1527.9 427.605 1522.23 411.771C1514.81 391.057 1508.22 370.055 1500.57 349.423C1488.9 317.95 1472.34 274.43 1459.67 243.347C1459.67 243.347 1436.44 256.674 1431.76 259.905C1427.07 263.137 1428.09 270.826 1428.09 270.826C1446.58 339.786 1502.58 496.403 1502.58 496.403C1509.21 492.899 1525.66 483.661 1532.29 480.156C1541.03 475.54 1542.54 468.036 1540.03 458.884Z" fill="#13431D"/>
<path d="M1436.37 257.006C1457.84 290 1474.56 316.866 1496.95 349.252" stroke="black" stroke-width="1.72156" stroke-miterlimit="10"/>
<path d="M1539.3 192.101C1543.75 235.87 1546.47 279.813 1547.44 323.797" stroke="black" stroke-width="1.72156" stroke-miterlimit="10"/>
</g>
<path d="M1316.36 425.742C1311.88 429.159 1307.27 432.407 1302.55 435.479C1298 438.443 1293.12 440.96 1288.65 444.023C1287.54 444.779 1286.51 445.634 1285.48 446.486C1281.73 449.595 1277.95 452.736 1274.97 456.59C1274.57 457.103 1274.18 457.638 1273.65 458.005C1273.12 458.373 1272.4 458.545 1271.81 458.266C1271.2 457.975 1270.89 457.292 1270.72 456.641C1269.99 453.939 1270.73 451.051 1271.83 448.48C1272.54 446.824 1273.41 445.242 1274.15 443.603C1274.78 442.247 1275.6 440.812 1275.61 439.307C1263.56 442.268 1253.02 449.395 1241.67 454.411C1239.35 455.438 1234.61 455.218 1234.12 453.227C1233.47 450.595 1250.26 441.791 1258.3 435.495C1252.69 437.34 1246.74 439.259 1241.51 442.022C1237.88 443.936 1234.01 445.447 1229.94 446.075C1227.65 446.426 1222.49 446.674 1224.13 442.856C1224.62 441.731 1225.64 440.946 1226.64 440.238C1234.41 434.748 1243.26 431.397 1251.31 426.333C1242.84 428.233 1234.65 432.725 1226.04 431.684C1225.2 431.582 1224.3 431.397 1223.73 430.78C1222.85 429.842 1222.68 428.705 1223.5 427.715C1224.32 426.727 1225.56 426.199 1226.75 425.705C1235.45 422.083 1244.57 418.004 1253.28 414.383C1248.82 414.875 1244.54 416.352 1240.19 417.4C1235.83 418.448 1231.21 419.062 1226.9 417.828C1225.51 417.431 1223.9 416.247 1224.43 414.909C1224.69 414.262 1225.38 413.907 1226.01 413.606C1236.7 408.511 1247.39 403.417 1258.08 398.32C1261.07 396.892 1264.07 395.461 1267.13 394.146C1273.75 391.293 1280.15 388.029 1286.8 385.182C1293.77 382.194 1300.79 379.298 1307.84 376.489" fill="#7A492B"/>
<path d="M1275.4 439.24C1278.65 438.376 1281.93 437.627 1285.24 436.994" stroke="black" stroke-width="1.72156" stroke-miterlimit="10"/>
<path d="M1257.85 435.407C1262.42 433.228 1267.1 431.288 1271.87 429.6" stroke="black" stroke-width="1.72156" stroke-miterlimit="10"/>
<path d="M1251.31 426.168C1255.03 424.55 1258.76 422.93 1262.48 421.312" stroke="black" stroke-width="1.72156" stroke-miterlimit="10"/>
<path d="M1249.09 415.885C1251.83 414.889 1254.5 413.708 1257.08 412.352" stroke="black" stroke-width="1.72156" stroke-miterlimit="10"/>
<path d="M1431.76 259.905C1423.8 265.206 1415.93 271.127 1410.88 276.619C1402.78 285.428 1355.16 343.14 1355.16 343.14C1355.16 343.14 1306.39 372.556 1278.43 388.8L1309 438.596C1309 438.596 1365.67 418.223 1394.57 397.921C1420.84 379.466 1471.13 318.999 1471.13 318.999" fill="#13431D"/>
<path d="M1451.68 343.151L1436.37 295.511" stroke="black" stroke-width="1.72156" stroke-miterlimit="10"/>
<path d="M1304.16 373.662L1338.07 426.347" stroke="black" stroke-width="1.72156" stroke-miterlimit="10"/>
<path d="M1299.99 423.927L1328.13 410.901" stroke="black" stroke-width="1.72156" stroke-miterlimit="10"/>
<path d="M1318.83 410.247C1318.97 411.538 1318.04 412.698 1316.75 412.841C1315.46 412.982 1314.3 412.05 1314.16 410.76C1314.02 409.469 1314.95 408.309 1316.24 408.166C1317.53 408.025 1318.69 408.956 1318.83 410.247Z" stroke="black" stroke-width="1.72156" stroke-miterlimit="10"/>
<path d="M1305.09 416.472C1306.39 416.472 1307.44 415.419 1307.44 414.121C1307.44 412.822 1306.39 411.77 1305.09 411.77C1303.79 411.77 1302.74 412.822 1302.74 414.121C1302.74 415.419 1303.79 416.472 1305.09 416.472Z" stroke="black" stroke-width="1.72156" stroke-miterlimit="10"/>
<path d="M1354.84 343.858C1354.8 343.541 1354.76 343.225 1354.72 342.91C1361.21 340.963 1367.41 338.033 1373.04 334.254" stroke="black" stroke-width="1.72156" stroke-miterlimit="10"/>
<path d="M1377.78 287.716C1386.99 276.628 1398.28 267.263 1410.88 260.247" stroke="black" stroke-width="1.72156" stroke-miterlimit="10"/>
<path d="M1385.2 262.385C1393.93 255.893 1403.46 250.495 1413.52 246.361" stroke="black" stroke-width="1.72156" stroke-miterlimit="10"/>
<path d="M1478.49 171.757L1485.3 191.927L1509.6 215.436C1509.6 215.436 1510.23 229.422 1496.49 244.085C1482.84 258.636 1468.06 248.87 1468.06 248.87L1450.42 222.93" fill="#7A492B"/>
<path d="M1421.6 224.329C1418.81 215.373 1415.28 196.055 1415.55 188.698C1415.78 182.469 1417.64 176.374 1421.75 171.558C1427.03 165.357 1439.45 167.579 1447.38 166.825C1460.4 165.588 1468.54 181.018 1472.21 192.08C1475.03 200.578 1476.37 209.327 1473.49 217.995C1468.81 232.088 1453.78 246.333 1437.87 242.479C1429.23 240.384 1424.31 233.009 1421.6 224.329Z" fill="#7A492B"/>
<path d="M1490.79 169.231C1488.7 167.001 1485.82 165.25 1484.89 162.338C1484.38 160.724 1483.58 155.892 1483.06 154.281C1480.15 145.293 1472.61 142.284 1464.05 143.761C1463.14 135.165 1454.02 134.336 1446.53 134.25C1443.41 134.214 1440.24 133.909 1437.45 132.417C1434.49 130.838 1431.81 128.604 1428.37 128.275C1425.29 127.983 1422.12 128.997 1419.56 130.678C1410.68 136.515 1408.15 147.808 1397.27 151.217C1393.84 152.295 1390.25 152.613 1387.28 154.868C1385.07 156.55 1383.42 159.066 1383.11 161.83C1382.67 165.774 1385.27 168.173 1387.96 170.572C1391.1 173.371 1392.93 176.937 1392.68 181.195C1392.52 183.774 1391.83 186.285 1391.42 188.834C1390.25 196.092 1392.57 202.953 1398.65 207.347C1399.93 208.273 1401.66 209.141 1406.36 210.16C1409.66 210.878 1418.25 209.638 1418.25 209.638C1418.25 209.638 1416.13 197.292 1416.17 192.487C1416.2 187.915 1417.6 183.655 1420.27 180.003C1422.56 176.886 1427.55 175.789 1431.26 175.956C1436.83 176.206 1442.15 179.275 1447.69 178.626C1449.99 178.356 1452.17 177.386 1453.98 175.942C1461.42 180.763 1469.13 187.851 1470.84 196.494C1470.92 196.932 1472.02 202.05 1471.63 202.13C1478.01 200.788 1486.06 200.272 1488.93 193.301C1489.92 190.896 1489.42 188.368 1490.17 185.931C1490.79 183.912 1492.59 182.438 1493.43 180.5C1495.06 176.75 1493.58 172.213 1490.79 169.231Z" fill="#33281B"/>
<path d="M1464.25 195.437C1464.58 189.882 1472.25 185.817 1477.11 187.781C1488.81 192.504 1483.98 213.595 1472.88 215.203C1469.74 215.657 1465.31 214.255 1464.35 210.68" fill="#7A492B"/>
<path d="M1477.61 197.29L1467.05 206.13" stroke="black" stroke-width="1.72156" stroke-miterlimit="10"/>
<path d="M1469.75 188.79C1467.21 190.187 1465.1 192.406 1463.8 195.065" stroke="black" stroke-width="1.72156" stroke-miterlimit="10"/>
<path d="M1483.22 205.571C1481.51 210.055 1478.2 214.744 1473.23 215.368C1469.78 215.802 1465.91 214.146 1464.64 210.534" stroke="black" stroke-width="1.72156" stroke-miterlimit="10"/>
<path d="M1460.33 237.5C1460.33 237.5 1466.01 233.89 1469.75 225.942" stroke="black" stroke-width="1.72156" stroke-miterlimit="10"/>
<path d="M1431.08 202.96C1431.61 207.914 1432.15 212.865 1432.72 217.816C1432.79 218.499 1432.9 219.232 1433.37 219.733C1435.24 221.707 1439.52 220.759 1441.51 219.576" stroke="black" stroke-width="1.72156" stroke-miterlimit="10"/>
<path d="M1446.18 221.608L1437.61 226.609C1437.61 226.609 1440.93 232.961 1444.24 231.72C1450.42 229.412 1446.18 221.608 1446.18 221.608Z" fill="white"/>
<path d="M1435.44 192.253C1436.32 190.45 1438.12 189.24 1440.03 188.624C1443.25 187.583 1446.94 188.094 1449.76 189.974" stroke="black" stroke-width="1.72156" stroke-miterlimit="10"/>
<path d="M1415.44 199.44C1415.74 197.552 1416.83 196.124 1418.09 195.265C1420.23 193.814 1422.99 193.829 1425.36 195.303" stroke="black" stroke-width="1.72156" stroke-miterlimit="10"/>
<path d="M1446.77 199.638C1447.21 201.487 1446.4 203.262 1444.97 203.601C1443.53 203.94 1442.02 202.718 1441.58 200.869C1441.14 199.02 1441.95 197.246 1443.38 196.907C1444.81 196.568 1446.33 197.79 1446.77 199.638Z" fill="black"/>
<path d="M1427.03 205.514C1427.47 207.363 1426.66 209.137 1425.22 209.477C1423.79 209.817 1422.27 208.594 1421.84 206.745C1421.4 204.896 1422.2 203.122 1423.64 202.783C1425.07 202.444 1426.59 203.666 1427.03 205.514Z" fill="black"/>
<path d="M1421.82 178.35C1418.14 180.33 1416.54 184.657 1414.05 188.017C1410.02 193.447 1403.05 196.54 1396.32 195.874" stroke="black" stroke-width="1.72156" stroke-miterlimit="10"/>
<path d="M1454.61 175.447C1457.94 172.368 1460.34 168.283 1461.39 163.87" stroke="black" stroke-width="1.72156" stroke-miterlimit="10"/>
<path d="M1537 343.07C1537 343.07 1519.09 351.287 1507.06 356.739C1500.26 359.824 1488.85 368.261 1484.96 374.681C1480.01 382.848 1478.71 392.948 1479.28 401.288C1479.65 406.806 1482.17 413.055 1485.87 419.071C1488.31 423.033 1490.9 427.176 1493.17 426.637C1495.44 426.1 1494.62 420.546 1494.62 420.539C1494.63 420.875 1497.31 426.143 1497.93 426.563C1498.76 427.126 1499.74 427.613 1500.59 427.166C1501.75 426.556 1502.54 425.892 1503.1 424.708C1503.57 423.706 1503.61 422.667 1503.71 421.549C1503.8 420.536 1503.72 418.09 1503.66 417.059C1504.16 418.171 1504.65 421.639 1505.6 421.457C1506.55 421.272 1508.1 420.479 1508.95 419.439C1510.6 417.42 1511.48 414.894 1512.32 412.424C1512.33 413.021 1512.34 413.635 1512.57 414.19C1512.79 414.744 1513.28 415.233 1513.88 415.277C1514.63 415.333 1517.7 413.095 1518.14 412.489C1520.07 409.868 1520.79 406.36 1522.19 403.418C1523.35 400.964 1524.49 399.226 1526.17 397.091C1527.71 395.145 1530.04 392.737 1532.28 391.564C1536.83 389.177 1539.62 388.527 1544.27 386.327C1548.2 384.473 1552.04 382.182 1554.75 378.717" fill="#7A492B"/>
<path d="M1511.92 413.456C1512.27 409.537 1512.75 405.63 1513.36 401.743C1513.76 399.153 1514.24 396.544 1515.27 394.134C1516.97 390.186 1520.04 387.025 1523.06 383.962" stroke="black" stroke-width="1.72156" stroke-miterlimit="10"/>
<path d="M1504.08 417.921C1502.56 411.389 1502.72 404.599 1502.89 397.893C1502.94 396.039 1502.99 394.17 1503.43 392.37C1504.2 389.263 1506.08 386.568 1507.93 383.953" stroke="black" stroke-width="1.72156" stroke-miterlimit="10"/>
<path d="M1494.81 421.841C1492.72 415.341 1490.6 408.771 1490.02 401.966C1489.91 400.663 1489.86 399.353 1489.91 398.045C1490.08 393.164 1491.67 388.396 1494.07 384.143" stroke="black" stroke-width="1.72156" stroke-miterlimit="10"/>
<path d="M1552.25 245.935L1583.77 305.41L1513.42 353.59L1559.72 390.058C1559.72 390.058 1638.66 364.359 1660.17 351.61C1677.05 341.601 1684.3 315.606 1651.77 273.206C1619.25 230.806 1596.79 205.661 1590.12 198.59C1575.77 183.373 1558.69 177.053 1542.78 185.065" fill="#13431D"/>
<path d="M1552.25 245.935L1583.77 305.41L1513.42 353.588" stroke="black" stroke-width="1.72156" stroke-miterlimit="10"/>
<path d="M1554.06 373.662C1554.06 374.96 1553.01 376.013 1551.71 376.013C1550.41 376.013 1549.36 374.962 1549.36 373.662C1549.36 372.364 1550.41 371.311 1551.71 371.311C1553.01 371.311 1554.06 372.364 1554.06 373.662Z" stroke="black" stroke-width="1.72156" stroke-miterlimit="10"/>
<path d="M1566.23 368.69C1567.53 368.69 1568.58 367.637 1568.58 366.339C1568.58 365.04 1567.53 363.988 1566.23 363.988C1564.93 363.988 1563.88 365.04 1563.88 366.339C1563.88 367.637 1564.93 368.69 1566.23 368.69Z" stroke="black" stroke-width="1.72156" stroke-miterlimit="10"/>
<path d="M1538.25 373.151C1538.51 373.354 1568.58 358.197 1568.58 358.197" stroke="black" stroke-width="1.72156" stroke-miterlimit="10"/>
<path d="M1539.9 335.455C1540.2 335.25 1593.96 378.421 1593.96 378.421" stroke="black" stroke-width="1.72156" stroke-miterlimit="10"/>
<path d="M1582.05 306.003C1588.65 303.425 1595.29 300.647 1602.34 299.587C1609.88 298.453 1617.55 298.843 1625.13 299.236" stroke="black" stroke-width="1.72156" stroke-miterlimit="10"/>
<path d="M1559.72 390.057L1650.84 356.937" stroke="black" stroke-width="1.72156" stroke-miterlimit="10"/>
<path d="M33.5239 625.726C36.4745 640.925 43.9348 657.103 54.0189 669.583C67.1464 685.831 93.9197 696.346 105.432 672.722C110.786 661.735 113.457 643.956 100.696 636.093C99.7907 635.535 98.7742 635.033 97.677 635.02C95.2105 634.991 93.5748 637.32 92.8467 639.447C89.4363 649.412 94.9261 660.182 102.336 668.188C105.775 671.902 109.78 675.365 114.739 677.214C119.697 679.062 125.769 679.043 130.095 676.178C136.824 671.721 138.594 661.904 138.102 654.875" stroke="#8F96DB" stroke-width="3.02587" stroke-miterlimit="10"/>
<path d="M536.389 252.849C548.262 236.591 564.249 221.905 582.215 214.379C591.936 210.307 604.636 208.846 614.857 211.05C619.96 212.149 625.887 213.897 629.005 218.88C632.295 224.137 628.455 233.879 634.959 236.858C636.629 237.622 638.529 237.438 640.322 237.145C645.959 236.225 651.444 234.381 657.083 233.48C662.724 232.582 668.729 232.703 673.807 235.517C678.885 238.332 682.745 244.362 681.987 250.499C681.691 252.902 680.729 255.28 681.138 257.664C681.824 261.65 685.982 263.735 689.701 264.116C697.402 264.902 704.723 264.631 711.269 269.984C716.073 273.911 718.832 280.935 716.374 286.573" stroke="#FFDD99" stroke-width="3.02587" stroke-miterlimit="10"/>
<path d="M982.934 419.232C985.927 411.999 989.281 404.747 994.504 399.208C999.728 393.669 1007.18 390.055 1014.35 391.568C1018.05 392.352 1021.56 394.446 1025.33 394.361C1030.52 394.243 1034.96 389.906 1037.3 384.868C1039.63 379.83 1040.31 374.116 1041.26 368.572C1042.77 359.719 1045.23 350.671 1050.8 344.008C1056.38 337.345 1065.8 333.773 1073.26 337.724" stroke="#FFDD99" stroke-width="3.02587" stroke-miterlimit="10"/>
<path d="M817.971 1126.2C819.835 1114.12 811.6 1102.56 799.577 1100.37C787.555 1098.18 776.298 1106.2 774.434 1118.27C772.57 1130.35 780.805 1141.92 792.827 1144.1C804.85 1146.29 816.107 1138.28 817.971 1126.2Z" stroke="#909DF4" stroke-width="3.02587" stroke-miterlimit="10"/>
<path d="M853.735 258.619C863.906 258.619 872.151 249.665 872.151 238.62C872.151 227.574 863.906 218.62 853.735 218.62C843.564 218.62 835.319 227.574 835.319 238.62C835.319 249.665 843.564 258.619 853.735 258.619Z" stroke="#8F96DB" stroke-width="3.02587" stroke-miterlimit="10"/>
<path d="M1509.03 1005.86L1521.23 1093.19L1569.21 1054.8L1509.03 1005.86Z" fill="#FFDD99"/>
<path d="M210.726 833.312L243.182 793.348L187.736 795.508L210.726 833.312Z" stroke="#8F96DB" stroke-width="3.02587" stroke-miterlimit="10"/>
<path d="M588.416 1159.81C595.673 1159.81 601.556 1153.42 601.556 1145.54C601.556 1137.66 595.673 1131.27 588.416 1131.27C581.16 1131.27 575.277 1137.66 575.277 1145.54C575.277 1153.42 581.16 1159.81 588.416 1159.81Z" fill="#FFDD99"/>
<path d="M335.99 529.177L304.4 604.032L400.926 588.829L335.99 529.177Z" fill="#ED725A"/>
<path d="M282.803 658.524C282.803 663.308 279.233 667.185 274.828 667.185C270.423 667.185 266.854 663.308 266.854 658.524C266.854 653.741 270.423 649.864 274.828 649.864C279.233 649.864 282.803 653.741 282.803 658.524Z" fill="#909DF4"/>
<path d="M1401.55 244.229C1401.55 249.012 1397.98 252.889 1393.57 252.889C1389.17 252.889 1385.6 249.012 1385.6 244.229C1385.6 239.445 1389.17 235.568 1393.57 235.568C1397.98 235.568 1401.55 239.445 1401.55 244.229Z" fill="#ED725A"/>
<path d="M1548.2 1000.43C1554.15 997.782 1561.84 998.295 1567.22 1002.22C1571.97 1005.68 1574.46 1012.2 1580.18 1014.23C1588.58 1017.21 1596 1008.71 1604.1 1008.13C1611.11 1007.63 1616.76 1012.78 1619.5 1019.43C1621.84 1025.11 1622.29 1031.47 1622.71 1037.69" stroke="#8F96DB" stroke-width="3.02587" stroke-miterlimit="10"/>
<path d="M1650.74 610.197C1653.65 602.327 1661.33 596.847 1669.14 597.064C1673.11 597.174 1677.14 598.606 1680.99 597.524C1692.96 594.158 1691.97 571.516 1703.79 567.596C1711.99 564.88 1720.9 573.503 1728.93 570.233C1735.83 567.418 1737.53 557.978 1739.71 550.332C1745.62 529.66 1763.11 513.467 1782.85 510.403" stroke="#8F96DB" stroke-width="3.02587" stroke-miterlimit="10"/>
<path d="M1538.22 602.324C1538.22 611.617 1530.69 619.15 1521.4 619.15C1512.1 619.15 1504.57 611.617 1504.57 602.324C1504.57 593.03 1512.11 585.497 1521.4 585.497C1530.69 585.497 1538.22 593.03 1538.22 602.324Z" stroke="#ED725A" stroke-width="3.02587" stroke-miterlimit="10"/>
<path d="M1031.68 1045.26C1031.68 1054.56 1024.15 1062.09 1014.85 1062.09C1005.56 1062.09 998.027 1054.56 998.027 1045.26C998.027 1035.97 1005.56 1028.44 1014.85 1028.44C1024.15 1028.44 1031.68 1035.97 1031.68 1045.26Z" stroke="#ED725A" stroke-width="3.02587" stroke-miterlimit="10"/>
<defs>
<filter id="filter0_i_848_942" x="70.4233" y="238.186" width="440.932" height="245.516" filterUnits="userSpaceOnUse" color-interpolation-filters="sRGB">
<feFlood flood-opacity="0" result="BackgroundImageFix"/>
<feBlend mode="normal" in="SourceGraphic" in2="BackgroundImageFix" result="shape"/>
<feColorMatrix in="SourceAlpha" type="matrix" values="0 0 0 0 0 0 0 0 0 0 0 0 0 0 0 0 0 0 127 0" result="hardAlpha"/>
<feOffset dy="5.36502"/>
<feGaussianBlur stdDeviation="2.68251"/>
<feComposite in2="hardAlpha" operator="arithmetic" k2="-1" k3="1"/>
<feColorMatrix type="matrix" values="0 0 0 0 0 0 0 0 0 0 0 0 0 0 0 0 0 0 0.25 0"/>
<feBlend mode="normal" in2="shape" result="effect1_innerShadow_848_942"/>
</filter>
<filter id="filter1_i_848_942" x="84.7075" y="248.533" width="14.937" height="20.3023" filterUnits="userSpaceOnUse" color-interpolation-filters="sRGB">
<feFlood flood-opacity="0" result="BackgroundImageFix"/>
<feBlend mode="normal" in="SourceGraphic" in2="BackgroundImageFix" result="shape"/>
<feColorMatrix in="SourceAlpha" type="matrix" values="0 0 0 0 0 0 0 0 0 0 0 0 0 0 0 0 0 0 127 0" result="hardAlpha"/>
<feOffset dy="5.36502"/>
<feGaussianBlur stdDeviation="2.68251"/>
<feComposite in2="hardAlpha" operator="arithmetic" k2="-1" k3="1"/>
<feColorMatrix type="matrix" values="0 0 0 0 0 0 0 0 0 0 0 0 0 0 0 0 0 0 0.25 0"/>
<feBlend mode="normal" in2="shape" result="effect1_innerShadow_848_942"/>
</filter>
<filter id="filter2_i_848_942" x="108.652" y="248.533" width="14.937" height="20.3023" filterUnits="userSpaceOnUse" color-interpolation-filters="sRGB">
<feFlood flood-opacity="0" result="BackgroundImageFix"/>
<feBlend mode="normal" in="SourceGraphic" in2="BackgroundImageFix" result="shape"/>
<feColorMatrix in="SourceAlpha" type="matrix" values="0 0 0 0 0 0 0 0 0 0 0 0 0 0 0 0 0 0 127 0" result="hardAlpha"/>
<feOffset dy="5.36502"/>
<feGaussianBlur stdDeviation="2.68251"/>
<feComposite in2="hardAlpha" operator="arithmetic" k2="-1" k3="1"/>
<feColorMatrix type="matrix" values="0 0 0 0 0 0 0 0 0 0 0 0 0 0 0 0 0 0 0.25 0"/>
<feBlend mode="normal" in2="shape" result="effect1_innerShadow_848_942"/>
</filter>
<filter id="filter3_i_848_942" x="77.7764" y="873.409" width="456.619" height="315.768" filterUnits="userSpaceOnUse" color-interpolation-filters="sRGB">
<feFlood flood-opacity="0" result="BackgroundImageFix"/>
<feBlend mode="normal" in="SourceGraphic" in2="BackgroundImageFix" result="shape"/>
<feColorMatrix in="SourceAlpha" type="matrix" values="0 0 0 0 0 0 0 0 0 0 0 0 0 0 0 0 0 0 127 0" result="hardAlpha"/>
<feOffset dy="5.36502"/>
<feGaussianBlur stdDeviation="2.68251"/>
<feComposite in2="hardAlpha" operator="arithmetic" k2="-1" k3="1"/>
<feColorMatrix type="matrix" values="0 0 0 0 0 0 0 0 0 0 0 0 0 0 0 0 0 0 0.25 0"/>
<feBlend mode="normal" in2="shape" result="effect1_innerShadow_848_942"/>
</filter>
<filter id="filter4_i_848_942" x="141.527" y="885.706" width="17.5947" height="22.9613" filterUnits="userSpaceOnUse" color-interpolation-filters="sRGB">
<feFlood flood-opacity="0" result="BackgroundImageFix"/>
<feBlend mode="normal" in="SourceGraphic" in2="BackgroundImageFix" result="shape"/>
<feColorMatrix in="SourceAlpha" type="matrix" values="0 0 0 0 0 0 0 0 0 0 0 0 0 0 0 0 0 0 127 0" result="hardAlpha"/>
<feOffset dy="5.36502"/>
<feGaussianBlur stdDeviation="2.68251"/>
<feComposite in2="hardAlpha" operator="arithmetic" k2="-1" k3="1"/>
<feColorMatrix type="matrix" values="0 0 0 0 0 0 0 0 0 0 0 0 0 0 0 0 0 0 0.25 0"/>
<feBlend mode="normal" in2="shape" result="effect1_innerShadow_848_942"/>
</filter>
<filter id="filter5_i_848_942" x="170.624" y="885.706" width="17.5947" height="22.9596" filterUnits="userSpaceOnUse" color-interpolation-filters="sRGB">
<feFlood flood-opacity="0" result="BackgroundImageFix"/>
<feBlend mode="normal" in="SourceGraphic" in2="BackgroundImageFix" result="shape"/>
<feColorMatrix in="SourceAlpha" type="matrix" values="0 0 0 0 0 0 0 0 0 0 0 0 0 0 0 0 0 0 127 0" result="hardAlpha"/>
<feOffset dy="5.36502"/>
<feGaussianBlur stdDeviation="2.68251"/>
<feComposite in2="hardAlpha" operator="arithmetic" k2="-1" k3="1"/>
<feColorMatrix type="matrix" values="0 0 0 0 0 0 0 0 0 0 0 0 0 0 0 0 0 0 0.25 0"/>
<feBlend mode="normal" in2="shape" result="effect1_innerShadow_848_942"/>
</filter>
<filter id="filter6_i_848_942" x="1546.17" y="688.752" width="315.212" height="255.043" filterUnits="userSpaceOnUse" color-interpolation-filters="sRGB">
<feFlood flood-opacity="0" result="BackgroundImageFix"/>
<feBlend mode="normal" in="SourceGraphic" in2="BackgroundImageFix" result="shape"/>
<feColorMatrix in="SourceAlpha" type="matrix" values="0 0 0 0 0 0 0 0 0 0 0 0 0 0 0 0 0 0 127 0" result="hardAlpha"/>
<feOffset dy="5.36502"/>
<feGaussianBlur stdDeviation="2.68251"/>
<feComposite in2="hardAlpha" operator="arithmetic" k2="-1" k3="1"/>
<feColorMatrix type="matrix" values="0 0 0 0 0 0 0 0 0 0 0 0 0 0 0 0 0 0 0.25 0"/>
<feBlend mode="normal" in2="shape" result="effect1_innerShadow_848_942"/>
</filter>
<filter id="filter7_i_848_942" x="1560.46" y="699.1" width="14.9365" height="20.3021" filterUnits="userSpaceOnUse" color-interpolation-filters="sRGB">
<feFlood flood-opacity="0" result="BackgroundImageFix"/>
<feBlend mode="normal" in="SourceGraphic" in2="BackgroundImageFix" result="shape"/>
<feColorMatrix in="SourceAlpha" type="matrix" values="0 0 0 0 0 0 0 0 0 0 0 0 0 0 0 0 0 0 127 0" result="hardAlpha"/>
<feOffset dy="5.36502"/>
<feGaussianBlur stdDeviation="2.68251"/>
<feComposite in2="hardAlpha" operator="arithmetic" k2="-1" k3="1"/>
<feColorMatrix type="matrix" values="0 0 0 0 0 0 0 0 0 0 0 0 0 0 0 0 0 0 0.25 0"/>
<feBlend mode="normal" in2="shape" result="effect1_innerShadow_848_942"/>
</filter>
<filter id="filter8_i_848_942" x="1584.4" y="699.1" width="14.9365" height="20.3021" filterUnits="userSpaceOnUse" color-interpolation-filters="sRGB">
<feFlood flood-opacity="0" result="BackgroundImageFix"/>
<feBlend mode="normal" in="SourceGraphic" in2="BackgroundImageFix" result="shape"/>
<feColorMatrix in="SourceAlpha" type="matrix" values="0 0 0 0 0 0 0 0 0 0 0 0 0 0 0 0 0 0 127 0" result="hardAlpha"/>
<feOffset dy="5.36502"/>
<feGaussianBlur stdDeviation="2.68251"/>
<feComposite in2="hardAlpha" operator="arithmetic" k2="-1" k3="1"/>
<feColorMatrix type="matrix" values="0 0 0 0 0 0 0 0 0 0 0 0 0 0 0 0 0 0 0.25 0"/>
<feBlend mode="normal" in2="shape" result="effect1_innerShadow_848_942"/>
</filter>
<filter id="filter9_i_848_942" x="1156.34" y="1095.37" width="336.475" height="223.242" filterUnits="userSpaceOnUse" color-interpolation-filters="sRGB">
<feFlood flood-opacity="0" result="BackgroundImageFix"/>
<feBlend mode="normal" in="SourceGraphic" in2="BackgroundImageFix" result="shape"/>
<feColorMatrix in="SourceAlpha" type="matrix" values="0 0 0 0 0 0 0 0 0 0 0 0 0 0 0 0 0 0 127 0" result="hardAlpha"/>
<feOffset dy="5.36502"/>
<feGaussianBlur stdDeviation="2.68251"/>
<feComposite in2="hardAlpha" operator="arithmetic" k2="-1" k3="1"/>
<feColorMatrix type="matrix" values="0 0 0 0 0 0 0 0 0 0 0 0 0 0 0 0 0 0 0.25 0"/>
<feBlend mode="normal" in2="shape" result="effect1_innerShadow_848_942"/>
</filter>
<filter id="filter10_i_848_942" x="1347.68" y="181.865" width="410.405" height="239.757" filterUnits="userSpaceOnUse" color-interpolation-filters="sRGB">
<feFlood flood-opacity="0" result="BackgroundImageFix"/>
<feBlend mode="normal" in="SourceGraphic" in2="BackgroundImageFix" result="shape"/>
<feColorMatrix in="SourceAlpha" type="matrix" values="0 0 0 0 0 0 0 0 0 0 0 0 0 0 0 0 0 0 127 0" result="hardAlpha"/>
<feOffset dy="5.36502"/>
<feGaussianBlur stdDeviation="2.68251"/>
<feComposite in2="hardAlpha" operator="arithmetic" k2="-1" k3="1"/>
<feColorMatrix type="matrix" values="0 0 0 0 0 0 0 0 0 0 0 0 0 0 0 0 0 0 0.25 0"/>
<feBlend mode="normal" in2="shape" result="effect1_innerShadow_848_942"/>
</filter>
<filter id="filter11_i_848_942" x="1348.72" y="182.916" width="409.082" height="46.9439" filterUnits="userSpaceOnUse" color-interpolation-filters="sRGB">
<feFlood flood-opacity="0" result="BackgroundImageFix"/>
<feBlend mode="normal" in="SourceGraphic" in2="BackgroundImageFix" result="shape"/>
<feColorMatrix in="SourceAlpha" type="matrix" values="0 0 0 0 0 0 0 0 0 0 0 0 0 0 0 0 0 0 127 0" result="hardAlpha"/>
<feOffset dy="5.36502"/>
<feGaussianBlur stdDeviation="2.68251"/>
<feComposite in2="hardAlpha" operator="arithmetic" k2="-1" k3="1"/>
<feColorMatrix type="matrix" values="0 0 0 0 0 0 0 0 0 0 0 0 0 0 0 0 0 0 0.25 0"/>
<feBlend mode="normal" in2="shape" result="effect1_innerShadow_848_942"/>
</filter>
<filter id="filter12_i_848_942" x="1360.67" y="190.923" width="17.5186" height="22.8833" filterUnits="userSpaceOnUse" color-interpolation-filters="sRGB">
<feFlood flood-opacity="0" result="BackgroundImageFix"/>
<feBlend mode="normal" in="SourceGraphic" in2="BackgroundImageFix" result="shape"/>
<feColorMatrix in="SourceAlpha" type="matrix" values="0 0 0 0 0 0 0 0 0 0 0 0 0 0 0 0 0 0 127 0" result="hardAlpha"/>
<feOffset dy="5.36502"/>
<feGaussianBlur stdDeviation="2.68251"/>
<feComposite in2="hardAlpha" operator="arithmetic" k2="-1" k3="1"/>
<feColorMatrix type="matrix" values="0 0 0 0 0 0 0 0 0 0 0 0 0 0 0 0 0 0 0.25 0"/>
<feBlend mode="normal" in2="shape" result="effect1_innerShadow_848_942"/>
</filter>
<filter id="filter13_i_848_942" x="1384.62" y="190.923" width="17.5186" height="22.8833" filterUnits="userSpaceOnUse" color-interpolation-filters="sRGB">
<feFlood flood-opacity="0" result="BackgroundImageFix"/>
<feBlend mode="normal" in="SourceGraphic" in2="BackgroundImageFix" result="shape"/>
<feColorMatrix in="SourceAlpha" type="matrix" values="0 0 0 0 0 0 0 0 0 0 0 0 0 0 0 0 0 0 127 0" result="hardAlpha"/>
<feOffset dy="5.36502"/>
<feGaussianBlur stdDeviation="2.68251"/>
<feComposite in2="hardAlpha" operator="arithmetic" k2="-1" k3="1"/>
<feColorMatrix type="matrix" values="0 0 0 0 0 0 0 0 0 0 0 0 0 0 0 0 0 0 0.25 0"/>
<feBlend mode="normal" in2="shape" result="effect1_innerShadow_848_942"/>
</filter>
</defs>
</svg>
