<svg width="171" height="42" viewBox="0 0 171 42" fill="none" xmlns="http://www.w3.org/2000/svg">
<path d="M9.192 18.788C8.056 18.788 6.992 18.7 6 18.524C5.024 18.364 4.16 18.084 3.408 17.684C2.672 17.268 2.088 16.7 1.656 15.98C1.24 15.244 1.032 14.324 1.032 13.22C1.032 13.188 1.032 13.148 1.032 13.1C1.032 13.036 1.04 12.972 1.056 12.908H6.072C6.056 12.972 6.048 13.036 6.048 13.1C6.048 13.148 6.048 13.196 6.048 13.244C6.048 13.724 6.16 14.092 6.384 14.348C6.608 14.604 6.92 14.78 7.32 14.876C7.736 14.956 8.2 14.996 8.712 14.996C8.904 14.996 9.104 14.996 9.312 14.996C9.536 14.98 9.744 14.956 9.936 14.924C10.144 14.876 10.328 14.812 10.488 14.732C10.664 14.652 10.8 14.548 10.896 14.42C10.992 14.276 11.04 14.1 11.04 13.892C11.04 13.588 10.904 13.348 10.632 13.172C10.36 12.996 9.992 12.844 9.528 12.716C9.064 12.588 8.544 12.468 7.968 12.356C7.392 12.244 6.792 12.116 6.168 11.972C5.544 11.812 4.944 11.612 4.368 11.372C3.792 11.132 3.272 10.828 2.808 10.46C2.344 10.076 1.976 9.604 1.704 9.044C1.432 8.468 1.296 7.78 1.296 6.98C1.296 6.02 1.496 5.204 1.896 4.532C2.296 3.86 2.84 3.316 3.528 2.9C4.232 2.484 5.024 2.18 5.904 1.988C6.8 1.796 7.736 1.7 8.712 1.7C9.704 1.7 10.632 1.804 11.496 2.012C12.376 2.204 13.152 2.508 13.824 2.924C14.496 3.34 15.024 3.868 15.408 4.508C15.792 5.148 15.992 5.908 16.008 6.788V7.076H11.04V6.98C11.04 6.692 10.968 6.42 10.824 6.164C10.68 5.908 10.448 5.7 10.128 5.54C9.824 5.38 9.416 5.3 8.904 5.3C8.424 5.3 8.016 5.348 7.68 5.444C7.36 5.54 7.12 5.676 6.96 5.852C6.8 6.012 6.72 6.188 6.72 6.38C6.72 6.684 6.856 6.932 7.128 7.124C7.4 7.316 7.768 7.476 8.232 7.604C8.696 7.732 9.216 7.852 9.792 7.964C10.368 8.076 10.968 8.204 11.592 8.348C12.216 8.476 12.816 8.652 13.392 8.876C13.968 9.1 14.488 9.396 14.952 9.764C15.416 10.116 15.784 10.556 16.056 11.084C16.328 11.612 16.464 12.26 16.464 13.028C16.464 14.388 16.144 15.492 15.504 16.34C14.88 17.188 14.016 17.812 12.912 18.212C11.824 18.596 10.584 18.788 9.192 18.788ZM27.3283 18.788C25.6003 18.788 24.1203 18.532 22.8883 18.02C21.6723 17.492 20.7363 16.716 20.0803 15.692C19.4243 14.652 19.0963 13.372 19.0963 11.852V1.988H24.4003V11.78C24.4003 12.66 24.6403 13.388 25.1203 13.964C25.6003 14.54 26.3283 14.828 27.3043 14.828C28.2803 14.828 29.0083 14.54 29.4883 13.964C29.9843 13.388 30.2323 12.66 30.2323 11.78V1.988H35.5363V11.852C35.5363 13.372 35.2083 14.652 34.5523 15.692C33.9123 16.716 32.9763 17.492 31.7443 18.02C30.5283 18.532 29.0563 18.788 27.3283 18.788ZM39.0885 18.5V1.988H48.8325C49.8725 1.988 50.7845 2.228 51.5685 2.708C52.3685 3.172 52.9925 3.82 53.4405 4.652C53.8885 5.484 54.1125 6.452 54.1125 7.556C54.1125 8.692 53.8805 9.684 53.4165 10.532C52.9685 11.364 52.3445 12.012 51.5445 12.476C50.7605 12.94 49.8565 13.172 48.8325 13.172H44.3925V18.5H39.0885ZM44.3925 9.308H47.0565C47.6165 9.308 48.0325 9.164 48.3045 8.876C48.5925 8.588 48.7365 8.164 48.7365 7.604C48.7365 7.22 48.6725 6.908 48.5445 6.668C48.4325 6.412 48.2485 6.22 47.9925 6.092C47.7525 5.964 47.4405 5.9 47.0565 5.9H44.3925V9.308ZM64.6168 18.788C62.7448 18.788 61.1448 18.468 59.8168 17.828C58.4888 17.188 57.4728 16.236 56.7688 14.972C56.0648 13.692 55.7128 12.116 55.7128 10.244C55.7128 8.356 56.0648 6.78 56.7688 5.516C57.4728 4.252 58.4888 3.3 59.8168 2.66C61.1448 2.02 62.7448 1.7 64.6168 1.7C66.5048 1.7 68.1128 2.02 69.4408 2.66C70.7688 3.3 71.7848 4.252 72.4888 5.516C73.1928 6.78 73.5448 8.356 73.5448 10.244C73.5448 12.116 73.1928 13.692 72.4888 14.972C71.7848 16.236 70.7688 17.188 69.4408 17.828C68.1128 18.468 66.5048 18.788 64.6168 18.788ZM64.6168 14.828C65.1928 14.828 65.6968 14.74 66.1288 14.564C66.5768 14.372 66.9448 14.108 67.2328 13.772C67.5368 13.436 67.7608 13.036 67.9048 12.572C68.0488 12.092 68.1208 11.572 68.1208 11.012V9.476C68.1208 8.916 68.0488 8.404 67.9048 7.94C67.7608 7.46 67.5368 7.052 67.2328 6.716C66.9448 6.38 66.5768 6.124 66.1288 5.948C65.6968 5.756 65.1928 5.66 64.6168 5.66C64.0408 5.66 63.5288 5.756 63.0808 5.948C62.6488 6.124 62.2888 6.38 62.0008 6.716C61.7128 7.052 61.4968 7.46 61.3528 7.94C61.2088 8.404 61.1368 8.916 61.1368 9.476V11.012C61.1368 11.572 61.2088 12.092 61.3528 12.572C61.4968 13.036 61.7128 13.436 62.0008 13.772C62.2888 14.108 62.6488 14.372 63.0808 14.564C63.5288 14.74 64.0408 14.828 64.6168 14.828ZM76.401 18.5V1.988H86.745C87.977 1.988 89.001 2.236 89.817 2.732C90.649 3.228 91.273 3.876 91.689 4.676C92.105 5.476 92.313 6.34 92.313 7.268C92.313 8.324 92.065 9.268 91.569 10.1C91.073 10.916 90.401 11.572 89.553 12.068L92.793 18.5H86.841L84.321 12.956H81.705V18.5H76.401ZM81.705 9.284H85.425C85.841 9.284 86.193 9.124 86.481 8.804C86.769 8.468 86.913 8.028 86.913 7.484C86.913 7.148 86.849 6.852 86.721 6.596C86.593 6.34 86.417 6.14 86.193 5.996C85.969 5.836 85.713 5.756 85.425 5.756H81.705V9.284ZM99.0463 18.5V6.212H93.6223V1.988H109.75V6.212H104.35V18.5H99.0463ZM112.239 18.5V1.988H126.519V5.948H117.543V8.228H125.223V12.02H117.543V14.54H126.687V18.5H112.239Z" fill="#DC7B2C"/>
<path d="M1.776 38.5V21.988H8.928C10.816 21.988 12.4 22.284 13.68 22.876C14.96 23.468 15.928 24.372 16.584 25.588C17.256 26.804 17.592 28.356 17.592 30.244C17.592 32.116 17.256 33.668 16.584 34.9C15.928 36.116 14.96 37.02 13.68 37.612C12.4 38.204 10.816 38.5 8.928 38.5H1.776ZM7.08 34.54H8.832C9.408 34.54 9.904 34.46 10.32 34.3C10.752 34.14 11.104 33.908 11.376 33.604C11.648 33.3 11.848 32.924 11.976 32.476C12.104 32.028 12.168 31.524 12.168 30.964V29.524C12.168 28.964 12.104 28.46 11.976 28.012C11.848 27.564 11.648 27.188 11.376 26.884C11.104 26.58 10.752 26.348 10.32 26.188C9.904 26.028 9.408 25.948 8.832 25.948H7.08V34.54ZM20.5277 38.5V21.988H34.8077V25.948H25.8317V28.228H33.5117V32.02H25.8317V34.54H34.9757V38.5H20.5277Z" fill="#F4F5F5"/>
<path d="M42.0885 38.5V21.988H49.2405C51.1285 21.988 52.7125 22.284 53.9925 22.876C55.2725 23.468 56.2405 24.372 56.8965 25.588C57.5685 26.804 57.9045 28.356 57.9045 30.244C57.9045 32.116 57.5685 33.668 56.8965 34.9C56.2405 36.116 55.2725 37.02 53.9925 37.612C52.7125 38.204 51.1285 38.5 49.2405 38.5H42.0885ZM47.3925 34.54H49.1445C49.7205 34.54 50.2165 34.46 50.6325 34.3C51.0645 34.14 51.4165 33.908 51.6885 33.604C51.9605 33.3 52.1605 32.924 52.2885 32.476C52.4165 32.028 52.4805 31.524 52.4805 30.964V29.524C52.4805 28.964 52.4165 28.46 52.2885 28.012C52.1605 27.564 51.9605 27.188 51.6885 26.884C51.4165 26.58 51.0645 26.348 50.6325 26.188C50.2165 26.028 49.7205 25.948 49.1445 25.948H47.3925V34.54ZM68.9762 38.788C67.1042 38.788 65.5042 38.468 64.1762 37.828C62.8482 37.188 61.8322 36.236 61.1282 34.972C60.4242 33.692 60.0722 32.116 60.0722 30.244C60.0722 28.356 60.4242 26.78 61.1282 25.516C61.8322 24.252 62.8482 23.3 64.1762 22.66C65.5042 22.02 67.1042 21.7 68.9762 21.7C70.8642 21.7 72.4722 22.02 73.8002 22.66C75.1282 23.3 76.1442 24.252 76.8482 25.516C77.5522 26.78 77.9042 28.356 77.9042 30.244C77.9042 32.116 77.5522 33.692 76.8482 34.972C76.1442 36.236 75.1282 37.188 73.8002 37.828C72.4722 38.468 70.8642 38.788 68.9762 38.788ZM68.9762 34.828C69.5522 34.828 70.0562 34.74 70.4882 34.564C70.9362 34.372 71.3042 34.108 71.5922 33.772C71.8962 33.436 72.1202 33.036 72.2642 32.572C72.4082 32.092 72.4802 31.572 72.4802 31.012V29.476C72.4802 28.916 72.4082 28.404 72.2642 27.94C72.1202 27.46 71.8962 27.052 71.5922 26.716C71.3042 26.38 70.9362 26.124 70.4882 25.948C70.0562 25.756 69.5522 25.66 68.9762 25.66C68.4002 25.66 67.8882 25.756 67.4402 25.948C67.0082 26.124 66.6482 26.38 66.3602 26.716C66.0722 27.052 65.8562 27.46 65.7122 27.94C65.5682 28.404 65.4962 28.916 65.4962 29.476V31.012C65.4962 31.572 65.5682 32.092 65.7122 32.572C65.8562 33.036 66.0722 33.436 66.3602 33.772C66.6482 34.108 67.0082 34.372 67.4402 34.564C67.8882 34.74 68.4002 34.828 68.9762 34.828ZM80.7604 38.5V21.988H88.1524L89.6644 27.796C89.7284 28.004 89.8164 28.348 89.9284 28.828C90.0564 29.308 90.1844 29.828 90.3124 30.388C90.4564 30.948 90.5844 31.468 90.6964 31.948H90.8884C90.9684 31.596 91.0644 31.18 91.1764 30.7C91.3044 30.204 91.4324 29.7 91.5604 29.188C91.6884 28.676 91.8004 28.212 91.8964 27.796L93.4084 21.988H100.536V38.5H95.4724V32.548C95.4724 31.908 95.4724 31.252 95.4724 30.58C95.4884 29.892 95.4964 29.244 95.4964 28.636C95.5124 28.028 95.5204 27.524 95.5204 27.124H95.3284C95.2804 27.444 95.2084 27.82 95.1124 28.252C95.0324 28.684 94.9444 29.116 94.8484 29.548C94.7524 29.964 94.6564 30.332 94.5604 30.652L92.4244 38.5H88.4644L86.3044 30.652C86.2244 30.332 86.1284 29.964 86.0164 29.548C85.9204 29.116 85.8324 28.684 85.7524 28.252C85.6724 27.82 85.6004 27.452 85.5364 27.148H85.3444C85.3604 27.548 85.3764 28.052 85.3924 28.66C85.4084 29.268 85.4164 29.908 85.4164 30.58C85.4324 31.252 85.4404 31.908 85.4404 32.548V38.5H80.7604ZM104.081 38.5V21.988H109.385V38.5H104.081ZM112.94 38.5V21.988H117.452L122.588 27.916C122.732 28.076 122.924 28.308 123.164 28.612C123.404 28.916 123.644 29.228 123.884 29.548C124.14 29.852 124.332 30.1 124.46 30.292L124.58 30.244C124.564 29.796 124.556 29.356 124.556 28.924C124.556 28.476 124.556 28.14 124.556 27.916V21.988H129.38V38.5H124.892L119.108 31.9C118.836 31.58 118.604 31.292 118.412 31.036C118.22 30.764 118.036 30.508 117.86 30.268L117.74 30.316C117.756 30.62 117.764 30.924 117.764 31.228C117.764 31.532 117.764 31.756 117.764 31.9V38.5H112.94ZM140.468 38.788C137.716 38.788 135.652 38.068 134.276 36.628C132.916 35.188 132.236 33.06 132.236 30.244C132.236 28.356 132.588 26.78 133.292 25.516C133.996 24.252 135.02 23.3 136.364 22.66C137.708 22.02 139.332 21.7 141.236 21.7C142.388 21.7 143.468 21.836 144.476 22.108C145.5 22.364 146.396 22.756 147.164 23.284C147.948 23.796 148.556 24.444 148.988 25.228C149.42 26.012 149.636 26.924 149.636 27.964H144.572C144.572 27.612 144.484 27.292 144.308 27.004C144.148 26.716 143.924 26.476 143.636 26.284C143.348 26.076 143.012 25.924 142.628 25.828C142.26 25.716 141.868 25.66 141.452 25.66C140.828 25.66 140.276 25.748 139.796 25.924C139.316 26.084 138.916 26.332 138.596 26.668C138.292 27.004 138.06 27.404 137.9 27.868C137.74 28.332 137.66 28.868 137.66 29.476V31.012C137.66 31.812 137.796 32.5 138.068 33.076C138.356 33.636 138.78 34.068 139.34 34.372C139.916 34.676 140.62 34.828 141.452 34.828C142.012 34.828 142.524 34.748 142.988 34.588C143.468 34.412 143.852 34.164 144.14 33.844C144.428 33.524 144.572 33.156 144.572 32.74V32.644H140.828V29.284H149.636V38.5H146.9L146.372 36.868C145.876 37.284 145.332 37.636 144.74 37.924C144.148 38.212 143.5 38.428 142.796 38.572C142.092 38.716 141.316 38.788 140.468 38.788ZM161.132 38.788C159.26 38.788 157.66 38.468 156.332 37.828C155.004 37.188 153.988 36.236 153.284 34.972C152.58 33.692 152.228 32.116 152.228 30.244C152.228 28.356 152.58 26.78 153.284 25.516C153.988 24.252 155.004 23.3 156.332 22.66C157.66 22.02 159.26 21.7 161.132 21.7C163.02 21.7 164.628 22.02 165.956 22.66C167.284 23.3 168.3 24.252 169.004 25.516C169.708 26.78 170.06 28.356 170.06 30.244C170.06 32.116 169.708 33.692 169.004 34.972C168.3 36.236 167.284 37.188 165.956 37.828C164.628 38.468 163.02 38.788 161.132 38.788ZM161.132 34.828C161.708 34.828 162.212 34.74 162.644 34.564C163.092 34.372 163.46 34.108 163.748 33.772C164.052 33.436 164.276 33.036 164.42 32.572C164.564 32.092 164.636 31.572 164.636 31.012V29.476C164.636 28.916 164.564 28.404 164.42 27.94C164.276 27.46 164.052 27.052 163.748 26.716C163.46 26.38 163.092 26.124 162.644 25.948C162.212 25.756 161.708 25.66 161.132 25.66C160.556 25.66 160.044 25.756 159.596 25.948C159.164 26.124 158.804 26.38 158.516 26.716C158.228 27.052 158.012 27.46 157.868 27.94C157.724 28.404 157.652 28.916 157.652 29.476V31.012C157.652 31.572 157.724 32.092 157.868 32.572C158.012 33.036 158.228 33.436 158.516 33.772C158.804 34.108 159.164 34.372 159.596 34.564C160.044 34.74 160.556 34.828 161.132 34.828Z" fill="#6C91C2"/>
</svg>
